<svg width="250" height="164" viewBox="0 0 250 164" fill="none" xmlns="http://www.w3.org/2000/svg">
<path d="M111.645 160.079C115.285 162.626 119.788 163.623 124.164 162.851C128.539 162.078 132.429 159.599 134.976 155.959C135.415 155.336 135.726 154.631 135.891 153.887C136.057 153.143 136.074 152.373 135.941 151.623C135.808 150.872 135.528 150.155 135.118 149.512C134.707 148.87 134.173 148.315 133.548 147.88L120.13 133.745L150.751 155.176C151.92 155.998 153.241 156.581 154.636 156.891C156.031 157.201 157.474 157.233 158.882 156.985C160.289 156.736 161.634 156.212 162.839 155.442C164.043 154.672 165.084 153.673 165.901 152.5C166.72 151.329 167.301 150.009 167.61 148.614C167.918 147.219 167.949 145.777 167.701 144.37C167.452 142.963 166.929 141.619 166.161 140.414C165.393 139.21 164.396 138.168 163.225 137.349L137.145 113.379L176.127 140.671C177.297 141.493 178.617 142.076 180.013 142.386C181.408 142.696 182.851 142.728 184.258 142.479C185.666 142.231 187.011 141.707 188.215 140.937C189.42 140.167 190.461 139.167 191.278 137.995C192.097 136.824 192.678 135.504 192.986 134.109C193.295 132.714 193.326 131.272 193.078 129.865C192.829 128.458 192.306 127.114 191.538 125.909C190.77 124.705 189.772 123.663 188.602 122.844L154.036 93.3044L196.565 123.076C197.735 123.898 199.055 124.481 200.45 124.791C201.846 125.102 203.288 125.133 204.696 124.885C206.104 124.636 207.448 124.112 208.653 123.342C209.858 122.573 210.898 121.573 211.716 120.4C212.535 119.229 213.115 117.909 213.424 116.514C213.733 115.119 213.764 113.677 213.515 112.27C213.267 110.864 212.744 109.519 211.976 108.315C211.208 107.11 210.21 106.068 209.039 105.249L26.8264 21.2866L1.68178 61.3279C-1.13946 65.6795 -0.370691 71.5758 3.68348 75.0425L60.1518 123.424C62.7265 125.629 65.4027 127.711 68.1804 129.654L111.645 160.079Z" fill="#EF9645"/>
<path d="M208.64 97.8585L126.671 38.743L126.243 38.1628L126.628 37.5826L127.012 37.1982L133.206 40.5997C140.154 45.0962 156.03 51.7396 168.062 51.7396C176.293 51.7396 181.225 48.6572 182.697 42.6231C183.145 39.9558 182.517 37.2199 180.951 35.0148C179.385 32.8098 177.008 31.3155 174.342 30.8595C167.065 29.7733 160.123 27.0695 154.028 22.947L150.003 20.2418C145.477 17.1884 140.35 13.729 136.564 11.4952C131.85 8.63768 126.722 7.25244 120.877 7.25244C112.203 7.25244 103.391 10.313 94.8762 13.2721L85.6944 16.4342C81.7323 17.7692 77.575 18.4335 73.3941 18.3996C62.1962 18.3996 51.2376 14.1496 40.6416 10.0447L39.5755 9.62403C37.3947 8.78891 34.9916 8.73736 32.777 9.47819C30.5624 10.219 28.674 11.7062 27.4347 13.6855L2.29014 53.7413C1.00998 55.7375 0.493638 58.1288 0.836095 60.4754C1.17855 62.8219 2.35678 64.9659 4.15405 66.513L60.6151 114.902C63.168 117.085 65.8515 119.167 68.5929 121.081L113.305 152.383C114.865 153.476 116.626 154.252 118.486 154.664C120.346 155.077 122.269 155.119 124.145 154.788C126.022 154.458 127.815 153.761 129.421 152.737C131.028 151.713 132.418 150.383 133.51 148.822C134.39 147.56 134.734 146.001 134.467 144.486C134.201 142.971 133.346 141.622 132.089 140.736L118.795 131.431C118.448 131.186 118.155 130.872 117.934 130.509C117.714 130.146 117.572 129.741 117.516 129.32C117.46 128.899 117.492 128.471 117.61 128.062C117.728 127.654 117.929 127.275 118.2 126.949C118.692 126.358 119.388 125.974 120.15 125.874C120.912 125.773 121.684 125.962 122.313 126.405L151.17 146.603C153.377 148.147 156.106 148.752 158.758 148.284C161.411 147.817 163.768 146.314 165.313 144.108C166.857 141.902 167.462 139.172 166.994 136.52C166.527 133.868 165.024 131.51 162.818 129.966L135.81 111.065C135.462 110.821 135.169 110.507 134.949 110.144C134.729 109.781 134.586 109.376 134.53 108.955C134.474 108.534 134.506 108.105 134.624 107.697C134.742 107.289 134.943 106.91 135.215 106.583C135.708 105.994 136.404 105.612 137.165 105.511C137.926 105.41 138.698 105.599 139.327 106.039L176.547 132.098C177.64 132.863 178.872 133.405 180.174 133.693C181.476 133.982 182.822 134.011 184.135 133.779C185.448 133.548 186.703 133.06 187.828 132.343C188.952 131.626 189.925 130.695 190.69 129.603C191.454 128.51 191.996 127.278 192.285 125.976C192.574 124.674 192.603 123.328 192.371 122.015C192.139 120.702 191.651 119.447 190.935 118.322C190.218 117.198 189.287 116.225 188.195 115.46L152.889 90.751C152.539 90.5089 152.243 90.196 152.021 89.8325C151.799 89.4689 151.655 89.0629 151.6 88.6405C151.545 88.2181 151.579 87.7888 151.699 87.3803C151.82 86.9718 152.026 86.5932 152.302 86.2689C152.742 85.7437 153.364 85.403 154.043 85.3144C154.723 85.2257 155.411 85.3956 155.972 85.7903L196.992 114.503C198.085 115.268 199.318 115.81 200.62 116.098C201.923 116.387 203.269 116.416 204.583 116.184C205.896 115.952 207.151 115.463 208.276 114.746C209.401 114.029 210.373 113.098 211.138 112.005C211.903 110.912 212.445 109.679 212.733 108.376C213.022 107.074 213.051 105.728 212.819 104.414C212.587 103.101 212.098 101.845 211.381 100.721C210.664 99.5959 209.733 98.6233 208.64 97.8585Z" fill="#FFDC5D"/>
<path d="M112.428 142.657C111.92 144.594 110.926 146.269 109.606 147.596L102.325 154.82C100.991 156.169 99.3266 157.144 97.4976 157.648C95.6687 158.152 93.7395 158.167 91.9029 157.692C90.0488 157.209 88.355 156.245 86.9929 154.898C85.6309 153.55 84.6488 151.867 84.1462 150.018C83.6435 148.169 83.638 146.22 84.1302 144.369C84.6225 142.517 85.595 140.828 86.9494 139.473L94.231 132.25C95.5647 130.901 97.2292 129.925 99.0582 129.421C100.887 128.917 102.816 128.902 104.653 129.378C107.443 130.111 109.829 131.92 111.286 134.41C112.744 136.899 113.154 139.865 112.428 142.657ZM35.9568 106.967L46.8573 96.1103C48.1037 94.8654 49.0292 93.3366 49.5541 91.655C50.0791 89.9735 50.1879 88.1897 49.8711 86.4568C49.5544 84.724 48.8216 83.094 47.7357 81.7069C46.6498 80.3199 45.2434 79.2172 43.6372 78.4938C41.6251 77.5889 39.3849 77.3193 37.2155 77.721C35.0462 78.1227 33.051 79.1767 31.4964 80.7421L20.5959 91.5992C19.3497 92.8445 18.4246 94.3739 17.9002 96.0557C17.3757 97.7376 17.2676 99.5217 17.5851 101.255C17.9026 102.988 18.6361 104.617 19.7228 106.004C20.8094 107.391 22.2165 108.493 23.8232 109.216C25.8346 110.118 28.0732 110.386 30.2408 109.984C32.4084 109.583 34.4022 108.53 35.9568 106.967ZM73.699 107.344C74.7669 106.347 75.623 105.146 76.2163 103.811C76.8096 102.476 77.128 101.035 77.1524 99.5741C77.1768 98.1134 76.9067 96.6627 76.3583 95.3086C75.8098 93.9545 74.9943 92.7248 73.9603 91.6928C72.9263 90.6607 71.695 89.8475 70.3399 89.3016C68.9848 88.7557 67.5336 88.4884 66.073 88.5155C64.6123 88.5427 63.1721 88.8638 61.8382 89.4596C60.5043 90.0554 59.3041 90.9138 58.3091 91.9836L36.537 113.727C35.4691 114.724 34.613 115.926 34.0196 117.261C33.4263 118.596 33.108 120.036 33.0836 121.497C33.0592 122.958 33.3293 124.408 33.8777 125.763C34.4261 127.117 35.2417 128.346 36.2757 129.378C37.3097 130.41 38.541 131.224 39.8961 131.77C41.2512 132.315 42.7023 132.583 44.163 132.556C45.6237 132.528 47.0639 132.207 48.3978 131.612C49.7317 131.016 50.9319 130.157 51.9269 129.088L73.699 107.344ZM90.0172 129.102C91.4854 127.631 92.5014 125.77 92.945 123.739C93.3885 121.708 93.241 119.593 92.52 117.644C91.799 115.694 90.5346 113.992 88.8764 112.739C87.2183 111.486 85.2358 110.734 83.1636 110.572C81.5989 110.454 80.0272 110.678 78.558 111.229C77.0888 111.78 75.7574 112.645 74.6563 113.763L60.115 128.232C58.6445 129.703 57.6266 131.564 57.1817 133.596C56.7369 135.628 56.8838 137.745 57.605 139.696C58.3263 141.646 59.5917 143.35 61.2512 144.603C62.9108 145.857 64.895 146.609 66.9686 146.769C70.2686 147.03 73.3074 145.747 75.4759 143.578L90.0172 129.102ZM210.083 99.0983L214.631 95.1674L164.494 16.4773L75.5049 30.8736C74.0896 31.1126 72.7352 31.6281 71.5191 32.3905C70.303 33.153 69.249 34.1475 68.4173 35.3173C67.5855 36.4871 66.9924 37.8093 66.6716 39.2084C66.3509 40.6074 66.3089 42.056 66.548 43.4713C71.3202 63.0169 110.085 48.4973 127.143 39.1125L210.083 99.0983Z" fill="#EF9645"/>
<path d="M112.428 135.405C111.92 137.342 110.926 139.017 109.606 140.344L102.325 147.568C100.991 148.917 99.3266 149.892 97.4976 150.396C95.6687 150.9 93.7395 150.915 91.9029 150.44C90.0488 149.957 88.355 148.993 86.9929 147.646C85.6309 146.298 84.6488 144.615 84.1461 142.766C83.6435 140.917 83.638 138.969 84.1302 137.117C84.6224 135.265 85.595 133.577 86.9494 132.221L94.231 124.998C95.5647 123.649 97.2292 122.673 99.0582 122.169C100.887 121.665 102.816 121.65 104.653 122.126C107.443 122.859 109.829 124.668 111.286 127.158C112.744 129.648 113.154 132.614 112.428 135.405ZM35.9568 99.7155L46.8573 88.8585C48.1037 87.6136 49.0292 86.0847 49.5541 84.4032C50.0791 82.7217 50.1879 80.9379 49.8711 79.205C49.5544 77.4722 48.8216 75.8422 47.7357 74.4551C46.6498 73.0681 45.2434 71.9654 43.6372 71.242C41.6247 70.3391 39.385 70.0707 37.2161 70.4723C35.0472 70.8739 33.0522 71.9267 31.4964 73.4903L20.5959 84.3474C19.3497 85.5927 18.4246 87.1221 17.9002 88.8039C17.3757 90.4858 17.2676 92.2699 17.5851 94.0028C17.9026 95.7357 18.6361 97.3656 19.7228 98.7523C20.8094 100.139 22.2165 101.241 23.8232 101.964C25.8346 102.866 28.0732 103.134 30.2408 102.733C32.4084 102.331 34.4022 101.279 35.9568 99.7155ZM73.699 100.093C74.7669 99.0957 75.623 97.8939 76.2163 96.5588C76.8096 95.2238 77.128 93.783 77.1524 92.3223C77.1768 90.8615 76.9067 89.4109 76.3583 88.0568C75.8098 86.7027 74.9943 85.473 73.9603 84.4409C72.9263 83.4089 71.695 82.5957 70.3399 82.0498C68.9848 81.5039 67.5336 81.2366 66.073 81.2637C64.6123 81.2909 63.1721 81.6119 61.8382 82.2078C60.5043 82.8036 59.3041 83.662 58.3091 84.7318L36.537 106.475C35.4691 107.472 34.613 108.674 34.0196 110.009C33.4263 111.344 33.108 112.785 33.0836 114.245C33.0592 115.706 33.3293 117.157 33.8777 118.511C34.4261 119.865 35.2417 121.095 36.2757 122.127C37.3097 123.159 38.541 123.972 39.8961 124.518C41.2512 125.064 42.7023 125.331 44.163 125.304C45.6237 125.277 47.0639 124.956 48.3978 124.36C49.7317 123.764 50.9319 122.906 51.9269 121.836L73.699 100.093ZM90.0172 121.85C91.4854 120.379 92.5014 118.518 92.945 116.487C93.3885 114.457 93.241 112.341 92.52 110.392C91.799 108.443 90.5346 106.74 88.8764 105.487C87.2183 104.234 85.2358 103.482 83.1636 103.32C81.5989 103.202 80.0272 103.426 78.558 103.977C77.0888 104.528 75.7574 105.393 74.6563 106.511L60.115 120.98C58.6445 122.451 57.6266 124.313 57.1817 126.344C56.7368 128.376 56.8838 130.493 57.605 132.444C58.3263 134.395 59.5917 136.098 61.2512 137.351C62.9108 138.605 64.895 139.357 66.9686 139.518C70.2685 139.779 73.3074 138.495 75.4759 136.326L90.0172 121.85ZM246.36 67.7753C248.281 66.1156 249.536 63.8175 249.894 61.3049C250.253 58.7923 249.691 56.2348 248.311 54.1043L248.29 54.068L223.145 6.77412C221.817 4.6526 219.793 3.05851 217.42 2.2647C215.046 1.47088 212.471 1.5267 210.134 2.4226C195.687 8.01431 179.862 14.4401 164.501 9.21823L156.538 6.48402C142.41 1.58855 127.049 -4.14821 113.022 4.35177C107.982 7.31807 100.417 12.5689 95.5364 15.8108C89.5063 19.8381 82.6702 22.5013 75.5049 23.6145C74.0875 23.8491 72.7304 24.3616 71.5119 25.1228C70.2934 25.8839 69.2375 26.8786 68.4049 28.0495C67.5724 29.2204 66.9798 30.5445 66.6611 31.9454C66.3424 33.3463 66.3039 34.7964 66.548 36.2122C70.9938 54.4306 104.986 42.7975 123.393 33.536C124.542 32.9592 125.828 32.7089 127.109 32.8125C128.391 32.916 129.619 33.3695 130.661 34.1235L214.674 95.1609L246.36 67.7753Z" fill="#FFCC4D"/>
</svg>
