<svg width="90" height="19" viewBox="0 0 90 19" fill="none" xmlns="http://www.w3.org/2000/svg">
<rect width="90" height="19" rx="4" fill="#56C201"/>
<path d="M4.56 15C4.47467 15 4.39467 14.968 4.32 14.904C4.256 14.84 4.224 14.76 4.224 14.664C4.224 14.6213 4.23467 14.5733 4.256 14.52L8.112 4.2C8.144 4.09333 8.20267 4.00267 8.288 3.928C8.384 3.84267 8.512 3.8 8.672 3.8H10.416C10.576 3.8 10.6987 3.84267 10.784 3.928C10.8693 4.00267 10.9333 4.09333 10.976 4.2L14.832 14.52C14.8427 14.5733 14.848 14.6213 14.848 14.664C14.848 14.76 14.816 14.84 14.752 14.904C14.688 14.968 14.6133 15 14.528 15H13.136C12.9867 15 12.8747 14.968 12.8 14.904C12.736 14.8293 12.6933 14.76 12.672 14.696L11.92 12.744H7.168L6.416 14.696C6.39467 14.76 6.34667 14.8293 6.272 14.904C6.208 14.968 6.10133 15 5.952 15H4.56ZM7.728 10.904H11.36L9.536 5.96L7.728 10.904ZM16.7418 15C16.6244 15 16.5284 14.9627 16.4538 14.888C16.3791 14.8133 16.3418 14.7227 16.3418 14.616V4.2C16.3418 4.08267 16.3791 3.98667 16.4538 3.912C16.5284 3.83733 16.6244 3.8 16.7418 3.8H18.0058C18.1551 3.8 18.2671 3.84267 18.3418 3.928C18.4164 4.00267 18.4644 4.06133 18.4858 4.104L21.5738 9.864L24.6938 4.104C24.7151 4.06133 24.7631 4.00267 24.8378 3.928C24.9124 3.84267 25.0244 3.8 25.1738 3.8H26.4218C26.5391 3.8 26.6351 3.83733 26.7098 3.912C26.7844 3.98667 26.8218 4.08267 26.8218 4.2V14.616C26.8218 14.7227 26.7844 14.8133 26.7098 14.888C26.6351 14.9627 26.5391 15 26.4218 15H25.0778C24.9604 15 24.8644 14.9627 24.7898 14.888C24.7258 14.8133 24.6938 14.7227 24.6938 14.616V7.688L22.4538 11.96C22.4004 12.056 22.3311 12.1413 22.2458 12.216C22.1604 12.28 22.0484 12.312 21.9098 12.312H21.2538C21.1044 12.312 20.9871 12.28 20.9018 12.216C20.8271 12.1413 20.7631 12.056 20.7098 11.96L18.4698 7.688V14.616C18.4698 14.7227 18.4324 14.8133 18.3578 14.888C18.2831 14.9627 18.1924 15 18.0858 15H16.7418ZM29.6945 15C29.5878 15 29.4972 14.9627 29.4225 14.888C29.3478 14.8133 29.3105 14.7227 29.3105 14.616V4.184C29.3105 4.07733 29.3478 3.98667 29.4225 3.912C29.4972 3.83733 29.5878 3.8 29.6945 3.8H31.1985C31.3158 3.8 31.4065 3.83733 31.4705 3.912C31.5452 3.98667 31.5825 4.07733 31.5825 4.184V14.616C31.5825 14.7227 31.5452 14.8133 31.4705 14.888C31.4065 14.9627 31.3158 15 31.1985 15H29.6945ZM38.4438 15.16C37.4624 15.16 36.6251 14.9893 35.9318 14.648C35.2491 14.3067 34.7158 13.816 34.3318 13.176C33.9584 12.5253 33.7558 11.752 33.7238 10.856C33.7131 10.3973 33.7078 9.90667 33.7078 9.384C33.7078 8.85067 33.7131 8.34933 33.7238 7.88C33.7558 6.99467 33.9584 6.23733 34.3318 5.608C34.7158 4.97867 35.2544 4.49333 35.9478 4.152C36.6518 3.81067 37.4838 3.64 38.4438 3.64C39.2224 3.64 39.9051 3.74667 40.4918 3.96C41.0784 4.16267 41.5638 4.42933 41.9478 4.76C42.3424 5.08 42.6358 5.42667 42.8278 5.8C43.0304 6.17333 43.1371 6.52 43.1478 6.84C43.1584 6.936 43.1318 7.016 43.0678 7.08C43.0038 7.144 42.9184 7.176 42.8118 7.176H41.1638C41.0571 7.176 40.9771 7.15467 40.9237 7.112C40.8704 7.06933 40.8224 7.00533 40.7798 6.92C40.6944 6.696 40.5611 6.47733 40.3798 6.264C40.1984 6.04 39.9531 5.85333 39.6438 5.704C39.3344 5.55467 38.9344 5.48 38.4438 5.48C37.7184 5.48 37.1371 5.672 36.6998 6.056C36.2731 6.44 36.0438 7.07467 36.0118 7.96C35.9798 8.888 35.9798 9.82667 36.0118 10.776C36.0438 11.6827 36.2784 12.3333 36.7158 12.728C37.1638 13.1227 37.7504 13.32 38.4758 13.32C38.9558 13.32 39.3824 13.2347 39.7558 13.064C40.1398 12.8933 40.4384 12.6267 40.6518 12.264C40.8758 11.9013 40.9878 11.4373 40.9878 10.872V10.376H39.0358C38.9291 10.376 38.8384 10.3387 38.7638 10.264C38.6891 10.1893 38.6518 10.0933 38.6518 9.976V9.128C38.6518 9.01067 38.6891 8.91467 38.7638 8.84C38.8384 8.76533 38.9291 8.728 39.0358 8.728H42.8598C42.9771 8.728 43.0678 8.76533 43.1318 8.84C43.2064 8.91467 43.2438 9.01067 43.2438 9.128V10.808C43.2438 11.704 43.0464 12.4773 42.6518 13.128C42.2678 13.7787 41.7131 14.28 40.9878 14.632C40.2731 14.984 39.4251 15.16 38.4438 15.16ZM44.3725 15C44.2872 15 44.2072 14.968 44.1325 14.904C44.0685 14.84 44.0365 14.76 44.0365 14.664C44.0365 14.6213 44.0472 14.5733 44.0685 14.52L47.9245 4.2C47.9565 4.09333 48.0152 4.00267 48.1005 3.928C48.1965 3.84267 48.3245 3.8 48.4845 3.8H50.2285C50.3885 3.8 50.5112 3.84267 50.5965 3.928C50.6818 4.00267 50.7458 4.09333 50.7885 4.2L54.6445 14.52C54.6552 14.5733 54.6605 14.6213 54.6605 14.664C54.6605 14.76 54.6285 14.84 54.5645 14.904C54.5005 14.968 54.4258 15 54.3405 15H52.9485C52.7992 15 52.6872 14.968 52.6125 14.904C52.5485 14.8293 52.5058 14.76 52.4845 14.696L51.7325 12.744H46.9805L46.2285 14.696C46.2072 14.76 46.1592 14.8293 46.0845 14.904C46.0205 14.968 45.9138 15 45.7645 15H44.3725ZM47.5405 10.904H51.1725L49.3485 5.96L47.5405 10.904ZM56.5383 15C56.4316 15 56.3409 14.9627 56.2663 14.888C56.1916 14.8133 56.1543 14.7227 56.1543 14.616V4.2C56.1543 4.08267 56.1916 3.98667 56.2663 3.912C56.3409 3.83733 56.4316 3.8 56.5383 3.8H61.1783C62.0423 3.8 62.7463 3.93333 63.2903 4.2C63.8343 4.456 64.2343 4.81333 64.4903 5.272C64.7569 5.73067 64.8903 6.264 64.8903 6.872C64.8903 7.27733 64.8156 7.63467 64.6663 7.944C64.5276 8.24267 64.3516 8.488 64.1383 8.68C63.9356 8.872 63.7329 9.02133 63.5303 9.128C63.9463 9.32 64.3143 9.64 64.6343 10.088C64.9543 10.536 65.1143 11.0693 65.1143 11.688C65.1143 12.328 64.9703 12.8987 64.6823 13.4C64.3943 13.9013 63.9676 14.296 63.4023 14.584C62.8369 14.8613 62.1383 15 61.3063 15H56.5383ZM58.3783 13.304H61.0503C61.6263 13.304 62.0636 13.1493 62.3623 12.84C62.6609 12.52 62.8103 12.136 62.8103 11.688C62.8103 11.2187 62.6556 10.8293 62.3463 10.52C62.0476 10.2107 61.6156 10.056 61.0503 10.056H58.3783V13.304ZM58.3783 8.392H60.8903C61.4556 8.392 61.8769 8.25867 62.1543 7.992C62.4423 7.71467 62.5863 7.35733 62.5863 6.92C62.5863 6.472 62.4423 6.12533 62.1543 5.88C61.8769 5.624 61.4556 5.496 60.8903 5.496H58.3783V8.392ZM67.507 15C67.4003 15 67.3097 14.9627 67.235 14.888C67.1603 14.8133 67.123 14.7227 67.123 14.616V4.184C67.123 4.07733 67.1603 3.98667 67.235 3.912C67.3097 3.83733 67.4003 3.8 67.507 3.8H68.995C69.1017 3.8 69.1923 3.83733 69.267 3.912C69.3417 3.98667 69.379 4.07733 69.379 4.184V13.096H74.451C74.5683 13.096 74.6643 13.1333 74.739 13.208C74.8137 13.2827 74.851 13.3787 74.851 13.496V14.616C74.851 14.7227 74.8137 14.8133 74.739 14.888C74.6643 14.9627 74.5683 15 74.451 15H67.507ZM76.7883 15C76.6816 15 76.5909 14.9627 76.5163 14.888C76.4416 14.8133 76.4043 14.7227 76.4043 14.616V4.2C76.4043 4.08267 76.4416 3.98667 76.5163 3.912C76.5909 3.83733 76.6816 3.8 76.7883 3.8H83.8283C83.9456 3.8 84.0416 3.83733 84.1163 3.912C84.1909 3.98667 84.2283 4.08267 84.2283 4.2V5.256C84.2283 5.36267 84.1909 5.45333 84.1163 5.528C84.0416 5.60267 83.9456 5.64 83.8283 5.64H78.5643V8.472H83.4763C83.5936 8.472 83.6896 8.50933 83.7643 8.584C83.8389 8.648 83.8763 8.73867 83.8763 8.856V9.848C83.8763 9.96533 83.8389 10.0613 83.7643 10.136C83.6896 10.2 83.5936 10.232 83.4763 10.232H78.5643V13.16H83.9563C84.0736 13.16 84.1696 13.1973 84.2443 13.272C84.3189 13.3467 84.3563 13.4427 84.3563 13.56V14.616C84.3563 14.7227 84.3189 14.8133 84.2443 14.888C84.1696 14.9627 84.0736 15 83.9563 15H76.7883Z" fill="white"/>
</svg>
