<svg width="34" height="27" viewBox="0 0 34 27" fill="none" xmlns="http://www.w3.org/2000/svg">
<path fill-rule="evenodd" clip-rule="evenodd" d="M0 2C0 0.89543 0.951395 0 2.125 0H31.875C33.0486 0 34 0.89543 34 2C34 3.10457 33.0486 4 31.875 4H2.125C0.951395 4 0 3.10457 0 2ZM0 13.5C0 12.3954 0.951395 11.5 2.125 11.5H31.875C33.0486 11.5 34 12.3954 34 13.5C34 14.6045 33.0486 15.5 31.875 15.5H2.125C0.951395 15.5 0 14.6045 0 13.5ZM0 25C0 23.8954 0.951395 23 2.125 23H31.875C33.0486 23 34 23.8954 34 25C34 26.1046 33.0486 27 31.875 27H2.125C0.951395 27 0 26.1046 0 25Z" fill="#D37E17"/>
</svg>
