<svg width="70" height="72" viewBox="0 0 70 72" fill="none" xmlns="http://www.w3.org/2000/svg">
<rect width="70" height="72" rx="8" fill="#F3F3F3"/>
<path d="M26.527 61.5183H23.4206C21.8508 61.5192 20.3151 60.953 19.0024 59.8894C17.6896 58.8258 16.6571 57.3112 16.032 55.532C15.4068 53.7528 15.2161 51.7865 15.4835 49.8752C15.7509 47.9638 16.4646 46.1907 17.5369 44.7741L19.9666 41.5533C21.1397 39.9999 21.7788 37.9443 21.7493 35.8199C21.7197 33.6955 21.0237 31.6683 19.808 30.1657L17.421 27.2161C17.1434 26.8609 16.9897 26.3851 16.9932 25.8913C16.9967 25.3974 17.157 24.925 17.4396 24.5758C17.7222 24.2266 18.1045 24.0285 18.5042 24.0242C18.9038 24.0199 19.2889 24.2098 19.5763 24.5529L21.9603 27.5024C23.7345 29.6955 24.7502 32.6541 24.7934 35.7546C24.8367 38.855 23.904 41.8551 22.192 44.1224L19.7623 47.3432C19.0978 48.2244 18.6559 49.3261 18.4907 50.5132C18.3255 51.7002 18.4441 52.921 18.8322 54.026C19.2202 55.1309 19.8607 56.0719 20.6752 56.7337C21.4897 57.3954 22.4428 57.7491 23.4175 57.7513H24.9509C24.9448 56.9829 24.9479 56.0185 24.9753 54.9186C25.0546 52.0557 25.3107 48.202 26.0423 44.3183C26.774 40.4571 27.9995 36.4151 30.0969 33.3036C31.9656 30.5311 34.5051 28.5384 37.8463 28.075V17.0151C37.8487 14.8315 38.552 12.7381 39.8019 11.1944C41.0518 9.65061 42.7462 8.78251 44.5135 8.78052C46.0621 8.78052 47.3181 10.3363 47.3181 12.2537V14.0731H50.9063C52.9183 14.0731 54.781 15.3577 55.8419 17.471L57.168 20.1154C59.4879 24.745 56.9607 30.678 52.6714 31.0585V55.6644C52.6714 58.8965 50.5526 61.5183 47.937 61.5183H46.2511V55.6644C46.2515 54.3745 46.0463 53.097 45.647 51.9051C45.2478 50.7132 44.6625 49.6301 43.9244 48.7178C43.1864 47.8055 42.3101 47.0818 41.3457 46.588C40.3812 46.0943 39.3475 45.8401 38.3036 45.8401H35.627C35.2227 45.8401 34.835 46.0386 34.5491 46.3918C34.2633 46.745 34.1027 47.2241 34.1027 47.7236C34.1027 48.2232 34.2633 48.7022 34.5491 49.0554C34.835 49.4087 35.2227 49.6071 35.627 49.6071H38.3036C41.0076 49.6071 43.2026 52.3193 43.2026 55.6644V61.5183H26.527Z" fill="#BFBFBF"/>
</svg>
