<svg width="296" height="32" viewBox="0 0 296 32" fill="none" xmlns="http://www.w3.org/2000/svg">
<rect x="39" width="29.6913" height="32" rx="8" fill="#BFBFBF"/>
<path d="M50.9336 23.6858C50.6669 23.6858 50.4669 23.6458 50.3336 23.5658C50.2002 23.4992 50.1069 23.3992 50.0536 23.2658C50.0136 23.1325 49.9936 22.9725 49.9936 22.7858V10.6458C49.9936 10.4458 50.0136 10.2792 50.0536 10.1458C50.0936 10.0125 50.1736 9.91251 50.2936 9.84584C50.4269 9.76584 50.6269 9.72584 50.8936 9.72584C51.1602 9.72584 51.3536 9.76584 51.4736 9.84584C51.6069 9.91251 51.6936 10.0125 51.7336 10.1458C51.7736 10.2792 51.7936 10.4392 51.7936 10.6258V22.0058H58.4936C58.6669 22.0058 58.8136 22.0258 58.9336 22.0658C59.0536 22.1058 59.1469 22.1858 59.2136 22.3058C59.2936 22.4258 59.3336 22.6058 59.3336 22.8458C59.3336 23.0725 59.3002 23.2525 59.2336 23.3858C59.1669 23.5058 59.0736 23.5858 58.9536 23.6258C58.8336 23.6658 58.6869 23.6858 58.5136 23.6858H50.9336Z" fill="#F3F3F3"/>
<rect x="114.77" width="29.6913" height="32" rx="8" fill="#BFBFBF"/>
<path d="M124.491 23.6858C124.251 23.6858 124.065 23.6458 123.931 23.5658C123.811 23.4858 123.725 23.3792 123.671 23.2458C123.618 23.0992 123.591 22.9392 123.591 22.7658V10.6058C123.591 10.4325 123.618 10.2858 123.671 10.1658C123.725 10.0325 123.818 9.92584 123.951 9.84584C124.085 9.76584 124.278 9.72584 124.531 9.72584C124.731 9.72584 124.891 9.73917 125.011 9.76584C125.131 9.79251 125.225 9.83251 125.291 9.88584C125.371 9.92584 125.451 9.99251 125.531 10.0858L130.751 17.6458H130.131L135.411 10.0258C135.491 9.93251 135.571 9.86584 135.651 9.82584C135.731 9.78584 135.831 9.75917 135.951 9.74584C136.085 9.73251 136.238 9.72584 136.411 9.72584C136.665 9.72584 136.851 9.76584 136.971 9.84584C137.105 9.92584 137.198 10.0392 137.251 10.1858C137.305 10.3192 137.331 10.4725 137.331 10.6458V22.8058C137.331 22.9658 137.305 23.1125 137.251 23.2458C137.198 23.3792 137.105 23.4858 136.971 23.5658C136.838 23.6458 136.645 23.6858 136.391 23.6858C136.151 23.6858 135.965 23.6458 135.831 23.5658C135.711 23.4858 135.625 23.3792 135.571 23.2458C135.531 23.0992 135.511 22.9392 135.511 22.7658V12.7258L131.231 19.0258C131.191 19.0925 131.138 19.1592 131.071 19.2258C131.005 19.2792 130.918 19.3258 130.811 19.3658C130.718 19.4058 130.598 19.4258 130.451 19.4258C130.291 19.4258 130.165 19.4058 130.071 19.3658C129.991 19.3258 129.918 19.2792 129.851 19.2258C129.785 19.1592 129.718 19.0858 129.651 19.0058L125.391 12.7458V22.8058C125.391 22.9658 125.365 23.1125 125.311 23.2458C125.271 23.3792 125.185 23.4858 125.051 23.5658C124.931 23.6458 124.745 23.6858 124.491 23.6858Z" fill="#F3F3F3"/>
<rect x="190.539" width="29.6913" height="32" rx="8" fill="#BFBFBF"/>
<path d="M206.237 23.6858C205.997 23.6858 205.797 23.6458 205.637 23.5658C205.49 23.4992 205.377 23.3792 205.297 23.2058L200.237 10.8458C200.104 10.5258 200.077 10.2992 200.157 10.1658C200.25 10.0325 200.444 9.89251 200.737 9.74584C200.924 9.65251 201.084 9.60584 201.217 9.60584C201.364 9.59251 201.49 9.63251 201.597 9.72584C201.717 9.80584 201.817 9.94584 201.897 10.1458L206.237 21.1658L210.557 10.3258C210.637 10.1125 210.724 9.94584 210.817 9.82584C210.924 9.69251 211.057 9.61917 211.217 9.60584C211.377 9.57917 211.577 9.63251 211.817 9.76584C212.19 9.93917 212.377 10.1325 212.377 10.3458C212.377 10.5458 212.324 10.7725 212.217 11.0258L207.177 23.1858C207.11 23.3458 206.997 23.4658 206.837 23.5458C206.677 23.6392 206.477 23.6858 206.237 23.6858Z" fill="#F3F3F3"/>
<rect x="76.8848" width="29.6913" height="32" rx="8" fill="#BFBFBF"/>
<path d="M86.6068 23.6858C86.3668 23.6858 86.1802 23.6458 86.0468 23.5658C85.9268 23.4858 85.8402 23.3792 85.7868 23.2458C85.7335 23.0992 85.7068 22.9392 85.7068 22.7658V10.6058C85.7068 10.4325 85.7335 10.2858 85.7868 10.1658C85.8402 10.0325 85.9335 9.92584 86.0668 9.84584C86.2002 9.76584 86.3935 9.72584 86.6468 9.72584C86.8468 9.72584 87.0068 9.73917 87.1268 9.76584C87.2468 9.79251 87.3402 9.83251 87.4068 9.88584C87.4868 9.92584 87.5668 9.99251 87.6468 10.0858L92.8668 17.6458H92.2468L97.5268 10.0258C97.6068 9.93251 97.6868 9.86584 97.7668 9.82584C97.8468 9.78584 97.9468 9.75917 98.0668 9.74584C98.2002 9.73251 98.3535 9.72584 98.5268 9.72584C98.7802 9.72584 98.9668 9.76584 99.0868 9.84584C99.2202 9.92584 99.3135 10.0392 99.3668 10.1858C99.4202 10.3192 99.4468 10.4725 99.4468 10.6458V22.8058C99.4468 22.9658 99.4202 23.1125 99.3668 23.2458C99.3135 23.3792 99.2202 23.4858 99.0868 23.5658C98.9535 23.6458 98.7602 23.6858 98.5068 23.6858C98.2668 23.6858 98.0802 23.6458 97.9468 23.5658C97.8268 23.4858 97.7402 23.3792 97.6868 23.2458C97.6468 23.0992 97.6268 22.9392 97.6268 22.7658V12.7258L93.3468 19.0258C93.3068 19.0925 93.2535 19.1592 93.1868 19.2258C93.1202 19.2792 93.0335 19.3258 92.9268 19.3658C92.8335 19.4058 92.7135 19.4258 92.5668 19.4258C92.4068 19.4258 92.2802 19.4058 92.1868 19.3658C92.1068 19.3258 92.0335 19.2792 91.9668 19.2258C91.9002 19.1592 91.8335 19.0858 91.7668 19.0058L87.5068 12.7458V22.8058C87.5068 22.9658 87.4802 23.1125 87.4268 23.2458C87.3868 23.3792 87.3002 23.4858 87.1668 23.5658C87.0468 23.6458 86.8602 23.6858 86.6068 23.6858Z" fill="#F3F3F3"/>
<rect x="152.654" width="29.6913" height="32" rx="8" fill="#BFBFBF"/>
<path d="M167.799 23.7458C167.413 23.7458 167.033 23.6992 166.659 23.6058C166.299 23.5125 165.966 23.3925 165.659 23.2458C165.353 23.0992 165.079 22.9392 164.839 22.7658C164.599 22.5925 164.399 22.4258 164.239 22.2658C164.093 22.1192 163.966 21.9858 163.859 21.8658C163.766 21.7458 163.719 21.6325 163.719 21.5258C163.719 21.4058 163.759 21.2858 163.839 21.1658C163.919 21.0325 164.006 20.9192 164.099 20.8258C164.246 20.6792 164.366 20.5858 164.459 20.5458C164.566 20.4925 164.666 20.4658 164.759 20.4658C164.946 20.4658 165.093 20.5258 165.199 20.6458C165.319 20.7658 165.493 20.9325 165.719 21.1458C165.853 21.2392 166.026 21.3525 166.239 21.4858C166.453 21.6192 166.699 21.7392 166.979 21.8458C167.259 21.9392 167.559 21.9858 167.879 21.9858C168.319 21.9858 168.699 21.9058 169.019 21.7458C169.339 21.5858 169.599 21.3592 169.799 21.0658C170.013 20.7725 170.173 20.4325 170.279 20.0458C170.386 19.6458 170.439 19.2192 170.439 18.7658V10.7858C170.439 10.5725 170.459 10.3858 170.499 10.2258C170.539 10.0658 170.626 9.94584 170.759 9.86584C170.906 9.77251 171.113 9.72584 171.379 9.72584C171.633 9.72584 171.819 9.76584 171.939 9.84584C172.059 9.91251 172.139 10.0192 172.179 10.1658C172.219 10.2992 172.239 10.4592 172.239 10.6458V18.9258C172.239 19.6325 172.139 20.2792 171.939 20.8658C171.753 21.4525 171.473 21.9592 171.099 22.3858C170.726 22.8125 170.259 23.1458 169.699 23.3858C169.153 23.6258 168.519 23.7458 167.799 23.7458Z" fill="#F3F3F3"/>
<rect x="228.424" width="29.6913" height="32" rx="8" fill="#494537"/>
<path d="M243.577 23.8858C243.07 23.8858 242.59 23.8258 242.137 23.7058C241.697 23.5858 241.29 23.4258 240.917 23.2258C240.557 23.0125 240.237 22.7792 239.957 22.5258C239.677 22.2725 239.457 22.0192 239.297 21.7658C239.15 21.5525 239.057 21.3792 239.017 21.2458C238.977 21.0992 238.983 20.9592 239.037 20.8258C239.103 20.6925 239.23 20.5458 239.417 20.3858C239.63 20.2258 239.817 20.1525 239.977 20.1658C240.137 20.1658 240.283 20.2258 240.417 20.3458C240.563 20.4658 240.71 20.6258 240.857 20.8258C241.19 21.2792 241.597 21.6125 242.077 21.8258C242.557 22.0258 243.03 22.1258 243.497 22.1258C244.097 22.1258 244.63 22.0458 245.097 21.8858C245.563 21.7258 245.93 21.4858 246.197 21.1658C246.477 20.8325 246.617 20.4058 246.617 19.8858C246.617 19.4592 246.51 19.0992 246.297 18.8058C246.083 18.5125 245.797 18.2658 245.437 18.0658C245.077 17.8525 244.677 17.6725 244.237 17.5258C243.797 17.3658 243.35 17.2125 242.897 17.0658C242.537 16.9458 242.183 16.8125 241.837 16.6658C241.49 16.5058 241.163 16.3325 240.857 16.1458C240.55 15.9458 240.277 15.7125 240.037 15.4458C239.81 15.1792 239.63 14.8658 239.497 14.5058C239.377 14.1458 239.317 13.7258 239.317 13.2458C239.317 12.5125 239.49 11.8658 239.837 11.3058C240.197 10.7458 240.697 10.3125 241.337 10.0058C241.977 9.68584 242.717 9.52584 243.557 9.52584C244.05 9.52584 244.503 9.57251 244.917 9.66584C245.33 9.75917 245.697 9.88584 246.017 10.0458C246.337 10.1925 246.61 10.3525 246.837 10.5258C247.063 10.6858 247.237 10.8392 247.357 10.9858C247.597 11.2392 247.73 11.4525 247.757 11.6258C247.783 11.7992 247.683 12.0125 247.457 12.2658C247.243 12.5058 247.037 12.6325 246.837 12.6458C246.637 12.6592 246.417 12.5658 246.177 12.3658C245.923 12.0725 245.657 11.8458 245.377 11.6858C245.11 11.5258 244.823 11.4192 244.517 11.3658C244.223 11.2992 243.897 11.2658 243.537 11.2658C243.19 11.2658 242.863 11.3125 242.557 11.4058C242.263 11.4858 242.003 11.6125 241.777 11.7858C241.563 11.9592 241.397 12.1725 241.277 12.4258C241.157 12.6658 241.097 12.9458 241.097 13.2658C241.097 13.6258 241.19 13.9325 241.377 14.1858C241.577 14.4392 241.837 14.6592 242.157 14.8458C242.477 15.0192 242.837 15.1792 243.237 15.3258C243.637 15.4592 244.057 15.5925 244.497 15.7258C244.977 15.8725 245.45 16.0525 245.917 16.2658C246.383 16.4658 246.803 16.7192 247.177 17.0258C247.55 17.3192 247.85 17.6925 248.077 18.1458C248.303 18.5992 248.417 19.1592 248.417 19.8258C248.417 20.4925 248.283 21.0792 248.017 21.5858C247.763 22.0925 247.41 22.5192 246.957 22.8658C246.503 23.1992 245.983 23.4525 245.397 23.6258C244.823 23.7992 244.217 23.8858 243.577 23.8858Z" fill="#F3F3F3"/>
<rect x="266.309" width="29.6913" height="32" rx="8" fill="#494537"/>
<path d="M276.835 23.6858C276.608 23.6858 276.428 23.6458 276.295 23.5658C276.175 23.4858 276.088 23.3792 276.035 23.2458C275.982 23.0992 275.955 22.9392 275.955 22.7658V10.6058C275.955 10.4325 275.975 10.2792 276.015 10.1458C276.068 10.0125 276.162 9.90584 276.295 9.82584C276.428 9.74584 276.615 9.70584 276.855 9.70584L280.795 9.72584C281.782 9.72584 282.675 9.89251 283.475 10.2258C284.288 10.5458 284.982 11.0058 285.555 11.6058C286.128 12.2058 286.568 12.9325 286.875 13.7858C287.182 14.6392 287.335 15.5858 287.335 16.6258C287.335 17.7058 287.182 18.6792 286.875 19.5458C286.568 20.4125 286.122 21.1525 285.535 21.7658C284.962 22.3792 284.268 22.8525 283.455 23.1858C282.642 23.5192 281.735 23.6858 280.735 23.6858H276.835ZM277.755 21.8658H280.795C281.768 21.8658 282.608 21.6592 283.315 21.2458C284.022 20.8192 284.568 20.2258 284.955 19.4658C285.342 18.6925 285.535 17.7792 285.535 16.7258C285.535 15.6592 285.342 14.7392 284.955 13.9658C284.568 13.1925 284.015 12.5992 283.295 12.1858C282.588 11.7592 281.748 11.5458 280.775 11.5458H277.755V21.8658Z" fill="#F3F3F3"/>
<g clip-path="url(#clip0_93_624)">
<path d="M11.5 21.2C11.138 21.2 10.8343 21.0704 10.5889 20.8112C10.3436 20.552 10.2214 20.2316 10.2222 19.85C10.2222 19.4675 10.3449 19.1467 10.5902 18.8875C10.8356 18.6283 11.1388 18.4991 11.5 18.5C11.862 18.5 12.1657 18.6296 12.4111 18.8888C12.6564 19.148 12.7786 19.4684 12.7778 19.85C12.7778 20.2325 12.6551 20.5534 12.4098 20.8126C12.1644 21.0718 11.8612 21.2009 11.5 21.2ZM6.38889 21.2C6.02685 21.2 5.72317 21.0704 5.47784 20.8112C5.2325 20.552 5.11026 20.2316 5.11111 19.85C5.11111 19.4675 5.23378 19.1467 5.47911 18.8875C5.72445 18.6283 6.02771 18.4991 6.38889 18.5C6.75093 18.5 7.05461 18.6296 7.29995 18.8888C7.54528 19.148 7.66752 19.4684 7.66667 19.85C7.66667 20.2325 7.544 20.5534 7.29867 20.8126C7.05333 21.0718 6.75008 21.2009 6.38889 21.2ZM16.6111 21.2C16.2491 21.2 15.9454 21.0704 15.7001 20.8112C15.4547 20.552 15.3325 20.2316 15.3333 19.85C15.3333 19.4675 15.456 19.1467 15.7013 18.8875C15.9467 18.6283 16.2499 18.4991 16.6111 18.5C16.9731 18.5 17.2768 18.6296 17.5222 18.8888C17.7675 19.148 17.8897 19.4684 17.8889 19.85C17.8889 20.2325 17.7662 20.5534 17.5209 20.8126C17.2756 21.0718 16.9723 21.2009 16.6111 21.2ZM11.5 26.6C11.138 26.6 10.8343 26.4704 10.5889 26.2112C10.3436 25.952 10.2214 25.6316 10.2222 25.25C10.2222 24.8675 10.3449 24.5467 10.5902 24.2875C10.8356 24.0283 11.1388 23.8991 11.5 23.9C11.862 23.9 12.1657 24.0296 12.4111 24.2888C12.6564 24.548 12.7786 24.8684 12.7778 25.25C12.7778 25.6325 12.6551 25.9533 12.4098 26.2125C12.1644 26.4717 11.8612 26.6009 11.5 26.6ZM6.38889 26.6C6.02685 26.6 5.72317 26.4704 5.47784 26.2112C5.2325 25.952 5.11026 25.6316 5.11111 25.25C5.11111 24.8675 5.23378 24.5467 5.47911 24.2875C5.72445 24.0283 6.02771 23.8991 6.38889 23.9C6.75093 23.9 7.05461 24.0296 7.29995 24.2888C7.54528 24.548 7.66752 24.8684 7.66667 25.25C7.66667 25.6325 7.544 25.9533 7.29867 26.2125C7.05333 26.4717 6.75008 26.6009 6.38889 26.6ZM16.6111 26.6C16.2491 26.6 15.9454 26.4704 15.7001 26.2112C15.4547 25.952 15.3325 25.6316 15.3333 25.25C15.3333 24.8675 15.456 24.5467 15.7013 24.2875C15.9467 24.0283 16.2499 23.8991 16.6111 23.9C16.9731 23.9 17.2768 24.0296 17.5222 24.2888C17.7675 24.548 17.8897 24.8684 17.8889 25.25C17.8889 25.6325 17.7662 25.9533 17.5209 26.2125C17.2756 26.4717 16.9723 26.6009 16.6111 26.6ZM2.55556 32C1.85278 32 1.25095 31.7354 0.750057 31.2062C0.249169 30.677 -0.000849682 30.0416 2.1694e-06 29.3V10.4C2.1694e-06 9.6575 0.250447 9.02165 0.751335 8.49245C1.25222 7.96325 1.85363 7.6991 2.55556 7.7H3.83333V6.35C3.83333 5.9675 3.956 5.64665 4.20133 5.38745C4.44667 5.12825 4.74993 4.9991 5.11111 5C5.47315 5 5.77683 5.1296 6.02217 5.3888C6.2675 5.648 6.38974 5.9684 6.38889 6.35V7.7H16.6111V6.35C16.6111 5.9675 16.7338 5.64665 16.9791 5.38745C17.2244 5.12825 17.5277 4.9991 17.8889 5C18.2509 5 18.5546 5.1296 18.7999 5.3888C19.0453 5.648 19.1675 5.9684 19.1667 6.35V7.7H20.4444C21.1472 7.7 21.7491 7.9646 22.2499 8.4938C22.7508 9.023 23.0009 9.6584 23 10.4V29.3C23 30.0425 22.7496 30.6783 22.2487 31.2075C21.7478 31.7367 21.1464 32.0009 20.4444 32H2.55556ZM2.55556 29.3H20.4444V15.8H2.55556V29.3Z" fill="#494537"/>
</g>
<defs>
<clipPath id="clip0_93_624">
<rect width="23" height="32" fill="white"/>
</clipPath>
</defs>
</svg>
