<svg width="70" height="72" viewBox="0 0 70 72" fill="none" xmlns="http://www.w3.org/2000/svg">
<rect width="70" height="72" rx="8" fill="#494537"/>
<path d="M39.2683 10.5364C38.2823 10.5364 36.8362 10.8283 35.5933 11.7472C34.2787 12.7245 33.2927 14.3379 33.2927 16.6827V20.5334C33.3029 21.0702 33.4649 21.5924 33.7588 22.0362C34.0396 22.4388 34.5237 22.8352 35.5305 22.8352C36.5374 22.8352 37.0215 22.4388 37.3023 22.0362C37.5967 21.5926 37.7587 21.0703 37.7684 20.5334C37.7684 20.1259 37.9258 19.735 38.206 19.4469C38.4861 19.1587 38.8661 18.9968 39.2623 18.9968C39.6585 18.9968 40.0385 19.1587 40.3187 19.4469C40.5988 19.735 40.7562 20.1259 40.7562 20.5334C40.7562 21.4215 40.5112 22.7154 39.7284 23.8309C38.8918 25.0295 37.5115 25.9084 35.5305 25.9084C34.5744 25.9084 33.7528 25.7025 33.0686 25.3552C32.6413 28.7726 31.3954 33.3639 27.7533 37.107C24.5085 40.4475 22.916 44.584 22.1332 47.8109C21.7155 49.5401 21.4555 51.3056 21.3564 53.0844C21.3511 53.1971 21.3471 53.3097 21.3444 53.4225V53.5177L21.3415 53.5485V53.5608C21.3415 53.5761 21.3415 53.6069 21.3355 53.6499C21.3003 54.1816 21.1653 54.7013 20.9381 55.1803C20.754 55.5798 20.4705 55.9223 20.1165 56.173C19.7579 56.4188 19.2141 56.6339 18.3537 56.6339C17.0995 56.6339 15.8771 56.228 14.8597 55.4738C13.8422 54.7195 13.0813 53.6551 12.6847 52.4312C12.2881 51.2074 12.2759 49.8863 12.6499 48.655C13.0238 47.4236 13.7649 46.3445 14.7683 45.5705C14.9252 45.4492 15.0574 45.2974 15.1573 45.1235C15.2572 44.9497 15.3228 44.7574 15.3504 44.5575C15.378 44.3576 15.3671 44.154 15.3182 43.9585C15.2693 43.7629 15.1835 43.5792 15.0656 43.4178C14.9477 43.2563 14.8 43.1204 14.631 43.0176C14.462 42.9149 14.275 42.8474 14.0807 42.819C13.8863 42.7906 13.6884 42.8019 13.4983 42.8522C13.3082 42.9024 13.1296 42.9907 12.9726 43.112C11.4674 44.2732 10.3556 45.8921 9.79474 47.7394C9.23389 49.5867 9.25241 51.5687 9.8477 53.4045C10.443 55.2404 11.5848 56.837 13.1115 57.9682C14.6381 59.0994 16.4721 59.7078 18.3537 59.7071H42.2561V58.1705C42.2561 56.9259 41.6944 54.956 40.066 54.0771C39.355 53.714 38.5679 53.5367 37.7744 53.5608H34.7866C34.3904 53.5608 34.0104 53.3989 33.7302 53.1107C33.4501 52.8225 33.2927 52.4317 33.2927 52.0242C33.2927 51.6167 33.4501 51.2258 33.7302 50.9376C34.0104 50.6495 34.3904 50.4876 34.7866 50.4876H37.7744C38.3002 50.4876 38.7962 50.5306 39.2683 50.6105V42.8047C39.2683 42.3971 39.4257 42.0063 39.7058 41.7181C39.986 41.43 40.366 41.2681 40.7622 41.2681C41.1584 41.2681 41.5384 41.43 41.8185 41.7181C42.0987 42.0063 42.2561 42.3971 42.2561 42.8047V51.8644C44.6165 53.6161 45.2439 56.5294 45.2439 58.1705V59.7071H52.7134C53.1096 59.7071 53.4896 59.5452 53.7698 59.2571C54.0499 58.9689 54.2073 58.578 54.2073 58.1705C54.2073 55.4969 53.3229 53.4901 51.8021 52.1871C50.7742 51.335 49.5397 50.7878 48.2317 50.6044V25.9022H49.7256C50.9142 25.9022 52.0542 25.4166 52.8946 24.5521C53.7351 23.6876 54.2073 22.5151 54.2073 21.2925V17.5524C54.2072 17.0221 54.0737 16.5009 53.8198 16.0394C53.5659 15.5779 53.2002 15.1918 52.7582 14.9187L47.431 11.6304C46.2702 10.9144 44.9421 10.5363 43.5887 10.5364H39.2683Z" fill="#FFFDEA"/>
</svg>
