<svg width="32" height="33" viewBox="0 0 32 33" fill="none" xmlns="http://www.w3.org/2000/svg">
<path d="M15.717 5.87468C8.4535 5.68742 6.10141 11.3105 5.92164 13.4203C5.78181 15.0608 5.07768 21.0609 8.49845 25.0909C10.2638 27.1708 13.0928 28.207 16.0916 28.1371C19.1153 28.0672 21.8469 27.4655 23.6847 25.0435C26.7783 20.966 26.4487 14.8735 26.0293 12.9035C25.6347 11.0708 24.1041 6.08942 15.717 5.87468Z" fill="#FFEAC8"/>
<path d="M23.9717 16.9765C24.2289 18.9266 23.3824 20.7868 21.1527 20.9191C19.1127 21.0415 17.8543 19.7406 17.7544 17.8255C17.652 15.8629 18.7257 14.0376 20.4311 13.8504C22.2314 13.6531 23.717 15.0264 23.9717 16.9765Z" fill="#D27856"/>
<path d="M4.51585 7.56054C4.51585 7.56054 2.06139 8.52186 1.46963 9.95009C0.673111 11.8727 1.04016 15.688 1.46963 17.1687C1.8916 18.6219 3.01521 20.1225 4.75056 20.0751C6.48592 20.0276 8.00903 18.2698 8.54587 15.9751C9.0852 13.678 9.20255 9.74284 9.36485 9.03872C9.52715 8.33459 9.8093 7.77278 9.8093 7.77278C9.8093 7.77278 7.65447 5.68537 4.51585 7.56054Z" fill="#D27856"/>
<path d="M25.0679 7.2555C25.0679 7.2555 28.3963 7.37285 29.1928 7.72492C29.9893 8.07698 30.7159 9.67001 30.646 11.8024C30.5761 13.9347 30.4363 17.383 29.3576 18.574C28.4662 19.5578 26.6634 19.6277 25.6547 18.4092C24.6459 17.1907 24.0142 15.1283 23.7795 13.7924C23.5448 12.4566 23.1478 10.7237 22.8881 9.94966C22.6309 9.17562 21.9967 7.63004 21.6696 7.27797C21.34 6.9284 21.9967 6.59881 25.0679 7.2555Z" fill="#D27856"/>
<path d="M7.28 6.45913C5.47473 6.34427 2.49842 7.7725 1.88917 9.24818C1.27993 10.7238 1.63698 15.5129 2.14885 16.9112C2.68818 18.3869 3.81179 20.2396 5.75689 18.6465C7.70198 17.0535 8.21634 13.046 8.40611 11.7576C8.59337 10.4692 8.85056 8.89861 9.13271 8.57151C9.41486 8.24442 9.81187 7.775 9.81187 7.775C9.81187 7.775 9.50724 6.59895 7.28 6.45913Z" fill="#865B51"/>
<path d="M25.4649 6.15506C27.1603 6.27242 29.0031 6.90413 29.6822 8.3823C30.3614 9.85798 30.1042 13.3512 29.847 15.0141C29.5898 16.677 28.9806 18.4124 27.4575 18.2251C25.9344 18.0379 25.1603 15.9754 24.6934 14.0303C24.224 12.0852 23.7321 10.1401 23.1228 8.73437C22.7558 7.88542 21.4824 7.2587 21.4824 7.2587C21.4824 7.2587 22.0442 5.92035 25.4649 6.15506Z" fill="#865B51"/>
<path d="M12.4061 17.79C12.3063 18.644 11.8668 19.3331 10.913 19.2333C10.2363 19.1608 9.78189 18.3543 9.88176 17.4979C9.98164 16.644 10.2788 16.0297 11.0778 16.0447C12.3187 16.0672 12.506 16.9336 12.4061 17.79Z" fill="#2F2F2F"/>
<path d="M22.204 17.5503C22.2439 18.4092 21.9043 19.1433 20.9131 19.2157C20.0516 19.2782 19.6097 18.5316 19.5722 17.6726C19.5323 16.8137 19.9592 16.1246 20.7807 16.0222C21.8469 15.8849 22.164 16.6914 22.204 17.5503Z" fill="#2F2F2F"/>
<path d="M18.5535 21.8799C18.5934 22.7389 18.0142 23.5429 16.2089 23.5204C14.4511 23.4979 13.8119 22.7863 13.7719 21.9274C13.732 21.0684 14.7307 20.2969 16.1615 20.2644C18.1315 20.2145 18.5135 21.0185 18.5535 21.8799Z" fill="#2F2F2F"/>
<path d="M14.5684 25.3479C14.5684 25.3479 14.7807 27.3878 14.9904 27.9971C15.4348 29.2855 17.3075 29.0708 17.6396 27.8573C17.9218 26.826 17.7345 25.0457 17.7345 25.0457L16.0716 24.811L14.5684 25.3479Z" fill="#E94B8C"/>
<path d="M16.2663 26.0271C15.9742 26.0396 15.9842 26.3092 15.9842 26.9285C15.9842 27.5502 16.0191 27.9247 16.3013 27.9122C16.5834 27.8998 16.5485 27.4204 16.5485 26.9759C16.5485 26.5315 16.5709 26.0146 16.2663 26.0271Z" fill="#EF87B2"/>
<path d="M12.3187 23.4132C11.9816 23.9101 12.6358 24.3496 13.1752 24.7141C13.7145 25.0762 14.3687 25.628 15.1427 25.6155C16.0092 25.603 16.2439 25.0187 16.2439 25.0187C16.2439 25.0187 16.526 25.7104 17.7545 25.5806C18.4112 25.5106 19.2202 24.774 19.4649 24.6093C19.9343 24.2921 20.4961 23.8951 20.2489 23.5655C19.9668 23.1885 19.37 23.6954 18.7607 24.01C18.1515 24.3271 17.9418 24.4794 17.4848 24.4794C17.0279 24.4794 16.7108 24.2921 16.6883 23.5306C16.6683 22.9089 16.6758 22.7915 16.6758 22.7915H15.6321C15.6321 22.7915 15.6671 23.4482 15.6671 23.6355C15.6671 24.1273 15.4099 24.3396 14.918 24.3621C14.4261 24.3845 13.8993 23.975 13.6396 23.8227C13.3849 23.6729 12.5884 23.0162 12.3187 23.4132Z" fill="#2F2F30"/>
</svg>
