<svg width="70" height="72" viewBox="0 0 70 72" fill="none" xmlns="http://www.w3.org/2000/svg">
<rect width="70" height="72" rx="8" fill="#F3F3F3"/>
<path d="M39.2682 10.5364C38.2823 10.5364 36.8362 10.8283 35.5932 11.7472C34.2786 12.7245 33.2926 14.3379 33.2926 16.6827V20.5334C33.3029 21.0702 33.4648 21.5924 33.7587 22.0362C34.0396 22.4388 34.5236 22.8352 35.5305 22.8352C36.5374 22.8352 37.0214 22.4388 37.3023 22.0362C37.5966 21.5926 37.7586 21.0703 37.7684 20.5334C37.7684 20.1259 37.9258 19.735 38.2059 19.4469C38.4861 19.1587 38.8661 18.9968 39.2623 18.9968C39.6585 18.9968 40.0385 19.1587 40.3186 19.4469C40.5988 19.735 40.7562 20.1259 40.7562 20.5334C40.7562 21.4215 40.5112 22.7154 39.7284 23.8309C38.8918 25.0295 37.5114 25.9084 35.5305 25.9084C34.5744 25.9084 33.7528 25.7025 33.0686 25.3552C32.6413 28.7726 31.3954 33.3639 27.7532 37.107C24.5085 40.4475 22.916 44.584 22.1332 47.8109C21.7155 49.5401 21.4554 51.3056 21.3564 53.0844C21.3511 53.1971 21.3471 53.3097 21.3444 53.4225V53.5177L21.3414 53.5485V53.5608C21.3414 53.5761 21.3414 53.6069 21.3354 53.6499C21.3002 54.1816 21.1653 54.7013 20.9381 55.1803C20.7539 55.5798 20.4705 55.9223 20.1164 56.173C19.7579 56.4188 19.2141 56.6339 18.3536 56.6339C17.0994 56.6339 15.8771 56.228 14.8596 55.4738C13.8422 54.7195 13.0813 53.6551 12.6846 52.4312C12.288 51.2074 12.2759 49.8863 12.6498 48.655C13.0238 47.4236 13.7649 46.3445 14.7682 45.5705C14.9252 45.4492 15.0574 45.2974 15.1573 45.1235C15.2571 44.9497 15.3227 44.7574 15.3504 44.5575C15.378 44.3576 15.367 44.154 15.3181 43.9585C15.2693 43.7629 15.1834 43.5792 15.0655 43.4178C14.9476 43.2563 14.8 43.1204 14.631 43.0176C14.462 42.9149 14.275 42.8474 14.0806 42.819C13.8863 42.7906 13.6884 42.8019 13.4983 42.8522C13.3082 42.9024 13.1295 42.9907 12.9726 43.112C11.4674 44.2732 10.3556 45.8921 9.7947 47.7394C9.23384 49.5867 9.25237 51.5687 9.84765 53.4045C10.4429 55.2404 11.5848 56.837 13.1114 57.9682C14.6381 59.0994 16.4721 59.7078 18.3536 59.7071H42.256V58.1705C42.256 56.9259 41.6943 54.956 40.066 54.0771C39.3549 53.714 38.5679 53.5367 37.7743 53.5608H34.7865C34.3903 53.5608 34.0103 53.3989 33.7302 53.1107C33.45 52.8225 33.2926 52.4317 33.2926 52.0242C33.2926 51.6167 33.45 51.2258 33.7302 50.9376C34.0103 50.6495 34.3903 50.4876 34.7865 50.4876H37.7743C38.3002 50.4876 38.7962 50.5306 39.2682 50.6105V42.8047C39.2682 42.3971 39.4256 42.0063 39.7058 41.7181C39.986 41.43 40.3659 41.2681 40.7621 41.2681C41.1584 41.2681 41.5383 41.43 41.8185 41.7181C42.0987 42.0063 42.256 42.3971 42.256 42.8047V51.8644C44.6164 53.6161 45.2439 56.5294 45.2439 58.1705V59.7071H52.7134C53.1096 59.7071 53.4896 59.5452 53.7697 59.2571C54.0499 58.9689 54.2073 58.578 54.2073 58.1705C54.2073 55.4969 53.3229 53.4901 51.8021 52.1871C50.7742 51.3351 49.5397 50.7878 48.2317 50.6044V25.9022H49.7256C50.9142 25.9022 52.0541 25.4166 52.8946 24.5521C53.7351 23.6876 54.2073 22.5151 54.2073 21.2925V17.5524C54.2072 17.0221 54.0737 16.5009 53.8197 16.0394C53.5658 15.5779 53.2001 15.1918 52.7582 14.9187L47.4309 11.6304C46.2702 10.9144 44.9421 10.5363 43.5886 10.5364H39.2682Z" fill="#BFBFBF"/>
</svg>
