<svg width="26" height="34" viewBox="0 0 26 34" fill="none" xmlns="http://www.w3.org/2000/svg">
<circle cx="13" cy="13" r="13" fill="#7A4504"/>
<path d="M13.576 18.176C13.224 18.176 12.9787 18.1067 12.84 17.968C12.7013 17.8187 12.632 17.5627 12.632 17.2V7.92C12.632 7.568 12.7013 7.32267 12.84 7.184C12.9787 7.04533 13.2293 6.976 13.592 6.976C13.944 6.976 14.1893 7.05067 14.328 7.2C14.4667 7.33867 14.536 7.58933 14.536 7.952V17.216C14.536 17.568 14.4667 17.8187 14.328 17.968C14.1893 18.1067 13.9387 18.176 13.576 18.176ZM11.112 11.152C10.8667 11.376 10.648 11.488 10.456 11.488C10.264 11.4773 10.0507 11.344 9.816 11.088C9.592 10.8427 9.48533 10.6133 9.496 10.4C9.51733 10.1867 9.66667 9.95733 9.944 9.712L12.68 7.296C12.9253 7.08267 13.144 6.98667 13.336 7.008C13.5387 7.01867 13.752 7.14667 13.976 7.392C14.2107 7.63733 14.3173 7.86667 14.296 8.08C14.2747 8.29333 14.12 8.52267 13.832 8.768L11.112 11.152Z" fill="white"/>
<line x1="14" y1="22" x2="14" y2="34" stroke="#7A4504" stroke-width="4"/>
</svg>
