<svg width="48" height="50" viewBox="0 0 48 50" fill="none" xmlns="http://www.w3.org/2000/svg">
<path d="M23.9239 49.9997C37.1367 49.9997 47.8479 39.2886 47.8479 26.0758C47.8479 12.863 37.1367 2.15186 23.9239 2.15186C10.7111 2.15186 0 12.863 0 26.0758C0 39.2886 10.7111 49.9997 23.9239 49.9997Z" fill="#D68F30"/>
<path d="M1.62662 32.2915V34.7356C1.87687 35.3821 2.15631 36.0202 2.46078 36.6375V32.2915H1.62662Z" fill="#BC6F00"/>
<path d="M4.3544 36.8911V39.8274C4.68807 40.2987 5.03425 40.7616 5.39711 41.2079V36.8911H4.3544Z" fill="#BC6F00"/>
<path d="M7.96634 40.728V43.8937C8.37091 44.2566 8.78799 44.6027 9.21759 44.9364V40.728H7.96634Z" fill="#BC6F00"/>
<path d="M12.4125 43.6445V47.0479C12.8212 47.2732 13.2383 47.4859 13.6637 47.6902V43.6445H12.4125Z" fill="#BC6F00"/>
<path d="M17.4549 45.5005V49.1041C17.8678 49.2209 18.2849 49.3251 18.7062 49.4211V45.5005H17.4549Z" fill="#BC6F00"/>
<path d="M23.3567 46.1421V49.9834C23.5444 49.9876 23.7321 49.9959 23.9239 49.9959C24.1533 49.9959 24.3827 49.9834 24.6079 49.9793V46.1421H23.3567Z" fill="#BC6F00"/>
<path d="M29.2585 45.4697V49.3903C29.6797 49.2944 30.0968 49.1859 30.5097 49.0692V45.4697H29.2585Z" fill="#BC6F00"/>
<path d="M34.2884 43.5884V47.6383C34.7138 47.4339 35.1309 47.2128 35.5397 46.9834V43.5884H34.2884Z" fill="#BC6F00"/>
<path d="M38.7221 40.6489V44.8615C39.1517 44.5236 39.5688 44.1775 39.9733 43.8104V40.6489H38.7221Z" fill="#BC6F00"/>
<path d="M43.5644 36.7983H42.5217V41.1152C42.8845 40.6647 43.2349 40.2017 43.5644 39.7263V36.7983Z" fill="#BC6F00"/>
<path d="M46.2754 32.1821H45.4412V36.5365C45.7457 35.9067 46.0251 35.2602 46.2754 34.6054V32.1821Z" fill="#BC6F00"/>
<path d="M23.9239 47.8479C37.1367 47.8479 47.8479 37.1367 47.8479 23.9239C47.8479 10.7111 37.1367 0 23.9239 0C10.7111 0 0 10.7111 0 23.9239C0 37.1367 10.7111 47.8479 23.9239 47.8479Z" fill="#FFF176"/>
<path d="M23.924 45.7161C35.9597 45.7161 45.7166 35.9592 45.7166 23.9235C45.7166 11.8877 35.9597 2.13086 23.924 2.13086C11.8882 2.13086 2.13135 11.8877 2.13135 23.9235C2.13135 35.9592 11.8882 45.7161 23.924 45.7161Z" fill="#F2BC1A"/>
<path d="M2.08956 24.7598C1.93524 21.8903 2.43157 18.979 3.43257 16.2513C4.47528 13.5319 6.07271 11.0169 8.08722 8.88143C12.1329 4.60215 18.0055 2.1205 23.9239 2.09131C29.8423 2.12468 35.719 4.60215 39.7564 8.8856C41.7751 11.0169 43.3683 13.5361 44.411 16.2513C45.4162 18.9832 45.9125 21.8903 45.754 24.7598H45.6706C45.6623 21.9028 45.0951 19.0541 44.0023 16.4181C42.9137 13.7822 41.2996 11.3631 39.2934 9.34022C37.2831 7.31737 34.8765 5.69074 32.2447 4.59381C29.6171 3.49271 26.7684 2.92548 23.9197 2.92548C21.071 2.92548 18.2224 3.49271 15.5947 4.59381C12.9629 5.69074 10.5564 7.31737 8.54601 9.34022C6.53567 11.3631 4.92573 13.7822 3.83714 16.4181C2.74438 19.0541 2.17715 21.9028 2.16881 24.7598H2.08956Z" fill="#E08F00"/>
<path d="M23.9239 0.00390625C10.7107 0.00390625 0 10.7146 0 23.9278C0 37.141 10.7107 47.8518 23.9239 47.8518C37.1371 47.8518 47.8479 37.141 47.8479 23.9278C47.8479 10.7146 37.1371 0.00390625 23.9239 0.00390625ZM23.9239 45.7205C11.8869 45.7205 2.1313 35.9649 2.1313 23.9278C2.1313 11.8866 11.8869 2.13103 23.9239 2.13103C35.961 2.13103 45.7166 11.8866 45.7166 23.9237C45.7166 35.9607 35.961 45.7205 23.9239 45.7205Z" fill="#FFF176"/>
<path d="M13.0755 7.20996L13.6052 8.8491L15.3319 8.19011V8.8491L13.9347 9.86261L14.4686 10.8386V11.5018L13.0755 10.4882L11.6783 11.5018V10.8386L12.2121 9.86261L10.8191 8.8491V8.19011L12.5416 8.8491L13.0755 7.20996Z" fill="#D38200"/>
<path d="M6.41051 16.6216L6.94437 18.2607L8.66693 17.6017V18.2607L7.27387 19.2742L7.80774 20.2544V20.9134L6.41051 19.8999L5.01745 20.9134V20.2544L5.55131 19.2742L4.15408 18.2607V17.6017L5.88081 18.2607L6.41051 16.6216Z" fill="#D38200"/>
<path d="M6.21455 28.2202L6.74842 29.8594L8.47098 29.2004V29.8594L7.07792 30.8729L7.61178 31.853V32.512L6.21455 31.4985L4.82149 32.512V31.853L5.35536 30.8729L3.95813 29.8594V29.2004L5.68486 29.8594L6.21455 28.2202Z" fill="#D38200"/>
<path d="M13.33 37.4292L13.8638 39.0683L15.5864 38.4093V39.0683L14.1933 40.0819L14.7272 41.0578V41.721L13.33 40.7075L11.9369 41.721V41.0578L12.4708 40.0819L11.0735 39.0683V38.4093L12.8003 39.0683L13.33 37.4292Z" fill="#D38200"/>
<path d="M34.7723 7.20996L34.2426 8.8491L32.5159 8.19011V8.8491L33.9131 9.86261L33.3793 10.8386V11.5018L34.7723 10.4882L36.1696 11.5018V10.8386L35.6357 9.86261L37.0287 8.8491V8.19011L35.3062 8.8491L34.7723 7.20996Z" fill="#D38200"/>
<path d="M41.4373 16.6216L40.9035 18.2607L39.1809 17.6017V18.2607L40.574 19.2742L40.0401 20.2544V20.9134L41.4373 19.8999L42.8304 20.9134V20.2544L42.2965 19.2742L43.6938 18.2607V17.6017L41.967 18.2607L41.4373 16.6216Z" fill="#D38200"/>
<path d="M41.6333 28.2202L41.0994 29.8594L39.3769 29.2004V29.8594L40.7699 30.8729L40.2361 31.853V32.512L41.6333 31.4985L43.0263 32.512V31.853L42.4925 30.8729L43.8897 29.8594V29.2004L42.163 29.8594L41.6333 28.2202Z" fill="#D38200"/>
<path d="M34.5179 37.4292L33.984 39.0683L32.2614 38.4093V39.0683L33.6545 40.0819L33.1206 41.0578V41.721L34.5179 40.7075L35.9109 41.721V41.0578L35.3771 40.0819L36.7743 39.0683V38.4093L35.0476 39.0683L34.5179 37.4292Z" fill="#D38200"/>
<path d="M34.5179 36.7656L35.0476 38.4048H36.7743L35.3771 39.4183L35.9109 41.0574L34.5179 40.0439L33.1206 41.0574L33.6545 39.4183L32.2614 38.4048H33.984L34.5179 36.7656Z" fill="#FFF176"/>
<path d="M41.6333 27.5605L42.163 29.1997H43.8897L42.4925 30.2132L43.0263 31.8523L41.6333 30.8388L40.2361 31.8523L40.7699 30.2132L39.3769 29.1997H41.0994L41.6333 27.5605Z" fill="#FFF176"/>
<path d="M41.4373 15.9624L41.967 17.6015H43.6938L42.2965 18.6151L42.8304 20.2542L41.4373 19.2407L40.0401 20.2542L40.574 18.6151L39.1809 17.6015H40.9035L41.4373 15.9624Z" fill="#FFF176"/>
<path d="M34.7723 6.54834L35.3062 8.18748H37.0287L35.6357 9.20099L36.1696 10.8401L34.7723 9.82662L33.3793 10.8401L33.9131 9.20099L32.5159 8.18748H34.2426L34.7723 6.54834Z" fill="#FFF176"/>
<path d="M23.9448 41.0591L24.4787 42.6982L26.2013 42.0392V42.6982L24.8082 43.7117L25.3421 44.6919V45.3509L23.9448 44.3374L22.5518 45.3509V44.6919L23.0856 43.7117L21.6884 42.6982V42.0392L23.4151 42.6982L23.9448 41.0591Z" fill="#D38200"/>
<path d="M23.9448 40.1816L24.4787 41.8208H26.2013L24.8082 42.8343L25.3421 44.4734L23.9448 43.4599L22.5518 44.4734L23.0856 42.8343L21.6884 41.8208H23.4151L23.9448 40.1816Z" fill="#FFF176"/>
<path d="M23.9448 3.68311L24.4787 5.32224L26.2013 4.66325V5.32224L24.8082 6.33576L25.3421 7.31591V7.9749L23.9448 6.96138L22.5518 7.9749V7.31591L23.0856 6.33576L21.6884 5.32224V4.66325L23.4151 5.32224L23.9448 3.68311Z" fill="#D38200"/>
<path d="M23.9448 3.02441L24.4787 4.66355H26.2013L24.8082 5.67707L25.3421 7.31621L23.9448 6.30269L22.5518 7.31621L23.0856 5.67707L21.6884 4.66355H23.4151L23.9448 3.02441Z" fill="#FFF176"/>
<path d="M13.33 36.7656L12.8003 38.4048H11.0735L12.4708 39.4183L11.9369 41.0574L13.33 40.0439L14.7272 41.0574L14.1933 39.4183L15.5864 38.4048H13.8638L13.33 36.7656Z" fill="#FFF176"/>
<path d="M6.21455 27.5605L5.68486 29.1997H3.95813L5.35536 30.2132L4.82149 31.8523L6.21455 30.8388L7.61178 31.8523L7.07792 30.2132L8.47098 29.1997H6.74842L6.21455 27.5605Z" fill="#FFF176"/>
<path d="M6.41051 15.9624L5.88081 17.6015H4.15408L5.55131 18.6151L5.01745 20.2542L6.41051 19.2407L7.80774 20.2542L7.27387 18.6151L8.66693 17.6015H6.94437L6.41051 15.9624Z" fill="#FFF176"/>
<path d="M13.0755 6.54834L12.5416 8.18748H10.8191L12.2121 9.20099L11.6783 10.8401L13.0755 9.82662L14.4686 10.8401L13.9347 9.20099L15.3319 8.18748H13.6052L13.0755 6.54834Z" fill="#FFF176"/>
<path d="M36.9452 18.4096C36.9452 18.2636 10.9275 18.4096 10.9275 18.4096L10.694 19.1103V20.3073C10.694 20.5242 10.8691 20.6994 11.086 20.6994H24.0115H36.7617C36.9786 20.6994 37.1538 20.5242 37.1538 20.3073V19.1437L36.9452 18.4096Z" fill="#D38200"/>
<path d="M36.9827 33.9663H11.036L9.3009 34.838L9.32176 35.96C9.32593 36.0809 9.42603 36.181 9.55115 36.181H38.3007C38.4217 36.181 38.526 36.0851 38.5301 35.96L38.551 34.8589L36.9827 33.9663Z" fill="#D38200"/>
<path d="M15.2194 30.5564H13.7262C13.4801 30.5564 13.2799 29.7806 13.2799 29.5345L15.6615 29.4595C15.6615 29.7056 15.4613 30.5564 15.2194 30.5564Z" fill="#D38200"/>
<path d="M15.7283 22.5012H13.2132C13.0256 22.5012 12.8629 22.3761 12.8087 22.1968L12.6126 20.5576H16.2955L16.1287 22.1968C16.0786 22.3761 15.9159 22.5012 15.7283 22.5012Z" fill="#D38200"/>
<path d="M13.2132 31.0527H15.7282C15.9159 31.0527 16.2871 31.1695 16.3371 31.3489C16.3371 31.3489 16.3246 32.1288 16.3246 32.4375C16.3246 32.7461 16.1995 32.9713 15.92 32.9713H13.0213C12.7419 32.9713 12.6167 32.7211 12.6167 32.4375C12.6167 32.1538 12.6042 31.3572 12.6042 31.3572C12.6584 31.1779 13.0255 31.0527 13.2132 31.0527Z" fill="#D38200"/>
<path d="M34.6137 30.5564H33.1206C32.8745 30.5564 32.6743 29.7806 32.6743 29.5345L35.0558 29.4595C35.0558 29.7056 34.8598 30.5564 34.6137 30.5564Z" fill="#D38200"/>
<path d="M35.1226 22.5012H32.6076C32.4199 22.5012 32.2572 22.3761 32.203 22.1968L32.007 20.5576H35.6898L35.523 22.1968C35.473 22.3761 35.3103 22.5012 35.1226 22.5012Z" fill="#D38200"/>
<path d="M32.6077 31.0527H35.1227C35.3104 31.0527 35.6816 31.1695 35.7316 31.3489C35.7316 31.3489 35.7191 32.1288 35.7191 32.4375C35.7191 32.7461 35.594 32.9713 35.3145 32.9713H32.4158C32.1364 32.9713 32.0112 32.7211 32.0112 32.4375C32.0112 32.1538 31.9987 31.3572 31.9987 31.3572C32.0529 31.1779 32.42 31.0527 32.6077 31.0527Z" fill="#D38200"/>
<path d="M28.149 30.5564H26.6559C26.4098 30.5564 26.2096 29.7806 26.2096 29.5345L28.5911 29.4595C28.5911 29.7056 28.3951 30.5564 28.149 30.5564Z" fill="#D38200"/>
<path d="M28.6578 22.5012H26.1427C25.9551 22.5012 25.7924 22.3761 25.7382 22.1968L25.5421 20.5576H29.225L29.0582 22.1968C29.0081 22.3761 28.8454 22.5012 28.6578 22.5012Z" fill="#D38200"/>
<path d="M26.1428 31.0527H28.6578C28.8455 31.0527 29.2167 31.1695 29.2668 31.3489C29.2668 31.3489 29.2543 32.1288 29.2543 32.4375C29.2543 32.7461 29.1291 32.9713 28.8497 32.9713H25.951C25.6715 32.9713 25.5464 32.7211 25.5464 32.4375C25.5464 32.1538 25.5339 31.3572 25.5339 31.3572C25.5881 31.1779 25.9551 31.0527 26.1428 31.0527Z" fill="#D38200"/>
<path d="M21.6842 30.5564H20.191C19.945 30.5564 19.7448 29.7806 19.7448 29.5345L22.1263 29.4595C22.1263 29.7056 21.9303 30.5564 21.6842 30.5564Z" fill="#D38200"/>
<path d="M22.1931 22.5012H19.6781C19.4904 22.5012 19.3277 22.3761 19.2735 22.1968L19.0775 20.5576H22.7603L22.5935 22.1968C22.5435 22.3761 22.3808 22.5012 22.1931 22.5012Z" fill="#D38200"/>
<path d="M19.678 31.0527H22.193C22.3807 31.0527 22.7519 31.1695 22.802 31.3489C22.802 31.3489 22.7894 32.1288 22.7894 32.4375C22.7894 32.7461 22.6643 32.9713 22.3849 32.9713H19.4861C19.2067 32.9713 19.0816 32.7211 19.0816 32.4375C19.0816 32.1538 19.0691 31.3572 19.0691 31.3572C19.1233 31.1779 19.4903 31.0527 19.678 31.0527Z" fill="#D38200"/>
<path d="M37.1329 17.2938C37.1329 17.1478 37.0578 17.0102 36.9452 16.9434L23.9405 9.56104L10.9192 16.9351C10.7941 17.0102 10.7148 17.1478 10.7148 17.2938L10.694 19.1164C10.694 19.3458 10.8817 19.5335 11.1111 19.5335H36.7325C36.9619 19.5335 37.1496 19.3458 37.1496 19.1164L37.1329 17.2938Z" fill="#FFF176"/>
<path d="M33.8671 16.797L23.9239 11.1538L13.9806 16.797H33.8671Z" fill="#F2BC1A"/>
<path d="M30.2095 16.1088L23.924 12.5386L17.6385 16.1088H30.2095Z" fill="#FFF176"/>
<path d="M36.182 32.5161H11.6658C11.4239 32.5161 11.1945 32.6204 11.0318 32.7997L9.3468 34.6808C9.23002 34.8101 9.32178 35.0144 9.49695 35.0144H38.3508C38.5218 35.0144 38.6136 34.8101 38.501 34.6808L36.8118 32.7997C36.6533 32.6204 36.4197 32.5161 36.182 32.5161Z" fill="#FFF176"/>
<path d="M34.6137 29.8007H33.1206C32.8745 29.8007 32.6743 29.6005 32.6743 29.3544V22.6894C32.6743 22.4434 32.8745 22.2432 33.1206 22.2432H34.6137C34.8598 22.2432 35.06 22.4434 35.06 22.6894V29.3586C35.06 29.6047 34.8598 29.8007 34.6137 29.8007Z" fill="#FFF176"/>
<path d="M35.1267 21.7461H32.6117C32.424 21.7461 32.2614 21.621 32.2072 21.4417L32.0153 20.7785C31.9361 20.5116 32.1404 20.2446 32.4199 20.2446H35.3186C35.598 20.2446 35.7983 20.5116 35.7232 20.7785L35.5313 21.4417C35.4771 21.621 35.3103 21.7461 35.1267 21.7461Z" fill="#FFF176"/>
<path d="M32.6075 30.3008H35.1225C35.3102 30.3008 35.4729 30.4259 35.5271 30.6053L35.719 31.2684C35.7982 31.5353 35.5939 31.8023 35.3144 31.8023H32.4157C32.1362 31.8023 31.936 31.5353 32.0111 31.2684L32.203 30.6053C32.2572 30.4217 32.424 30.3008 32.6075 30.3008Z" fill="#FFF176"/>
<path d="M15.2194 29.8007H13.7262C13.4801 29.8007 13.2799 29.6005 13.2799 29.3544V22.6894C13.2799 22.4434 13.4801 22.2432 13.7262 22.2432H15.2194C15.4655 22.2432 15.6657 22.4434 15.6657 22.6894V29.3586C15.6615 29.6047 15.4613 29.8007 15.2194 29.8007Z" fill="#FFF176"/>
<path d="M15.7282 21.7461H13.2132C13.0255 21.7461 12.8628 21.621 12.8086 21.4417L12.6167 20.7785C12.5375 20.5116 12.7419 20.2446 13.0213 20.2446H15.92C16.1995 20.2446 16.3997 20.5116 16.3246 20.7785L16.1328 21.4417C16.0785 21.621 15.9159 21.7461 15.7282 21.7461Z" fill="#FFF176"/>
<path d="M13.2132 30.3008H15.7282C15.9159 30.3008 16.0786 30.4259 16.1328 30.6053L16.3247 31.2684C16.4039 31.5353 16.1995 31.8023 15.9201 31.8023H13.0214C12.7419 31.8023 12.5417 31.5353 12.6168 31.2684L12.8086 30.6053C12.8629 30.4217 13.0255 30.3008 13.2132 30.3008Z" fill="#FFF176"/>
<path d="M21.6842 29.8007H20.191C19.945 29.8007 19.7448 29.6005 19.7448 29.3544V22.6894C19.7448 22.4434 19.945 22.2432 20.191 22.2432H21.6842C21.9303 22.2432 22.1305 22.4434 22.1305 22.6894V29.3586C22.1263 29.6047 21.9303 29.8007 21.6842 29.8007Z" fill="#FFF176"/>
<path d="M22.193 21.7461H19.678C19.4903 21.7461 19.3277 21.621 19.2734 21.4417L19.0816 20.7785C19.0023 20.5116 19.2067 20.2446 19.4862 20.2446H22.3849C22.6643 20.2446 22.8645 20.5116 22.7895 20.7785L22.5976 21.4417C22.5434 21.621 22.3807 21.7461 22.193 21.7461Z" fill="#FFF176"/>
<path d="M19.678 30.3008H22.193C22.3807 30.3008 22.5434 30.4259 22.5976 30.6053L22.7895 31.2684C22.8687 31.5353 22.6643 31.8023 22.3849 31.8023H19.4862C19.2067 31.8023 19.0065 31.5353 19.0816 31.2684L19.2735 30.6053C19.3277 30.4217 19.4903 30.3008 19.678 30.3008Z" fill="#FFF176"/>
<path d="M28.149 29.8007H26.6559C26.4098 29.8007 26.2096 29.6005 26.2096 29.3544V22.6894C26.2096 22.4434 26.4098 22.2432 26.6559 22.2432H28.149C28.3951 22.2432 28.5953 22.4434 28.5953 22.6894V29.3586C28.5911 29.6047 28.3951 29.8007 28.149 29.8007Z" fill="#FFF176"/>
<path d="M28.6579 21.7461H26.1429C25.9552 21.7461 25.7925 21.621 25.7383 21.4417L25.5464 20.7785C25.4672 20.5116 25.6716 20.2446 25.951 20.2446H28.8497C29.1292 20.2446 29.3294 20.5116 29.2543 20.7785L29.0624 21.4417C29.0082 21.621 28.8456 21.7461 28.6579 21.7461Z" fill="#FFF176"/>
<path d="M26.1429 30.3008H28.6579C28.8456 30.3008 29.0082 30.4259 29.0625 30.6053L29.2543 31.2684C29.3336 31.5353 29.1292 31.8023 28.8497 31.8023H25.951C25.6716 31.8023 25.4714 31.5353 25.5464 31.2684L25.7383 30.6053C25.7925 30.4217 25.9594 30.3008 26.1429 30.3008Z" fill="#FFF176"/>
</svg>
