<svg width="46" height="46" viewBox="0 0 46 46" fill="none" xmlns="http://www.w3.org/2000/svg">
<rect width="46" height="46" rx="4" fill="#D9D9D9"/>
<path opacity="0.3" d="M35.25 35.25H42.25V38.75H38.75V42.25H35.25V35.25ZM31.75 24.75H38.75V31.75H35.25V28.25H31.75V24.75ZM24.75 24.75H28.25V28.25H31.75V38.75H28.25V35.25H24.75V24.75ZM7.25 7.25H17.75V17.75H7.25V7.25ZM10.75 10.75V14.25H14.25V10.75H10.75ZM28.25 7.25H38.75V17.75H28.25V7.25ZM31.75 10.75V14.25H35.25V10.75H31.75ZM7.25 28.25H17.75V38.75H7.25V28.25ZM10.75 31.75V35.25H14.25V31.75H10.75Z" fill="#5C5B4A"/>
<path d="M3.75 3.75H21.25V21.25H3.75V3.75ZM7.25 7.25V17.75H17.75V7.25H7.25Z" fill="#5C5B4A"/>
<path fill-rule="evenodd" clip-rule="evenodd" d="M10.75 10.75H14.25V14.25H10.75V10.75Z" fill="#5C5B4A"/>
<path d="M24.75 3.75H42.25V21.25H24.75V3.75ZM28.25 7.25V17.75H38.75V7.25H28.25Z" fill="#5C5B4A"/>
<path fill-rule="evenodd" clip-rule="evenodd" d="M31.75 10.75H35.25V14.25H31.75V10.75Z" fill="#5C5B4A"/>
<path d="M3.75 24.75H21.25V42.25H3.75V24.75ZM7.25 28.25V38.75H17.75V28.25H7.25Z" fill="#5C5B4A"/>
<path fill-rule="evenodd" clip-rule="evenodd" d="M10.75 31.75H14.25V35.25H10.75V31.75Z" fill="#5C5B4A"/>
<path d="M42.25 35.25H35.25V42.25H24.75V24.75V35.25H28.25V38.75H31.75V28.25H28.25V24.75H26.5H31.75V28.25H35.25V31.75H38.75V24.75H42.25V35.25ZM42.25 38.75V42.25H38.75V38.75H42.25Z" fill="#5C5B4A"/>
</svg>
