<svg width="26" height="34" viewBox="0 0 26 34" fill="none" xmlns="http://www.w3.org/2000/svg">
<circle cx="13" cy="13" r="13" fill="#7A4504"/>
<path d="M10.52 18.08C10.2747 18.08 10.0507 17.984 9.848 17.792C9.656 17.5893 9.56 17.3547 9.56 17.088C9.56 16.9173 9.57067 16.752 9.592 16.592C9.61333 16.432 9.66133 16.2773 9.736 16.128C9.81067 15.9787 9.92267 15.8347 10.072 15.696C10.5627 15.2907 11.0587 14.9173 11.56 14.576C12.072 14.2347 12.5627 13.9093 13.032 13.6C13.5013 13.2907 13.9227 12.9813 14.296 12.672C14.6693 12.352 14.9627 12.0213 15.176 11.68C15.3893 11.328 15.496 10.9493 15.496 10.544C15.496 10.2133 15.4267 9.91467 15.288 9.648C15.16 9.38133 14.952 9.168 14.664 9.008C14.376 8.848 13.992 8.768 13.512 8.768C13.1813 8.768 12.888 8.816 12.632 8.912C12.3867 9.008 12.1787 9.14667 12.008 9.328C11.848 9.50933 11.72 9.73333 11.624 10C11.5387 10.256 11.496 10.5493 11.496 10.88C11.496 11.0613 11.48 11.2213 11.448 11.36C11.416 11.4987 11.3307 11.6107 11.192 11.696C11.064 11.7707 10.84 11.808 10.52 11.808C10.2 11.808 9.97067 11.76 9.832 11.664C9.704 11.568 9.624 11.44 9.592 11.28C9.57067 11.1093 9.56 10.9333 9.56 10.752C9.56 10.2187 9.64533 9.71733 9.816 9.248C9.99733 8.768 10.2587 8.352 10.6 8C10.9413 7.63733 11.352 7.35467 11.832 7.152C12.3227 6.93867 12.8773 6.832 13.496 6.832C14.2747 6.832 14.9573 6.992 15.544 7.312C16.1413 7.632 16.6053 8.08 16.936 8.656C17.2773 9.232 17.448 9.92 17.448 10.72C17.448 11.136 17.384 11.5253 17.256 11.888C17.128 12.2507 16.952 12.592 16.728 12.912C16.504 13.2213 16.2427 13.5093 15.944 13.776C15.656 14.0427 15.3413 14.2987 15 14.544C14.6693 14.7787 14.3333 15.0027 13.992 15.216C13.6507 15.4187 13.32 15.616 13 15.808L12.392 16.128H16.936C17.1173 16.128 17.2827 16.1493 17.432 16.192C17.5813 16.224 17.6933 16.3093 17.768 16.448C17.8533 16.5867 17.896 16.8107 17.896 17.12C17.896 17.4187 17.8533 17.6373 17.768 17.776C17.6827 17.9147 17.5653 18 17.416 18.032C17.2667 18.064 17.096 18.08 16.904 18.08H10.52Z" fill="white"/>
<line x1="14" y1="22" x2="14" y2="34" stroke="#7A4504" stroke-width="4"/>
</svg>
