<svg width="26" height="34" viewBox="0 0 26 34" fill="none" xmlns="http://www.w3.org/2000/svg">
<circle cx="13" cy="13" r="13" fill="#7A4504"/>
<path d="M13.624 18.256C13.0587 18.256 12.536 18.1707 12.056 18C11.576 17.8187 11.1493 17.5787 10.776 17.28C10.4027 16.9707 10.1093 16.6187 9.896 16.224C9.69333 15.8293 9.58133 15.4187 9.56 14.992C9.56 14.5227 9.90667 14.288 10.6 14.288C10.8133 14.288 10.9733 14.3093 11.08 14.352C11.1867 14.3947 11.272 14.4747 11.336 14.592C11.4 14.7093 11.464 14.8693 11.528 15.072C11.6027 15.2853 11.7253 15.4933 11.896 15.696C12.0773 15.8987 12.312 16.0693 12.6 16.208C12.888 16.336 13.2347 16.4 13.64 16.4C14.0773 16.4 14.456 16.3307 14.776 16.192C15.096 16.0427 15.3413 15.84 15.512 15.584C15.6933 15.328 15.784 15.0347 15.784 14.704C15.784 14.3733 15.6933 14.0907 15.512 13.856C15.3413 13.6107 15.1067 13.424 14.808 13.296C14.5093 13.1573 14.168 13.088 13.784 13.088C13.5813 13.088 13.4 13.072 13.24 13.04C13.0907 13.008 12.968 12.928 12.872 12.8C12.7867 12.672 12.744 12.4587 12.744 12.16C12.744 11.8507 12.7867 11.6373 12.872 11.52C12.968 11.392 13.096 11.312 13.256 11.28C13.416 11.248 13.5973 11.232 13.8 11.232C14.1627 11.232 14.4613 11.184 14.696 11.088C14.9413 10.992 15.128 10.8587 15.256 10.688C15.384 10.5173 15.448 10.3253 15.448 10.112C15.448 9.824 15.3787 9.57333 15.24 9.36C15.1013 9.136 14.904 8.96533 14.648 8.848C14.4027 8.72 14.1093 8.656 13.768 8.656C13.4587 8.656 13.192 8.69867 12.968 8.784C12.744 8.85867 12.5467 8.97067 12.376 9.12C12.216 9.26933 12.0667 9.45067 11.928 9.664C11.768 9.97333 11.5813 10.1547 11.368 10.208C11.1653 10.2613 10.8987 10.192 10.568 10C10.3013 9.84 10.1413 9.66933 10.088 9.488C10.0347 9.296 10.072 9.07733 10.2 8.832C10.232 8.75733 10.2907 8.64533 10.376 8.496C10.472 8.336 10.6053 8.16533 10.776 7.984C10.9573 7.792 11.176 7.61067 11.432 7.44C11.688 7.25867 12.0027 7.10933 12.376 6.992C12.7493 6.87467 13.1813 6.816 13.672 6.816C14.2693 6.816 14.7973 6.912 15.256 7.104C15.7147 7.28533 16.104 7.53067 16.424 7.84C16.744 8.13867 16.984 8.48 17.144 8.864C17.3147 9.23733 17.4 9.62667 17.4 10.032C17.4 10.3947 17.3307 10.72 17.192 11.008C17.0533 11.296 16.8827 11.536 16.68 11.728C16.4773 11.92 16.2747 12.064 16.072 12.16C16.296 12.256 16.504 12.3893 16.696 12.56C16.8987 12.7307 17.0747 12.9333 17.224 13.168C17.384 13.392 17.5067 13.632 17.592 13.888C17.6773 14.144 17.72 14.4053 17.72 14.672C17.72 15.3547 17.544 15.968 17.192 16.512C16.8507 17.056 16.3707 17.4827 15.752 17.792C15.1333 18.1013 14.424 18.256 13.624 18.256Z" fill="white"/>
<line x1="14" y1="22" x2="14" y2="34" stroke="#7A4504" stroke-width="4"/>
</svg>
