<svg width="63" height="63" viewBox="0 0 63 63" fill="none" xmlns="http://www.w3.org/2000/svg">
<path d="M31.5 48.825C33.285 48.825 34.965 48.4963 36.54 47.839C38.115 47.1817 39.585 46.2504 40.95 45.045C41.4225 44.625 41.6587 44.0737 41.6587 43.3912C41.6587 42.7087 41.4225 42.1575 40.95 41.7375C40.4775 41.3175 39.9136 41.1075 39.2584 41.1075C38.6032 41.1075 38.0121 41.3175 37.485 41.7375C36.5925 42.42 35.6475 42.9712 34.65 43.3912C33.6525 43.8112 32.6025 44.0212 31.5 44.0212C30.3975 44.0212 29.3475 43.8112 28.35 43.3912C27.3525 42.9712 26.4075 42.42 25.515 41.7375C24.99 41.3175 24.3988 41.1075 23.7415 41.1075C23.0842 41.1075 22.5204 41.3175 22.05 41.7375C21.5775 42.1575 21.3412 42.7087 21.3412 43.3912C21.3412 44.0737 21.5775 44.625 22.05 45.045C23.415 46.2 24.885 47.1187 26.46 47.8012C28.035 48.4837 29.715 48.825 31.5 48.825ZM31.5 63C27.1425 63 23.0475 62.1726 19.215 60.5178C15.3825 58.863 12.0487 56.6191 9.21375 53.7862C6.37875 50.9512 4.1349 47.6175 2.4822 43.785C0.8295 39.9525 0.0021 35.8575 0 31.5C0 27.1425 0.8274 23.0475 2.4822 19.215C4.137 15.3825 6.38085 12.0487 9.21375 9.21375C12.0487 6.37875 15.3825 4.1349 19.215 2.4822C23.0475 0.8295 27.1425 0.0021 31.5 0C35.8575 0 39.9525 0.8274 43.785 2.4822C47.6175 4.137 50.9512 6.38085 53.7862 9.21375C56.6212 12.0487 58.8661 15.3825 60.5209 19.215C62.1757 23.0475 63.0021 27.1425 63 31.5C63 35.8575 62.1726 39.9525 60.5178 43.785C58.863 47.6175 56.6191 50.9512 53.7862 53.7862C50.9512 56.6212 47.6175 58.8661 43.785 60.5209C39.9525 62.1757 35.8575 63.0021 31.5 63ZM31.5 56.7C38.535 56.7 44.4937 54.2587 49.3762 49.3762C54.2587 44.4937 56.7 38.535 56.7 31.5C56.7 24.465 54.2587 18.5062 49.3762 13.6237C44.4937 8.74125 38.535 6.3 31.5 6.3C24.465 6.3 18.5062 8.74125 13.6237 13.6237C8.74125 18.5062 6.3 24.465 6.3 31.5C6.3 38.535 8.74125 44.4937 13.6237 49.3762C18.5062 54.2587 24.465 56.7 31.5 56.7ZM20.475 31.5C22.155 31.5 23.6649 30.975 25.0047 29.925C26.3445 28.875 27.3808 27.5887 28.1137 26.0662C28.3762 25.3837 28.3899 24.7138 28.1547 24.0565C27.9195 23.3992 27.4596 22.9929 26.775 22.8375C26.1975 22.68 25.62 22.7461 25.0425 23.0359C24.465 23.3257 24.045 23.7583 23.7825 24.3337C23.415 25.0162 22.9551 25.5937 22.4028 26.0662C21.8505 26.5387 21.2079 26.775 20.475 26.775C19.74 26.775 19.0837 26.5261 18.5062 26.0284C17.9287 25.5307 17.4825 24.9396 17.1675 24.255C16.905 23.6775 16.485 23.2575 15.9075 22.995C15.33 22.7325 14.7525 22.68 14.175 22.8375C13.4925 22.995 13.0326 23.4024 12.7953 24.0597C12.558 24.717 12.5979 25.3858 12.915 26.0662C13.545 27.6412 14.5425 28.9411 15.9075 29.9659C17.2725 30.9907 18.795 31.5021 20.475 31.5ZM42.525 31.5C44.205 31.5 45.7149 30.975 47.0547 29.925C48.3945 28.875 49.4308 27.5887 50.1637 26.0662C50.4262 25.3837 50.4399 24.7138 50.2047 24.0565C49.9695 23.3992 49.5096 22.9929 48.825 22.8375C48.2475 22.68 47.67 22.7461 47.0925 23.0359C46.515 23.3257 46.095 23.7583 45.8325 24.3337C45.465 25.0162 45.0051 25.5937 44.4528 26.0662C43.9005 26.5387 43.2579 26.775 42.525 26.775C41.79 26.775 41.1337 26.5261 40.5562 26.0284C39.9787 25.5307 39.5325 24.9396 39.2175 24.255C38.955 23.6775 38.535 23.2575 37.9575 22.995C37.38 22.7325 36.8025 22.68 36.225 22.8375C35.5425 22.995 35.0826 23.4024 34.8453 24.0597C34.608 24.717 34.6479 25.3858 34.965 26.0662C35.595 27.6412 36.5925 28.9411 37.9575 29.9659C39.3225 30.9907 40.845 31.5021 42.525 31.5Z" fill="#5C5B4A"/>
</svg>
