<svg width="69" height="68" viewBox="0 0 69 68" fill="none" xmlns="http://www.w3.org/2000/svg">
<path d="M24 27H23.965M45 27H44.965M20.5 44.5H48.5M24 41V48M34.5 41V48M45 41V48M34.5 65.5C30.3634 65.5 26.2672 64.6852 22.4455 63.1022C18.6237 61.5192 15.1512 59.1989 12.2261 56.2739C9.30109 53.3488 6.98082 49.8763 5.3978 46.0545C3.81477 42.2328 3 38.1366 3 34C3 29.8634 3.81477 25.7672 5.3978 21.9455C6.98082 18.1237 9.30109 14.6512 12.2261 11.7261C15.1512 8.80109 18.6237 6.48082 22.4455 4.89779C26.2672 3.31477 30.3634 2.5 34.5 2.5C42.8543 2.5 50.8665 5.81874 56.7739 11.7261C62.6813 17.6335 66 25.6457 66 34C66 42.3543 62.6813 50.3665 56.7739 56.2739C50.8665 62.1813 42.8543 65.5 34.5 65.5Z" stroke="#5C5B4A" stroke-width="5" stroke-linecap="round" stroke-linejoin="round"/>
</svg>
