<svg width="63" height="63" viewBox="0 0 63 63" fill="none" xmlns="http://www.w3.org/2000/svg">
<path d="M56.7 31.5C56.7 24.8165 54.045 18.4068 49.3191 13.6809C44.5932 8.95499 38.1835 6.3 31.5 6.3C24.8165 6.3 18.4068 8.95499 13.6809 13.6809C8.95499 18.4068 6.3 24.8165 6.3 31.5C6.3 38.1835 8.95499 44.5932 13.6809 49.3191C18.4068 54.045 24.8165 56.7 31.5 56.7C38.1835 56.7 44.5932 54.045 49.3191 49.3191C54.045 44.5932 56.7 38.1835 56.7 31.5ZM63 31.5C63 39.8543 59.6813 47.8665 53.7739 53.7739C47.8665 59.6813 39.8543 63 31.5 63C27.3634 63 23.2672 62.1852 19.4455 60.6022C15.6237 59.0192 12.1512 56.6989 9.22614 53.7739C3.31874 47.8665 0 39.8543 0 31.5C0 23.1457 3.31874 15.1335 9.22614 9.22614C15.1335 3.31874 23.1457 0 31.5 0C35.6366 0 39.7328 0.814772 43.5545 2.39779C47.3763 3.98082 50.8488 6.30109 53.7739 9.22614C56.6989 12.1512 59.0192 15.6237 60.6022 19.4455C62.1852 23.2672 63 27.3634 63 31.5ZM25.2 23.625C25.2 26.145 22.995 28.35 20.475 28.35C17.955 28.35 15.75 26.145 15.75 23.625C15.75 21.105 17.955 18.9 20.475 18.9C22.995 18.9 25.2 21.105 25.2 23.625ZM47.25 23.625C47.25 26.145 45.045 28.35 42.525 28.35C40.005 28.35 37.8 26.145 37.8 23.625C37.8 21.105 40.005 18.9 42.525 18.9C45.045 18.9 47.25 21.105 47.25 23.625ZM31.5 47.9745C25.9875 47.9745 21.1365 45.675 18.3015 42.273L22.7745 37.8C24.192 40.068 27.5625 41.6745 31.5 41.6745C35.4375 41.6745 38.808 40.068 40.2255 37.8L44.6985 42.273C41.8635 45.675 37.0125 47.9745 31.5 47.9745Z" fill="#5C5B4A"/>
</svg>
