<svg width="143" height="19" viewBox="0 0 143 19" fill="none" xmlns="http://www.w3.org/2000/svg">
<rect width="143" height="19" rx="4" fill="#F19C1B"/>
<path d="M5.632 15C5.52533 15 5.43467 14.9627 5.36 14.888C5.28533 14.8133 5.248 14.7227 5.248 14.616V4.2C5.248 4.08267 5.28533 3.98667 5.36 3.912C5.43467 3.83733 5.52533 3.8 5.632 3.8H12.672C12.7893 3.8 12.8853 3.83733 12.96 3.912C13.0347 3.98667 13.072 4.08267 13.072 4.2V5.256C13.072 5.36267 13.0347 5.45333 12.96 5.528C12.8853 5.60267 12.7893 5.64 12.672 5.64H7.408V8.472H12.32C12.4373 8.472 12.5333 8.50933 12.608 8.584C12.6827 8.648 12.72 8.73867 12.72 8.856V9.848C12.72 9.96533 12.6827 10.0613 12.608 10.136C12.5333 10.2 12.4373 10.232 12.32 10.232H7.408V13.16H12.8C12.9173 13.16 13.0133 13.1973 13.088 13.272C13.1627 13.3467 13.2 13.4427 13.2 13.56V14.616C13.2 14.7227 13.1627 14.8133 13.088 14.888C13.0133 14.9627 12.9173 15 12.8 15H5.632ZM15.5851 15C15.4785 15 15.3878 14.9627 15.3131 14.888C15.2385 14.8133 15.2011 14.7227 15.2011 14.616V4.2C15.2011 4.08267 15.2385 3.98667 15.3131 3.912C15.3878 3.83733 15.4785 3.8 15.5851 3.8H16.8171C16.9665 3.8 17.0731 3.83733 17.1371 3.912C17.2118 3.976 17.2598 4.024 17.2811 4.056L21.8891 11.224V4.2C21.8891 4.08267 21.9211 3.98667 21.9851 3.912C22.0598 3.83733 22.1558 3.8 22.2731 3.8H23.6171C23.7345 3.8 23.8305 3.83733 23.9051 3.912C23.9798 3.98667 24.0171 4.08267 24.0171 4.2V14.6C24.0171 14.7173 23.9798 14.8133 23.9051 14.888C23.8305 14.9627 23.7398 15 23.6331 15H22.3851C22.2358 15 22.1291 14.9627 22.0651 14.888C22.0011 14.8133 21.9531 14.7653 21.9211 14.744L17.3291 7.736V14.616C17.3291 14.7227 17.2918 14.8133 17.2171 14.888C17.1425 14.9627 17.0465 15 16.9291 15H15.5851ZM32.6273 15C32.5206 15 32.4299 14.9627 32.3553 14.888C32.2806 14.8133 32.2433 14.7227 32.2433 14.616V5.768H29.2833C29.1766 5.768 29.0859 5.73067 29.0113 5.656C28.9366 5.58133 28.8993 5.49067 28.8993 5.384V4.2C28.8993 4.08267 28.9366 3.98667 29.0113 3.912C29.0859 3.83733 29.1766 3.8 29.2833 3.8H37.4433C37.5606 3.8 37.6566 3.83733 37.7313 3.912C37.8059 3.98667 37.8433 4.08267 37.8433 4.2V5.384C37.8433 5.49067 37.8059 5.58133 37.7313 5.656C37.6566 5.73067 37.5606 5.768 37.4433 5.768H34.4993V14.616C34.4993 14.7227 34.4619 14.8133 34.3873 14.888C34.3126 14.9627 34.2166 15 34.0993 15H32.6273ZM39.8508 15C39.7441 15 39.6534 14.9627 39.5788 14.888C39.5041 14.8133 39.4668 14.7227 39.4668 14.616V4.2C39.4668 4.08267 39.5041 3.98667 39.5788 3.912C39.6534 3.83733 39.7441 3.8 39.8508 3.8H43.9948C45.2854 3.8 46.3041 4.09867 47.0508 4.696C47.7974 5.29333 48.1708 6.16267 48.1708 7.304C48.1708 8.09333 47.9734 8.74933 47.5788 9.272C47.1948 9.79467 46.6774 10.1733 46.0268 10.408L48.3628 14.488C48.3948 14.552 48.4108 14.6107 48.4108 14.664C48.4108 14.76 48.3734 14.84 48.2988 14.904C48.2348 14.968 48.1601 15 48.0748 15H46.6188C46.4374 15 46.2988 14.952 46.2028 14.856C46.1068 14.76 46.0321 14.664 45.9788 14.568L43.9148 10.776H41.6908V14.616C41.6908 14.7227 41.6534 14.8133 41.5788 14.888C41.5148 14.9627 41.4241 15 41.3068 15H39.8508ZM41.6908 8.968H43.9468C44.5974 8.968 45.0828 8.824 45.4028 8.536C45.7228 8.23733 45.8828 7.82133 45.8828 7.288C45.8828 6.75467 45.7228 6.33867 45.4028 6.04C45.0934 5.73067 44.6081 5.576 43.9468 5.576H41.6908V8.968ZM49.5444 15C49.459 15 49.379 14.968 49.3044 14.904C49.2404 14.84 49.2084 14.76 49.2084 14.664C49.2084 14.6213 49.219 14.5733 49.2404 14.52L53.0964 4.2C53.1284 4.09333 53.187 4.00267 53.2724 3.928C53.3684 3.84267 53.4964 3.8 53.6564 3.8H55.4004C55.5604 3.8 55.683 3.84267 55.7684 3.928C55.8537 4.00267 55.9177 4.09333 55.9604 4.2L59.8164 14.52C59.827 14.5733 59.8324 14.6213 59.8324 14.664C59.8324 14.76 59.8004 14.84 59.7364 14.904C59.6724 14.968 59.5977 15 59.5124 15H58.1204C57.971 15 57.859 14.968 57.7844 14.904C57.7204 14.8293 57.6777 14.76 57.6564 14.696L56.9044 12.744H52.1524L51.4004 14.696C51.379 14.76 51.331 14.8293 51.2564 14.904C51.1924 14.968 51.0857 15 50.9364 15H49.5444ZM52.7124 10.904H56.3444L54.5204 5.96L52.7124 10.904ZM63.0023 15C62.8956 15 62.8049 14.9627 62.7303 14.888C62.6556 14.8133 62.6183 14.7227 62.6183 14.616V5.768H59.6583C59.5516 5.768 59.4609 5.73067 59.3863 5.656C59.3116 5.58133 59.2743 5.49067 59.2743 5.384V4.2C59.2743 4.08267 59.3116 3.98667 59.3863 3.912C59.4609 3.83733 59.5516 3.8 59.6583 3.8H67.8183C67.9356 3.8 68.0316 3.83733 68.1063 3.912C68.1809 3.98667 68.2183 4.08267 68.2183 4.2V5.384C68.2183 5.49067 68.1809 5.58133 68.1063 5.656C68.0316 5.73067 67.9356 5.768 67.8183 5.768H64.8743V14.616C64.8743 14.7227 64.8369 14.8133 64.7623 14.888C64.6876 14.9627 64.5916 15 64.4743 15H63.0023ZM67.9819 15C67.8965 15 67.8165 14.968 67.7419 14.904C67.6779 14.84 67.6459 14.76 67.6459 14.664C67.6459 14.6213 67.6565 14.5733 67.6779 14.52L71.5339 4.2C71.5659 4.09333 71.6245 4.00267 71.7099 3.928C71.8059 3.84267 71.9339 3.8 72.0939 3.8H73.8379C73.9979 3.8 74.1205 3.84267 74.2059 3.928C74.2912 4.00267 74.3552 4.09333 74.3979 4.2L78.2539 14.52C78.2645 14.5733 78.2699 14.6213 78.2699 14.664C78.2699 14.76 78.2379 14.84 78.1739 14.904C78.1099 14.968 78.0352 15 77.9499 15H76.5579C76.4085 15 76.2965 14.968 76.2219 14.904C76.1579 14.8293 76.1152 14.76 76.0939 14.696L75.3419 12.744H70.5899L69.8379 14.696C69.8165 14.76 69.7685 14.8293 69.6939 14.904C69.6299 14.968 69.5232 15 69.3739 15H67.9819ZM71.1499 10.904H74.7819L72.9579 5.96L71.1499 10.904ZM80.1636 15C80.0463 15 79.9503 14.9627 79.8756 14.888C79.801 14.8133 79.7636 14.7227 79.7636 14.616V4.2C79.7636 4.08267 79.801 3.98667 79.8756 3.912C79.9503 3.83733 80.0463 3.8 80.1636 3.8H81.4276C81.577 3.8 81.689 3.84267 81.7636 3.928C81.8383 4.00267 81.8863 4.06133 81.9076 4.104L84.9956 9.864L88.1156 4.104C88.137 4.06133 88.185 4.00267 88.2596 3.928C88.3343 3.84267 88.4463 3.8 88.5956 3.8H89.8436C89.961 3.8 90.057 3.83733 90.1316 3.912C90.2063 3.98667 90.2436 4.08267 90.2436 4.2V14.616C90.2436 14.7227 90.2063 14.8133 90.1316 14.888C90.057 14.9627 89.961 15 89.8436 15H88.4996C88.3823 15 88.2863 14.9627 88.2116 14.888C88.1476 14.8133 88.1156 14.7227 88.1156 14.616V7.688L85.8756 11.96C85.8223 12.056 85.753 12.1413 85.6676 12.216C85.5823 12.28 85.4703 12.312 85.3316 12.312H84.6756C84.5263 12.312 84.409 12.28 84.3236 12.216C84.249 12.1413 84.185 12.056 84.1316 11.96L81.8916 7.688V14.616C81.8916 14.7227 81.8543 14.8133 81.7796 14.888C81.705 14.9627 81.6143 15 81.5076 15H80.1636ZM93.1164 15C93.0097 15 92.919 14.9627 92.8444 14.888C92.7697 14.8133 92.7324 14.7227 92.7324 14.616V4.184C92.7324 4.07733 92.7697 3.98667 92.8444 3.912C92.919 3.83733 93.0097 3.8 93.1164 3.8H94.6204C94.7377 3.8 94.8284 3.83733 94.8924 3.912C94.967 3.98667 95.0044 4.07733 95.0044 4.184V14.616C95.0044 14.7227 94.967 14.8133 94.8924 14.888C94.8284 14.9627 94.7377 15 94.6204 15H93.1164ZM97.8976 15C97.791 15 97.7003 14.9627 97.6256 14.888C97.551 14.8133 97.5136 14.7227 97.5136 14.616V4.2C97.5136 4.08267 97.551 3.98667 97.6256 3.912C97.7003 3.83733 97.791 3.8 97.8976 3.8H104.938C105.055 3.8 105.151 3.83733 105.226 3.912C105.3 3.98667 105.338 4.08267 105.338 4.2V5.256C105.338 5.36267 105.3 5.45333 105.226 5.528C105.151 5.60267 105.055 5.64 104.938 5.64H99.6736V8.472H104.586C104.703 8.472 104.799 8.50933 104.874 8.584C104.948 8.648 104.986 8.73867 104.986 8.856V9.848C104.986 9.96533 104.948 10.0613 104.874 10.136C104.799 10.2 104.703 10.232 104.586 10.232H99.6736V13.16H105.066C105.183 13.16 105.279 13.1973 105.354 13.272C105.428 13.3467 105.466 13.4427 105.466 13.56V14.616C105.466 14.7227 105.428 14.8133 105.354 14.888C105.279 14.9627 105.183 15 105.066 15H97.8976ZM107.851 15C107.744 15 107.653 14.9627 107.579 14.888C107.504 14.8133 107.467 14.7227 107.467 14.616V4.2C107.467 4.08267 107.504 3.98667 107.579 3.912C107.653 3.83733 107.744 3.8 107.851 3.8H109.083C109.232 3.8 109.339 3.83733 109.403 3.912C109.477 3.976 109.525 4.024 109.547 4.056L114.155 11.224V4.2C114.155 4.08267 114.187 3.98667 114.251 3.912C114.325 3.83733 114.421 3.8 114.539 3.8H115.883C116 3.8 116.096 3.83733 116.171 3.912C116.245 3.98667 116.283 4.08267 116.283 4.2V14.6C116.283 14.7173 116.245 14.8133 116.171 14.888C116.096 14.9627 116.005 15 115.899 15H114.651C114.501 15 114.395 14.9627 114.331 14.888C114.267 14.8133 114.219 14.7653 114.187 14.744L109.595 7.736V14.616C109.595 14.7227 109.557 14.8133 109.483 14.888C109.408 14.9627 109.312 15 109.195 15H107.851ZM121.627 15C121.521 15 121.43 14.9627 121.355 14.888C121.281 14.8133 121.243 14.7227 121.243 14.616V5.768H118.283C118.177 5.768 118.086 5.73067 118.011 5.656C117.937 5.58133 117.899 5.49067 117.899 5.384V4.2C117.899 4.08267 117.937 3.98667 118.011 3.912C118.086 3.83733 118.177 3.8 118.283 3.8H126.443C126.561 3.8 126.657 3.83733 126.731 3.912C126.806 3.98667 126.843 4.08267 126.843 4.2V5.384C126.843 5.49067 126.806 5.58133 126.731 5.656C126.657 5.73067 126.561 5.768 126.443 5.768H123.499V14.616C123.499 14.7227 123.462 14.8133 123.387 14.888C123.313 14.9627 123.217 15 123.099 15H121.627ZM132.568 15.16C131.618 15.16 130.802 15.0053 130.12 14.696C129.437 14.376 128.904 13.8907 128.52 13.24C128.136 12.5787 127.928 11.7573 127.896 10.776C127.885 10.3173 127.88 9.864 127.88 9.416C127.88 8.968 127.885 8.50933 127.896 8.04C127.928 7.06933 128.141 6.25867 128.536 5.608C128.93 4.95733 129.469 4.46667 130.152 4.136C130.845 3.80533 131.65 3.64 132.568 3.64C133.485 3.64 134.29 3.80533 134.984 4.136C135.677 4.46667 136.221 4.95733 136.616 5.608C137.01 6.25867 137.224 7.06933 137.256 8.04C137.277 8.50933 137.288 8.968 137.288 9.416C137.288 9.864 137.277 10.3173 137.256 10.776C137.224 11.7573 137.016 12.5787 136.632 13.24C136.248 13.8907 135.709 14.376 135.016 14.696C134.333 15.0053 133.517 15.16 132.568 15.16ZM132.568 13.32C133.261 13.32 133.826 13.1173 134.264 12.712C134.701 12.296 134.936 11.624 134.968 10.696C134.989 10.2267 135 9.79467 135 9.4C135 8.99467 134.989 8.56267 134.968 8.104C134.946 7.48533 134.829 6.984 134.616 6.6C134.413 6.20533 134.136 5.92267 133.784 5.752C133.432 5.57067 133.026 5.48 132.568 5.48C132.12 5.48 131.72 5.57067 131.368 5.752C131.016 5.92267 130.733 6.20533 130.52 6.6C130.317 6.984 130.205 7.48533 130.184 8.104C130.173 8.56267 130.168 8.99467 130.168 9.4C130.168 9.79467 130.173 10.2267 130.184 10.696C130.216 11.624 130.45 12.296 130.888 12.712C131.325 13.1173 131.885 13.32 132.568 13.32Z" fill="white"/>
</svg>
