<svg width="80" height="56" viewBox="0 0 80 56" fill="none" xmlns="http://www.w3.org/2000/svg">
<path d="M56.5527 19.4659C56.5527 19.4659 58.6355 19.9078 60.06 18.5773C62.1663 16.6121 61.7902 15.6295 63.1442 12.6864C64.4982 9.73853 67.5401 9.55518 68.1466 9.55518C68.753 9.55518 69.5006 9.60219 69.5006 9.93129C69.5006 10.2604 68.4239 11.149 67.7704 13.1565C67.1169 15.1687 67.1169 19.4706 65.3398 21.6192C63.5626 23.7725 61.9735 24.52 60.1493 24.7033C58.3299 24.8914 56.5527 19.4659 56.5527 19.4659Z" fill="url(#paint0_linear_93_844)"/>
<path d="M31.4421 34.4312L26.6278 34.6145C26.6278 34.6145 26.4867 39.7109 26.4867 41.4881C26.4867 43.2652 26.6513 47.5436 26.3927 48.1736C25.9602 49.2408 25.269 49.5746 25.0387 50.0448C24.7848 50.5525 24.6626 51.6339 25.5981 52.01C26.5337 52.3861 28.3579 51.8219 29.1995 51.3565C30.041 50.891 30.6993 50.2704 30.7886 49.9554C31.0001 49.2079 31.4186 42.5694 31.4421 41.1637C31.4891 38.686 31.4421 34.4312 31.4421 34.4312Z" fill="#D1775B"/>
<path d="M46.783 31.8122C46.783 31.8122 46.7407 34.0501 47.2955 36.4902C47.6716 38.1263 49.2137 40.651 49.0726 42.5692C48.9316 44.4874 48.2781 45.9825 47.4365 46.9651C46.5949 47.9477 46.736 49.0713 46.9711 49.3487C47.2061 49.6261 48.2781 50.0492 50.0082 49.8142C51.3575 49.6308 51.9264 49.0196 52.0675 48.7375C52.2085 48.4554 53.3745 44.2476 53.6566 43.218C53.9387 42.1884 54.5734 39.6872 54.8272 38.587C55.2504 36.7628 55.8569 34.0971 55.8569 33.9561C55.8569 33.815 52.5846 28.4365 52.5846 28.4365L46.783 31.8122Z" fill="#D1775B"/>
<path d="M30.5112 13.2931C30.5112 13.2931 33.271 16.1469 33.8304 16.3303C34.3899 16.5184 41.3575 16.0482 45.476 16.1893C49.5945 16.3303 52.6317 16.5184 54.8273 17.6843C57.0229 18.855 59.7826 19.3675 61.0473 26.8005C62.312 34.2335 61.4705 34.7037 62.124 36.0107C62.7775 37.3177 64.2772 41.6196 64.5076 42.5081C64.738 43.3967 64.7897 49.8942 64.3666 50.7357C63.9434 51.5773 62.9655 52.4659 61.6538 52.4659C60.3468 52.4659 59.115 52.3248 59.0821 51.2012C59.0492 50.1669 59.8296 49.7061 59.9707 49.189C60.1117 48.6765 60.2998 44.3276 60.0647 43.6694C59.8296 43.0112 56.4634 39.1795 54.6862 37.3083C52.9091 35.4371 51.461 31.1823 51.461 31.1823C51.461 31.1823 47.8597 32.4 46.0825 33.5659C44.3053 34.7366 42.2931 36.1847 41.6396 36.6501C40.9861 37.1156 40.4219 37.3506 40.4219 37.3506C40.4219 37.3506 40.61 40.8109 40.4689 43.3356C40.3279 45.8603 40.0928 51.2388 39.5333 52.0804C38.9739 52.9219 37.5681 54.0456 35.791 53.9986C34.0138 53.9516 33.9198 53.016 34.6673 51.2858C35.4148 49.5557 35.4619 49.6027 35.4619 49.1796C35.4619 48.7564 35.4101 42.3295 35.3913 41.723C35.3678 40.9049 35.0857 38.7517 34.8554 38.5683C34.6203 38.3802 31.3481 38.9914 28.1699 37.0262C24.9917 35.061 23.3555 31.5772 22.7491 29.518C22.1426 27.4587 21.254 23.2979 20.9954 22.5268C20.8167 21.9909 19.8012 18.3425 19.5708 17.548C19.3405 16.7534 19.0584 15.2584 19.0584 15.2584C19.0584 15.2584 15.316 15.2019 14.2676 15.0233C13.2144 14.8493 11.7805 13.9702 11.3197 13.1662C10.9013 12.4281 9.8952 10.2513 10.3606 8.92076C10.6568 8.07919 12.3729 7.72658 13.0734 7.62315C13.7739 7.51972 15.001 7.34106 15.2455 6.92263C15.49 6.4995 16.2986 4.15346 17.6291 3.20376C18.8562 2.32928 22.5046 1.4501 25.0998 2.43271C27.695 3.41532 28.8187 6.64054 28.8187 6.64054L30.5112 13.2931Z" fill="#FFB903"/>
<path d="M30.5347 13.8995C30.5347 13.8995 27.427 16.2832 23.4872 18.601C22.119 19.405 20.2619 20.0726 20.1209 20.3218C19.9798 20.5709 20.6475 22.4609 20.9295 22.602C21.2116 22.743 22.3776 22.2023 24.7895 20.8812C26.388 20.0068 27.4176 19.3391 28.2262 18.7421C30.8779 16.7815 32.4717 15.3241 32.5046 15.0608C32.5375 14.7787 31.348 13.7632 31.348 13.7632L30.5347 13.8995Z" fill="#0AC2E7"/>
<path d="M26.2892 5.90726C25.9507 5.76621 25.1468 6.73942 24.639 7.66091C24.009 8.80807 23.0734 10.5335 22.6738 12.9924C22.3635 14.92 22.3588 16.8523 23.3414 17.3083C24.4087 17.802 25.9695 17.5293 27.7608 16.9228C29.8295 16.2176 32.4106 15.1645 32.5187 13.9515C32.6127 12.9219 31.8417 11.5913 31.8417 11.5913L26.2751 7.21897C26.2751 7.21427 26.6278 6.0483 26.2892 5.90726Z" fill="#D27854"/>
<path d="M37.0227 23.6177L28.0429 25.6534L21.978 26.7065L22.2601 27.628C22.2601 27.628 25.2972 27.8913 29.1337 27.581C33.2004 27.2519 38.5695 25.5829 38.5695 25.5829L37.0227 23.6177Z" fill="#D27854"/>
<path d="M21.2305 7.58552C21.1176 8.35656 20.5958 8.94895 19.8576 8.81261C19.2182 8.69507 18.828 8.02276 18.8985 7.24231C18.9832 6.30672 19.6273 5.9212 20.2714 6.01523C20.9155 6.10926 21.3433 6.80978 21.2305 7.58552Z" fill="#07000D"/>
<path d="M12.2036 10.4861C12.2036 10.4861 13.5341 10.3686 13.5341 9.38598C13.5341 8.40337 12.2694 8.23882 11.6159 8.26232C10.9624 8.29053 10.0738 8.61964 10.0033 9.34366C9.9328 10.0677 11.0094 10.5143 11.0094 10.5143C11.0094 10.5143 10.9953 11.3888 10.8684 11.6615C10.7038 12.0141 10.4453 12.409 10.8449 12.7146C11.1693 12.9638 11.5454 12.2022 11.5454 12.2022C11.5454 12.2022 12.0814 13.3023 13.158 13.7678C14.2347 14.2332 15.3489 14.0169 15.6357 14.0028C16.1011 13.9793 16.2657 13.2318 15.5652 13.2318C14.8647 13.2318 14.1218 13.2459 13.5341 12.9685C12.9464 12.6911 12.434 12.0799 12.2929 11.7038C12.1566 11.3277 12.2036 10.4861 12.2036 10.4861Z" fill="#54656B"/>
<path d="M26.6983 5.41334C26.6983 5.41334 28.734 4.54827 29.4581 5.27229C30.1821 5.99632 30.9766 8.85012 31.5173 10.3922C31.9263 11.5629 32.3119 12.522 32.0768 13.0815C31.5314 14.3885 29.4016 15.2582 28.1745 15.7002C26.9334 16.1421 24.9493 16.8238 24.0372 16.1656C23.1252 15.5121 23.5953 12.9639 24.1548 11.2573C24.6813 9.65407 26.1905 6.86139 26.3739 6.5558C26.5572 6.2549 26.6983 5.41334 26.6983 5.41334Z" fill="url(#paint1_linear_93_844)"/>
<path d="M21.2728 24.3885C21.0706 24.5906 21.4467 26.5982 21.7617 26.7721C22.0767 26.9461 28.0617 26.758 29.9893 26.4806C32.1614 26.1656 36.4868 25.23 36.4868 25.23L38.4849 29.0523C38.4849 29.0523 40.1586 32.3951 40.2715 33.4341C40.3937 34.5202 40.436 37.4304 40.436 37.4304L40.8591 37.1859C40.8591 37.1859 40.9391 26.0669 40.6946 22.8417C40.5112 20.4298 40.2715 16.3207 40.2385 16.1421C40.2056 15.9681 38.5319 16.0245 37.4459 16.0951C36.3598 16.1656 35.9978 16.3536 35.9978 16.3536L36.0307 22.2446C36.0307 22.2446 34.2159 22.8793 32.9089 23.1567C31.5784 23.4388 29.4016 23.9136 28.0006 23.9983C25.7298 24.144 21.4514 24.2145 21.2728 24.3885Z" fill="#865953"/>
<path d="M35.128 16.1094C35.128 16.1094 35.6875 25.1222 35.8662 25.2961C36.0401 25.4701 36.3551 25.3995 36.4962 25.5406C36.6372 25.6816 38.3203 28.7658 38.3203 28.7658C38.3203 28.7658 37.7609 16.3868 37.6527 16.1423C37.5493 15.8979 36.7783 16.0013 36.2846 16.0013C35.7909 16.0013 35.128 15.8649 35.128 16.1094Z" fill="#6E4A3A"/>
<path d="M33.4778 16.1235C33.4778 16.1235 44.0327 9.62605 44.4182 9.20292C44.8037 8.77978 48.7435 3.59405 49.7967 2.74778C50.9015 1.8639 52.4248 1.74637 53.492 2.53622C54.3101 3.14271 55.0576 4.26636 54.4511 5.64389C53.6989 7.34583 50.4032 12.5175 49.6368 13.406C48.7812 14.3981 40.3185 20.5946 40.3185 20.5946C40.3185 20.5946 37.9348 23.6459 37.4788 24.243C37.0227 24.84 36.3833 24.9388 36.0542 24.652C35.5418 24.21 35.7251 23.613 36.3598 22.8043C36.9898 21.9957 39.444 19.3675 39.444 19.3675C39.444 19.3675 48.1888 13.1475 48.6683 12.494C49.1479 11.8404 52.7445 5.88837 52.9373 5.62039C53.4027 4.96688 53.1958 3.97017 52.5611 3.58465C51.9264 3.19912 50.972 3.39659 50.5489 3.81972C50.1258 4.24285 45.8004 9.49911 45.335 10.0727C44.8695 10.6463 35.9555 16.006 35.9555 16.006C35.9555 16.006 35.3725 16.0295 35.2315 16.0765C35.0904 16.1235 35.1139 16.3586 35.1139 16.3586L33.8963 16.3821L33.4778 16.1235Z" fill="#ABB0B1"/>
<defs>
<linearGradient id="paint0_linear_93_844" x1="56.4861" y1="22.9263" x2="67.428" y2="14.5095" gradientUnits="userSpaceOnUse">
<stop stop-color="#D07753"/>
<stop offset="0.2205" stop-color="#DA8543"/>
<stop offset="0.6521" stop-color="#F3A818"/>
<stop offset="0.8434" stop-color="#FFB903"/>
</linearGradient>
<linearGradient id="paint1_linear_93_844" x1="28.0109" y1="18.714" x2="27.5728" y2="6.35876" gradientUnits="userSpaceOnUse">
<stop offset="0.0908" stop-color="#D07753"/>
<stop offset="0.1777" stop-color="#DA8542"/>
<stop offset="0.3501" stop-color="#EA9C27"/>
<stop offset="0.5241" stop-color="#F6AC13"/>
<stop offset="0.6992" stop-color="#FDB607"/>
<stop offset="0.877" stop-color="#FFB903"/>
</linearGradient>
</defs>
</svg>
