<svg width="16" height="16" viewBox="0 0 16 16" fill="none" xmlns="http://www.w3.org/2000/svg">
<g clip-path="url(#clip0_1_2)">
<rect width="16" height="16" fill="#E98813"/>
<rect width="16" height="16" fill="#E98813"/>
<path d="M12.3781 10.4802C12.1719 9.89188 11.6912 9.59375 11.2271 9.30547C10.8233 9.05445 10.442 8.81727 10.1926 8.39141C9.50516 7.2118 9.12758 6.5 8.00141 6.5C6.87523 6.5 6.49648 7.21203 5.80742 8.39117C5.55781 8.81797 5.17461 9.05562 4.77031 9.30711C4.30625 9.59562 3.82648 9.89305 3.61953 10.4802C3.53898 10.6919 3.49845 10.9167 3.5 11.1432C3.5 12.098 4.26055 12.875 5.10312 12.875C5.9457 12.875 7.0557 12.4501 8.00375 12.4501C8.9518 12.4501 10.0463 12.875 10.8995 12.875C11.7526 12.875 12.5 12.098 12.5 11.1432C12.5007 10.9166 12.4593 10.6917 12.3781 10.4802Z" fill="white"/>
<path d="M3.6875 8.75C4.41237 8.75 5 7.99448 5 7.0625C5 6.13052 4.41237 5.375 3.6875 5.375C2.96263 5.375 2.375 6.13052 2.375 7.0625C2.375 7.99448 2.96263 8.75 3.6875 8.75Z" fill="#F8F8F8"/>
<path d="M6.3125 6.5C7.03737 6.5 7.625 5.74448 7.625 4.8125C7.625 3.88052 7.03737 3.125 6.3125 3.125C5.58763 3.125 5 3.88052 5 4.8125C5 5.74448 5.58763 6.5 6.3125 6.5Z" fill="#F8F8F8"/>
<path d="M9.6875 6.5C10.4124 6.5 11 5.74448 11 4.8125C11 3.88052 10.4124 3.125 9.6875 3.125C8.96263 3.125 8.375 3.88052 8.375 4.8125C8.375 5.74448 8.96263 6.5 9.6875 6.5Z" fill="#F8F8F8"/>
<path d="M12.3125 8.75C13.0374 8.75 13.625 7.99448 13.625 7.0625C13.625 6.13052 13.0374 5.375 12.3125 5.375C11.5876 5.375 11 6.13052 11 7.0625C11 7.99448 11.5876 8.75 12.3125 8.75Z" fill="#F8F8F8"/>
</g>
<defs>
<clipPath id="clip0_1_2">
<rect width="16" height="16" fill="white"/>
</clipPath>
</defs>
</svg>
