<svg width="218" height="72" viewBox="0 0 218 72" fill="none" xmlns="http://www.w3.org/2000/svg">
<path fill-rule="evenodd" clip-rule="evenodd" d="M31.0176 23.2807C27.6422 23.2807 27.3046 23.647 25.5576 23.647C24.1025 23.647 19.7327 20 17.5501 20C15.3652 20 12.8176 21.3137 12.8176 25.1053V29.4803C12.8222 30.6283 13.2281 34.147 14.8246 33.2067C12.9385 35.4887 12.7492 38.151 12.7743 40.727C12.2657 40.8763 11.748 41.0467 11.2439 41.2217C9.68394 41.7677 8.02815 42.463 7.28236 42.9577C6.90129 43.2095 6.63362 43.606 6.53824 44.0597C6.44286 44.5135 6.52758 44.9875 6.77376 45.3773C7.01995 45.7672 7.40743 46.041 7.85097 46.1386C8.29451 46.2362 8.75778 46.1495 9.13885 45.8977C9.49464 45.662 10.7832 45.081 12.3501 44.5327L12.8701 44.3577C12.975 45.368 13.2373 46.2943 13.6273 47.1343L13.5725 47.1647C12.6374 47.6687 11.7708 48.2497 11.2188 48.6183L10.9611 48.791C10.5801 49.0429 10.3124 49.4393 10.217 49.8931C10.1216 50.3468 10.2063 50.8208 10.4525 51.2107C10.6987 51.6005 11.0862 51.8744 11.5297 51.972C11.9733 52.0695 12.4365 51.9829 12.8176 51.731L13.1164 51.5303C13.6752 51.157 14.3913 50.6787 15.1713 50.2587C15.3538 50.1583 15.5294 50.0697 15.6981 49.988C19.6437 53.775 26.7299 55 31.0176 55C35.3053 55 42.3914 53.775 46.337 49.988C46.5058 50.0697 46.6791 50.1583 46.8639 50.2587C47.6439 50.6787 48.36 51.157 48.9188 51.5303L49.2176 51.731C49.5986 51.9829 50.0619 52.0695 50.5054 51.972C50.949 51.8744 51.3365 51.6005 51.5826 51.2107C51.8288 50.8208 51.9136 50.3468 51.8182 49.8931C51.7228 49.4393 51.4551 49.0429 51.0741 48.791L50.8163 48.6183C50.0542 48.0968 49.2688 47.6117 48.4627 47.1647L48.4079 47.1343C48.7979 46.2943 49.0602 45.368 49.1651 44.3577L49.6851 44.5327C51.2519 45.081 52.5405 45.662 52.8986 45.8977C53.2795 46.1354 53.7361 46.2115 54.1711 46.1096C54.606 46.0078 54.9849 45.7361 55.2268 45.3525C55.4687 44.969 55.5545 44.5039 55.466 44.0565C55.3774 43.6091 55.1215 43.2148 54.7528 42.9577C54.007 42.463 52.3512 41.7677 50.7935 41.2217C50.2862 41.0447 49.7752 40.879 49.2609 40.7247C49.2883 38.1487 49.0967 35.4887 47.2083 33.2067C48.8048 34.147 49.2153 30.6283 49.2176 29.478V25.1053C49.2176 21.3137 46.67 20 44.4851 20C42.3025 20 37.9327 23.647 36.4799 23.647C34.7306 23.647 34.393 23.2807 31.0176 23.2807ZM29.4781 44.7333C29.9388 44.5723 30.4839 44.5 31.0176 44.5C31.5513 44.5 32.0964 44.5723 32.5593 44.7333C32.7874 44.8127 33.0611 44.9387 33.3074 45.1393C33.4763 45.2696 33.6144 45.4371 33.7115 45.6293C33.8086 45.8216 33.8622 46.0337 33.8685 46.25C33.8685 46.7867 33.5514 47.16 33.3074 47.3607C33.0634 47.5613 32.7851 47.6873 32.5593 47.7667C32.0609 47.928 31.5404 48.0068 31.0176 48C30.4955 48.007 29.9758 47.9282 29.4781 47.7667C29.2069 47.6769 28.953 47.5395 28.7278 47.3607C28.5589 47.2304 28.4208 47.0629 28.3237 46.8707C28.2266 46.6784 28.1729 46.4663 28.1667 46.25C28.1667 45.7133 28.4837 45.34 28.7278 45.1393C28.9718 44.9387 29.2523 44.8127 29.4781 44.7333ZM35.9667 37.5C36.2792 36.968 36.8927 36.3333 37.8141 36.3333C38.7355 36.3333 39.3513 36.968 39.6614 37.5C39.9853 38.0577 40.1404 38.7297 40.1404 39.397C40.1404 40.062 39.9853 40.734 39.6614 41.2893C39.3513 41.8237 38.7355 42.4583 37.8141 42.4583C36.8927 42.4583 36.2792 41.8237 35.9667 41.2917C35.6444 40.7144 35.479 40.0594 35.4878 39.3947C35.4878 38.7297 35.6428 38.0577 35.9667 37.5023V37.5ZM22.3737 37.5C22.6862 36.968 23.2997 36.3333 24.2211 36.3333C25.1425 36.3333 25.7583 36.968 26.0685 37.5C26.3923 38.0577 26.5474 38.7297 26.5474 39.397C26.5474 40.062 26.3923 40.734 26.0685 41.2893C25.7583 41.8237 25.1425 42.4583 24.2211 42.4583C23.2997 42.4583 22.6862 41.8237 22.3737 41.2917C22.0515 40.7144 21.8861 40.0594 21.8948 39.3947C21.8948 38.7297 22.0499 38.0577 22.3737 37.5023V37.5Z" fill="#5C5B4A"/>
<path d="M119.001 45.15L122.189 42L116.102 35.7C116.633 34.85 117.032 33.95 117.299 33C117.566 32.05 117.698 31.05 117.696 30C117.696 27.05 116.693 24.562 114.687 22.536C112.681 20.51 110.302 19.498 107.551 19.5C104.797 19.5 102.417 20.512 100.411 22.536C98.4053 24.56 97.4033 27.048 97.4052 30C97.4052 32.95 98.4082 35.438 100.414 37.464C102.42 39.49 104.799 40.502 107.551 40.5C108.565 40.5 109.52 40.362 110.415 40.086C111.309 39.81 112.191 39.398 113.058 38.85L119.001 45.15ZM107.551 36C105.956 36 104.591 35.412 103.455 34.236C102.319 33.06 101.751 31.648 101.753 30C101.753 28.35 102.321 26.937 103.458 25.761C104.594 24.585 105.958 23.998 107.551 24C109.097 24 110.449 24.588 111.609 25.764C112.768 26.94 113.348 28.352 113.348 30C113.348 31.65 112.78 33.063 111.644 34.239C110.507 35.415 109.143 36.002 107.551 36ZM80.013 63C79.1917 63 78.5028 62.712 77.9462 62.136C77.3897 61.56 77.1124 60.848 77.1143 60C77.1143 59.15 77.3926 58.437 77.9491 57.861C78.5057 57.285 79.1936 56.998 80.013 57H137.987C138.808 57 139.497 57.288 140.054 57.864C140.61 58.44 140.888 59.152 140.886 60C140.886 60.85 140.607 61.563 140.051 62.139C139.494 62.715 138.806 63.002 137.987 63H80.013ZM85.8104 54C84.2161 54 82.8508 53.412 81.7145 52.236C80.5782 51.06 80.0111 49.648 80.013 48V15C80.013 13.35 80.5811 11.937 81.7174 10.761C82.8537 9.585 84.218 8.99801 85.8104 9.00001H132.19C133.784 9.00001 135.149 9.58801 136.285 10.764C137.422 11.94 137.989 13.352 137.987 15V48C137.987 49.65 137.419 51.063 136.283 52.239C135.146 53.415 133.782 54.002 132.19 54H85.8104Z" fill="#5C5B4A"/>
<path d="M200.136 18C196.25 18 193.886 18.7425 192.523 19.3725C190.773 18.5175 188.773 18 186.5 18C184.227 18 182.227 18.5175 180.477 19.3725C179.114 18.7425 176.75 18 172.864 18C166.045 18 161.5 36 161.5 40.5C161.5 42.3675 164.5 44.0775 168.636 44.775C170.091 49.815 176.955 53.6625 185.364 54V44.37C184.023 43.5375 181.955 42.03 181.955 40.5C181.955 38.25 186.5 38.25 186.5 38.25C186.5 38.25 191.045 38.25 191.045 40.5C191.045 42.03 188.977 43.5375 187.636 44.37V54C196.045 53.6625 202.909 49.815 204.364 44.775C208.5 44.0775 211.5 42.3675 211.5 40.5C211.5 36 206.955 18 200.136 18ZM168.659 40.2075C167.523 39.9375 166.636 39.6225 166.045 39.375C166.614 33.1425 171.045 23.4 172.977 22.5C174.205 22.5 175.136 22.635 175.977 22.7475C171.205 27.945 169.318 36.09 168.659 40.2075ZM179.682 36C179.079 36 178.501 35.7629 178.075 35.341C177.649 34.919 177.409 34.3467 177.409 33.75C177.409 32.535 178.432 31.5 179.682 31.5C180.285 31.5 180.863 31.7371 181.289 32.159C181.715 32.581 181.955 33.1533 181.955 33.75C181.955 35.01 180.932 36 179.682 36ZM193.318 36C192.715 36 192.137 35.7629 191.711 35.341C191.285 34.919 191.045 34.3467 191.045 33.75C191.045 32.535 192.068 31.5 193.318 31.5C193.921 31.5 194.499 31.7371 194.925 32.159C195.351 32.581 195.591 33.1533 195.591 33.75C195.591 35.01 194.568 36 193.318 36ZM204.341 40.2075C203.682 36.09 201.795 27.945 197.023 22.7475C197.864 22.635 198.795 22.5 200.023 22.5C201.955 23.4 206.386 33.1425 206.955 39.375C206.386 39.6225 205.5 39.9375 204.341 40.2075Z" fill="#5C5B4A"/>
</svg>
