<svg width="50" height="49" viewBox="0 0 50 49" fill="none" xmlns="http://www.w3.org/2000/svg">
<path d="M12.475 4.6638C12.475 5.7661 11.9366 7.57218 12.6234 8.1954L14.7729 10.2177C15.7438 11.1123 16.9987 12.524 15.1714 14.5082C13.306 16.5347 11.5508 15.8903 10.5799 14.9957L8.45588 13.0116C7.64188 12.2739 6.09442 12.6428 5.38216 12.6767C5.31009 12.6809 5.23378 12.6851 5.1617 12.6979C5.08963 12.7106 5.01332 12.7148 4.94125 12.7191C3.53793 12.7869 2.19398 12.223 1.26126 11.1589C-0.0360589 9.69198 -0.549052 7.23725 0.773707 5.75338C1.95232 4.43486 2.79176 4.84611 3.75415 4.47726C3.93646 4.41367 4.05093 4.278 4.10604 4.09146C4.38162 3.09515 3.52521 2.60335 5.12355 0.958383C6.4675 -0.42373 9.00279 -0.194791 10.5587 0.932946C11.7797 1.80631 12.475 3.17146 12.475 4.6638Z" fill="url(#paint0_radial_110_1081)"/>
<path opacity="0.2" d="M7.64188 1.27188C8.40501 1.27188 9.21901 1.5305 9.8168 1.96294C10.6986 2.59464 11.2032 3.57823 11.2032 4.65933C11.2032 4.90523 11.1608 5.24864 11.1184 5.61325C10.9742 6.78338 10.8004 8.24181 11.7585 9.12788L13.9123 11.1544C14.2641 11.4809 14.6839 11.9048 14.8026 12.3076C14.8407 12.4433 14.9637 12.8587 14.2387 13.6431C13.6706 14.2621 13.1195 14.5715 12.6022 14.5715C12.0765 14.5715 11.6483 14.2493 11.449 14.0628L9.31228 12.0659C8.72722 11.536 7.94713 11.2774 6.92114 11.2774C6.47599 11.2774 6.0605 11.324 5.72557 11.3622C5.56447 11.3791 5.41608 11.3961 5.32281 11.4003C5.2253 11.4046 5.09811 11.413 4.9582 11.4342C4.93277 11.4385 4.90733 11.4385 4.88189 11.4385C4.82678 11.4427 4.77166 11.4427 4.71655 11.4427C3.74567 11.4427 2.86384 11.0399 2.21941 10.3065C1.30366 9.27203 0.888176 7.52955 1.72762 6.5926C2.22365 6.03721 2.49923 5.99905 3.05038 5.92274C3.37259 5.88034 3.77111 5.82523 4.20355 5.65988C4.75046 5.46062 5.16171 5.01546 5.33129 4.44311C5.33129 4.43463 5.33553 4.43039 5.33553 4.42192C5.48391 3.88348 5.44152 3.43833 5.41184 3.11611C5.37368 2.73031 5.35673 2.53953 6.0393 1.83575C6.51838 1.34396 7.24759 1.27188 7.64188 1.27188ZM7.64188 0C6.68796 0 5.77221 0.292533 5.12355 0.953913C3.52521 2.59888 4.38162 3.09068 4.10604 4.08699C4.05093 4.27353 3.93646 4.4092 3.75415 4.47279C2.79176 4.84588 1.95232 4.43039 0.773707 5.74891C-0.549052 7.23278 -0.0360589 9.68751 1.26126 11.1544C2.1431 12.1634 3.38955 12.7231 4.71231 12.7231C4.78862 12.7231 4.86493 12.7231 4.94125 12.7188C5.01332 12.7146 5.08963 12.7104 5.1617 12.6976C5.23378 12.6849 5.31009 12.6807 5.38216 12.6764C5.74677 12.6595 6.3276 12.5535 6.92114 12.5535C7.48501 12.5535 8.05736 12.651 8.45588 13.0114L10.5799 14.9955C11.0802 15.4534 11.784 15.8477 12.6022 15.8477C13.3823 15.8477 14.2641 15.4958 15.1714 14.508C16.9987 12.5238 15.748 11.1163 14.7729 10.2175L12.6234 8.19517C11.9366 7.57195 12.4708 5.76587 12.475 4.66357C12.475 3.17123 11.7797 1.80607 10.563 0.932715C9.74897 0.343409 8.67634 0 7.64188 0Z" fill="#424242"/>
<path d="M45.7602 29.3805C46.2647 26.9343 45.0395 25.0985 43.8312 22.5929C41.9191 18.6289 34.8305 16.2038 31.884 12.5493C28.9544 8.91169 25.7747 7.53382 25.7747 7.53382C25.7747 7.53382 20.6829 4.30748 15.4936 8.18672C13.1194 9.95888 10.7325 11.8709 9.30379 14.5249C7.96408 17.0136 6.47597 19.1843 6.59044 22.0206C6.78123 26.7435 10.6732 31.2884 13.5773 34.6843C15.129 36.4988 17.2785 37.5164 19.1694 38.979C21.0475 40.4374 22.2261 42.7014 24.2569 43.9266C25.6645 44.7746 27.6867 44.8848 29.3317 45.0374C30.3492 45.1307 31.3879 45.0289 32.363 44.7152C33.3848 44.3845 34.1182 43.7147 35.034 43.2229C37.0944 42.1248 38.8666 40.3527 40.537 38.7416C42.5975 36.749 44.0432 34.0272 45.1285 31.4028C45.4083 30.7203 45.6203 30.0462 45.7602 29.3805Z" fill="url(#paint1_linear_110_1081)"/>
<path opacity="0.2" d="M21.0306 7.5463C23.3539 7.5463 25.0794 8.59772 25.0921 8.6062C25.1472 8.64012 25.2066 8.67403 25.2659 8.69947C25.2956 8.71219 28.187 9.99255 30.8919 13.3461C32.3291 15.1267 34.5761 16.5894 36.751 18.0012C39.2185 19.6038 41.775 21.2614 42.6823 23.1438C42.8646 23.5212 43.0469 23.8815 43.2207 24.2334C44.1661 26.1116 44.8487 27.4725 44.5095 29.1217C44.3908 29.6983 44.2043 30.3003 43.9499 30.9108C42.678 33.993 41.2705 36.2527 39.6509 37.8214L39.3711 38.0927C37.8237 39.5935 36.2211 41.1452 34.4362 42.0949C34.0504 42.2984 33.7112 42.5231 33.3848 42.7351C32.8888 43.0615 32.4606 43.3413 31.973 43.4982C31.3667 43.6932 30.7223 43.7907 30.0609 43.7907C29.8574 43.7907 29.6539 43.7823 29.4504 43.7611L29.0095 43.7229C27.5765 43.5957 25.9485 43.4516 24.914 42.8283C23.9601 42.2518 23.18 41.353 22.3576 40.399C21.6326 39.5596 20.8864 38.6947 19.9495 37.9698C19.2669 37.4398 18.5589 36.9692 17.8763 36.5156C16.6298 35.6888 15.4512 34.9088 14.5397 33.8404C11.7924 30.6395 8.03191 26.2472 7.86233 21.9695C7.77753 19.8878 8.73569 18.1708 9.84646 16.1781C10.0372 15.8347 10.2323 15.4828 10.4231 15.131C11.7289 12.7101 13.925 10.9465 16.2525 9.20823C17.7279 8.10593 19.3347 7.5463 21.0306 7.5463ZM21.0306 6.27441C19.3729 6.27441 17.4396 6.72805 15.4936 8.18224C13.1194 9.9544 10.7325 11.8665 9.30379 14.5205C7.96408 17.0091 6.47597 19.1798 6.59044 22.0161C6.78123 26.739 10.6732 31.2839 13.5773 34.6798C15.129 36.4944 17.2785 37.5119 19.1694 38.9745C21.0475 40.433 22.2261 42.6969 24.2569 43.9222C25.6645 44.7701 27.6867 44.8803 29.3317 45.0329C29.5734 45.0541 29.815 45.0669 30.0609 45.0669C30.841 45.0669 31.6211 44.9524 32.363 44.7107C33.3848 44.38 34.1182 43.7102 35.034 43.2184C37.0944 42.1203 38.8666 40.3482 40.537 38.7371C42.5975 36.7445 44.0432 34.0227 45.1285 31.3984C45.4083 30.72 45.6203 30.0459 45.7602 29.3803C46.2647 26.934 45.0395 25.0983 43.8312 22.5927C41.9191 18.6286 34.8305 16.2036 31.884 12.549C28.9544 8.91145 25.7747 7.53358 25.7747 7.53358C25.7747 7.53358 23.7863 6.27441 21.0306 6.27441Z" fill="#EEEEEE"/>
<path d="M44.429 29.105C44.323 31.4834 42.5593 33.8619 39.8714 36.9525C37.1877 40.0432 34.5507 42.2393 31.2862 43.4646C28.5686 44.4821 24.825 42.4937 23.922 40.3654C23.4132 39.1699 23.0783 37.8895 23.8669 35.4093C24.4816 33.4761 24.6766 30.8857 27.1017 28.2529C28.9544 26.2391 31.7949 24.8909 34.7288 23.5215C38.4596 21.7747 40.1046 21.55 42.4109 23.7038C44.5223 25.6837 44.5477 26.4086 44.429 29.105Z" fill="#FFABA6"/>
<path d="M37.2344 29.4738C37.3107 30.4786 36.7341 31.776 35.8226 32.3186C35.3054 32.6281 34.6525 32.6239 34.2031 32.3144C33.618 31.9074 33.4272 31.0764 32.8337 30.6821C32.2825 30.3175 31.5109 30.4193 30.8495 30.6906C30.1881 30.962 29.5776 31.3902 28.9205 31.6827C27.8012 32.1787 26.5548 32.2635 25.4779 31.9116C26.8431 29.9826 28.4669 27.99 30.6291 27.3032C31.1717 27.1336 31.7398 27.0445 32.2444 26.7605C32.91 26.3832 33.3763 25.7091 33.8554 25.0943C34.3345 24.4753 34.9068 23.8521 35.6276 23.6656C36.1066 23.5426 36.6281 23.7165 36.9079 24.0895C37.2174 24.5008 36.9885 25.1791 36.963 25.6964C36.8994 26.9725 37.0775 28.1468 37.2259 29.3763C37.2301 29.4103 37.2344 29.4442 37.2344 29.4738Z" fill="url(#paint2_radial_110_1081)"/>
<path d="M41.4613 28.4307C41.4358 28.7783 41.4273 29.1556 41.2026 29.4439C40.9313 29.7916 40.4692 29.8594 40.058 29.9357C39.6467 30.0078 39.1676 30.1816 39.015 30.5886C38.9005 30.4063 38.9726 30.1477 39.0871 29.94C39.2016 29.7322 39.3542 29.5414 39.4178 29.3167C39.617 28.5918 38.7649 28.0109 38.9472 27.286C39.0532 26.8662 39.4644 26.5822 39.8544 26.3956C40.2445 26.2091 40.6727 26.0522 40.944 25.7046C41.279 25.2764 41.3892 24.4115 42.0421 24.3606C42.5 24.3267 42.5127 24.5641 42.4661 24.9542C42.4109 25.4036 42.0675 25.8996 41.9107 26.3278C41.6605 27.0104 41.5079 27.7269 41.4613 28.4307Z" fill="url(#paint3_radial_110_1081)"/>
<path d="M38.8031 26.6839C38.3749 27.4047 38.5063 28.2611 38.5826 29.0497C38.6589 29.8382 38.5996 30.7837 37.9636 31.3221C37.5948 30.9999 37.6202 30.3894 37.6541 29.8594C37.7983 27.6336 37.5948 25.429 37.0479 23.3516C36.9758 23.0718 38.7479 22.8047 38.9175 22.8132C39.6043 22.8386 40.4056 23.1396 40.783 23.7247C41.6351 25.0432 39.3796 25.7173 38.8031 26.6839Z" fill="url(#paint4_radial_110_1081)"/>
<path d="M24.3459 39.4754C25.0031 38.7716 26.1223 39.4245 26.9491 38.9794C27.3815 38.7462 27.6401 38.2587 27.7843 37.7838C27.9284 37.3132 27.992 36.8214 28.1955 36.3636C28.9459 34.6889 31.3031 34.0402 31.8119 32.2935C31.9179 31.9289 31.8543 31.4498 31.5066 31.3947C31.3243 31.365 31.1378 31.471 30.9682 31.5686L25.6136 34.7101C25.4058 34.833 25.1939 34.956 25.0243 35.1341C24.7317 35.4393 24.6003 35.8633 24.5028 36.266C24.3078 37.0631 24.1976 37.8728 24.1679 38.6741C24.1594 38.8946 24.1636 39.1363 24.3035 39.2931C24.4435 39.4457 24.7614 39.4245 24.842 39.2083" fill="url(#paint5_radial_110_1081)"/>
<path d="M26.2029 41.9936C27.2289 42.3243 28.2718 42.6593 29.3784 42.6593C30.1542 42.6593 31.0954 42.371 31.4092 41.5994C31.0573 41.752 30.6503 41.7138 30.3747 41.4934C30.0991 41.2729 29.9677 40.8871 30.0398 40.5055C30.1415 39.9629 30.6163 39.3693 30.345 38.9369C30.2221 38.7461 29.9804 38.6698 29.743 38.6825C28.8145 38.7291 28.1107 39.8526 27.1823 39.9968C26.5421 40.0943 25.9867 39.7043 25.3635 39.6322C25.2024 39.6152 24.9904 39.6407 24.9141 39.8018C24.8547 39.9247 24.9098 40.0561 24.9607 40.1664C25.3719 41.0313 25.8129 41.9385 26.6142 42.4261" fill="url(#paint6_radial_110_1081)"/>
<path d="M30.9809 37.2112C30.9937 36.8169 30.9004 36.4268 30.9767 36.0326C31.2056 34.8624 32.7107 34.3367 33.2491 33.2471C33.3085 33.1284 33.3509 32.9758 33.2703 32.891C33.1686 32.785 32.982 32.8741 32.8506 32.9631C31.4007 33.9509 29.8871 35.0066 29.018 36.5498C28.7043 37.1052 28.488 37.7072 28.1616 38.2584C27.8351 38.8095 27.3688 39.3267 26.7837 39.509C27.6189 39.2462 28.3863 38.5594 29.2809 38.3135C30.0525 38.1057 30.9385 38.3644 30.9809 37.2112Z" fill="url(#paint7_radial_110_1081)"/>
<path d="M42.093 33.7939C41.9319 34.1415 41.7581 34.5019 41.457 34.7393C41.156 34.9768 40.7066 35.0446 40.4819 34.7902C40.3378 34.6291 40.3166 34.3832 40.2403 34.1755C40.0368 33.6498 39.4729 33.3996 38.9345 33.2639C38.3918 33.1283 37.8067 33.052 37.3828 32.7086C36.9546 32.3651 36.7723 31.6275 37.1878 31.1696C37.1411 31.5427 37.5184 31.8055 37.8831 31.7716C38.2434 31.7334 38.5741 31.4918 38.8709 31.2459C39.1676 31 39.4687 30.7287 39.8248 30.6227C40.236 30.4997 40.6685 30.6142 41.0712 30.4531C41.6224 30.2369 41.9319 29.584 41.9955 28.9947C42.0591 28.4054 41.9488 27.833 41.9955 27.2437C42.0421 26.6544 42.3007 25.9973 42.8307 25.7217C42.5424 25.8701 42.8052 27.3666 42.8604 27.5913C43.013 28.1934 43.6235 28.6767 43.7422 29.2151C43.8567 29.7324 43.3182 30.7499 43.1274 31.2756C42.818 32.1277 42.4745 32.9672 42.093 33.7939Z" fill="url(#paint8_radial_110_1081)"/>
<path d="M43.1783 25.8447C43.0342 26.1161 43.1147 26.4298 43.2037 26.7011C43.3564 27.176 43.4836 27.6762 43.6743 28.1299C43.8736 27.8034 43.7464 27.3413 43.6701 27.0064C43.6319 26.858 43.1529 25.8914 43.1783 25.8447Z" fill="url(#paint9_radial_110_1081)"/>
<path d="M33.9953 39.8527C33.7409 39.9374 33.4738 39.9714 33.2237 40.0731C32.7955 40.2469 32.4479 40.5988 32.0409 40.8278C31.6339 41.0567 31.0785 41.1288 30.8326 40.7769C30.6799 40.5607 30.6969 40.2554 30.7181 39.9714C30.7902 39.0726 30.8707 38.1314 31.3498 37.3258C31.7738 37.2114 31.973 37.877 32.397 37.8897C32.6556 37.8939 32.8761 37.6565 33.0753 37.4615C33.5968 36.9485 34.3557 36.5797 34.9747 36.8086C35.4495 36.9824 35.7463 37.5124 35.67 38.0551C35.5852 38.7122 34.6058 39.6492 33.9953 39.8527Z" fill="url(#paint10_radial_110_1081)"/>
<path d="M32.7446 25.7858C32.5538 25.9893 32.3588 26.2013 32.1171 26.3285C31.8755 26.4557 31.5702 26.4769 31.3837 26.3116C31.2268 26.1716 33.3042 24.3317 33.813 24.5945C33.5247 25.0185 33.1007 25.4 32.7446 25.7858Z" fill="url(#paint11_radial_110_1081)"/>
<path d="M37.0817 39.9159C36.9079 40.0431 36.6832 40.1745 36.5094 40.0855C36.4034 40.0303 36.3567 39.9116 36.2932 39.8099C36.1108 39.5216 35.759 39.369 35.4028 39.4198C35.4283 39.1273 35.6699 38.8772 35.9243 38.7118C36.1787 38.5507 36.4627 38.4405 36.6959 38.2497C37.1623 37.8681 37.3488 37.2449 37.582 36.6895C37.8152 36.1341 38.2222 35.5364 38.7903 35.4643C39.0489 35.4346 39.2736 35.5448 39.5237 35.5448C39.8883 35.5448 39.9986 35.3922 40.3165 35.2947C41.1009 35.0573 40.9058 35.6763 40.5328 36.2656C39.6424 37.6816 38.413 38.9365 37.0817 39.9159Z" fill="url(#paint12_radial_110_1081)"/>
<path d="M37.1538 36.5329C37.0944 36.783 37.0817 37.0501 36.963 37.2791C36.8443 37.508 36.556 37.6903 36.3398 37.5758C36.1193 37.4571 36.1236 37.1392 36.0812 36.889C35.9413 36.0793 34.8898 35.6468 34.1776 36.1089C33.6815 36.4312 33.3593 37.084 32.7912 37.19C32.2443 37.2918 31.7652 36.7661 31.7398 36.2064C31.7144 35.6468 32.0196 35.1042 32.3842 34.659C32.7488 34.2138 33.1855 33.828 33.512 33.3532C33.6349 33.1751 33.7451 32.9801 33.9147 32.8529C34.0843 32.7215 34.3429 32.6833 34.4828 32.8275C34.6651 33.014 34.5507 33.3744 34.7118 33.5821C34.8941 33.8111 35.2968 33.6712 35.4919 33.4295C35.6869 33.1878 35.7717 32.8699 35.9624 32.6197C36.1532 32.3696 36.539 32.2085 36.7425 32.4205C36.874 32.5561 36.8655 32.7724 36.9206 32.9547C37.0436 33.3659 37.4802 33.5864 37.9 33.6584C38.3197 33.7305 38.7648 33.6966 39.1718 33.8111C39.4559 33.8916 40.1724 34.341 40.024 34.7607C39.8714 35.1889 39.2524 34.96 38.9429 34.9897C38.1331 35.0618 37.3488 35.7062 37.1538 36.5329Z" fill="url(#paint13_radial_110_1081)"/>
<path d="M25.2659 34.1032C25.1684 34.1541 25.0073 34.1711 25.0116 34.0651C25.037 33.6029 25.3719 33.1705 25.7747 32.9246C26.1774 32.6787 26.6396 32.5939 27.089 32.5642C27.4705 32.5346 27.9496 32.4879 28.2803 32.5261C27.2798 33.0688 26.2665 33.5775 25.2659 34.1032Z" fill="url(#paint14_radial_110_1081)"/>
<path d="M44.6622 35.197C43.4708 35.2649 41.5545 35.9517 40.838 35.2437L38.218 32.8059C37.192 31.8096 35.5979 30.5377 33.5629 32.6321C31.4855 34.7688 32.2825 36.6258 33.3085 37.6221L35.8862 40.0344C36.7299 40.8696 36.4246 42.5655 36.4288 43.3329C36.4288 43.4134 36.4288 43.494 36.4204 43.5745C36.4119 43.6551 36.4119 43.7356 36.4119 43.8162C36.4204 45.3382 37.1114 46.7542 38.3155 47.6954C39.9732 49.0055 42.6568 49.4167 44.1788 47.8989C45.5355 46.5507 45.0395 45.6689 45.3829 44.6047C45.4423 44.4055 45.5822 44.2741 45.7814 44.202C46.8413 43.8459 47.4222 44.7404 49.101 42.9174C50.5171 41.3826 50.1143 38.6566 48.8043 37.0455C47.7868 35.7779 46.2732 35.108 44.6622 35.197Z" fill="url(#paint15_radial_110_1081)"/>
<path opacity="0.2" d="M35.7675 32.7763C36.2974 32.7763 36.8825 33.2808 37.3361 33.7217L37.3573 33.7429L39.9647 36.1722C40.4226 36.6131 41.0712 36.8378 41.8895 36.8378C42.4872 36.8378 43.102 36.7276 43.6998 36.6216C44.0941 36.5538 44.4629 36.4859 44.7385 36.469C44.8106 36.4647 44.8826 36.4647 44.9547 36.4647C46.0867 36.4647 47.1042 36.9565 47.8249 37.8469C48.7619 38.9958 49.1053 41.0393 48.1726 42.0525C47.4391 42.8454 47.1551 42.8454 46.9643 42.8454C46.8922 42.8454 46.8201 42.8411 46.7481 42.8411C46.6421 42.8369 46.5361 42.8326 46.4301 42.8326C46.1884 42.8326 45.8153 42.8496 45.3829 42.9937C45.3744 42.998 45.3702 42.998 45.3617 43.0022C44.7724 43.2142 44.3527 43.6466 44.1746 44.2232C44.0262 44.6896 43.9923 45.1178 43.9626 45.4612C43.9118 46.0632 43.8863 46.3981 43.2885 46.9917C42.7925 47.4877 42.1226 47.5937 41.6478 47.5937C40.7744 47.5937 39.8248 47.2588 39.1083 46.6864C38.2137 45.9869 37.7007 44.9355 37.6922 43.7993V43.7145C37.7092 43.5534 37.7092 43.4177 37.7092 43.316C37.7092 43.21 37.7177 43.0446 37.7304 42.8708C37.7898 41.8702 37.8873 40.1998 36.7935 39.1187L36.768 39.0933L34.203 36.6937C33.2491 35.761 33.3466 34.6883 34.4913 33.5097C34.9577 33.0264 35.3901 32.7763 35.7675 32.7763ZM35.7675 31.5044C35.1061 31.5044 34.3726 31.8054 33.5671 32.6321C31.4897 34.7689 32.2867 36.6258 33.3127 37.6222L35.8904 40.0345C36.7341 40.8697 36.4288 42.5655 36.4331 43.3329C36.4331 43.4135 36.4331 43.494 36.4246 43.5746C36.4161 43.6551 36.4161 43.7357 36.4161 43.8162C36.4246 45.3382 37.1157 46.7543 38.3197 47.6955C39.2397 48.4204 40.4692 48.8698 41.6436 48.8698C42.5932 48.8698 43.5048 48.5773 44.1831 47.899C45.5398 46.5508 45.0437 45.6689 45.3871 44.6048C45.4465 44.4055 45.5864 44.2741 45.7857 44.202C46.0146 44.1257 46.2223 44.1045 46.4258 44.1045C46.6081 44.1045 46.782 44.1172 46.9643 44.1172C47.5112 44.1172 48.1217 43.9858 49.1095 42.9132C50.5255 41.3784 50.1228 38.6524 48.8127 37.0413C47.8546 35.85 46.4555 35.1886 44.9547 35.1886C44.8614 35.1886 44.7639 35.1929 44.6706 35.1971C43.8778 35.2437 42.7628 35.5617 41.8937 35.5617C41.457 35.5617 41.0839 35.4811 40.8465 35.2437L38.2264 32.806C37.599 32.2082 36.7722 31.5044 35.7675 31.5044Z" fill="#424242"/>
<defs>
<radialGradient id="paint0_radial_110_1081" cx="0" cy="0" r="1" gradientUnits="userSpaceOnUse" gradientTransform="translate(12.3139 4.77827) rotate(180) scale(11.6606)">
<stop stop-color="#FFE7CC"/>
<stop offset="0.6207" stop-color="#D1B798"/>
</radialGradient>
<linearGradient id="paint1_linear_110_1081" x1="36.562" y1="14.6102" x2="15.5225" y2="35.6501" gradientUnits="userSpaceOnUse">
<stop stop-color="#C7502D"/>
<stop offset="0.7192" stop-color="#7E1D1C"/>
<stop offset="0.9852" stop-color="#A21D1C"/>
</linearGradient>
<radialGradient id="paint2_radial_110_1081" cx="0" cy="0" r="1" gradientUnits="userSpaceOnUse" gradientTransform="translate(32.9042 29.2909) rotate(-142.521) scale(5.15563 5.79903)">
<stop stop-color="#F79792"/>
<stop offset="0.8818" stop-color="#EE7276"/>
</radialGradient>
<radialGradient id="paint3_radial_110_1081" cx="0" cy="0" r="1" gradientUnits="userSpaceOnUse" gradientTransform="translate(40.6906 27.501) rotate(-142.521) scale(2.45321 2.75936)">
<stop stop-color="#F79792"/>
<stop offset="0.8818" stop-color="#EE7276"/>
</radialGradient>
<radialGradient id="paint4_radial_110_1081" cx="0" cy="0" r="1" gradientUnits="userSpaceOnUse" gradientTransform="translate(38.1398 26.5166) rotate(-142.521) scale(3.16956 3.56511)">
<stop stop-color="#F79792"/>
<stop offset="0.8818" stop-color="#EE7276"/>
</radialGradient>
<radialGradient id="paint5_radial_110_1081" cx="0" cy="0" r="1" gradientUnits="userSpaceOnUse" gradientTransform="translate(27.5447 35.1149) rotate(-142.521) scale(3.6802 4.13947)">
<stop stop-color="#F79792"/>
<stop offset="0.8818" stop-color="#EE7276"/>
</radialGradient>
<radialGradient id="paint6_radial_110_1081" cx="0" cy="0" r="1" gradientUnits="userSpaceOnUse" gradientTransform="translate(28.3104 40.5427) rotate(-142.521) scale(2.74117 3.08326)">
<stop stop-color="#F79792"/>
<stop offset="0.8818" stop-color="#EE7276"/>
</radialGradient>
<radialGradient id="paint7_radial_110_1081" cx="0" cy="0" r="1" gradientUnits="userSpaceOnUse" gradientTransform="translate(30.4075 36.4932) rotate(-142.521) scale(3.00236 3.37705)">
<stop stop-color="#F79792"/>
<stop offset="0.8818" stop-color="#EE7276"/>
</radialGradient>
<radialGradient id="paint8_radial_110_1081" cx="0" cy="0" r="1" gradientUnits="userSpaceOnUse" gradientTransform="translate(41.4311 30.2343) rotate(-142.521) scale(3.41742 3.8439)">
<stop stop-color="#F79792"/>
<stop offset="0.8818" stop-color="#EE7276"/>
</radialGradient>
<radialGradient id="paint9_radial_110_1081" cx="0" cy="0" r="1" gradientUnits="userSpaceOnUse" gradientTransform="translate(43.4211 26.9859) rotate(-142.521) scale(0.789236 0.88773)">
<stop stop-color="#F79792"/>
<stop offset="0.8818" stop-color="#EE7276"/>
</radialGradient>
<radialGradient id="paint10_radial_110_1081" cx="0" cy="0" r="1" gradientUnits="userSpaceOnUse" gradientTransform="translate(32.8281 38.7184) rotate(-142.521) scale(2.29967 2.58665)">
<stop stop-color="#F79792"/>
<stop offset="0.8818" stop-color="#EE7276"/>
</radialGradient>
<radialGradient id="paint11_radial_110_1081" cx="0" cy="0" r="1" gradientUnits="userSpaceOnUse" gradientTransform="translate(32.5835 25.4363) rotate(-142.521) scale(0.953179 1.07213)">
<stop stop-color="#F79792"/>
<stop offset="0.8818" stop-color="#EE7276"/>
</radialGradient>
<radialGradient id="paint12_radial_110_1081" cx="0" cy="0" r="1" gradientUnits="userSpaceOnUse" gradientTransform="translate(38.2244 37.4567) rotate(-142.521) scale(2.21448 2.49084)">
<stop stop-color="#F79792"/>
<stop offset="0.8818" stop-color="#EE7276"/>
</radialGradient>
<radialGradient id="paint13_radial_110_1081" cx="0" cy="0" r="1" gradientUnits="userSpaceOnUse" gradientTransform="translate(35.6942 35.38) rotate(-142.521) scale(3.15374 3.37034)">
<stop stop-color="#F79792"/>
<stop offset="0.8818" stop-color="#EE7276"/>
</radialGradient>
<radialGradient id="paint14_radial_110_1081" cx="0" cy="0" r="1" gradientUnits="userSpaceOnUse" gradientTransform="translate(26.5473 33.2401) rotate(-142.521) scale(1.21352 1.36496)">
<stop stop-color="#F79792"/>
<stop offset="0.8818" stop-color="#EE7276"/>
</radialGradient>
<radialGradient id="paint15_radial_110_1081" cx="0" cy="0" r="1" gradientUnits="userSpaceOnUse" gradientTransform="translate(45.1709 38.9067) rotate(180) scale(17.4303 17.4303)">
<stop stop-color="#FFE7CC"/>
<stop offset="0.6207" stop-color="#D1B798"/>
</radialGradient>
</defs>
</svg>
