<svg width="218" height="32" viewBox="0 0 218 32" fill="none" xmlns="http://www.w3.org/2000/svg">
<g clip-path="url(#clip0_93_591)">
<path d="M12.5217 5.04346C11.0144 5.04346 9.52178 5.34035 8.12918 5.91719C6.73657 6.49402 5.47122 7.33951 4.40536 8.40536C2.25277 10.558 1.04346 13.4775 1.04346 16.5217C1.04346 19.5659 2.25277 22.4855 4.40536 24.6381C5.47122 25.7039 6.73657 26.5494 8.12918 27.1262C9.52178 27.7031 11.0144 28 12.5217 28C15.5659 28 18.4855 26.7907 20.6381 24.6381C22.7907 22.4855 24 19.5659 24 16.5217C24 15.0144 23.7031 13.5218 23.1262 12.1292C22.5494 10.7366 21.7039 9.47122 20.6381 8.40536C19.5722 7.33951 18.3069 6.49402 16.9143 5.91719C15.5217 5.34035 14.0291 5.04346 12.5217 5.04346ZM17.3426 21.3426L11.3739 17.6695V10.7826H13.0956V16.7513L18.2608 19.8504L17.3426 21.3426Z" fill="#494537"/>
</g>
<path d="M37.6802 27.2C37.0802 27.2 36.5069 27.08 35.9602 26.84C35.4136 26.6 34.9336 26.26 34.5202 25.82C34.1202 25.38 33.8002 24.8667 33.5602 24.28C33.3336 23.68 33.2202 23.0267 33.2202 22.32C33.2202 21.6267 33.3336 20.9867 33.5602 20.4C33.8002 19.8133 34.1202 19.3067 34.5202 18.88C34.9336 18.44 35.4136 18.1 35.9602 17.86C36.5069 17.62 37.0802 17.5 37.6802 17.5C38.3336 17.5 38.9202 17.62 39.4402 17.86C39.9736 18.1 40.4269 18.44 40.8002 18.88C41.1869 19.3067 41.4802 19.82 41.6802 20.42C41.8802 21.0067 41.9802 21.6467 41.9802 22.34C41.9936 23.0467 41.8936 23.6933 41.6802 24.28C41.4802 24.8667 41.1936 25.38 40.8202 25.82C40.4469 26.26 39.9936 26.6 39.4602 26.84C38.9402 27.08 38.3469 27.2 37.6802 27.2ZM37.9402 25.5C38.5002 25.5 39.0002 25.3667 39.4402 25.1C39.8936 24.8333 40.2469 24.4667 40.5002 24C40.7669 23.52 40.9002 22.9733 40.9002 22.36C40.9002 21.7333 40.7669 21.1867 40.5002 20.72C40.2469 20.24 39.8936 19.8667 39.4402 19.6C39.0002 19.3333 38.5002 19.2 37.9402 19.2C37.3802 19.2 36.8736 19.3333 36.4202 19.6C35.9669 19.8667 35.6069 20.24 35.3402 20.72C35.0869 21.1867 34.9602 21.7333 34.9602 22.36C34.9602 22.9733 35.0869 23.52 35.3402 24C35.6069 24.4667 35.9669 24.8333 36.4202 25.1C36.8869 25.3667 37.3936 25.5 37.9402 25.5ZM41.8602 27.2C41.5669 27.2 41.3536 27.1467 41.2202 27.04C41.0869 26.9333 41.0069 26.7533 40.9802 26.5V13.98C40.9802 13.78 40.9936 13.6133 41.0202 13.48C41.0602 13.3467 41.1402 13.2467 41.2602 13.18C41.3936 13.1 41.5869 13.06 41.8402 13.06C42.0936 13.06 42.2802 13.1 42.4002 13.18C42.5336 13.2467 42.6202 13.3467 42.6602 13.48C42.7002 13.6133 42.7202 13.7733 42.7202 13.96V26.28C42.7202 26.4667 42.7002 26.6333 42.6602 26.78C42.6202 26.9133 42.5402 27.0133 42.4202 27.08C42.3002 27.16 42.1136 27.2 41.8602 27.2ZM49.779 27.3C48.979 27.3 48.2657 27.1667 47.639 26.9C47.0123 26.6333 46.479 26.2733 46.039 25.82C45.6123 25.3533 45.2857 24.82 45.059 24.22C44.8323 23.62 44.719 22.9733 44.719 22.28C44.719 21.36 44.9323 20.54 45.359 19.82C45.7857 19.1 46.3723 18.5333 47.119 18.12C47.879 17.6933 48.7457 17.48 49.719 17.48C50.3857 17.48 50.979 17.5867 51.499 17.8C52.0323 18 52.4857 18.2733 52.859 18.62C53.2323 18.9667 53.519 19.3533 53.719 19.78C53.919 20.2067 54.019 20.6333 54.019 21.06C54.019 21.74 53.859 22.22 53.539 22.5C53.219 22.7667 52.8257 22.9 52.359 22.9H46.579C46.5657 23.4867 46.719 23.9933 47.039 24.42C47.3723 24.8333 47.7857 25.1533 48.279 25.38C48.7857 25.6067 49.2923 25.72 49.799 25.72C50.1723 25.72 50.4923 25.7 50.759 25.66C51.0257 25.62 51.259 25.5667 51.459 25.5C51.659 25.4333 51.8323 25.3667 51.979 25.3C52.1257 25.2333 52.2523 25.1667 52.359 25.1C52.479 25.0333 52.5923 24.9867 52.699 24.96C52.819 24.9333 52.9323 24.9467 53.039 25C53.159 25.04 53.2523 25.1267 53.319 25.26C53.399 25.3667 53.4523 25.4667 53.479 25.56C53.5057 25.6533 53.519 25.7533 53.519 25.86C53.519 26.0467 53.359 26.2533 53.039 26.48C52.719 26.7067 52.2723 26.9 51.699 27.06C51.139 27.22 50.499 27.3 49.779 27.3ZM46.579 21.72H51.599C51.8523 21.72 52.039 21.6867 52.159 21.62C52.2923 21.5533 52.359 21.3733 52.359 21.08C52.359 20.7067 52.2457 20.3733 52.019 20.08C51.7923 19.7733 51.479 19.5267 51.079 19.34C50.6923 19.1533 50.2457 19.06 49.739 19.06C49.1523 19.06 48.6123 19.18 48.119 19.42C47.639 19.6467 47.259 19.96 46.979 20.36C46.699 20.76 46.5657 21.2133 46.579 21.72Z" fill="#494537"/>
<rect x="63" width="63.5" height="32" rx="8" fill="#494537"/>
<path d="M76.8628 23.22C76.5295 23.22 76.2961 23.1467 76.1628 23C76.0428 22.8667 75.9828 22.64 75.9828 22.32V10.12C75.9828 9.78667 76.0495 9.56 76.1828 9.44C76.3161 9.30667 76.5495 9.24 76.8828 9.24C77.2028 9.24 77.4228 9.31333 77.5428 9.46C77.6761 9.59333 77.7428 9.82667 77.7428 10.16V22.34C77.7428 22.66 77.6761 22.8867 77.5428 23.02C77.4228 23.1533 77.1961 23.22 76.8628 23.22ZM73.2628 14.26C73.0095 14.4733 72.7961 14.58 72.6228 14.58C72.4495 14.5667 72.2561 14.44 72.0428 14.2C71.8295 13.96 71.7295 13.7467 71.7428 13.56C71.7561 13.36 71.8961 13.1467 72.1628 12.92L76.0228 9.56C76.2495 9.34667 76.4561 9.25333 76.6428 9.28C76.8295 9.29333 77.0295 9.41333 77.2428 9.64C77.4561 9.86667 77.5561 10.08 77.5428 10.28C77.5295 10.4667 77.3828 10.68 77.1028 10.92L73.2628 14.26ZM84.6548 23.3C83.9482 23.3 83.3148 23.1867 82.7548 22.96C82.2082 22.7333 81.7348 22.4133 81.3348 22C80.9348 21.5733 80.6082 21.0667 80.3548 20.48C80.1015 19.88 79.9148 19.22 79.7948 18.5C79.6748 17.78 79.6148 17.0067 79.6148 16.18C79.6148 15.38 79.6748 14.6267 79.7948 13.92C79.9148 13.2 80.1015 12.5467 80.3548 11.96C80.6082 11.3733 80.9282 10.8667 81.3148 10.44C81.7148 10 82.1882 9.66667 82.7348 9.44C83.2948 9.2 83.9215 9.08 84.6148 9.08C85.3082 9.08 85.9215 9.2 86.4548 9.44C87.0015 9.66667 87.4682 10 87.8548 10.44C88.2415 10.8667 88.5615 11.3733 88.8148 11.96C89.0682 12.5467 89.2548 13.2 89.3748 13.92C89.4948 14.64 89.5548 15.4 89.5548 16.2C89.5548 17.0133 89.4948 17.78 89.3748 18.5C89.2548 19.22 89.0682 19.8733 88.8148 20.46C88.5615 21.0467 88.2415 21.5533 87.8548 21.98C87.4682 22.4067 87.0082 22.7333 86.4748 22.96C85.9548 23.1867 85.3482 23.3 84.6548 23.3ZM84.5748 21.48C85.2015 21.48 85.7148 21.3467 86.1148 21.08C86.5148 20.8 86.8282 20.4467 87.0548 20.02C87.2815 19.5933 87.4415 19.1467 87.5348 18.68C87.6415 18.2 87.7015 17.7467 87.7148 17.32C87.7415 16.8933 87.7548 16.5533 87.7548 16.3V16.18C87.7548 15.06 87.6348 14.1067 87.3948 13.32C87.1682 12.52 86.8215 11.9133 86.3548 11.5C85.8882 11.0867 85.3015 10.88 84.5948 10.88C83.8882 10.88 83.2948 11.0867 82.8148 11.5C82.3482 11.9133 81.9948 12.5133 81.7548 13.3C81.5282 14.0867 81.4148 15.0533 81.4148 16.2C81.4148 17.32 81.5282 18.2733 81.7548 19.06C81.9948 19.8467 82.3482 20.4467 82.8148 20.86C83.2948 21.2733 83.8815 21.48 84.5748 21.48ZM92.6531 16.2C92.2665 16.2 91.9931 16.1267 91.8331 15.98C91.6731 15.82 91.5931 15.5467 91.5931 15.16C91.5931 14.8933 91.6265 14.68 91.6931 14.52C91.7598 14.36 91.8731 14.2467 92.0331 14.18C92.1931 14.1133 92.4065 14.08 92.6731 14.08C93.0598 14.08 93.3331 14.16 93.4931 14.32C93.6531 14.4667 93.7331 14.74 93.7331 15.14C93.7331 15.4067 93.6998 15.62 93.6331 15.78C93.5665 15.94 93.4531 16.0533 93.2931 16.12C93.1465 16.1733 92.9331 16.2 92.6531 16.2ZM92.6531 23.22C92.2531 23.22 91.9731 23.14 91.8131 22.98C91.6665 22.82 91.5931 22.5533 91.5931 22.18C91.5931 21.9 91.6265 21.6867 91.6931 21.54C91.7598 21.38 91.8731 21.2667 92.0331 21.2C92.1931 21.12 92.3998 21.08 92.6531 21.08C93.0531 21.08 93.3265 21.16 93.4731 21.32C93.6331 21.48 93.7131 21.76 93.7131 22.16C93.7131 22.4267 93.6798 22.64 93.6131 22.8C93.5598 22.9467 93.4531 23.0533 93.2931 23.12C93.1331 23.1867 92.9198 23.22 92.6531 23.22ZM101.081 23.3C100.374 23.3 99.7406 23.1867 99.1806 22.96C98.634 22.7333 98.1606 22.4133 97.7606 22C97.3606 21.5733 97.034 21.0667 96.7806 20.48C96.5273 19.88 96.3406 19.22 96.2206 18.5C96.1006 17.78 96.0406 17.0067 96.0406 16.18C96.0406 15.38 96.1006 14.6267 96.2206 13.92C96.3406 13.2 96.5273 12.5467 96.7806 11.96C97.034 11.3733 97.354 10.8667 97.7406 10.44C98.1406 10 98.614 9.66667 99.1606 9.44C99.7206 9.2 100.347 9.08 101.041 9.08C101.734 9.08 102.347 9.2 102.881 9.44C103.427 9.66667 103.894 10 104.281 10.44C104.667 10.8667 104.987 11.3733 105.241 11.96C105.494 12.5467 105.681 13.2 105.801 13.92C105.921 14.64 105.981 15.4 105.981 16.2C105.981 17.0133 105.921 17.78 105.801 18.5C105.681 19.22 105.494 19.8733 105.241 20.46C104.987 21.0467 104.667 21.5533 104.281 21.98C103.894 22.4067 103.434 22.7333 102.901 22.96C102.381 23.1867 101.774 23.3 101.081 23.3ZM101.001 21.48C101.627 21.48 102.141 21.3467 102.541 21.08C102.941 20.8 103.254 20.4467 103.481 20.02C103.707 19.5933 103.867 19.1467 103.961 18.68C104.067 18.2 104.127 17.7467 104.141 17.32C104.167 16.8933 104.181 16.5533 104.181 16.3V16.18C104.181 15.06 104.061 14.1067 103.821 13.32C103.594 12.52 103.247 11.9133 102.781 11.5C102.314 11.0867 101.727 10.88 101.021 10.88C100.314 10.88 99.7206 11.0867 99.2406 11.5C98.774 11.9133 98.4206 12.5133 98.1806 13.3C97.954 14.0867 97.8406 15.0533 97.8406 16.2C97.8406 17.32 97.954 18.2733 98.1806 19.06C98.4206 19.8467 98.774 20.4467 99.2406 20.86C99.7206 21.2733 100.307 21.48 101.001 21.48ZM112.819 23.3C112.112 23.3 111.479 23.1867 110.919 22.96C110.372 22.7333 109.899 22.4133 109.499 22C109.099 21.5733 108.772 21.0667 108.519 20.48C108.266 19.88 108.079 19.22 107.959 18.5C107.839 17.78 107.779 17.0067 107.779 16.18C107.779 15.38 107.839 14.6267 107.959 13.92C108.079 13.2 108.266 12.5467 108.519 11.96C108.772 11.3733 109.092 10.8667 109.479 10.44C109.879 10 110.352 9.66667 110.899 9.44C111.459 9.2 112.086 9.08 112.779 9.08C113.472 9.08 114.086 9.2 114.619 9.44C115.166 9.66667 115.632 10 116.019 10.44C116.406 10.8667 116.726 11.3733 116.979 11.96C117.232 12.5467 117.419 13.2 117.539 13.92C117.659 14.64 117.719 15.4 117.719 16.2C117.719 17.0133 117.659 17.78 117.539 18.5C117.419 19.22 117.232 19.8733 116.979 20.46C116.726 21.0467 116.406 21.5533 116.019 21.98C115.632 22.4067 115.172 22.7333 114.639 22.96C114.119 23.1867 113.512 23.3 112.819 23.3ZM112.739 21.48C113.366 21.48 113.879 21.3467 114.279 21.08C114.679 20.8 114.992 20.4467 115.219 20.02C115.446 19.5933 115.606 19.1467 115.699 18.68C115.806 18.2 115.866 17.7467 115.879 17.32C115.906 16.8933 115.919 16.5533 115.919 16.3V16.18C115.919 15.06 115.799 14.1067 115.559 13.32C115.332 12.52 114.986 11.9133 114.519 11.5C114.052 11.0867 113.466 10.88 112.759 10.88C112.052 10.88 111.459 11.0867 110.979 11.5C110.512 11.9133 110.159 12.5133 109.919 13.3C109.692 14.0867 109.579 15.0533 109.579 16.2C109.579 17.32 109.692 18.2733 109.919 19.06C110.159 19.8467 110.512 20.4467 110.979 20.86C111.459 21.2733 112.046 21.48 112.739 21.48Z" fill="#FFFDEA"/>
<path d="M144.258 27.18C143.964 27.18 143.751 27.12 143.618 27C143.498 26.88 143.424 26.6933 143.398 26.44L143.478 25.44C143.344 25.6533 143.138 25.9 142.858 26.18C142.578 26.4467 142.211 26.6867 141.758 26.9C141.304 27.1 140.751 27.2 140.098 27.2C139.458 27.2 138.858 27.0733 138.298 26.82C137.751 26.5667 137.264 26.2133 136.838 25.76C136.424 25.3067 136.098 24.7867 135.858 24.2C135.631 23.6133 135.518 22.9867 135.518 22.32C135.518 21.6667 135.631 21.0533 135.858 20.48C136.098 19.8933 136.431 19.38 136.858 18.94C137.284 18.5 137.771 18.1533 138.318 17.9C138.878 17.6467 139.471 17.52 140.098 17.52C140.684 17.52 141.184 17.6 141.598 17.76C142.011 17.9067 142.364 18.1067 142.658 18.36C142.964 18.6 143.231 18.8733 143.458 19.18L143.418 18.34C143.404 18.0467 143.464 17.84 143.598 17.72C143.744 17.5867 143.971 17.52 144.278 17.52C144.531 17.52 144.711 17.56 144.818 17.64C144.938 17.72 145.018 17.8333 145.058 17.98C145.098 18.1267 145.118 18.3067 145.118 18.52V26.24C145.118 26.4267 145.098 26.5933 145.058 26.74C145.018 26.8867 144.938 26.9933 144.818 27.06C144.698 27.14 144.511 27.18 144.258 27.18ZM140.398 25.52C140.931 25.52 141.418 25.38 141.858 25.1C142.311 24.82 142.664 24.4467 142.918 23.98C143.184 23.5 143.318 22.9533 143.318 22.34C143.318 21.7133 143.178 21.1667 142.898 20.7C142.631 20.22 142.271 19.8467 141.818 19.58C141.378 19.3 140.891 19.16 140.358 19.16C139.731 19.16 139.184 19.3067 138.718 19.6C138.264 19.88 137.904 20.26 137.638 20.74C137.371 21.22 137.238 21.7667 137.238 22.38C137.238 22.98 137.371 23.52 137.638 24C137.904 24.4667 138.271 24.84 138.738 25.12C139.218 25.3867 139.771 25.52 140.398 25.52Z" fill="#494537"/>
<rect x="154.5" width="63.5" height="32" rx="8" fill="#494537"/>
<path d="M168.871 23.22C168.537 23.22 168.304 23.1467 168.171 23C168.051 22.8667 167.991 22.64 167.991 22.32V10.12C167.991 9.78667 168.057 9.56 168.191 9.44C168.324 9.30667 168.557 9.24 168.891 9.24C169.211 9.24 169.431 9.31333 169.551 9.46C169.684 9.59333 169.751 9.82667 169.751 10.16V22.34C169.751 22.66 169.684 22.8867 169.551 23.02C169.431 23.1533 169.204 23.22 168.871 23.22ZM165.271 14.26C165.017 14.4733 164.804 14.58 164.631 14.58C164.457 14.5667 164.264 14.44 164.051 14.2C163.837 13.96 163.737 13.7467 163.751 13.56C163.764 13.36 163.904 13.1467 164.171 12.92L168.031 9.56C168.257 9.34667 168.464 9.25333 168.651 9.28C168.837 9.29333 169.037 9.41333 169.251 9.64C169.464 9.86667 169.564 10.08 169.551 10.28C169.537 10.4667 169.391 10.68 169.111 10.92L165.271 14.26ZM176.223 23.26C175.263 23.26 174.436 23.0533 173.743 22.64C173.063 22.2133 172.536 21.5933 172.163 20.78C171.803 19.9533 171.623 18.94 171.623 17.74C171.623 16.7 171.736 15.74 171.963 14.86C172.203 13.98 172.543 13.1933 172.983 12.5C173.436 11.7933 173.976 11.1933 174.603 10.7C175.229 10.1933 175.936 9.81333 176.723 9.56C177.523 9.29333 178.383 9.16 179.303 9.16C179.476 9.16 179.616 9.18667 179.723 9.24C179.843 9.28 179.936 9.36667 180.003 9.5C180.069 9.62 180.103 9.81333 180.103 10.08C180.103 10.3333 180.063 10.5267 179.983 10.66C179.916 10.78 179.816 10.86 179.683 10.9C179.549 10.94 179.389 10.96 179.203 10.96C178.509 10.96 177.876 11.0467 177.303 11.22C176.729 11.3933 176.209 11.6467 175.743 11.98C175.289 12.3 174.896 12.6867 174.563 13.14C174.243 13.5933 173.996 14.0933 173.823 14.64C173.663 15.1867 173.576 15.7733 173.563 16.4L173.243 16.66C173.363 16.34 173.569 16.04 173.863 15.76C174.169 15.48 174.536 15.26 174.963 15.1C175.403 14.94 175.883 14.86 176.403 14.86C177.243 14.86 177.969 15.04 178.583 15.4C179.209 15.7467 179.689 16.2267 180.023 16.84C180.369 17.44 180.543 18.1333 180.543 18.92C180.543 19.7733 180.369 20.5267 180.023 21.18C179.676 21.8333 179.176 22.3467 178.523 22.72C177.883 23.08 177.116 23.26 176.223 23.26ZM176.143 21.6C176.716 21.6 177.196 21.4933 177.583 21.28C177.983 21.0667 178.283 20.7667 178.483 20.38C178.696 19.9933 178.803 19.5467 178.803 19.04C178.803 18.5467 178.703 18.1133 178.503 17.74C178.303 17.3533 178.016 17.0533 177.643 16.84C177.269 16.6267 176.816 16.52 176.283 16.52C175.723 16.52 175.229 16.6267 174.803 16.84C174.389 17.04 174.076 17.3267 173.863 17.7C173.649 18.0733 173.543 18.5 173.543 18.98C173.543 19.5133 173.643 19.9733 173.843 20.36C174.043 20.7467 174.336 21.0533 174.723 21.28C175.123 21.4933 175.596 21.6 176.143 21.6ZM183.645 16.2C183.259 16.2 182.985 16.1267 182.825 15.98C182.665 15.82 182.585 15.5467 182.585 15.16C182.585 14.8933 182.619 14.68 182.685 14.52C182.752 14.36 182.865 14.2467 183.025 14.18C183.185 14.1133 183.399 14.08 183.665 14.08C184.052 14.08 184.325 14.16 184.485 14.32C184.645 14.4667 184.725 14.74 184.725 15.14C184.725 15.4067 184.692 15.62 184.625 15.78C184.559 15.94 184.445 16.0533 184.285 16.12C184.139 16.1733 183.925 16.2 183.645 16.2ZM183.645 23.22C183.245 23.22 182.965 23.14 182.805 22.98C182.659 22.82 182.585 22.5533 182.585 22.18C182.585 21.9 182.619 21.6867 182.685 21.54C182.752 21.38 182.865 21.2667 183.025 21.2C183.185 21.12 183.392 21.08 183.645 21.08C184.045 21.08 184.319 21.16 184.465 21.32C184.625 21.48 184.705 21.76 184.705 22.16C184.705 22.4267 184.672 22.64 184.605 22.8C184.552 22.9467 184.445 23.0533 184.285 23.12C184.125 23.1867 183.912 23.22 183.645 23.22ZM192.073 23.3C191.366 23.3 190.733 23.1867 190.173 22.96C189.626 22.7333 189.153 22.4133 188.753 22C188.353 21.5733 188.026 21.0667 187.773 20.48C187.519 19.88 187.333 19.22 187.213 18.5C187.093 17.78 187.033 17.0067 187.033 16.18C187.033 15.38 187.093 14.6267 187.213 13.92C187.333 13.2 187.519 12.5467 187.773 11.96C188.026 11.3733 188.346 10.8667 188.733 10.44C189.133 10 189.606 9.66667 190.153 9.44C190.713 9.2 191.339 9.08 192.033 9.08C192.726 9.08 193.339 9.2 193.873 9.44C194.419 9.66667 194.886 10 195.273 10.44C195.659 10.8667 195.979 11.3733 196.233 11.96C196.486 12.5467 196.673 13.2 196.793 13.92C196.913 14.64 196.973 15.4 196.973 16.2C196.973 17.0133 196.913 17.78 196.793 18.5C196.673 19.22 196.486 19.8733 196.233 20.46C195.979 21.0467 195.659 21.5533 195.273 21.98C194.886 22.4067 194.426 22.7333 193.893 22.96C193.373 23.1867 192.766 23.3 192.073 23.3ZM191.993 21.48C192.619 21.48 193.133 21.3467 193.533 21.08C193.933 20.8 194.246 20.4467 194.473 20.02C194.699 19.5933 194.859 19.1467 194.953 18.68C195.059 18.2 195.119 17.7467 195.133 17.32C195.159 16.8933 195.173 16.5533 195.173 16.3V16.18C195.173 15.06 195.053 14.1067 194.813 13.32C194.586 12.52 194.239 11.9133 193.773 11.5C193.306 11.0867 192.719 10.88 192.013 10.88C191.306 10.88 190.713 11.0867 190.233 11.5C189.766 11.9133 189.413 12.5133 189.173 13.3C188.946 14.0867 188.833 15.0533 188.833 16.2C188.833 17.32 188.946 18.2733 189.173 19.06C189.413 19.8467 189.766 20.4467 190.233 20.86C190.713 21.2733 191.299 21.48 191.993 21.48ZM203.811 23.3C203.104 23.3 202.471 23.1867 201.911 22.96C201.364 22.7333 200.891 22.4133 200.491 22C200.091 21.5733 199.764 21.0667 199.511 20.48C199.258 19.88 199.071 19.22 198.951 18.5C198.831 17.78 198.771 17.0067 198.771 16.18C198.771 15.38 198.831 14.6267 198.951 13.92C199.071 13.2 199.258 12.5467 199.511 11.96C199.764 11.3733 200.084 10.8667 200.471 10.44C200.871 10 201.344 9.66667 201.891 9.44C202.451 9.2 203.078 9.08 203.771 9.08C204.464 9.08 205.078 9.2 205.611 9.44C206.158 9.66667 206.624 10 207.011 10.44C207.398 10.8667 207.718 11.3733 207.971 11.96C208.224 12.5467 208.411 13.2 208.531 13.92C208.651 14.64 208.711 15.4 208.711 16.2C208.711 17.0133 208.651 17.78 208.531 18.5C208.411 19.22 208.224 19.8733 207.971 20.46C207.718 21.0467 207.398 21.5533 207.011 21.98C206.624 22.4067 206.164 22.7333 205.631 22.96C205.111 23.1867 204.504 23.3 203.811 23.3ZM203.731 21.48C204.358 21.48 204.871 21.3467 205.271 21.08C205.671 20.8 205.984 20.4467 206.211 20.02C206.438 19.5933 206.598 19.1467 206.691 18.68C206.798 18.2 206.858 17.7467 206.871 17.32C206.898 16.8933 206.911 16.5533 206.911 16.3V16.18C206.911 15.06 206.791 14.1067 206.551 13.32C206.324 12.52 205.978 11.9133 205.511 11.5C205.044 11.0867 204.458 10.88 203.751 10.88C203.044 10.88 202.451 11.0867 201.971 11.5C201.504 11.9133 201.151 12.5133 200.911 13.3C200.684 14.0867 200.571 15.0533 200.571 16.2C200.571 17.32 200.684 18.2733 200.911 19.06C201.151 19.8467 201.504 20.4467 201.971 20.86C202.451 21.2733 203.038 21.48 203.731 21.48Z" fill="#FFFDEA"/>
<defs>
<clipPath id="clip0_93_591">
<rect width="24" height="24" fill="white" transform="translate(0 4)"/>
</clipPath>
</defs>
</svg>
