<svg width="108" height="74" viewBox="0 0 108 74" fill="none" xmlns="http://www.w3.org/2000/svg">
<g clip-path="url(#clip0_93_843)">
<mask id="mask0_93_843" style="mask-type:luminance" maskUnits="userSpaceOnUse" x="17" y="0" width="75" height="74">
<path d="M17.5 0H91.5V74H17.5V0Z" fill="white"/>
</mask>
<g mask="url(#mask0_93_843)">
<path d="M26.1641 53.829C26.1333 53.8044 26.1025 53.7797 26.0716 53.7612C25.8743 53.644 25.7571 53.4652 25.714 53.2555C25.677 53.0459 25.7263 52.8239 25.8558 52.6142C27.2865 51.9359 37.8191 46.91 40.4215 44.5482C41.0936 43.9377 41.4143 42.396 42.0125 39.2572C42.1481 38.5419 42.2961 37.7772 42.4565 36.9694C42.6106 36.2232 43.0176 34.8419 43.4431 33.3804C44.029 31.3885 44.6333 29.335 44.8368 28.1202C46.5265 17.902 47.9325 5.2357 47.9448 5.11236C48.173 2.91086 48.654 0.672363 50.4423 0.672363C52.5513 0.672363 54.0251 1.9982 54.0251 3.9037L54.1546 52.6389C54.1546 56.1292 52.8288 56.6349 51.2933 57.2207C50.43 57.5475 49.4556 57.9237 48.765 58.8425C47.3528 60.7295 45.842 63.2332 44.3805 65.6567C43.7576 66.6865 43.1225 67.7472 42.4996 68.74L26.1641 53.829Z" fill="url(#paint0_radial_93_843)"/>
<path d="M50.4485 1.28265C52.2245 1.28265 53.4147 2.33098 53.4147 3.89732L53.5442 52.6263C53.5442 55.6911 52.5637 56.0673 51.0775 56.6346C50.1402 56.9923 49.0733 57.3993 48.2778 58.46C46.8472 60.3717 45.3302 62.8876 43.8625 65.3297C43.3692 66.1437 42.8697 66.9762 42.3763 67.7778L26.5897 53.3725C26.5342 53.3232 26.4725 53.2738 26.4047 53.2306C26.3492 53.1998 26.3368 53.169 26.3368 53.1381C26.3307 53.1196 26.3307 53.095 26.3368 53.0703C28.3718 52.1021 38.2878 47.3292 40.847 45.0043C41.6672 44.2582 41.9878 42.7411 42.6292 39.3741C42.7648 38.665 42.9128 37.8941 43.0732 37.0925C43.2212 36.371 43.622 35.002 44.0475 33.559C44.6395 31.5486 45.25 29.4767 45.4535 28.2187C47.1432 17.982 48.5492 5.30332 48.5677 5.16765C48.8513 2.44198 49.4125 1.28265 50.4485 1.28265ZM50.4485 0.0493164C48.0003 0.0493164 47.5502 3.05248 47.3405 5.03815C47.3405 5.03815 45.9407 17.6922 44.2387 28.0152C43.8933 30.1056 42.2222 35.0698 41.8645 36.8458C41.106 40.5705 40.7175 43.4503 40.0145 44.0916C37.3197 46.5398 25.455 52.1206 25.455 52.1206C24.8753 52.8545 25.0048 53.8226 25.751 54.279L42.6292 69.6833C44.7875 66.2916 47.137 62.0366 49.2583 59.2C50.9542 56.9306 54.7713 58.5833 54.7713 52.6263L54.6418 3.89732C54.6418 1.77598 53.0508 0.0493164 50.4485 0.0493164Z" fill="#EDA600"/>
<path d="M44.3681 78.1065L13.2326 77.7612L13.578 53.8222L33.151 45.0347C34.0698 44.6277 35.1366 45.1395 35.3833 46.1138C35.9691 48.4017 37.332 52.4593 40.3166 56.5293C43.1286 60.365 46.1626 63.325 48.0496 65.0147C49.135 65.989 49.4433 67.5615 48.7958 68.8688L41.2971 74.6347L44.3681 78.1065Z" fill="url(#paint1_linear_93_843)"/>
<path d="M47.47 8.63348C47.47 8.63348 47.9757 5.44531 50.874 5.44531C53.7723 5.44531 53.9697 8.63348 53.9697 8.63348" stroke="#EDA600" stroke-width="1.70384" stroke-miterlimit="10" stroke-linecap="round" stroke-linejoin="round"/>
<path d="M46.5512 16.6497C46.5512 16.6497 47.1863 13.1655 50.2573 13.1655C53.3283 13.1655 54.0313 16.6497 54.0313 16.6497" stroke="#EDA600" stroke-width="1.70384" stroke-miterlimit="10" stroke-linecap="round" stroke-linejoin="round"/>
<path opacity="0.2" d="M33.6628 46.8361C34.2795 49.1486 35.7287 53.3974 38.8243 57.6216C41.6857 61.5189 44.7505 64.5406 46.8163 66.3906C47.1863 66.7236 47.3467 67.2292 47.2542 67.7041L40.2118 72.8409C39.7987 73.1431 39.5335 73.5932 39.4657 74.0989C39.3978 74.6046 39.5458 75.1102 39.8665 75.5049L40.4462 76.214L15.1197 75.9304L15.4218 55.0316L33.6628 46.8361ZM33.817 44.8936C33.595 44.8936 33.373 44.9367 33.1572 45.0354L13.5842 53.8229L13.2388 77.7619L44.3743 78.1072L41.2972 74.3332L48.7958 68.8696C49.4433 67.5622 49.1412 65.9836 48.0497 65.0154C46.1627 63.3257 43.1348 60.3719 40.3167 56.5301C37.332 52.4662 35.9692 48.4086 35.3833 46.1146C35.1983 45.3684 34.5262 44.8936 33.817 44.8936Z" fill="#424242"/>
</g>
<mask id="mask1_93_843" style="mask-type:luminance" maskUnits="userSpaceOnUse" x="17" y="0" width="75" height="74">
<path d="M17.5 0H91.5V74H17.5V0Z" fill="white"/>
</mask>
<g mask="url(#mask1_93_843)">
<path d="M66.2105 68.7339C65.5938 67.741 64.9525 66.6804 64.3297 65.6505C62.8682 63.227 61.3573 60.7172 59.9452 58.8364C59.2545 57.9175 58.2802 57.5414 57.4168 57.2145C55.8813 56.6287 54.5555 56.123 54.5555 52.6327L54.685 3.9037C54.685 1.9982 56.1588 0.672363 58.2678 0.672363C60.0562 0.672363 60.531 2.91703 60.7653 5.11236C60.7777 5.24186 62.1837 17.9082 63.8733 28.1264C64.0707 29.3412 64.6812 31.4009 65.267 33.3865C65.6987 34.848 66.1057 36.2294 66.2537 36.9755C66.4202 37.7834 66.5682 38.5542 66.7038 39.2695C67.302 42.4084 67.6227 43.9439 68.2948 44.5544C70.891 46.9162 81.4298 51.942 82.8605 52.6204C82.99 52.8239 83.0393 53.0459 83.0023 53.2555C82.9653 53.4652 82.842 53.644 82.6447 53.7612C82.6138 53.7797 82.583 53.8044 82.5522 53.829L66.2105 68.7339Z" fill="url(#paint2_radial_93_843)"/>
<path d="M58.2617 1.28265C59.2977 1.28265 59.8588 2.44815 60.1487 5.17382C60.161 5.30332 61.5732 17.982 63.2628 28.2187C63.4663 29.4705 64.083 31.5487 64.6688 33.5528C65.0943 35.002 65.4952 36.3648 65.6432 37.0863C65.8097 37.8941 65.9515 38.6588 66.0872 39.368C66.7285 42.735 67.0492 44.252 67.8693 44.9981C70.4285 47.3292 80.3445 52.096 82.3795 53.0642C82.3857 53.0888 82.3857 53.1135 82.3795 53.132C82.3733 53.1567 82.361 53.1875 82.3117 53.2245C82.2438 53.2676 82.1822 53.3108 82.1267 53.3663L66.34 67.7717C65.8467 66.97 65.3472 66.1375 64.8538 65.3235C63.3862 62.8876 61.863 60.3655 60.4385 58.4538C59.643 57.3932 58.5762 56.9861 57.6388 56.6285C56.1527 56.0611 55.1722 55.685 55.1722 52.6263L55.3017 3.89115C55.2955 2.33098 56.4918 1.28265 58.2617 1.28265ZM58.2617 0.0493164C55.6593 0.0493164 54.0622 1.77598 54.0622 3.89732L53.9327 52.6263C53.9327 58.5833 57.7498 56.9306 59.4457 59.2C61.567 62.0366 63.9165 66.2916 66.0748 69.6833L82.953 54.2851C83.6992 53.8288 83.8348 52.8606 83.249 52.1268C83.249 52.1268 71.3843 46.546 68.6895 44.0978C67.9865 43.4565 67.598 40.5766 66.8395 36.852C66.4818 35.076 64.8107 30.1118 64.4653 28.0213C62.7633 17.6983 61.3635 5.04432 61.3635 5.04432C61.1662 3.05248 60.7098 0.0493164 58.2617 0.0493164Z" fill="#EDA600"/>
<path d="M64.3358 78.1065L95.4713 77.7612L95.126 53.8222L75.553 45.0347C74.6342 44.6277 73.5673 45.1395 73.3207 46.1138C72.7348 48.4017 71.372 52.4593 68.3873 56.5293C65.5753 60.365 62.5413 63.325 60.6543 65.0147C59.569 65.989 59.2607 67.5615 59.9082 68.8688L67.4068 74.6347L64.3358 78.1065Z" fill="url(#paint3_linear_93_843)"/>
<path d="M61.2402 8.63348C61.2402 8.63348 60.7345 5.44531 57.8362 5.44531C54.9378 5.44531 54.7405 8.63348 54.7405 8.63348" stroke="#EDA600" stroke-width="1.70384" stroke-miterlimit="10" stroke-linecap="round" stroke-linejoin="round"/>
<path d="M62.159 16.6497C62.159 16.6497 61.5238 13.1655 58.4528 13.1655C55.3757 13.1655 54.6788 16.6497 54.6788 16.6497" stroke="#EDA600" stroke-width="1.70384" stroke-miterlimit="10" stroke-linecap="round" stroke-linejoin="round"/>
<path opacity="0.2" d="M75.0473 46.8361L93.2945 55.0254L93.5967 75.9242L68.2702 76.2079L68.8498 75.4987C69.1705 75.104 69.3185 74.5984 69.2507 74.0927C69.1828 73.5871 68.9177 73.1369 68.5045 72.8347L61.4622 67.6979C61.3697 67.2231 61.53 66.7174 61.9 66.3844C63.9658 64.5344 67.0307 61.5127 69.892 57.6154C72.9815 53.3974 74.4307 49.1486 75.0473 46.8361ZM74.8932 44.8936C74.1778 44.8936 73.5118 45.3684 73.3207 46.1146C72.7348 48.4024 71.372 52.4601 68.3873 56.5301C65.5753 60.3657 62.5413 63.3257 60.6543 65.0154C59.569 65.9897 59.2607 67.5622 59.9082 68.8696L67.4068 74.3332L64.3297 78.1072L95.4652 77.7619L95.1198 53.8229L75.553 45.0354C75.3372 44.9367 75.1152 44.8936 74.8932 44.8936Z" fill="#424242"/>
</g>
</g>
<defs>
<radialGradient id="paint0_radial_93_843" cx="0" cy="0" r="1" gradientUnits="userSpaceOnUse" gradientTransform="translate(46.8166 22.1664) scale(26.7655 39.9572)">
<stop offset="0.3533" stop-color="#FFCA28"/>
<stop offset="0.8723" stop-color="#FFB300"/>
</radialGradient>
<linearGradient id="paint1_linear_93_843" x1="13.2368" y1="61.4997" x2="49.13" y2="61.4997" gradientUnits="userSpaceOnUse">
<stop stop-color="#2196F3"/>
<stop offset="1" stop-color="#64B5F6"/>
</linearGradient>
<radialGradient id="paint2_radial_93_843" cx="0" cy="0" r="1" gradientUnits="userSpaceOnUse" gradientTransform="translate(61.8809 22.1664) rotate(180) scale(26.7655 39.9572)">
<stop offset="0.3533" stop-color="#FFCA28"/>
<stop offset="0.8723" stop-color="#FFB300"/>
</radialGradient>
<linearGradient id="paint3_linear_93_843" x1="95.4713" y1="61.4997" x2="59.5813" y2="61.4997" gradientUnits="userSpaceOnUse">
<stop stop-color="#2196F3"/>
<stop offset="1" stop-color="#64B5F6"/>
</linearGradient>
<clipPath id="clip0_93_843">
<rect width="108" height="74" fill="white"/>
</clipPath>
</defs>
</svg>
