<svg width="14" height="21" viewBox="0 0 14 21" fill="none" xmlns="http://www.w3.org/2000/svg">
<g clip-path="url(#clip0_93_608)">
<path d="M4.08484 15.3154C4.62375 16.0526 5.11423 16.8291 5.55273 17.6393C5.92712 18.4012 6.0832 18.9179 6.35681 19.836C6.52461 20.3432 6.67627 20.4946 7.00233 20.4946C7.35764 20.4946 7.51884 20.2371 7.64339 19.8388C7.90202 18.9717 8.10496 18.31 8.42513 17.6848C9.05339 16.4777 9.83407 15.4051 10.6011 14.3742C10.8088 14.0824 12.1514 12.3826 12.7559 11.0414C12.7559 11.0414 13.4988 9.56814 13.4988 7.51054C13.4988 5.58585 12.7661 4.25098 12.7661 4.25098L10.6568 4.8573L9.3758 8.47861L9.05888 8.97795L8.99551 9.06841L8.91123 9.18166L8.76328 9.36253L8.55186 9.5894L7.41115 10.5869L4.55926 12.3543L4.08484 15.3154Z" fill="#34A853"/>
<path d="M1.14148 10.794C1.83752 12.5005 3.17974 14.0005 4.08786 15.3169L8.91131 9.18428C8.91131 9.18428 8.23177 10.1382 6.99911 10.1382C5.62607 10.1382 4.51684 8.96134 4.51684 7.47742C4.51684 6.45982 5.08722 5.76074 5.08722 5.76074L1.81295 6.70243L1.14148 10.794Z" fill="#FBBC04"/>
<path d="M8.96512 0.815484C10.5671 1.36987 11.9383 2.53374 12.7676 4.24998L8.91272 9.18066C8.91272 9.18066 9.4831 8.46894 9.4831 7.45766C9.4831 5.93919 8.29183 4.8048 7.00489 4.8048C5.78792 4.8048 5.08899 5.75712 5.08899 5.75712V2.65085L8.96512 0.81543V0.815484Z" fill="#4285F4"/>
<path d="M2.02502 2.99401C2.98183 1.76529 4.66545 0.5 6.98657 0.5C8.11271 0.5 8.96112 0.81733 8.96112 0.81733L5.08534 5.75973H2.33931L2.02502 2.99401Z" fill="#1A73E8"/>
<path d="M1.14144 10.794C1.14144 10.794 0.501099 9.44804 0.501099 7.49817C0.501099 5.65529 1.16856 4.04439 2.02504 2.99414L5.08754 5.7603L1.14144 10.794Z" fill="#EA4335"/>
</g>
<defs>
<clipPath id="clip0_93_608">
<rect width="13" height="20" fill="white" transform="translate(0.5 0.5)"/>
</clipPath>
</defs>
</svg>
