<svg width="42" height="42" viewBox="0 0 42 42" fill="none" xmlns="http://www.w3.org/2000/svg">
<g clip-path="url(#clip0_373_135)">
<path d="M13.8243 31.1128C15.1509 32.6608 16.3582 34.2914 17.4376 35.9928C18.3592 37.593 18.7434 38.678 19.4169 40.606C19.8299 41.6712 20.2033 41.9891 21.0059 41.9891C21.8805 41.9891 22.2773 41.4483 22.5838 40.6118C23.2205 38.791 23.72 37.4015 24.5081 36.0885C26.0546 33.5536 27.9763 31.3011 29.8645 29.1362C30.3756 28.5235 33.6806 24.9539 35.1685 22.1374C35.1685 22.1374 36.9971 19.0435 36.9971 14.7225C36.9971 10.6807 35.1937 7.87744 35.1937 7.87744L30.0015 9.15072L26.8482 16.7555L26.0681 17.8041L25.9122 17.9941L25.7047 18.2319L25.3405 18.6117L24.8201 19.0881L22.0122 21.1829L14.9921 24.8944L13.8243 31.1128Z" fill="#34A853"/>
<path d="M6.57898 21.6173C8.29231 25.2008 11.5962 28.3509 13.8316 31.1153L25.7047 18.2368C25.7047 18.2368 24.032 20.24 20.9978 20.24C17.618 20.24 14.8876 17.7686 14.8876 14.6524C14.8876 12.5154 16.2916 11.0474 16.2916 11.0474L8.23182 13.0249L6.57898 21.6173Z" fill="#FBBC04"/>
<path d="M25.8373 0.662224C29.7806 1.82644 33.1558 4.27056 35.1973 7.87467L25.7083 18.2291C25.7083 18.2291 27.1123 16.7345 27.1123 14.6108C27.1123 11.422 24.1799 9.03979 21.0121 9.03979C18.0165 9.03979 16.296 11.0397 16.296 11.0397V4.5165L25.8373 0.662109V0.662224Z" fill="#4285F4"/>
<path d="M8.75391 5.23741C11.1091 2.6571 15.2534 0 20.9669 0C23.739 0 25.8274 0.666392 25.8274 0.666392L16.287 11.0454H9.52752L8.75391 5.23741Z" fill="#1A73E8"/>
<path d="M6.57916 21.617C6.57916 21.617 5.00293 18.7905 5.00293 14.6958C5.00293 10.8257 6.6459 7.44282 8.75417 5.2373L16.2926 11.0462L6.57916 21.617Z" fill="#EA4335"/>
</g>
<defs>
<clipPath id="clip0_373_135">
<rect width="32" height="42" fill="white" transform="translate(5)"/>
</clipPath>
</defs>
</svg>
