<svg width="25" height="38" viewBox="0 0 25 38" fill="none" xmlns="http://www.w3.org/2000/svg">
<path d="M12.5 18.05C11.316 18.05 10.1805 17.5496 9.34327 16.6588C8.50606 15.768 8.03571 14.5598 8.03571 13.3C8.03571 12.0402 8.50606 10.832 9.34327 9.94124C10.1805 9.05044 11.316 8.55 12.5 8.55C13.684 8.55 14.8195 9.05044 15.6567 9.94124C16.4939 10.832 16.9643 12.0402 16.9643 13.3C16.9643 13.9238 16.8488 14.5415 16.6245 15.1177C16.4001 15.694 16.0713 16.2177 15.6567 16.6588C15.2422 17.0998 14.75 17.4497 14.2084 17.6884C13.6668 17.9271 13.0863 18.05 12.5 18.05ZM12.5 0C9.18479 0 6.00537 1.40125 3.66117 3.89548C1.31696 6.38971 0 9.77262 0 13.3C0 23.275 12.5 38 12.5 38C12.5 38 25 23.275 25 13.3C25 9.77262 23.683 6.38971 21.3388 3.89548C18.9946 1.40125 15.8152 0 12.5 0Z" fill="#FFF6EB"/>
</svg>
