<svg width="40" height="41" viewBox="0 0 40 41" fill="none" xmlns="http://www.w3.org/2000/svg">
<path fill-rule="evenodd" clip-rule="evenodd" d="M14.9367 31.2814C10.0317 27.5231 3.33337 21.3148 3.33337 15.4448C3.33337 5.63809 12.5 1.97642 20 9.54976C27.5 1.97642 36.6667 5.63809 36.6667 15.4431C36.6667 21.3148 29.9667 27.5231 25.0634 31.2814C22.8434 32.9814 21.7334 33.8331 20 33.8331C18.2667 33.8331 17.1567 32.9831 14.9367 31.2814ZM27.5 10.9164C27.8316 10.9164 28.1495 11.0481 28.3839 11.2825C28.6183 11.517 28.75 11.8349 28.75 12.1664V14.2498H30.8334C31.1649 14.2498 31.4828 14.3815 31.7173 14.6159C31.9517 14.8503 32.0834 15.1682 32.0834 15.4998C32.0834 15.8313 31.9517 16.1492 31.7173 16.3836C31.4828 16.6181 31.1649 16.7498 30.8334 16.7498H28.75V18.8331C28.75 19.1646 28.6183 19.4826 28.3839 19.717C28.1495 19.9514 27.8316 20.0831 27.5 20.0831C27.1685 20.0831 26.8506 19.9514 26.6162 19.717C26.3817 19.4826 26.25 19.1646 26.25 18.8331V16.7498H24.1667C23.8352 16.7498 23.5172 16.6181 23.2828 16.3836C23.0484 16.1492 22.9167 15.8313 22.9167 15.4998C22.9167 15.1682 23.0484 14.8503 23.2828 14.6159C23.5172 14.3815 23.8352 14.2498 24.1667 14.2498H26.25V12.1664C26.25 11.8349 26.3817 11.517 26.6162 11.2825C26.8506 11.0481 27.1685 10.9164 27.5 10.9164Z" fill="#646054"/>
</svg>
