<svg width="264" height="99" viewBox="0 0 264 99" fill="none" xmlns="http://www.w3.org/2000/svg">
<g clip-path="url(#clip0_99_659)">
<path d="M128.723 2.71436L90.7154 35.2925H93.4303L93.4303 80.0875H164.016V35.2925H166.731L128.723 2.71436Z" fill="url(#paint0_radial_99_659)"/>
<path opacity="0.2" d="M128.723 5.39527L162.306 34.1794C162.102 34.5052 161.98 34.8853 161.98 35.2925V78.0513H95.4664L95.4664 35.2925C95.4664 34.8853 95.3442 34.5052 95.1406 34.1862L128.723 5.39527ZM128.723 2.71436L90.7154 35.2925H93.4303L93.4303 80.0875H164.016V35.2925H166.731L128.723 2.71436Z" fill="#424242"/>
<path d="M169.446 81.4453H98.86V76.0156H166.731C168.231 76.0156 169.446 77.2305 169.446 78.7305V81.4453Z" fill="#689F38"/>
<path opacity="0.2" d="M166.731 78.0527C167.104 78.0527 167.41 78.3582 167.41 78.7314V79.4102H100.896V78.0527H166.731ZM166.731 76.0166H98.8601V81.4463H169.446V78.7314C169.446 77.2315 168.231 76.0166 166.731 76.0166Z" fill="#424242"/>
<path opacity="0.2" d="M134.832 17.647C135.578 17.647 136.189 18.2578 136.189 19.0044V31.2212C136.189 31.9678 135.578 32.5786 134.832 32.5786H122.615C121.868 32.5786 121.258 31.9678 121.258 31.2212V19.0044C121.258 18.2578 121.868 17.647 122.615 17.647H134.832ZM134.832 16.2896H122.615C121.115 16.2896 119.9 17.5044 119.9 19.0044V31.2212C119.9 32.7212 121.115 33.936 122.615 33.936H134.832C136.332 33.936 137.547 32.7212 137.547 31.2212V19.0044C137.547 17.5044 136.332 16.2896 134.832 16.2896Z" fill="#424242"/>
<path opacity="0.2" d="M151.8 40.7231C152.546 40.7231 153.157 41.334 153.157 42.0806V61.0845C153.157 61.8311 152.546 62.4419 151.8 62.4419H139.583C138.836 62.4419 138.225 61.8311 138.225 61.0845V42.0806C138.225 41.334 138.836 40.7231 139.583 40.7231H151.8ZM151.8 39.3657H139.583C138.083 39.3657 136.868 40.5806 136.868 42.0806V61.0845C136.868 62.5844 138.083 63.7993 139.583 63.7993H151.8C153.3 63.7993 154.514 62.5844 154.514 61.0845V42.0806C154.514 40.5806 153.3 39.3657 151.8 39.3657Z" fill="#424242"/>
<path d="M128.723 73.3013H104.29V39.3657C104.29 38.6191 104.901 38.0083 105.647 38.0083H127.366C128.112 38.0083 128.723 38.6191 128.723 39.3657V73.3013Z" fill="url(#paint1_radial_99_659)"/>
<path d="M126.009 71.6512H107.005C106.631 71.6512 106.326 71.3458 106.326 70.9725V40.3354C106.326 39.9622 106.631 39.6567 107.005 39.6567H126.009C126.382 39.6567 126.687 39.9622 126.687 40.3354V70.9725C126.687 71.3458 126.382 71.6512 126.009 71.6512Z" fill="url(#paint2_radial_99_659)"/>
<path d="M122.276 18.665H135.171V31.5606H122.276V18.665Z" fill="#4FC3F7"/>
<path d="M121.257 19.0044V31.2212C121.257 31.9678 121.868 32.5786 122.615 32.5786H134.832C135.578 32.5786 136.189 31.9678 136.189 31.2212V19.0044C136.189 18.2578 135.578 17.647 134.832 17.647H122.615C121.868 17.647 121.257 18.2578 121.257 19.0044ZM134.832 24.4341H129.402V19.0044H134.832V24.4341ZM128.045 19.0044V24.4341H122.615V19.0044H128.045ZM122.615 25.7915H128.045V31.2212H122.615V25.7915ZM129.402 31.2212V25.7915H134.832V31.2212H129.402Z" fill="#EEEEEE"/>
<path d="M138.924 41.7412H152.458V61.4238H138.924V41.7412Z" fill="#4FC3F7"/>
<path d="M123.972 52.9404H109.041C108.667 52.9404 108.362 52.635 108.362 52.2617V42.7598C108.362 42.3865 108.667 42.0811 109.041 42.0811H123.972C124.346 42.0811 124.651 42.3865 124.651 42.7598V52.2617C124.651 52.635 124.346 52.9404 123.972 52.9404Z" fill="url(#paint3_radial_99_659)"/>
<path d="M123.972 69.229H109.041C108.667 69.229 108.362 68.9236 108.362 68.5503V56.3335C108.362 55.9602 108.667 55.6548 109.041 55.6548H123.972C124.345 55.6548 124.651 55.9602 124.651 56.3335V68.5503C124.651 68.9236 124.345 69.229 123.972 69.229Z" fill="url(#paint4_radial_99_659)"/>
<path d="M131.452 75.5535H101.588V73.0694C101.588 72.1396 102.342 71.3862 103.272 71.3862H129.775C130.705 71.3862 131.458 72.1396 131.458 73.0694V75.5535H131.452Z" fill="url(#paint5_linear_99_659)"/>
<path opacity="0.3" d="M129.775 72.0649C130.325 72.0649 130.78 72.5129 130.78 73.0694V74.8748H102.274V73.0694C102.274 72.5197 102.722 72.0649 103.278 72.0649H129.775ZM129.775 71.3862H103.272C102.342 71.3862 101.588 72.1396 101.588 73.0694V75.5535H131.452V73.0694C131.452 72.1396 130.698 71.3862 129.775 71.3862Z" fill="#263238"/>
<path d="M134.166 79.4233H98.8735V76.5727C98.8735 75.5954 99.6676 74.8013 100.645 74.8013H132.395C133.372 74.8013 134.166 75.5954 134.166 76.5727V79.4233Z" fill="url(#paint6_linear_99_659)"/>
<path opacity="0.3" d="M132.395 75.48C132.999 75.48 133.488 75.9687 133.488 76.5727V78.7446H99.5522V76.5727C99.5522 75.9687 100.041 75.48 100.645 75.48H132.395ZM132.395 74.8013H100.645C99.6676 74.8013 98.8735 75.5954 98.8735 76.5727V79.4233H134.166V76.5727C134.166 75.5954 133.379 74.8013 132.395 74.8013Z" fill="#263238"/>
<path opacity="0.2" d="M115.509 73.0727C115.572 72.9244 115.386 72.703 115.093 72.5782C114.8 72.4534 114.511 72.4724 114.448 72.6207C114.385 72.769 114.571 72.9904 114.864 73.1152C115.157 73.24 115.446 73.221 115.509 73.0727Z" fill="#424242"/>
<path opacity="0.2" d="M128.303 74.4192C128.393 74.3086 128.301 74.0849 128.097 73.9195C127.893 73.7541 127.656 73.7097 127.566 73.8203C127.476 73.9309 127.568 74.1546 127.772 74.32C127.976 74.4853 128.214 74.5298 128.303 74.4192Z" fill="#424242"/>
<path opacity="0.08" d="M116.71 74.1904C117.096 74.1904 117.409 74.0385 117.409 73.8511C117.409 73.6637 117.096 73.5117 116.71 73.5117C116.324 73.5117 116.011 73.6637 116.011 73.8511C116.011 74.0385 116.324 74.1904 116.71 74.1904Z" fill="#424242"/>
<path opacity="0.08" d="M122.737 74.1436C123.123 74.1436 123.436 73.9916 123.436 73.8042C123.436 73.6168 123.123 73.4648 122.737 73.4648C122.351 73.4648 122.038 73.6168 122.038 73.8042C122.038 73.9916 122.351 74.1436 122.737 74.1436Z" fill="#424242"/>
<path opacity="0.08" d="M121.291 73.2336C121.557 73.2336 121.773 73.1029 121.773 72.9417C121.773 72.7806 121.557 72.6499 121.291 72.6499C121.025 72.6499 120.809 72.7806 120.809 72.9417C120.809 73.1029 121.025 73.2336 121.291 73.2336Z" fill="#424242"/>
<path opacity="0.08" d="M129.13 73.4773C129.513 73.4773 129.823 73.2889 129.823 73.0565C129.823 72.8241 129.513 72.6357 129.13 72.6357C128.748 72.6357 128.438 72.8241 128.438 73.0565C128.438 73.2889 128.748 73.4773 129.13 73.4773Z" fill="#424242"/>
<path opacity="0.08" d="M112.529 73.0636C112.795 73.0636 113.011 72.9603 113.011 72.8328C113.011 72.7054 112.795 72.6021 112.529 72.6021C112.263 72.6021 112.047 72.7054 112.047 72.8328C112.047 72.9603 112.263 73.0636 112.529 73.0636Z" fill="#424242"/>
<path opacity="0.08" d="M126.388 73.6412C126.818 73.5764 127.141 73.3556 127.109 73.148C127.078 72.9405 126.704 72.8247 126.274 72.8895C125.844 72.9543 125.521 73.1751 125.553 73.3827C125.584 73.5902 125.958 73.706 126.388 73.6412Z" fill="#424242"/>
<path opacity="0.2" d="M113.717 74.1366C114.126 74.0406 114.418 73.7971 114.37 73.5928C114.322 73.3884 113.952 73.3006 113.543 73.3965C113.135 73.4925 112.842 73.736 112.89 73.9403C112.938 74.1447 113.308 74.2325 113.717 74.1366Z" fill="#424242"/>
<path opacity="0.2" d="M123.979 73.1863C124.511 73.1863 124.943 73.0283 124.943 72.8334C124.943 72.6385 124.511 72.4805 123.979 72.4805C123.447 72.4805 123.015 72.6385 123.015 72.8334C123.015 73.0283 123.447 73.1863 123.979 73.1863Z" fill="#424242"/>
<path opacity="0.2" d="M118.355 72.8766C118.624 72.6992 118.779 72.459 118.7 72.34C118.622 72.2211 118.34 72.2685 118.071 72.4459C117.802 72.6233 117.647 72.8635 117.725 72.9824C117.804 73.1014 118.086 73.054 118.355 72.8766Z" fill="#424242"/>
<path opacity="0.2" d="M120.871 74.1669C120.962 73.9695 120.628 73.6209 120.124 73.3882C119.62 73.1555 119.138 73.1269 119.047 73.3243C118.956 73.5216 119.29 73.8703 119.794 74.1029C120.297 74.3356 120.78 74.3642 120.871 74.1669Z" fill="#424242"/>
<path opacity="0.2" d="M129.285 76.8772C129.613 76.7581 129.834 76.5387 129.778 76.3872C129.723 76.2357 129.413 76.2095 129.086 76.3287C128.758 76.4478 128.537 76.6672 128.592 76.8187C128.647 76.9702 128.957 76.9964 129.285 76.8772Z" fill="#424242"/>
<path opacity="0.2" d="M115.046 78.087C115.278 77.9286 115.399 77.7023 115.317 77.5815C115.235 77.4607 114.98 77.4913 114.747 77.6497C114.515 77.8081 114.394 78.0344 114.476 78.1552C114.558 78.276 114.813 78.2454 115.046 78.087Z" fill="#424242"/>
<path opacity="0.08" d="M127.284 77.937C127.712 77.937 128.058 77.7851 128.058 77.5977C128.058 77.4102 127.712 77.2583 127.284 77.2583C126.857 77.2583 126.511 77.4102 126.511 77.5977C126.511 77.7851 126.857 77.937 127.284 77.937Z" fill="#424242"/>
<path opacity="0.08" d="M120.633 77.896C121.06 77.896 121.407 77.7441 121.407 77.5566C121.407 77.3692 121.06 77.2173 120.633 77.2173C120.206 77.2173 119.859 77.3692 119.859 77.5566C119.859 77.7441 120.206 77.896 120.633 77.896Z" fill="#424242"/>
<path opacity="0.08" d="M122.228 76.987C122.52 76.987 122.757 76.8563 122.757 76.6952C122.757 76.534 122.52 76.4033 122.228 76.4033C121.935 76.4033 121.698 76.534 121.698 76.6952C121.698 76.8563 121.935 76.987 122.228 76.987Z" fill="#424242"/>
<path opacity="0.08" d="M113.588 77.2312C114.008 77.2312 114.348 77.0428 114.348 76.8104C114.348 76.578 114.008 76.3896 113.588 76.3896C113.168 76.3896 112.828 76.578 112.828 76.8104C112.828 77.0428 113.168 77.2312 113.588 77.2312Z" fill="#424242"/>
<path opacity="0.08" d="M131.893 76.817C132.185 76.817 132.422 76.7137 132.422 76.5862C132.422 76.4588 132.185 76.3555 131.893 76.3555C131.6 76.3555 131.363 76.4588 131.363 76.5862C131.363 76.7137 131.6 76.817 131.893 76.817Z" fill="#424242"/>
<path opacity="0.08" d="M117.519 77.1301C117.546 76.9219 117.185 76.7036 116.713 76.6425C116.241 76.5813 115.837 76.7006 115.81 76.9087C115.783 77.1169 116.144 77.3352 116.616 77.3963C117.088 77.4574 117.492 77.3382 117.519 77.1301Z" fill="#424242"/>
<path opacity="0.2" d="M131.503 77.6861C131.545 77.4803 131.212 77.2399 130.76 77.1491C130.308 77.0583 129.908 77.1516 129.867 77.3574C129.825 77.5632 130.158 77.8036 130.61 77.8944C131.062 77.9851 131.462 77.8919 131.503 77.6861Z" fill="#424242"/>
<path opacity="0.2" d="M119.262 76.9393C119.847 76.9393 120.321 76.7812 120.321 76.5863C120.321 76.3914 119.847 76.2334 119.262 76.2334C118.677 76.2334 118.203 76.3914 118.203 76.5863C118.203 76.7812 118.677 76.9393 119.262 76.9393Z" fill="#424242"/>
<path opacity="0.2" d="M126.178 76.7318C126.251 76.6049 126.067 76.3632 125.767 76.1921C125.468 76.0209 125.167 75.9851 125.094 76.112C125.021 76.2389 125.205 76.4805 125.505 76.6517C125.804 76.8228 126.106 76.8587 126.178 76.7318Z" fill="#424242"/>
<path opacity="0.2" d="M123.856 77.8631C124.412 77.6378 124.795 77.2889 124.712 77.084C124.629 76.879 124.111 76.8955 123.555 77.1208C122.999 77.3461 122.616 77.695 122.699 77.8999C122.782 78.1049 123.3 78.0884 123.856 77.8631Z" fill="#424242"/>
<path d="M139.583 40.7236C138.836 40.7236 138.225 41.3345 138.225 42.0811V61.085C138.225 61.8316 138.836 62.4424 139.583 62.4424H151.8C152.546 62.4424 153.157 61.8316 153.157 61.085V42.0811C153.157 41.3345 152.546 40.7236 151.8 40.7236H139.583ZM146.37 42.0811H151.8V47.5107H146.37V42.0811ZM139.583 42.0811H145.012V47.5107H139.583V42.0811ZM139.583 48.8682H145.012V54.2979H139.583V48.8682ZM145.012 61.085H139.583V55.6553H145.012V61.085ZM151.8 61.085H146.37V55.6553H151.8V61.085ZM146.37 54.2979V48.8682H151.8V54.2979H146.37Z" fill="#EEEEEE"/>
<path d="M123.789 57.6909C125.288 57.6909 126.504 56.4754 126.504 54.9761C126.504 53.4767 125.288 52.2612 123.789 52.2612C122.29 52.2612 121.074 53.4767 121.074 54.9761C121.074 56.4754 122.29 57.6909 123.789 57.6909Z" fill="#FFC107"/>
<path d="M123.789 52.9404C124.916 52.9404 125.825 53.8499 125.825 54.9766C125.825 56.1032 124.916 57.0127 123.789 57.0127C122.662 57.0127 121.753 56.1032 121.753 54.9766C121.753 53.8499 122.669 52.9404 123.789 52.9404ZM123.789 51.583C121.916 51.583 120.395 53.1033 120.395 54.9766C120.395 56.8498 121.916 58.3701 123.789 58.3701C125.662 58.3701 127.183 56.8498 127.183 54.9766C127.183 53.1033 125.662 51.583 123.789 51.583Z" fill="#C62828"/>
<path d="M153.835 65.1558H137.546C136.8 65.1558 136.189 64.5449 136.189 63.7983V61.0835C136.189 60.3369 136.8 59.7261 137.546 59.7261H153.835C154.582 59.7261 155.193 60.3369 155.193 61.0835V63.7983C155.193 64.5449 154.582 65.1558 153.835 65.1558Z" fill="#795548"/>
<path opacity="0.2" d="M153.835 61.0835V63.7983H137.546V61.0835H153.835ZM153.835 59.7261H137.546C136.8 59.7261 136.189 60.3369 136.189 61.0835V63.7983C136.189 64.5449 136.8 65.1558 137.546 65.1558H153.835C154.582 65.1558 155.193 64.5449 155.193 63.7983V61.0835C155.193 60.3369 154.582 59.7261 153.835 59.7261Z" fill="#424242"/>
<path d="M168.278 33.3926L130.895 0.814454C129.646 -0.271485 127.8 -0.271485 126.551 0.814454L89.1679 33.3926C87.7697 34.6143 87.6068 36.7522 88.8082 38.1775C90.0095 39.6028 92.1135 39.7657 93.5116 38.544L127.386 9.02686C128.153 8.36173 129.293 8.36173 130.06 9.02686L163.935 38.544C164.566 39.0938 165.34 39.3585 166.107 39.3585C167.05 39.3585 167.98 38.958 168.645 38.1707C169.84 36.759 169.677 34.6143 168.278 33.3926Z" fill="url(#paint7_radial_99_659)"/>
<path d="M89.6092 80.7668C89.1613 80.7668 88.9169 80.2917 88.8355 80.0881C88.5844 79.484 88.6115 78.5949 89.1409 78.0655C89.3581 77.8483 89.3785 77.4818 89.2359 77.2171C88.9102 76.6402 88.7744 75.9208 88.8491 75.1946C89.073 72.9277 90.8377 71.0544 93.1453 70.6336C93.4643 70.5793 93.7833 70.5454 94.1023 70.5454C94.5231 70.5454 94.9507 70.5997 95.3647 70.7015C95.419 70.7151 95.4733 70.7219 95.5276 70.7219C95.7584 70.7219 95.9755 70.6065 96.1045 70.4029C97.0818 68.8351 98.7583 67.8984 100.598 67.8984C102.932 67.8984 105.023 69.4663 105.674 71.706C105.763 71.9979 106.027 72.1947 106.326 72.1947C106.367 72.1947 106.407 72.1879 106.455 72.1811C106.787 72.12 107.12 72.0861 107.446 72.0861C107.86 72.0861 108.274 72.1336 108.681 72.2354C110.887 72.7716 112.55 74.7195 112.726 76.9592C112.835 78.3642 112.4 79.7012 111.511 80.7668H89.6092Z" fill="url(#paint8_radial_99_659)"/>
<path d="M100.598 68.5703C102.634 68.5703 104.453 69.9345 105.023 71.8892C105.192 72.4797 105.735 72.8666 106.326 72.8666C106.407 72.8666 106.496 72.8598 106.577 72.8394C106.862 72.7851 107.154 72.758 107.439 72.758C107.799 72.758 108.158 72.7987 108.511 72.8869C110.439 73.3552 111.891 75.052 112.041 77.0067C112.129 78.1266 111.817 79.1989 111.172 80.0813L89.6431 80.088C89.5956 80.0609 89.4327 79.8641 89.3784 79.4976C89.3309 79.1989 89.3784 78.7849 89.6228 78.5338C89.9621 78.2012 90.2132 77.5632 89.8264 76.871C89.5685 76.4162 89.4599 75.8393 89.5209 75.242C89.711 73.3077 91.2856 71.6449 93.2606 71.2852C93.5389 71.2376 93.8172 71.2105 94.0955 71.2105C94.462 71.2105 94.8353 71.258 95.195 71.3462C95.3036 71.3734 95.4122 71.387 95.5208 71.387C95.9823 71.387 96.4234 71.1494 96.6746 70.749C97.523 69.3916 98.989 68.5703 100.598 68.5703ZM100.598 67.2129C98.4528 67.2129 96.5795 68.3396 95.5275 70.0363C95.0728 69.9277 94.5977 69.8667 94.1022 69.8667C93.7493 69.8667 93.3896 69.9006 93.0231 69.9617C90.4711 70.4232 88.4282 72.5408 88.1703 75.1199C88.021 76.6334 88.6726 77.57 88.659 77.5836C87.3898 78.8596 88.0889 81.4455 89.6092 81.4455H111.81C112.903 80.2713 113.534 78.6628 113.398 76.9117C113.201 74.3529 111.335 72.1878 108.837 71.577C108.362 71.4616 107.894 71.4073 107.446 71.4073C107.066 71.4073 106.692 71.4481 106.326 71.5159C105.6 69.0318 103.312 67.2129 100.598 67.2129Z" fill="#689F38"/>
<path d="M94.7265 73.9317C94.7265 73.9317 94.6722 72.296 95.9889 70.5449" stroke="#689F38" stroke-width="1.70374" stroke-miterlimit="10" stroke-linecap="round" stroke-linejoin="round"/>
<path d="M106.224 72.1953C104.677 72.2225 103.17 73.4374 102.939 74.9169" stroke="#689F38" stroke-width="1.70374" stroke-miterlimit="10" stroke-linecap="round" stroke-linejoin="round"/>
<path d="M104.636 75.6018C103.278 74.9842 101.453 75.0792 100.048 75.7986" stroke="#689F38" stroke-width="1.70374" stroke-miterlimit="10" stroke-linecap="round" stroke-linejoin="round"/>
<path opacity="0.2" d="M128.723 2.03613C128.94 2.03613 129.259 2.09043 129.558 2.35513L166.941 34.9333C167.505 35.4287 167.573 36.2975 167.084 36.8744C166.745 37.2748 166.324 37.3359 166.107 37.3359C165.889 37.3359 165.57 37.2816 165.272 37.0169L131.397 7.49298C130.658 6.8482 129.707 6.48848 128.723 6.48848C127.739 6.48848 126.789 6.84141 126.049 7.49298L92.1746 37.0101C91.8759 37.2748 91.5569 37.3291 91.3398 37.3291C91.1226 37.3291 90.7018 37.2681 90.3624 36.8676C89.8737 36.2907 89.9416 35.422 90.5049 34.9265L127.888 2.34834C128.187 2.09043 128.506 2.03613 128.723 2.03613ZM128.723 0C127.949 0 127.176 0.271484 126.551 0.814454L89.1679 33.3926C87.7697 34.6143 87.6068 36.7522 88.8082 38.1775C89.4665 38.9648 90.3963 39.3653 91.3398 39.3653C92.1067 39.3653 92.8804 39.0938 93.5116 38.5508L127.386 9.02686C127.766 8.69429 128.248 8.52462 128.723 8.52462C129.198 8.52462 129.68 8.69429 130.06 9.02686L163.935 38.544C164.566 39.0938 165.34 39.3585 166.107 39.3585C167.05 39.3585 167.98 38.958 168.645 38.1707C169.846 36.7454 169.683 34.6075 168.285 33.3858L130.895 0.814454C130.271 0.271484 129.497 0 128.723 0Z" fill="#424242"/>
<path d="M33.8493 73.5503C33.8493 73.5503 32.9307 76.2025 33.4688 79.0162C34.0108 81.8298 34.768 84.4282 34.768 84.4282C34.768 84.4282 34.9294 89.9479 34.768 90.5437C34.6065 91.1395 33.3612 91.8967 33.3612 92.9806C33.3612 94.0646 33.7571 95.433 35.7597 95.7597C37.7623 96.0864 39.3844 95.4176 40.0532 94.6066C41.018 93.4342 40.8296 92.604 40.8296 91.7391C40.8296 90.8743 40.8834 85.8966 41.0987 85.1355C41.3139 84.3783 41.6407 83.9439 42.2364 83.9977C42.8322 84.0515 43.4818 84.9702 43.5356 86.7038C43.5895 88.4335 43.6433 91.4662 43.5895 92.062C43.5356 92.6578 42.9937 94.6604 43.428 95.4714C43.8624 96.2825 45.8265 97.0704 47.341 96.9859C49.3244 96.8782 50.516 95.6329 50.6236 94.6604C50.7312 93.6879 50.0816 91.4662 50.0816 90.8166C50.0816 90.167 50.8388 85.7313 51.0541 85.4584C51.2693 85.1893 51.9305 85.247 53.3796 84.5935C54.698 83.9977 55.4014 83.4019 55.4014 83.4019C55.4014 83.4019 55.436 87.2457 55.3822 87.6762C55.3284 88.1106 54.0292 89.4636 54.2444 90.4899C54.4597 91.5162 55.7281 92.1158 56.8582 92.2196C58.7685 92.4002 60.6289 90.9204 61.1133 89.6212C61.6014 88.322 61.3823 86.6999 61.2747 85.8351C61.1671 84.9702 61.1671 81.9375 61.2747 81.1264C61.3823 80.3154 61.5591 79.8234 61.6283 79.3967C61.7359 78.6933 61.709 77.9092 61.709 77.9092C61.709 77.9092 63.5771 77.9092 64.6841 77.1789C65.7911 76.4485 66.9558 75.1763 67.4709 73.608C67.9744 72.0743 67.8514 71.6054 67.4171 71.5516C66.9827 71.4978 65.0378 74.2268 63.3849 74.3114C60.7596 74.4459 61.021 71.6323 59.0184 69.9295C56.7621 68.0076 53.245 67.7654 53.245 67.7654C53.245 67.7654 53.8524 65.4938 53.86 63.814C53.8869 56.4801 50.3161 53.9932 50.3161 53.9932C50.3161 53.9932 46.0226 50.7951 41.1525 51.0104C36.2824 51.2256 32.7116 55.0963 32.7116 55.0963L30.0324 66.9198C30.0324 66.9198 30.7089 69.1915 31.7929 70.8443C32.9307 72.574 33.8493 73.5503 33.8493 73.5503Z" fill="#FFD2B1"/>
<path d="M30.4668 52.4749C26.4885 52.5556 24.3859 55.9458 24.3244 58.0214C24.2898 59.2399 23.8093 68.096 28.7063 68.2766C30.6705 68.3497 32.1311 66.0703 32.873 63.4873C33.807 60.2316 33.7647 56.9682 33.8724 56.0995C34.0453 54.7119 34.3336 53.6933 34.3336 53.6933C34.3336 53.6933 33.8493 52.4057 30.4668 52.4749Z" fill="#865B52"/>
<path d="M51.7613 51.122C56.0894 51.2835 57.5654 53.2015 57.9844 54.3162C58.4457 55.5347 58.8493 59.882 58.1728 62.7841C57.6231 65.1518 56.7928 66.3549 54.844 66.2742C53.0605 66.2012 52.1572 63.6297 50.8119 60.1319C49.5127 56.7493 48.5172 53.7204 48.348 53.2861C48.1328 52.7172 47.6715 52.475 47.6715 52.475C47.6715 52.475 48.5364 50.999 51.7613 51.122Z" fill="#865B52"/>
<path d="M46.8105 59.9128C44.6734 60.0474 43.6509 62.4228 44.1045 64.8098C44.5927 67.3813 46.2801 68.5998 48.4057 68.3269C50.7312 68.0309 51.4346 65.3787 51.1386 63.3761C50.8657 61.5541 49.8356 59.7206 46.8105 59.9128Z" fill="#D27856"/>
<path d="M49.3243 64.2676C49.3243 65.39 48.7017 66.3279 47.7138 66.301C46.3723 66.2625 46.0225 65.0748 46.0494 64.0754C46.0802 62.9069 46.7798 62.3534 47.7792 62.3803C48.6709 62.3995 49.3243 63.1452 49.3243 64.2676Z" fill="#060401"/>
<path d="M38.0429 64.8863C38.0429 66.0548 37.4202 67.0311 36.4323 67.0004C35.0908 66.9619 34.741 65.7242 34.768 64.6826C34.7987 63.4641 35.6328 62.9452 36.4169 63.0028C37.3049 63.0682 38.0429 63.7178 38.0429 64.8863Z" fill="#060401"/>
<path d="M43.182 71.4131C43.182 71.4131 45.5344 71.1709 45.4268 69.4643C45.3191 67.7615 43.724 67.65 42.4786 67.6769C41.2332 67.7039 39.4497 68.3535 39.638 69.7872C39.8264 71.2209 41.8559 71.4093 41.8559 71.4093C41.8559 71.4093 41.852 72.4701 41.1525 72.547C40.3952 72.6277 39.3113 71.4631 39.0153 71.1671C38.7194 70.8711 38.2581 70.9788 38.0967 71.2209C37.9352 71.4631 38.0429 72.005 38.5041 72.4663C38.9654 72.9276 40.0455 74.0884 41.1294 73.9807C42.2134 73.8731 42.2403 73.3042 42.6708 73.2773C43.1051 73.2504 43.0782 73.9 44.1583 73.8731C44.9194 73.8539 46.453 72.5163 46.7298 72.278C47.3525 71.736 47.5139 71.194 47.2449 70.8442C46.9758 70.4944 46.2186 71.0057 45.8111 71.3055C45.4037 71.6014 44.7464 72.301 44.1083 72.4163C43.0475 72.6047 43.182 71.4131 43.182 71.4131Z" fill="#060401"/>
<path d="M52.7876 68.8762C52.7876 68.8762 52.2764 69.9986 51.8498 70.8981C51.3347 71.982 50.5967 72.9276 50.5967 72.9276C50.5967 72.9276 51.4308 78.6318 56.3931 78.1398C58.1689 77.9629 59.5143 76.5715 59.6411 75.0955C59.8563 72.6047 58.9108 71.44 57.4425 70.3023C55.0632 68.465 52.7876 68.8762 52.7876 68.8762Z" fill="#D27856"/>
<path d="M49.3513 77.7979C48.4711 78.6051 48.9439 80.1234 50.1085 80.2887C51.2732 80.4501 51.8997 79.4815 51.8113 78.7473C51.6806 77.6096 50.3545 76.8793 49.3513 77.7979Z" fill="#D27856"/>
<path d="M37.8545 76.2988C37.8545 76.2988 37.0781 78.4283 38.7194 81.0959C39.419 82.2298 40.9757 82.8678 42.075 82.8256C43.2358 82.7833 44.2852 82.3797 45.1846 81.2573C46.6184 79.4699 46.2109 76.4949 46.2109 76.4949C46.2109 76.4949 43.9392 77.4289 41.8559 77.3597C39.638 77.2905 37.8545 76.2988 37.8545 76.2988Z" fill="#D27856"/>
<path d="M35.0217 92.5964C34.4566 92.4235 34.2299 93.2999 34.1914 93.8572C34.153 94.4145 34.1568 95.1372 34.6604 95.3178C35.1639 95.4985 35.064 94.4261 35.1101 94.0725C35.2023 93.3921 35.6175 92.7771 35.0217 92.5964Z" fill="#D27856"/>
<path d="M37.2395 92.9233C36.9013 92.908 36.5438 93.2501 36.5015 94.2418C36.4669 95.072 36.5015 95.7562 36.9705 95.7946C37.6008 95.8446 37.424 95.0374 37.4586 94.3686C37.474 93.9881 37.9429 92.9579 37.2395 92.9233Z" fill="#D27856"/>
<path d="M45.8458 94.0029C45.3038 94.0029 45.2884 94.6179 45.2884 95.2829C45.2884 95.9517 45.15 96.7781 45.7573 96.8512C46.4953 96.9396 46.3531 95.9479 46.3531 95.3905C46.3493 94.9062 46.4377 94.0029 45.8458 94.0029Z" fill="#D27856"/>
<path d="M48.2981 93.8804C47.8638 93.9688 47.9022 94.5646 47.9176 95.2872C47.9368 96.0098 47.8292 96.7747 48.4403 96.7132C48.9631 96.6594 48.9285 95.8099 48.9093 95.1603C48.8939 94.5992 48.9669 93.7381 48.2981 93.8804Z" fill="#D27856"/>
<path d="M55.7281 89.1791C55.3553 89.1061 54.9325 89.4213 54.8248 90.2631C54.7364 90.9857 54.771 91.6199 55.4014 91.7583C55.7243 91.8313 55.7819 91.0011 55.7973 90.4053C55.8165 89.8902 56.1971 89.2714 55.7281 89.1791Z" fill="#D27856"/>
<path d="M57.7653 89.6175C57.4079 89.5598 57.0581 89.7789 56.9658 90.6745C56.912 91.1973 56.7198 92.1352 57.3694 92.1698C57.873 92.1928 57.8345 91.3664 57.8807 90.9359C57.9537 90.2556 58.3534 89.7174 57.7653 89.6175Z" fill="#D27856"/>
<path d="M201.903 79.7456C201.903 79.7456 200.086 82.872 199.518 85.1714C198.954 87.4667 199.264 88.3653 199.879 90.2386C200.585 92.3778 201.442 94.116 203.091 93.0908C204.426 92.2596 204.568 90.2597 204.366 89.4665C204.163 88.6733 203.983 87.5679 204.064 87.0912C204.146 86.6144 205.055 84.4584 205.782 83.4289C206.51 82.3995 206.51 80.8932 206.39 80.7751C206.265 80.6569 201.903 79.7456 201.903 79.7456Z" fill="#4D4D4D"/>
<path d="M206.127 95.1711C206.127 95.1711 205.61 97.9641 205.886 97.9641C206.157 97.9641 208.069 97.8755 208.736 97.4283C209.403 96.9811 210.002 95.4664 210.553 93.745C211.221 91.6649 212.151 88.9984 212.37 88.3403C212.775 87.1336 213.218 85.9058 213.218 85.9058C213.218 85.9058 215.276 85.7244 216.551 85.6695C218.583 85.5809 219.996 85.4881 220.31 85.6991C220.706 85.9649 222.527 87.1673 222.975 87.8086C223.642 88.7579 221.339 93.2134 221.339 93.2134C221.339 93.2134 219.703 94.6394 219.763 95.4411C219.823 96.2427 221.399 96.1541 222.794 96.0951C224.189 96.036 224.934 95.6478 225.128 95.4411C225.856 94.669 226.613 92.5594 227.1 90.838C227.565 89.1883 228.189 88.163 228.008 87.0956C227.828 86.0282 222.312 81.4546 222.312 81.4546L208.766 84.6611L206.127 95.1711Z" fill="#4D4D4D"/>
<path d="M198.493 57.9621L205.606 55.1521C205.606 55.1521 204.917 53.3716 204.03 51.8274C203.143 50.2832 201.162 47.3931 200.232 47.6294C199.302 47.8656 198.329 52.2704 198.11 53.4518C197.662 55.8609 198.493 57.9621 198.493 57.9621Z" fill="#4D4D4D"/>
<path d="M191.905 64.118C191.892 64.118 190.433 64.118 189.438 64.0885C188.439 64.059 187.509 64.0294 187.509 64.0294C187.509 64.0294 187.048 64.0168 187.048 63.5738C187.048 63.1265 187.526 63.1476 187.526 63.1476C187.526 63.1476 188.461 63.1772 189.464 63.2067C190.446 63.2362 191.892 63.2362 191.905 63.2362C192.155 63.2362 192.357 63.4345 192.357 63.6792C192.357 63.9239 192.155 64.118 191.905 64.118Z" fill="#B0B1B2"/>
<path d="M187.535 66.7969C187.535 66.7969 187.109 66.9108 187.014 66.4551C186.919 65.9953 187.341 65.932 187.341 65.932C187.341 65.932 188.577 65.5733 189.429 65.3961C190.273 65.2189 192.03 64.8941 192.047 64.8898C192.293 64.8434 192.529 65.0038 192.577 65.2442C192.624 65.4847 192.461 65.7168 192.215 65.7632C192.198 65.7674 190.454 66.0923 189.619 66.2653C188.771 66.4383 187.535 66.7969 187.535 66.7969Z" fill="#B0B1B2"/>
<path d="M189.623 69.0797C189.477 69.0797 189.335 69.008 189.244 68.8814C189.106 68.6789 189.162 68.4046 189.369 68.2654L191.729 66.4554C191.935 66.3204 192.215 66.3752 192.357 66.5777C192.495 66.7802 192.439 67.0545 192.232 67.1937L190.019 68.9025C189.942 68.9531 189.709 69.0797 189.623 69.0797Z" fill="#B0B1B2"/>
<path d="M199.578 74.0836C199.578 74.438 199.832 77.0707 200.125 78.9525C200.426 80.9144 201.339 82.3995 203.156 83.5851C205.339 85.0112 207.276 85.2475 207.276 85.2475C207.276 85.2475 206.609 89.2852 205.701 91.9601C205.537 92.4453 204.551 94.4241 204.336 94.7532C204.12 95.0823 203.548 96.0316 203.638 96.7151C203.737 97.4577 204.306 98.3184 206.73 97.8416C208.693 97.4577 208.883 95.5169 209.459 93.9431C209.675 93.3525 211.014 89.7071 211.276 88.8548C211.858 86.9689 212.185 85.6989 212.491 85.3698C212.792 85.0449 216.008 84.8931 218.006 84.7749C220.008 84.6568 223.22 84.5977 223.22 84.5977C223.22 84.5977 224.585 85.6947 226.101 86.3782C228.461 87.4414 230.678 87.7452 231.707 89.1122C232.702 90.4286 232.538 91.6985 232.314 92.766C231.952 94.4874 231.289 95.4367 231.406 96.0611C231.556 96.8923 232.374 96.9809 234.071 97.0105C235.711 97.04 236.03 96.7193 236.344 95.943C237.589 92.863 235.586 88.8759 235.436 86.2305C235.363 84.9774 233.343 84.6272 232.891 82.7835C232.435 80.9439 232.297 79.0706 231.75 77.2311C231.156 75.2227 230.415 73.5267 230.415 73.5267C230.415 73.5267 232.525 72.2693 233.83 70.8728C235.134 69.4763 236.994 67.6241 236.232 63.9618C235.625 61.0506 233.645 59.1098 228.947 57.6542C224.301 56.2155 223.354 57.8862 223.22 58.979C223.04 60.4641 224.977 60.9789 227.04 61.3628C229.102 61.7468 233.05 62.9788 231.888 66.3541C231.16 68.4637 227.948 69.7505 227.948 69.7505C227.948 69.7505 224.857 69.2948 220.676 69.7421C217.3 70.1091 215.698 70.9741 215.337 70.818C214.79 70.5817 215.156 69.8096 215.733 68.9193C216.646 67.5059 217.765 65.6537 217.765 63.3374C217.765 61.0211 216.646 59.7722 216.646 59.7722C216.646 59.7722 216.616 55.2282 215.948 52.6461C215.281 50.0639 214.036 47.0599 212.732 47.0008C211.427 46.9418 209.124 50.0597 208.521 51.0386C207.918 52.0174 206.915 54.0384 206.915 54.0384C206.915 54.0384 203.384 53.6207 200.43 55.0172C197.838 56.2408 196.25 60.0675 195.462 60.3629C194.674 60.6582 192.814 60.5907 192.086 61.7805C191.785 62.2699 191.754 65.5314 191.754 65.5314C191.754 65.5314 191.983 66.3035 192.224 66.9785C192.413 67.5059 193.395 68.9193 194.575 69.7674C196.107 70.8686 198.157 72.4255 198.609 72.7799C199.061 73.1343 199.578 74.0836 199.578 74.0836Z" fill="#5D6265"/>
<path d="M208.491 55.8778C208.521 56.5023 209.976 57.3335 210.734 57.8693C211.492 58.4051 212.581 59.578 213.007 59.5021C213.761 59.3713 213.705 56.2365 213.554 54.8399C213.403 53.4434 212.646 51.1271 212.159 50.9499C211.673 50.7727 210.415 52.5489 210.097 53.0299C209.55 53.8611 208.461 55.3167 208.491 55.8778Z" fill="#FFAB93"/>
<path d="M193.158 64.4807C193.36 64.2445 196.418 63.4513 196.517 62.9154C196.616 62.3796 195.892 61.945 194.618 61.6497C193.472 61.3839 192.426 61.4894 192.168 61.6708C191.823 61.9071 191.44 63.1179 191.543 64.3457C191.647 65.6157 192.086 66.6536 192.654 67.2147C193.05 67.6071 194.015 68.2231 194.863 68.2822C195.711 68.3413 196.499 67.9869 196.926 67.5692C197.352 67.1515 197.046 66.4806 196.4 66.8561C195.754 67.2316 195.324 67.3455 194.764 67.1937C194.179 67.0333 193.339 66.4722 193.162 65.5524C193.05 65.0039 193.158 64.4807 193.158 64.4807Z" fill="#2F2F2F"/>
<path d="M205.856 68.2908C205.787 68.2908 205.718 68.274 205.653 68.2444C205.64 68.2402 204.443 67.6453 203.406 67.3458C202.338 67.0378 201.339 66.8015 201.326 66.7973C201.085 66.7382 200.934 66.5019 200.99 66.2614C201.05 66.0252 201.292 65.8775 201.537 65.9323C201.546 65.9366 202.57 66.1771 203.66 66.4935C204.779 66.8184 206.006 67.4301 206.058 67.4555C206.282 67.5652 206.368 67.831 206.256 68.0504C206.179 68.2022 206.019 68.2908 205.856 68.2908Z" fill="#B0B1B2"/>
<path d="M205.391 71.3414C205.296 71.3414 205.201 71.3118 205.124 71.2527C205.111 71.2443 203.724 70.2402 202.833 69.6368C201.968 69.0546 200.771 68.5103 200.758 68.5061C200.529 68.4048 200.43 68.139 200.534 67.9196C200.637 67.696 200.908 67.599 201.132 67.7002C201.184 67.7255 202.411 68.2782 203.341 68.9069C204.245 69.5187 205.645 70.5271 205.658 70.5397C205.86 70.6832 205.899 70.9616 205.752 71.1599C205.666 71.2781 205.528 71.3414 205.391 71.3414Z" fill="#B0B1B2"/>
<path d="M203.251 72.885C203.143 72.885 203.035 72.847 202.949 72.7711L199.961 70.1594C199.776 69.9949 199.759 69.7164 199.927 69.535C200.095 69.3536 200.379 69.3367 200.564 69.5013L203.552 72.1129C203.737 72.2775 203.754 72.5559 203.587 72.7373C203.496 72.8344 203.376 72.885 203.251 72.885Z" fill="#B0B1B2"/>
<path d="M203.296 62.7795C203.862 61.819 203.695 60.6861 202.923 60.2492C202.15 59.8123 201.066 60.2368 200.5 61.1973C199.934 62.1579 200.101 63.2907 200.873 63.7276C201.645 64.1645 202.73 63.74 203.296 62.7795Z" fill="#010000"/>
<path d="M201.761 61.6879C201.524 62.1224 201.111 62.4009 200.771 62.1942C200.43 61.9874 200.624 61.325 200.814 61.0761C201.003 60.8272 201.343 60.5149 201.679 60.7217C202.024 60.9326 201.92 61.401 201.761 61.6879Z" fill="#DEDEDE"/>
</g>
<defs>
<radialGradient id="paint0_radial_99_659" cx="0" cy="0" r="1" gradientUnits="userSpaceOnUse" gradientTransform="translate(128.723 2.9532) scale(84.262)">
<stop stop-color="#FFD54F"/>
<stop offset="0.179" stop-color="#FFD34B"/>
<stop offset="0.3526" stop-color="#FFCE3F"/>
<stop offset="0.524" stop-color="#FFC62C"/>
<stop offset="0.693" stop-color="#FFBA11"/>
<stop offset="0.7785" stop-color="#FFB300"/>
<stop offset="1" stop-color="#FFB300"/>
</radialGradient>
<radialGradient id="paint1_radial_99_659" cx="0" cy="0" r="1" gradientUnits="userSpaceOnUse" gradientTransform="translate(116.082 37.8386) scale(35.6337 35.6337)">
<stop stop-color="#D32F2F"/>
<stop offset="0.4374" stop-color="#CA2929"/>
<stop offset="0.9957" stop-color="#B71C1C"/>
</radialGradient>
<radialGradient id="paint2_radial_99_659" cx="0" cy="0" r="1" gradientUnits="userSpaceOnUse" gradientTransform="translate(116.422 39.7042) scale(31.987)">
<stop stop-color="#EF5350"/>
<stop offset="1" stop-color="#E53935"/>
</radialGradient>
<radialGradient id="paint3_radial_99_659" cx="0" cy="0" r="1" gradientUnits="userSpaceOnUse" gradientTransform="translate(116.167 42.5901) scale(28.2446 28.2446)">
<stop stop-color="#E53935"/>
<stop offset="0.4072" stop-color="#DC3431"/>
<stop offset="1" stop-color="#C62828"/>
</radialGradient>
<radialGradient id="paint4_radial_99_659" cx="0" cy="0" r="1" gradientUnits="userSpaceOnUse" gradientTransform="translate(116.167 42.5896) scale(28.2446)">
<stop stop-color="#E53935"/>
<stop offset="0.4072" stop-color="#DC3431"/>
<stop offset="1" stop-color="#C62828"/>
</radialGradient>
<linearGradient id="paint5_linear_99_659" x1="116.523" y1="71.7188" x2="116.523" y2="76.1508" gradientUnits="userSpaceOnUse">
<stop offset="0.0042918" stop-color="#BDBDBD"/>
<stop offset="0.2153" stop-color="#B5B5B5"/>
<stop offset="0.5502" stop-color="#9E9E9E"/>
<stop offset="0.9652" stop-color="#787878"/>
<stop offset="1" stop-color="#757575"/>
</linearGradient>
<linearGradient id="paint6_linear_99_659" x1="116.523" y1="74.9438" x2="116.523" y2="79.3486" gradientUnits="userSpaceOnUse">
<stop offset="0.0042918" stop-color="#BDBDBD"/>
<stop offset="0.3969" stop-color="#BABABA"/>
<stop offset="0.7025" stop-color="#B0B0B0"/>
<stop offset="0.9786" stop-color="#A0A0A0"/>
<stop offset="1" stop-color="#9E9E9E"/>
</linearGradient>
<radialGradient id="paint7_radial_99_659" cx="0" cy="0" r="1" gradientUnits="userSpaceOnUse" gradientTransform="translate(128.384 -0.169678) scale(45.9074 45.9074)">
<stop stop-color="#F44336"/>
<stop offset="0.34" stop-color="#EE3F35"/>
<stop offset="0.8027" stop-color="#DC3531"/>
<stop offset="0.9957" stop-color="#D32F2F"/>
</radialGradient>
<radialGradient id="paint8_radial_99_659" cx="0" cy="0" r="1" gradientUnits="userSpaceOnUse" gradientTransform="translate(100.245 68.6416) rotate(90) scale(16.4913 19.158)">
<stop stop-color="#9CCC65"/>
<stop offset="0.2538" stop-color="#96C760"/>
<stop offset="0.5994" stop-color="#84B851"/>
<stop offset="0.9952" stop-color="#689F38"/>
</radialGradient>
<clipPath id="clip0_99_659">
<rect width="264" height="99" fill="white"/>
</clipPath>
</defs>
</svg>
