<svg width="40" height="41" viewBox="0 0 40 41" fill="none" xmlns="http://www.w3.org/2000/svg">
<g clip-path="url(#clip0_93_534)">
<path d="M28.3334 6.06665C30.8472 7.51808 32.9383 9.60086 34.3997 12.1088C35.8612 14.6168 36.6423 17.4629 36.6658 20.3655C36.6892 23.2682 35.9542 26.1266 34.5334 28.6578C33.1127 31.1891 31.0554 33.3053 28.5654 34.7972C26.0754 36.289 23.239 37.1047 20.3369 37.1634C17.4348 37.2222 14.5676 36.5219 12.0193 35.1321C9.47097 33.7422 7.32983 31.7109 5.80782 29.2392C4.28581 26.7675 3.43572 23.9412 3.34171 21.04L3.33337 20.5L3.34171 19.96C3.43505 17.0816 4.27262 14.2766 5.77277 11.8183C7.27293 9.36002 9.38446 7.3324 11.9015 5.93312C14.4186 4.53384 17.2553 3.81064 20.1351 3.83405C23.0148 3.85745 25.8394 4.62665 28.3334 6.06665ZM25 22.1666H15C14.558 22.1666 14.1341 22.3422 13.8215 22.6548C13.509 22.9674 13.3334 23.3913 13.3334 23.8333V23.9166C13.3334 25.6166 13.9869 27.2514 15.1586 28.483C16.3303 29.7146 17.9306 30.4486 19.6284 30.5333L20.0067 30.5417C21.7098 30.5293 23.3446 29.8699 24.5794 28.6969C25.8143 27.5239 26.5569 25.9252 26.6567 24.225L26.6667 23.8816C26.6732 23.6587 26.6348 23.4368 26.554 23.229C26.4731 23.0212 26.3514 22.8317 26.196 22.6718C26.0406 22.5118 25.8546 22.3847 25.6492 22.298C25.4438 22.2112 25.223 22.1666 25 22.1666ZM15.0167 13.8333L14.805 13.845C14.3832 13.8952 13.9965 14.1045 13.7238 14.4303C13.4512 14.756 13.3132 15.1736 13.3381 15.5977C13.363 16.0217 13.5489 16.4203 13.8578 16.7119C14.1667 17.0035 14.5752 17.1662 15 17.1667L15.2117 17.155C15.6335 17.1048 16.0203 16.8955 16.2929 16.5697C16.5656 16.2439 16.7036 15.8264 16.6787 15.4023C16.6538 14.9782 16.4679 14.5797 16.159 14.2881C15.8501 13.9964 15.4415 13.8338 15.0167 13.8333ZM25.0167 13.8333L24.805 13.845C24.3832 13.8952 23.9965 14.1045 23.7238 14.4303C23.4512 14.756 23.3132 15.1736 23.3381 15.5977C23.363 16.0217 23.5489 16.4203 23.8578 16.7119C24.1667 17.0035 24.5752 17.1662 25 17.1667L25.2117 17.155C25.6335 17.1048 26.0203 16.8955 26.2929 16.5697C26.5656 16.2439 26.7036 15.8264 26.6787 15.4023C26.6538 14.9782 26.4679 14.5797 26.159 14.2881C25.8501 13.9964 25.4415 13.8338 25.0167 13.8333Z" fill="#646054"/>
</g>
<defs>
<clipPath id="clip0_93_534">
<rect width="40" height="40" fill="white" transform="translate(0 0.5)"/>
</clipPath>
</defs>
</svg>
