<svg width="22" height="22" viewBox="0 0 22 22" fill="none" xmlns="http://www.w3.org/2000/svg">
<g clip-path="url(#clip0_106_123)">
<path d="M7.33333 0C6.55537 0 5.80926 0.309047 5.25915 0.859153C4.70905 1.40926 4.4 2.15536 4.4 2.93333V4.4C4.4 5.17797 4.70905 5.92407 5.25915 6.47418C5.80926 7.02429 6.55537 7.33333 7.33333 7.33333C8.1113 7.33333 8.85741 7.02429 9.40751 6.47418C9.95762 5.92407 10.2667 5.17797 10.2667 4.4V2.93333C10.2667 2.15536 9.95762 1.40926 9.40751 0.859153C8.85741 0.309047 8.1113 0 7.33333 0ZM14.6667 0C13.8887 0 13.1426 0.309047 12.5925 0.859153C12.0424 1.40926 11.7333 2.15536 11.7333 2.93333V4.4C11.7333 5.17797 12.0424 5.92407 12.5925 6.47418C13.1426 7.02429 13.8887 7.33333 14.6667 7.33333C15.4446 7.33333 16.1907 7.02429 16.7408 6.47418C17.291 5.92407 17.6 5.17797 17.6 4.4V2.93333C17.6 2.15536 17.291 1.40926 16.7408 0.859153C16.1907 0.309047 15.4446 0 14.6667 0ZM2.93333 7.33333C2.15536 7.33333 1.40926 7.64238 0.859153 8.19249C0.309047 8.74259 0 9.4887 0 10.2667L0 11C0 11.778 0.309047 12.5241 0.859153 13.0742C1.40926 13.6243 2.15536 13.9333 2.93333 13.9333C3.7113 13.9333 4.45741 13.6243 5.00751 13.0742C5.55762 12.5241 5.86667 11.778 5.86667 11V10.2667C5.86667 9.4887 5.55762 8.74259 5.00751 8.19249C4.45741 7.64238 3.7113 7.33333 2.93333 7.33333ZM19.0667 7.33333C18.2887 7.33333 17.5426 7.64238 16.9925 8.19249C16.4424 8.74259 16.1333 9.4887 16.1333 10.2667V11C16.1333 11.778 16.4424 12.5241 16.9925 13.0742C17.5426 13.6243 18.2887 13.9333 19.0667 13.9333C19.8446 13.9333 20.5907 13.6243 21.1408 13.0742C21.691 12.5241 22 11.778 22 11V10.2667C22 9.4887 21.691 8.74259 21.1408 8.19249C20.5907 7.64238 19.8446 7.33333 19.0667 7.33333ZM14.0991 11.4092C13.7225 10.9518 13.2493 10.5834 12.7135 10.3305C12.1777 10.0776 11.5925 9.94643 11 9.94643C10.4075 9.94643 9.82234 10.0776 9.28653 10.3305C8.75072 10.5834 8.27753 10.9518 7.90093 11.4092L3.62267 16.6056C1.84947 18.7572 3.38067 22 6.16733 22C6.56627 22 6.95933 21.9076 7.31427 21.7287L7.84227 21.4647C8.8227 20.9744 9.90382 20.7192 11 20.7192C12.0962 20.7192 13.1773 20.9744 14.1577 21.4647L14.6857 21.7287C15.0407 21.9076 15.4337 22 15.8327 22C18.6193 22 20.1505 18.7572 18.3788 16.6056L14.0991 11.4092Z" fill="white"/>
</g>
<defs>
<clipPath id="clip0_106_123">
<rect width="22" height="22" fill="white"/>
</clipPath>
</defs>
</svg>
