<svg width="360" height="568" viewBox="0 0 360 568" fill="none" xmlns="http://www.w3.org/2000/svg">
<path d="M0 0H360V548C360 559.046 351.046 568 340 568H20C8.95431 568 0 559.046 0 548V0Z" fill="#D37E17"/>
<path d="M37.364 54.7552C39.8649 56.6124 42.0821 53.5199 41.7302 50.5068C41.6054 49.4676 41.2497 48.5161 40.6519 47.7899C39.6758 46.5963 37.6402 46.4711 36.8987 47.7315C35.6955 49.7597 35.2036 53.1485 37.364 54.7552ZM30.4856 52.2804C33.153 53.7995 35.1166 50.4108 34.5075 47.4352C34.2994 46.4169 33.8605 45.5071 33.2022 44.8602C32.1239 43.7918 30.0808 43.9379 29.4376 45.2984C28.3971 47.4852 28.1928 50.9575 30.4856 52.2804ZM18.7491 51.8297C17.5611 51.0034 15.6807 51.9883 15.2077 53.5074C14.9202 54.4297 14.9391 55.4564 15.2153 56.4622C16.0363 59.3793 19.3166 61.2448 20.9852 58.4654C22.4229 56.0866 20.6636 53.1735 18.7491 51.8297ZM26.3578 53.3113C27.9317 51.1536 26.4561 48.0486 24.7082 46.4628C23.6223 45.4862 21.7267 46.1957 21.1554 47.6313C20.8073 48.4952 20.7544 49.5177 20.9436 50.5443C21.5073 53.5241 24.5379 55.8195 26.3578 53.3113ZM37.7159 60.4227C36.876 57.4387 33.834 56.145 31.7077 55.8487C28.5371 55.4105 25.0903 57.2718 23.5277 60.9444C22.8996 62.4217 22.0105 65.0259 22.8542 66.6911C24.0196 68.9739 26.948 67.5132 28.3555 66.6869C30.024 65.6895 31.352 64.8089 33.2703 65.1469L33.4746 65.1845C35.8998 65.5309 38.9153 64.6628 37.7159 60.4227ZM40.4022 77.3624C39.1461 76.7739 37.5267 78.1345 37.3186 79.7245C37.1938 80.6886 37.3792 81.7027 37.8029 82.6375C39.0326 85.3544 42.4377 86.5563 43.5728 83.4722C44.5489 80.8096 42.4226 78.3014 40.4022 77.3624ZM48.0222 77.1829C49.2556 74.6747 47.3298 71.9203 45.3586 70.7434C44.1403 70.0131 42.3696 71.1482 42.0102 72.7007C41.7945 73.6397 41.8929 74.6664 42.2372 75.6388C43.2361 78.4809 46.5807 80.0876 48.0222 77.1829ZM62.8082 71.2401C62.5244 70.2343 62.025 69.3746 61.3213 68.7819C60.1597 67.8137 58.1015 68.1559 57.534 69.5749C56.6259 71.8661 56.6373 75.3675 59.0398 76.4568C61.8283 77.7338 63.6065 74.1614 62.8082 71.2401ZM51.9684 75.4927C54.7455 76.4526 56.1 72.6799 55.0558 69.8587C54.6963 68.8905 54.1326 68.0725 53.4062 67.5675C52.2068 66.7328 50.2734 67.3087 49.8686 68.7903C49.2254 71.1858 49.5697 74.6706 51.9684 75.4927ZM58.1772 80.0793C55.0255 77.9967 51.2193 78.581 48.813 80.8931C47.1974 82.4497 45.3321 85.392 46.1456 88.3884C47.2996 92.6453 50.2394 91.5059 52.0706 89.7239L52.2257 89.5653C53.6445 88.1088 55.192 88.017 57.08 87.8209C58.6653 87.6414 61.8396 87.0446 61.6429 84.4363C61.5067 82.529 59.4447 80.9181 58.1772 80.0793Z" fill="#F3F3F3" fill-opacity="0.3"/>
<path d="M324.364 62.7836C326.865 64.6407 329.082 61.5482 328.73 58.5351C328.605 57.4959 328.25 56.5444 327.652 55.8182C326.676 54.6246 324.64 54.4994 323.899 55.7598C322.696 57.788 322.204 61.1768 324.364 62.7836ZM317.486 60.3088C320.153 61.8279 322.117 58.4391 321.507 55.4635C321.299 54.4452 320.86 53.5354 320.202 52.8885C319.124 51.8201 317.081 51.9662 316.438 53.3267C315.397 55.5136 315.193 58.9858 317.486 60.3088ZM305.749 59.858C304.561 59.0317 302.681 60.0166 302.208 61.5357C301.92 62.458 301.939 63.4847 302.215 64.4905C303.036 67.4077 306.317 69.2732 307.985 66.4937C309.423 64.1149 307.664 61.2019 305.749 59.858ZM313.358 61.3396C314.932 59.1819 313.456 56.077 311.708 54.4911C310.622 53.5145 308.727 54.224 308.155 55.6596C307.807 56.5235 307.754 57.546 307.944 58.5726C308.507 61.5524 311.538 63.8478 313.358 61.3396ZM324.716 68.451C323.876 65.467 320.834 64.1733 318.708 63.877C315.537 63.4388 312.09 65.3001 310.528 68.9727C309.9 70.45 309.011 73.0542 309.854 74.7194C311.02 77.0022 313.948 75.5416 315.355 74.7152C317.024 73.7178 318.352 72.8372 320.27 73.1753L320.475 73.2128C322.9 73.5592 325.915 72.6911 324.716 68.451ZM327.402 85.3907C326.146 84.8023 324.527 86.1628 324.319 87.7528C324.194 88.7169 324.379 89.731 324.803 90.6658C326.033 93.3827 329.438 94.5846 330.573 91.5005C331.549 88.8379 329.423 86.3297 327.402 85.3907ZM335.022 85.2113C336.256 82.7031 334.33 79.9486 332.359 78.7717C331.14 78.0414 329.37 79.1766 329.01 80.7291C328.795 81.6681 328.893 82.6947 329.237 83.6671C330.236 86.5092 333.581 88.1159 335.022 85.2113ZM349.808 79.2684C349.524 78.2626 349.025 77.4029 348.321 76.8103C347.16 75.842 345.102 76.1843 344.534 77.6032C343.626 79.8944 343.637 83.3958 346.04 84.4851C348.828 85.7621 350.607 82.1897 349.808 79.2684ZM338.968 83.521C341.746 84.4809 343.1 80.7082 342.056 77.887C341.696 76.9188 341.133 76.1008 340.406 75.5958C339.207 74.7611 337.273 75.3371 336.869 76.8186C336.225 79.2141 336.57 82.6989 338.968 83.521ZM345.177 88.1076C342.026 86.0251 338.219 86.6093 335.813 88.9214C334.197 90.478 332.332 93.4203 333.146 96.4168C334.3 100.674 337.239 99.5343 339.071 97.7522L339.226 97.5936C340.645 96.1371 342.192 96.0453 344.08 95.8492C345.665 95.6697 348.84 95.0729 348.643 92.4646C348.507 90.5573 346.445 88.9464 345.177 88.1076Z" fill="#F3F3F3" fill-opacity="0.3"/>
<path d="M167.364 250.445C169.865 252.302 172.082 249.209 171.73 246.196C171.605 245.157 171.25 244.206 170.652 243.479C169.676 242.286 167.64 242.161 166.899 243.421C165.696 245.449 165.204 248.838 167.364 250.445ZM160.486 247.97C163.153 249.489 165.117 246.1 164.507 243.125C164.299 242.106 163.86 241.197 163.202 240.55C162.124 239.481 160.081 239.627 159.438 240.988C158.397 243.175 158.193 246.647 160.486 247.97ZM148.749 247.519C147.561 246.693 145.681 247.678 145.208 249.197C144.92 250.119 144.939 251.146 145.215 252.152C146.036 255.069 149.317 256.934 150.985 254.155C152.423 251.776 150.664 248.863 148.749 247.519ZM156.358 249.001C157.932 246.843 156.456 243.738 154.708 242.152C153.622 241.176 151.727 241.885 151.155 243.321C150.807 244.185 150.754 245.207 150.944 246.234C151.507 249.214 154.538 251.509 156.358 249.001ZM167.716 256.112C166.876 253.128 163.834 251.834 161.708 251.538C158.537 251.1 155.09 252.961 153.528 256.634C152.9 258.111 152.011 260.715 152.854 262.381C154.02 264.663 156.948 263.203 158.355 262.376C160.024 261.379 161.352 260.498 163.27 260.836L163.475 260.874C165.9 261.22 168.915 260.352 167.716 256.112ZM170.402 273.052C169.146 272.463 167.527 273.824 167.319 275.414C167.194 276.378 167.379 277.392 167.803 278.327C169.033 281.044 172.438 282.246 173.573 279.162C174.549 276.499 172.423 273.991 170.402 273.052ZM178.022 272.872C179.256 270.364 177.33 267.61 175.359 266.433C174.14 265.703 172.37 266.838 172.01 268.39C171.795 269.329 171.893 270.356 172.237 271.328C173.236 274.17 176.581 275.777 178.022 272.872ZM192.808 266.93C192.524 265.924 192.025 265.064 191.321 264.471C190.16 263.503 188.102 263.845 187.534 265.264C186.626 267.556 186.637 271.057 189.04 272.146C191.828 273.423 193.607 269.851 192.808 266.93ZM181.968 271.182C184.746 272.142 186.1 268.369 185.056 265.548C184.696 264.58 184.133 263.762 183.406 263.257C182.207 262.422 180.273 262.998 179.869 264.48C179.225 266.875 179.57 270.36 181.968 271.182ZM188.177 275.769C185.026 273.686 181.219 274.27 178.813 276.583C177.197 278.139 175.332 281.081 176.146 284.078C177.3 288.335 180.239 287.195 182.071 285.413L182.226 285.255C183.645 283.798 185.192 283.706 187.08 283.51C188.665 283.331 191.84 282.734 191.643 280.126C191.507 278.218 189.445 276.608 188.177 275.769Z" fill="#F3F3F3" fill-opacity="0.3"/>
<path d="M334.364 257.469C336.865 259.326 339.082 256.234 338.73 253.221C338.605 252.181 338.25 251.23 337.652 250.504C336.676 249.31 334.64 249.185 333.899 250.445C332.696 252.474 332.204 255.862 334.364 257.469ZM327.486 254.994C330.153 256.513 332.117 253.125 331.507 250.149C331.299 249.131 330.86 248.221 330.202 247.574C329.124 246.506 327.081 246.652 326.438 248.012C325.397 250.199 325.193 253.671 327.486 254.994ZM315.749 254.544C314.561 253.717 312.681 254.702 312.208 256.221C311.92 257.144 311.939 258.17 312.215 259.176C313.036 262.093 316.317 263.959 317.985 261.179C319.423 258.8 317.664 255.887 315.749 254.544ZM323.358 256.025C324.932 253.867 323.456 250.763 321.708 249.177C320.622 248.2 318.727 248.91 318.155 250.345C317.807 251.209 317.754 252.232 317.944 253.258C318.507 256.238 321.538 258.533 323.358 256.025ZM334.716 263.137C333.876 260.153 330.834 258.859 328.708 258.563C325.537 258.124 322.09 259.986 320.528 263.658C319.9 265.136 319.011 267.74 319.854 269.405C321.02 271.688 323.948 270.227 325.355 269.401C327.024 268.403 328.352 267.523 330.27 267.861L330.475 267.898C332.9 268.245 335.915 267.377 334.716 263.137ZM337.402 280.076C336.146 279.488 334.527 280.848 334.319 282.438C334.194 283.402 334.379 284.417 334.803 285.351C336.033 288.068 339.438 289.27 340.573 286.186C341.549 283.523 339.423 281.015 337.402 280.076ZM345.022 279.897C346.256 277.389 344.33 274.634 342.359 273.457C341.14 272.727 339.37 273.862 339.01 275.415C338.795 276.354 338.893 277.38 339.237 278.353C340.236 281.195 343.581 282.801 345.022 279.897ZM359.808 273.954C359.524 272.948 359.025 272.088 358.321 271.496C357.16 270.528 355.102 270.87 354.534 272.289C353.626 274.58 353.637 278.081 356.04 279.171C358.828 280.448 360.607 276.875 359.808 273.954ZM348.968 278.207C351.746 279.166 353.1 275.394 352.056 272.573C351.696 271.604 351.133 270.786 350.406 270.281C349.207 269.447 347.273 270.023 346.869 271.504C346.225 273.9 346.57 277.384 348.968 278.207ZM355.177 282.793C352.026 280.711 348.219 281.295 345.813 283.607C344.197 285.164 342.332 288.106 343.146 291.102C344.3 295.359 347.239 294.22 349.071 292.438L349.226 292.279C350.645 290.823 352.192 290.731 354.08 290.535C355.665 290.355 358.84 289.758 358.643 287.15C358.507 285.243 356.445 283.632 355.177 282.793Z" fill="#F3F3F3" fill-opacity="0.3"/>
<path d="M314.364 396.96C316.865 398.817 319.082 395.725 318.73 392.712C318.605 391.673 318.25 390.721 317.652 389.995C316.676 388.801 314.64 388.676 313.899 389.937C312.696 391.965 312.204 395.354 314.364 396.96ZM307.486 394.486C310.153 396.005 312.117 392.616 311.507 389.64C311.299 388.622 310.86 387.712 310.202 387.065C309.124 385.997 307.081 386.143 306.438 387.503C305.397 389.69 305.193 393.163 307.486 394.486ZM295.749 394.035C294.561 393.208 292.681 394.193 292.208 395.712C291.92 396.635 291.939 397.661 292.215 398.667C293.036 401.584 296.317 403.45 297.985 400.67C299.423 398.292 297.664 395.379 295.749 394.035ZM303.358 395.516C304.932 393.359 303.456 390.254 301.708 388.668C300.622 387.691 298.727 388.401 298.155 389.836C297.807 390.7 297.754 391.723 297.944 392.749C298.507 395.729 301.538 398.025 303.358 395.516ZM314.716 402.628C313.876 399.644 310.834 398.35 308.708 398.054C305.537 397.616 302.09 399.477 300.528 403.149C299.9 404.627 299.011 407.231 299.854 408.896C301.02 411.179 303.948 409.718 305.355 408.892C307.024 407.895 308.352 407.014 310.27 407.352L310.475 407.39C312.9 407.736 315.915 406.868 314.716 402.628ZM317.402 419.567C316.146 418.979 314.527 420.34 314.319 421.93C314.194 422.894 314.379 423.908 314.803 424.843C316.033 427.559 319.438 428.761 320.573 425.677C321.549 423.015 319.423 420.506 317.402 419.567ZM325.022 419.388C326.256 416.88 324.33 414.125 322.359 412.949C321.14 412.218 319.37 413.353 319.01 414.906C318.795 415.845 318.893 416.871 319.237 417.844C320.236 420.686 323.581 422.293 325.022 419.388ZM339.808 413.445C339.524 412.439 339.025 411.58 338.321 410.987C337.16 410.019 335.102 410.361 334.534 411.78C333.626 414.071 333.637 417.573 336.04 418.662C338.828 419.939 340.607 416.366 339.808 413.445ZM328.968 417.698C331.746 418.658 333.1 414.885 332.056 412.064C331.696 411.096 331.133 410.278 330.406 409.773C329.207 408.938 327.273 409.514 326.869 410.995C326.225 413.391 326.57 416.876 328.968 417.698ZM335.177 422.284C332.026 420.202 328.219 420.786 325.813 423.098C324.197 424.655 322.332 427.597 323.146 430.594C324.3 434.85 327.239 433.711 329.071 431.929L329.226 431.77C330.645 430.314 332.192 430.222 334.08 430.026C335.665 429.846 338.84 429.25 338.643 426.641C338.507 424.734 336.445 423.123 335.177 422.284Z" fill="#F3F3F3" fill-opacity="0.3"/>
<path d="M26.364 210.303C28.8649 212.16 31.0821 209.068 30.7302 206.055C30.6054 205.015 30.2497 204.064 29.6519 203.338C28.6758 202.144 26.6402 202.019 25.8987 203.279C24.6955 205.308 24.2036 208.696 26.364 210.303ZM19.4856 207.828C22.153 209.347 24.1166 205.959 23.5075 202.983C23.2994 201.965 22.8605 201.055 22.2022 200.408C21.1239 199.34 19.0808 199.486 18.4376 200.846C17.3971 203.033 17.1928 206.505 19.4856 207.828ZM7.74911 207.378C6.56109 206.551 4.68068 207.536 4.20774 209.055C3.92019 209.978 3.93911 211.004 4.2153 212.01C5.03633 214.927 8.31664 216.793 9.98517 214.013C11.4229 211.634 9.66357 208.721 7.74911 207.378ZM15.3578 208.859C16.9317 206.701 15.4561 203.596 13.7082 202.011C12.6223 201.034 10.7267 201.744 10.1554 203.179C9.80735 204.043 9.75438 205.066 9.94355 206.092C10.5073 209.072 13.5379 211.367 15.3578 208.859ZM26.7159 215.971C25.876 212.987 22.834 211.693 20.7077 211.397C17.5371 210.958 14.0903 212.82 12.5277 216.492C11.8996 217.97 11.0105 220.574 11.8542 222.239C13.0196 224.522 15.948 223.061 17.3555 222.235C19.024 221.237 20.352 220.357 22.2703 220.695L22.4746 220.732C24.8998 221.079 27.9153 220.211 26.7159 215.971ZM29.4022 232.91C28.1461 232.322 26.5267 233.682 26.3186 235.272C26.1938 236.236 26.3792 237.251 26.8029 238.185C28.0326 240.902 31.4377 242.104 32.5728 239.02C33.5489 236.357 31.4226 233.849 29.4022 232.91ZM37.0222 232.731C38.2556 230.223 36.3298 227.468 34.3586 226.291C33.1403 225.561 31.3696 226.696 31.0102 228.249C30.7945 229.188 30.8929 230.214 31.2372 231.187C32.2361 234.029 35.5807 235.635 37.0222 232.731ZM51.8082 226.788C51.5244 225.782 51.025 224.922 50.3213 224.33C49.1597 223.362 47.1015 223.704 46.534 225.123C45.6259 227.414 45.6373 230.915 48.0398 232.005C50.8283 233.282 52.6065 229.709 51.8082 226.788ZM40.9684 231.041C43.7455 232 45.1 228.228 44.0558 225.407C43.6963 224.438 43.1326 223.62 42.4062 223.115C41.2068 222.281 39.2734 222.857 38.8686 224.338C38.2254 226.734 38.5697 230.218 40.9684 231.041ZM47.1772 235.627C44.0255 233.545 40.2193 234.129 37.813 236.441C36.1974 237.998 34.3321 240.94 35.1456 243.936C36.2996 248.193 39.2394 247.054 41.0706 245.272L41.2257 245.113C42.6445 243.657 44.192 243.565 46.08 243.369C47.6653 243.189 50.8396 242.592 50.6429 239.984C50.5067 238.077 48.4447 236.466 47.1772 235.627Z" fill="#F3F3F3" fill-opacity="0.3"/>
<path d="M26.364 389.936C28.8649 391.793 31.0821 388.701 30.7302 385.687C30.6054 384.648 30.2497 383.697 29.6519 382.971C28.6758 381.777 26.6402 381.652 25.8987 382.912C24.6955 384.94 24.2036 388.329 26.364 389.936ZM19.4856 387.461C22.153 388.98 24.1166 385.591 23.5075 382.616C23.2994 381.598 22.8605 380.688 22.2022 380.041C21.1239 378.972 19.0808 379.119 18.4376 380.479C17.3971 382.666 17.1928 386.138 19.4856 387.461ZM7.74911 387.01C6.56109 386.184 4.68068 387.169 4.20774 388.688C3.92019 389.61 3.93911 390.637 4.2153 391.643C5.03633 394.56 8.31664 396.425 9.98517 393.646C11.4229 391.267 9.66357 388.354 7.74911 387.01ZM15.3578 388.492C16.9317 386.334 15.4561 383.229 13.7082 381.643C12.6223 380.667 10.7267 381.376 10.1554 382.812C9.80735 383.676 9.75438 384.698 9.94355 385.725C10.5073 388.705 13.5379 391 15.3578 388.492ZM26.7159 395.603C25.876 392.619 22.834 391.326 20.7077 391.029C17.5371 390.591 14.0903 392.452 12.5277 396.125C11.8996 397.602 11.0105 400.207 11.8542 401.872C13.0196 404.155 15.948 402.694 17.3555 401.868C19.024 400.87 20.352 399.99 22.2703 400.328L22.4746 400.365C24.8998 400.712 27.9153 399.843 26.7159 395.603ZM29.4022 412.543C28.1461 411.955 26.5267 413.315 26.3186 414.905C26.1938 415.869 26.3792 416.883 26.8029 417.818C28.0326 420.535 31.4377 421.737 32.5728 418.653C33.5489 415.99 31.4226 413.482 29.4022 412.543ZM37.0222 412.364C38.2556 409.855 36.3298 407.101 34.3586 405.924C33.1403 405.194 31.3696 406.329 31.0102 407.881C30.7945 408.82 30.8929 409.847 31.2372 410.819C32.2361 413.662 35.5807 415.268 37.0222 412.364ZM51.8082 406.421C51.5244 405.415 51.025 404.555 50.3213 403.963C49.1597 402.994 47.1015 403.337 46.534 404.756C45.6259 407.047 45.6373 410.548 48.0398 411.637C50.8283 412.914 52.6065 409.342 51.8082 406.421ZM40.9684 410.673C43.7455 411.633 45.1 407.861 44.0558 405.039C43.6963 404.071 43.1326 403.253 42.4062 402.748C41.2068 401.913 39.2734 402.489 38.8686 403.971C38.2254 406.366 38.5697 409.851 40.9684 410.673ZM47.1772 415.26C44.0255 413.177 40.2193 413.762 37.813 416.074C36.1974 417.63 34.3321 420.573 35.1456 423.569C36.2996 427.826 39.2394 426.687 41.0706 424.905L41.2257 424.746C42.6445 423.289 44.192 423.198 46.08 423.002C47.6653 422.822 50.8396 422.225 50.6429 419.617C50.5067 417.71 48.4447 416.099 47.1772 415.26Z" fill="#F3F3F3" fill-opacity="0.3"/>
<path d="M181.364 429.074C183.865 430.931 186.082 427.838 185.73 424.825C185.605 423.786 185.25 422.834 184.652 422.108C183.676 420.915 181.64 420.789 180.899 422.05C179.696 424.078 179.204 427.467 181.364 429.074ZM174.486 426.599C177.153 428.118 179.117 424.729 178.507 421.754C178.299 420.735 177.86 419.825 177.202 419.179C176.124 418.11 174.081 418.256 173.438 419.617C172.397 421.804 172.193 425.276 174.486 426.599ZM162.749 426.148C161.561 425.322 159.681 426.307 159.208 427.826C158.92 428.748 158.939 429.775 159.215 430.781C160.036 433.698 163.317 435.563 164.985 432.784C166.423 430.405 164.664 427.492 162.749 426.148ZM170.358 427.63C171.932 425.472 170.456 422.367 168.708 420.781C167.622 419.805 165.727 420.514 165.155 421.95C164.807 422.814 164.754 423.836 164.944 424.863C165.507 427.842 168.538 430.138 170.358 427.63ZM181.716 434.741C180.876 431.757 177.834 430.463 175.708 430.167C172.537 429.729 169.09 431.59 167.528 435.263C166.9 436.74 166.011 439.344 166.854 441.009C168.02 443.292 170.948 441.832 172.355 441.005C174.024 440.008 175.352 439.127 177.27 439.465L177.475 439.503C179.9 439.849 182.915 438.981 181.716 434.741ZM184.402 451.681C183.146 451.092 181.527 452.453 181.319 454.043C181.194 455.007 181.379 456.021 181.803 456.956C183.033 459.673 186.438 460.875 187.573 457.791C188.549 455.128 186.423 452.62 184.402 451.681ZM192.022 451.501C193.256 448.993 191.33 446.239 189.359 445.062C188.14 444.331 186.37 445.467 186.01 447.019C185.795 447.958 185.893 448.985 186.237 449.957C187.236 452.799 190.581 454.406 192.022 451.501ZM206.808 445.558C206.524 444.553 206.025 443.693 205.321 443.1C204.16 442.132 202.102 442.474 201.534 443.893C200.626 446.184 200.637 449.686 203.04 450.775C205.828 452.052 207.607 448.48 206.808 445.558ZM195.968 449.811C198.746 450.771 200.1 446.998 199.056 444.177C198.696 443.209 198.133 442.391 197.406 441.886C196.207 441.051 194.273 441.627 193.869 443.109C193.225 445.504 193.57 448.989 195.968 449.811ZM202.177 454.398C199.026 452.315 195.219 452.899 192.813 455.211C191.197 456.768 189.332 459.71 190.146 462.707C191.3 466.964 194.239 465.824 196.071 464.042L196.226 463.884C197.645 462.427 199.192 462.335 201.08 462.139C202.665 461.96 205.84 461.363 205.643 458.755C205.507 456.847 203.445 455.236 202.177 454.398Z" fill="#F3F3F3" fill-opacity="0.3"/>
<path d="M77.364 523.406C79.8649 525.263 82.0821 522.17 81.7302 519.157C81.6054 518.118 81.2497 517.166 80.6519 516.44C79.6758 515.247 77.6402 515.121 76.8987 516.382C75.6955 518.41 75.2036 521.799 77.364 523.406ZM70.4856 520.931C73.153 522.45 75.1166 519.061 74.5075 516.086C74.2994 515.067 73.8605 514.157 73.2022 513.511C72.1239 512.442 70.0808 512.588 69.4376 513.949C68.3971 516.136 68.1928 519.608 70.4856 520.931ZM58.7491 520.48C57.5611 519.654 55.6807 520.639 55.2077 522.158C54.9202 523.08 54.9391 524.107 55.2153 525.113C56.0363 528.03 59.3166 529.895 60.9852 527.116C62.4229 524.737 60.6636 521.824 58.7491 520.48ZM66.3578 521.962C67.9317 519.804 66.4561 516.699 64.7082 515.113C63.6223 514.137 61.7267 514.846 61.1554 516.282C60.8073 517.146 60.7544 518.168 60.9436 519.195C61.5073 522.174 64.5379 524.47 66.3578 521.962ZM77.7159 529.073C76.876 526.089 73.834 524.795 71.7077 524.499C68.5371 524.061 65.0903 525.922 63.5277 529.595C62.8996 531.072 62.0105 533.676 62.8542 535.341C64.0196 537.624 66.948 536.164 68.3555 535.337C70.024 534.34 71.352 533.459 73.2703 533.797L73.4746 533.835C75.8998 534.181 78.9153 533.313 77.7159 529.073ZM80.4022 546.013C79.1461 545.424 77.5267 546.785 77.3186 548.375C77.1938 549.339 77.3792 550.353 77.8029 551.288C79.0326 554.005 82.4377 555.207 83.5728 552.123C84.5489 549.46 82.4226 546.952 80.4022 546.013ZM88.0222 545.833C89.2556 543.325 87.3298 540.571 85.3586 539.394C84.1403 538.663 82.3696 539.799 82.0102 541.351C81.7945 542.29 81.8929 543.317 82.2372 544.289C83.2361 547.131 86.5807 548.738 88.0222 545.833ZM102.808 539.89C102.524 538.885 102.025 538.025 101.321 537.432C100.16 536.464 98.1015 536.806 97.534 538.225C96.6259 540.516 96.6373 544.018 99.0398 545.107C101.828 546.384 103.607 542.812 102.808 539.89ZM91.9684 544.143C94.7455 545.103 96.1 541.33 95.0558 538.509C94.6963 537.541 94.1326 536.723 93.4062 536.218C92.2068 535.383 90.2734 535.959 89.8686 537.441C89.2254 539.836 89.5697 543.321 91.9684 544.143ZM98.1772 548.73C95.0255 546.647 91.2193 547.231 88.813 549.543C87.1974 551.1 85.3321 554.042 86.1456 557.039C87.2996 561.296 90.2394 560.156 92.0706 558.374L92.2257 558.216C93.6445 556.759 95.192 556.667 97.08 556.471C98.6653 556.292 101.84 555.695 101.643 553.087C101.507 551.179 99.4447 549.568 98.1772 548.73Z" fill="#F3F3F3" fill-opacity="0.3"/>
<path d="M314.364 517.384C316.865 519.241 319.082 516.149 318.73 513.136C318.605 512.096 318.25 511.145 317.652 510.419C316.676 509.225 314.64 509.1 313.899 510.36C312.696 512.389 312.204 515.777 314.364 517.384ZM307.486 514.909C310.153 516.428 312.117 513.04 311.507 510.064C311.299 509.046 310.86 508.136 310.202 507.489C309.124 506.421 307.081 506.567 306.438 507.927C305.397 510.114 305.193 513.586 307.486 514.909ZM295.749 514.459C294.561 513.632 292.681 514.617 292.208 516.136C291.92 517.059 291.939 518.085 292.215 519.091C293.036 522.008 296.317 523.874 297.985 521.094C299.423 518.715 297.664 515.802 295.749 514.459ZM303.358 515.94C304.932 513.783 303.456 510.678 301.708 509.092C300.622 508.115 298.727 508.825 298.155 510.26C297.807 511.124 297.754 512.147 297.944 513.173C298.507 516.153 301.538 518.448 303.358 515.94ZM314.716 523.052C313.876 520.068 310.834 518.774 308.708 518.478C305.537 518.039 302.09 519.901 300.528 523.573C299.9 525.051 299.011 527.655 299.854 529.32C301.02 531.603 303.948 530.142 305.355 529.316C307.024 528.318 308.352 527.438 310.27 527.776L310.475 527.813C312.9 528.16 315.915 527.292 314.716 523.052ZM317.402 539.991C316.146 539.403 314.527 540.763 314.319 542.353C314.194 543.317 314.379 544.332 314.803 545.266C316.033 547.983 319.438 549.185 320.573 546.101C321.549 543.438 319.423 540.93 317.402 539.991ZM325.022 539.812C326.256 537.304 324.33 534.549 322.359 533.372C321.14 532.642 319.37 533.777 319.01 535.33C318.795 536.269 318.893 537.295 319.237 538.268C320.236 541.11 323.581 542.717 325.022 539.812ZM339.808 533.869C339.524 532.863 339.025 532.003 338.321 531.411C337.16 530.443 335.102 530.785 334.534 532.204C333.626 534.495 333.637 537.996 336.04 539.086C338.828 540.363 340.607 536.79 339.808 533.869ZM328.968 538.122C331.746 539.082 333.1 535.309 332.056 532.488C331.696 531.519 331.133 530.701 330.406 530.196C329.207 529.362 327.273 529.938 326.869 531.419C326.225 533.815 326.57 537.299 328.968 538.122ZM335.177 542.708C332.026 540.626 328.219 541.21 325.813 543.522C324.197 545.079 322.332 548.021 323.146 551.017C324.3 555.274 327.239 554.135 329.071 552.353L329.226 552.194C330.645 550.738 332.192 550.646 334.08 550.45C335.665 550.27 338.84 549.674 338.643 547.065C338.507 545.158 336.445 543.547 335.177 542.708Z" fill="#F3F3F3" fill-opacity="0.3"/>
<path d="M253.362 154.006C256.481 156.345 259.246 152.45 258.807 148.654C258.651 147.345 258.208 146.147 257.462 145.232C256.245 143.729 253.706 143.571 252.782 145.158C251.281 147.713 250.668 151.982 253.362 154.006ZM244.784 150.888C248.11 152.802 250.559 148.533 249.8 144.785C249.54 143.503 248.993 142.357 248.172 141.542C246.827 140.196 244.279 140.38 243.477 142.094C242.18 144.848 241.925 149.222 244.784 150.888ZM230.148 150.321C228.666 149.28 226.321 150.52 225.731 152.434C225.373 153.596 225.396 154.889 225.741 156.156C226.765 159.83 230.856 162.18 232.936 158.679C234.729 155.683 232.535 152.013 230.148 150.321ZM239.636 152.187C241.599 149.469 239.759 145.558 237.579 143.56C236.225 142.33 233.861 143.224 233.149 145.032C232.715 146.12 232.649 147.408 232.884 148.702C233.587 152.455 237.367 155.346 239.636 152.187ZM253.801 161.144C252.753 157.386 248.96 155.756 246.308 155.383C242.354 154.831 238.056 157.176 236.107 161.802C235.324 163.663 234.215 166.943 235.267 169.04C236.72 171.916 240.372 170.076 242.128 169.035C244.208 167.779 245.865 166.669 248.257 167.095L248.511 167.143C251.536 167.579 255.296 166.485 253.801 161.144ZM257.151 182.482C255.584 181.741 253.565 183.455 253.305 185.457C253.15 186.672 253.381 187.949 253.909 189.127C255.443 192.549 259.689 194.063 261.105 190.178C262.322 186.824 259.67 183.665 257.151 182.482ZM266.653 182.256C268.192 179.097 265.79 175.627 263.332 174.145C261.812 173.225 259.604 174.655 259.156 176.61C258.887 177.793 259.01 179.086 259.439 180.311C260.685 183.891 264.856 185.915 266.653 182.256ZM285.093 174.77C284.739 173.503 284.116 172.42 283.238 171.674C281.79 170.454 279.223 170.885 278.515 172.673C277.383 175.559 277.397 179.969 280.393 181.341C283.871 182.95 286.088 178.45 285.093 174.77ZM271.575 180.127C275.038 181.336 276.727 176.584 275.425 173.03C274.976 171.811 274.273 170.78 273.368 170.144C271.872 169.093 269.461 169.818 268.956 171.684C268.154 174.702 268.583 179.091 271.575 180.127ZM279.317 185.904C275.387 183.281 270.64 184.017 267.64 186.929C265.625 188.89 263.299 192.596 264.313 196.371C265.752 201.733 269.418 200.297 271.702 198.053L271.895 197.853C273.665 196.018 275.595 195.903 277.949 195.656C279.926 195.43 283.885 194.678 283.639 191.392C283.469 188.99 280.898 186.961 279.317 185.904Z" fill="#F3F3F3" fill-opacity="0.3"/>
<path d="M114.455 364.84C117.574 367.179 120.339 363.284 119.9 359.489C119.744 358.18 119.301 356.981 118.555 356.067C117.338 354.563 114.799 354.405 113.874 355.993C112.374 358.548 111.761 362.816 114.455 364.84ZM105.877 361.723C109.203 363.636 111.652 359.368 110.892 355.62C110.633 354.337 110.086 353.191 109.265 352.376C107.92 351.03 105.372 351.214 104.57 352.928C103.272 355.683 103.018 360.056 105.877 361.723ZM91.2407 361.155C89.7592 360.114 87.4142 361.355 86.8244 363.268C86.4658 364.43 86.4894 365.723 86.8338 366.99C87.8577 370.665 91.9485 373.015 94.0292 369.513C95.8222 366.517 93.6282 362.848 91.2407 361.155ZM100.729 363.021C102.692 360.304 100.852 356.392 98.6721 354.395C97.3179 353.165 94.954 354.058 94.2416 355.867C93.8075 356.955 93.7414 358.243 93.9773 359.536C94.6804 363.289 98.4597 366.181 100.729 363.021ZM114.894 371.979C113.846 368.22 110.053 366.591 107.401 366.217C103.447 365.665 99.1486 368.01 97.1999 372.636C96.4167 374.497 95.3079 377.777 96.3601 379.875C97.8133 382.75 101.465 380.91 103.221 379.869C105.301 378.613 106.957 377.504 109.35 377.93L109.604 377.977C112.629 378.413 116.389 377.32 114.894 371.979ZM118.244 393.316C116.677 392.575 114.658 394.289 114.398 396.292C114.242 397.506 114.474 398.784 115.002 399.961C116.536 403.383 120.782 404.897 122.198 401.012C123.415 397.659 120.763 394.499 118.244 393.316ZM127.746 393.09C129.284 389.931 126.883 386.462 124.425 384.979C122.905 384.059 120.697 385.489 120.249 387.445C119.98 388.627 120.103 389.921 120.532 391.145C121.778 394.725 125.949 396.749 127.746 393.09ZM146.185 385.605C145.832 384.338 145.209 383.255 144.331 382.508C142.883 381.289 140.316 381.72 139.608 383.507C138.476 386.393 138.49 390.804 141.486 392.176C144.963 393.784 147.181 389.284 146.185 385.605ZM132.667 390.961C136.131 392.17 137.82 387.418 136.518 383.865C136.069 382.645 135.366 381.615 134.46 380.979C132.965 379.927 130.554 380.653 130.049 382.519C129.247 385.536 129.676 389.926 132.667 390.961ZM140.41 396.739C136.48 394.116 131.733 394.851 128.732 397.764C126.718 399.725 124.392 403.431 125.406 407.205C126.845 412.567 130.511 411.132 132.795 408.887L132.988 408.687C134.758 406.853 136.687 406.737 139.042 406.49C141.019 406.264 144.978 405.512 144.732 402.227C144.562 399.824 141.991 397.795 140.41 396.739Z" fill="#F3F3F3" fill-opacity="0.3"/>
</svg>
