<svg width="1500" height="667" viewBox="0 0 1500 667" fill="none" xmlns="http://www.w3.org/2000/svg">
<path d="M0 0H1500V667H0V0Z" fill="#D37E17"/>
<path d="M75.2277 68.2369C77.937 70.2056 80.3389 66.9273 79.9577 63.7331C79.8225 62.6315 79.4372 61.6228 78.7896 60.853C77.7321 59.5877 75.5269 59.455 74.7235 60.7911C73.4201 62.9412 72.8873 66.5336 75.2277 68.2369ZM67.7761 65.6134C70.6657 67.2237 72.793 63.6313 72.1331 60.477C71.9077 59.3975 71.4322 58.433 70.719 57.7473C69.5508 56.6147 67.3375 56.7695 66.6407 58.2118C65.5135 60.53 65.2922 64.2109 67.7761 65.6134ZM55.0615 65.1356C53.7745 64.2596 51.7374 65.3037 51.225 66.914C50.9135 67.8918 50.934 68.9801 51.2332 70.0463C52.1227 73.1388 55.6764 75.1164 57.4839 72.1699C59.0415 69.6482 57.1355 66.5601 55.0615 65.1356ZM63.3043 66.7061C65.0094 64.4188 63.4108 61.1273 61.5172 59.4461C60.3408 58.4109 58.2873 59.163 57.6684 60.6849C57.2913 61.6007 57.2339 62.6846 57.4389 63.7729C58.0496 66.9317 61.3327 69.365 63.3043 66.7061ZM75.6089 74.2448C74.699 71.0816 71.4035 69.7101 69.1 69.396C65.6652 68.9314 61.9312 70.9046 60.2383 74.7978C59.5579 76.364 58.5947 79.1246 59.5088 80.8899C60.7712 83.3098 63.9437 81.7614 65.4684 80.8854C67.276 79.8281 68.7147 78.8946 70.7928 79.2529L71.0141 79.2927C73.6415 79.6599 76.9082 78.7397 75.6089 74.2448ZM78.5191 92.2023C77.1582 91.5785 75.404 93.0208 75.1785 94.7064C75.0433 95.7284 75.2441 96.8034 75.7032 97.7944C77.0353 100.675 80.7242 101.949 81.9539 98.6792C83.0113 95.8567 80.7078 93.1978 78.5191 92.2023ZM86.7741 92.0121C88.1103 89.3532 86.024 86.4333 83.8885 85.1857C82.5687 84.4115 80.6504 85.6148 80.261 87.2606C80.0274 88.256 80.134 89.3443 80.507 90.3752C81.5891 93.388 85.2124 95.0913 86.7741 92.0121ZM102.792 85.7121C102.485 84.6459 101.944 83.7346 101.181 83.1063C99.9231 82.0799 97.6933 82.4427 97.0785 83.9469C96.0948 86.3758 96.1071 90.0876 98.7098 91.2423C101.731 92.5961 103.657 88.809 102.792 85.7121ZM91.0491 90.2203C94.0577 91.2379 95.525 87.2385 94.3938 84.2478C94.0044 83.2214 93.3936 82.3542 92.6067 81.8189C91.3074 80.9341 89.2129 81.5446 88.7743 83.1152C88.0775 85.6546 88.4505 89.3488 91.0491 90.2203ZM97.7753 95.0824C94.361 92.8748 90.2376 93.4942 87.6307 95.9451C85.8805 97.5953 83.8598 100.714 84.7411 103.891C85.9912 108.403 89.176 107.196 91.1598 105.307L91.3278 105.138C92.8649 103.594 94.5413 103.497 96.5866 103.289C98.304 103.099 101.743 102.466 101.53 99.7012C101.382 97.6794 99.1484 95.9717 97.7753 95.0824Z" fill="#F3F3F3" fill-opacity="0.3"/>
<path d="M857.772 68.2369C855.063 70.2056 852.661 66.9273 853.042 63.7331C853.178 62.6315 853.563 61.6228 854.21 60.853C855.268 59.5877 857.473 59.455 858.276 60.7911C859.58 62.9412 860.113 66.5336 857.772 68.2369ZM865.224 65.6134C862.334 67.2237 860.207 63.6313 860.867 60.477C861.092 59.3975 861.568 58.433 862.281 57.7473C863.449 56.6147 865.663 56.7695 866.359 58.2118C867.486 60.53 867.708 64.2109 865.224 65.6134ZM877.938 65.1356C879.225 64.2596 881.263 65.3037 881.775 66.914C882.086 67.8918 882.066 68.9801 881.767 70.0463C880.877 73.1388 877.324 75.1164 875.516 72.1699C873.959 69.6482 875.864 66.5601 877.938 65.1356ZM869.696 66.7061C867.991 64.4188 869.589 61.1273 871.483 59.4461C872.659 58.4109 874.713 59.163 875.332 60.6849C875.709 61.6007 875.766 62.6846 875.561 63.7729C874.95 66.9317 871.667 69.365 869.696 66.7061ZM857.391 74.2448C858.301 71.0816 861.596 69.7101 863.9 69.396C867.335 68.9314 871.069 70.9046 872.762 74.7978C873.442 76.364 874.405 79.1246 873.491 80.8899C872.229 83.3098 869.056 81.7614 867.532 80.8854C865.724 79.8281 864.285 78.8946 862.207 79.2529L861.986 79.2927C859.359 79.6599 856.092 78.7397 857.391 74.2448ZM854.481 92.2023C855.842 91.5785 857.596 93.0208 857.821 94.7064C857.957 95.7284 857.756 96.8034 857.297 97.7944C855.965 100.675 852.276 101.949 851.046 98.6792C849.989 95.8567 852.292 93.1978 854.481 92.2023ZM846.226 92.0121C844.89 89.3532 846.976 86.4333 849.112 85.1857C850.431 84.4115 852.35 85.6148 852.739 87.2606C852.973 88.256 852.866 89.3443 852.493 90.3752C851.411 93.388 847.788 95.0913 846.226 92.0121ZM830.208 85.7121C830.515 84.6459 831.056 83.7346 831.819 83.1063C833.077 82.0799 835.307 82.4427 835.922 83.9469C836.905 86.3758 836.893 90.0876 834.29 91.2423C831.269 92.5961 829.343 88.809 830.208 85.7121ZM841.951 90.2203C838.942 91.2379 837.475 87.2385 838.606 84.2478C838.996 83.2214 839.606 82.3542 840.393 81.8189C841.693 80.9341 843.787 81.5446 844.226 83.1152C844.923 85.6546 844.55 89.3488 841.951 90.2203ZM835.225 95.0824C838.639 92.8748 842.762 93.4942 845.369 95.9451C847.119 97.5953 849.14 100.714 848.259 103.891C847.009 108.403 843.824 107.196 841.84 105.307L841.672 105.138C840.135 103.594 838.459 103.497 836.413 103.289C834.696 103.099 831.257 102.466 831.47 99.7012C831.618 97.6794 833.852 95.9717 835.225 95.0824Z" fill="#F3F3F3" fill-opacity="0.3"/>
<path d="M1060.23 68.2369C1062.94 70.2056 1065.34 66.9273 1064.96 63.7331C1064.82 62.6315 1064.44 61.6228 1063.79 60.853C1062.73 59.5877 1060.53 59.455 1059.72 60.7911C1058.42 62.9412 1057.89 66.5336 1060.23 68.2369ZM1052.78 65.6134C1055.67 67.2237 1057.79 63.6313 1057.13 60.477C1056.91 59.3975 1056.43 58.433 1055.72 57.7473C1054.55 56.6147 1052.34 56.7695 1051.64 58.2118C1050.51 60.53 1050.29 64.2109 1052.78 65.6134ZM1040.06 65.1356C1038.77 64.2596 1036.74 65.3037 1036.23 66.914C1035.91 67.8918 1035.93 68.9801 1036.23 70.0463C1037.12 73.1388 1040.68 75.1164 1042.48 72.1699C1044.04 69.6482 1042.14 66.5601 1040.06 65.1356ZM1048.3 66.7061C1050.01 64.4188 1048.41 61.1273 1046.52 59.4461C1045.34 58.4109 1043.29 59.163 1042.67 60.6849C1042.29 61.6007 1042.23 62.6846 1042.44 63.7729C1043.05 66.9317 1046.33 69.365 1048.3 66.7061ZM1060.61 74.2448C1059.7 71.0816 1056.4 69.7101 1054.1 69.396C1050.67 68.9314 1046.93 70.9046 1045.24 74.7978C1044.56 76.364 1043.59 79.1246 1044.51 80.8899C1045.77 83.3098 1048.94 81.7614 1050.47 80.8854C1052.28 79.8281 1053.71 78.8946 1055.79 79.2529L1056.01 79.2927C1058.64 79.6599 1061.91 78.7397 1060.61 74.2448ZM1063.52 92.2023C1062.16 91.5785 1060.4 93.0208 1060.18 94.7064C1060.04 95.7284 1060.24 96.8034 1060.7 97.7944C1062.04 100.675 1065.72 101.949 1066.95 98.6792C1068.01 95.8567 1065.71 93.1978 1063.52 92.2023ZM1071.77 92.0121C1073.11 89.3532 1071.02 86.4333 1068.89 85.1857C1067.57 84.4115 1065.65 85.6148 1065.26 87.2606C1065.03 88.256 1065.13 89.3443 1065.51 90.3752C1066.59 93.388 1070.21 95.0913 1071.77 92.0121ZM1087.79 85.7121C1087.48 84.6459 1086.94 83.7346 1086.18 83.1063C1084.92 82.0799 1082.69 82.4427 1082.08 83.9469C1081.09 86.3758 1081.11 90.0876 1083.71 91.2423C1086.73 92.5961 1088.66 88.809 1087.79 85.7121ZM1076.05 90.2203C1079.06 91.2379 1080.53 87.2385 1079.39 84.2478C1079 83.2214 1078.39 82.3542 1077.61 81.8189C1076.31 80.9341 1074.21 81.5446 1073.77 83.1152C1073.08 85.6546 1073.45 89.3488 1076.05 90.2203ZM1082.78 95.0824C1079.36 92.8748 1075.24 93.4942 1072.63 95.9451C1070.88 97.5953 1068.86 100.714 1069.74 103.891C1070.99 108.403 1074.18 107.196 1076.16 105.307L1076.33 105.138C1077.86 103.594 1079.54 103.497 1081.59 103.289C1083.3 103.099 1086.74 102.466 1086.53 99.7012C1086.38 97.6794 1084.15 95.9717 1082.78 95.0824Z" fill="#F3F3F3" fill-opacity="0.3"/>
<path d="M384.228 24.2369C386.937 26.2056 389.339 22.9273 388.958 19.7331C388.822 18.6315 388.437 17.6228 387.79 16.853C386.732 15.5877 384.527 15.455 383.724 16.7911C382.42 18.9412 381.887 22.5336 384.228 24.2369ZM376.776 21.6134C379.666 23.2237 381.793 19.6313 381.133 16.477C380.908 15.3975 380.432 14.433 379.719 13.7473C378.551 12.6147 376.337 12.7695 375.641 14.2118C374.514 16.53 374.292 20.2109 376.776 21.6134ZM364.062 21.1356C362.775 20.2596 360.737 21.3037 360.225 22.914C359.914 23.8918 359.934 24.9801 360.233 26.0463C361.123 29.1388 364.676 31.1164 366.484 28.1699C368.041 25.6482 366.136 22.5601 364.062 21.1356ZM372.304 22.7061C374.009 20.4188 372.411 17.1273 370.517 15.4461C369.341 14.4109 367.287 15.163 366.668 16.6849C366.291 17.6007 366.234 18.6846 366.439 19.7729C367.05 22.9317 370.333 25.365 372.304 22.7061ZM384.609 30.2448C383.699 27.0816 380.404 25.7101 378.1 25.396C374.665 24.9314 370.931 26.9046 369.238 30.7978C368.558 32.364 367.595 35.1246 368.509 36.8899C369.771 39.3098 372.944 37.7614 374.468 36.8854C376.276 35.8281 377.715 34.8946 379.793 35.2529L380.014 35.2927C382.641 35.6599 385.908 34.7397 384.609 30.2448ZM387.519 48.2023C386.158 47.5785 384.404 49.0208 384.179 50.7064C384.043 51.7284 384.244 52.8034 384.703 53.7944C386.035 56.6745 389.724 57.9487 390.954 54.6792C392.011 51.8567 389.708 49.1978 387.519 48.2023ZM395.774 48.0121C397.11 45.3532 395.024 42.4333 392.888 41.1857C391.569 40.4115 389.65 41.6148 389.261 43.2606C389.027 44.256 389.134 45.3443 389.507 46.3752C390.589 49.388 394.212 51.0913 395.774 48.0121ZM411.792 41.7121C411.485 40.6459 410.944 39.7346 410.181 39.1063C408.923 38.0799 406.693 38.4427 406.078 39.9469C405.095 42.3758 405.107 46.0876 407.71 47.2423C410.731 48.5961 412.657 44.809 411.792 41.7121ZM400.049 46.2203C403.058 47.2379 404.525 43.2385 403.394 40.2478C403.004 39.2214 402.394 38.3542 401.607 37.8189C400.307 36.9341 398.213 37.5446 397.774 39.1152C397.077 41.6546 397.45 45.3488 400.049 46.2203ZM406.775 51.0824C403.361 48.8748 399.238 49.4942 396.631 51.9451C394.881 53.5953 392.86 56.7143 393.741 59.8909C394.991 64.4035 398.176 63.1957 400.16 61.3066L400.328 61.1385C401.865 59.5944 403.541 59.4971 405.587 59.2892C407.304 59.0989 410.743 58.4663 410.53 55.7012C410.382 53.6794 408.148 51.9717 406.775 51.0824Z" fill="#F3F3F3" fill-opacity="0.3"/>
<path d="M507.772 100.237C505.063 102.206 502.661 98.9273 503.042 95.7331C503.178 94.6315 503.563 93.6228 504.21 92.853C505.268 91.5877 507.473 91.455 508.276 92.7911C509.58 94.9412 510.113 98.5336 507.772 100.237ZM515.224 97.6134C512.334 99.2237 510.207 95.6313 510.867 92.477C511.092 91.3975 511.568 90.433 512.281 89.7473C513.449 88.6147 515.663 88.7695 516.359 90.2118C517.486 92.53 517.708 96.2109 515.224 97.6134ZM527.938 97.1356C529.225 96.2596 531.263 97.3037 531.775 98.914C532.086 99.8918 532.066 100.98 531.767 102.046C530.877 105.139 527.324 107.116 525.516 104.17C523.959 101.648 525.864 98.5601 527.938 97.1356ZM519.696 98.7061C517.991 96.4188 519.589 93.1273 521.483 91.4461C522.659 90.4109 524.713 91.163 525.332 92.6849C525.709 93.6007 525.766 94.6846 525.561 95.7729C524.95 98.9317 521.667 101.365 519.696 98.7061ZM507.391 106.245C508.301 103.082 511.596 101.71 513.9 101.396C517.335 100.931 521.069 102.905 522.762 106.798C523.442 108.364 524.405 111.125 523.491 112.89C522.229 115.31 519.056 113.761 517.532 112.885C515.724 111.828 514.285 110.895 512.207 111.253L511.986 111.293C509.359 111.66 506.092 110.74 507.391 106.245ZM504.481 124.202C505.842 123.579 507.596 125.021 507.821 126.706C507.957 127.728 507.756 128.803 507.297 129.794C505.965 132.675 502.276 133.949 501.046 130.679C499.989 127.857 502.292 125.198 504.481 124.202ZM496.226 124.012C494.89 121.353 496.976 118.433 499.112 117.186C500.431 116.411 502.35 117.615 502.739 119.261C502.973 120.256 502.866 121.344 502.493 122.375C501.411 125.388 497.788 127.091 496.226 124.012ZM480.208 117.712C480.515 116.646 481.056 115.735 481.819 115.106C483.077 114.08 485.307 114.443 485.922 115.947C486.905 118.376 486.893 122.088 484.29 123.242C481.269 124.596 479.343 120.809 480.208 117.712ZM491.951 122.22C488.942 123.238 487.475 119.238 488.606 116.248C488.996 115.221 489.606 114.354 490.393 113.819C491.693 112.934 493.787 113.545 494.226 115.115C494.923 117.655 494.55 121.349 491.951 122.22ZM485.225 127.082C488.639 124.875 492.762 125.494 495.369 127.945C497.119 129.595 499.14 132.714 498.259 135.891C497.009 140.403 493.824 139.196 491.84 137.307L491.672 137.138C490.135 135.594 488.459 135.497 486.413 135.289C484.696 135.099 481.257 134.466 481.47 131.701C481.618 129.679 483.852 127.972 485.225 127.082Z" fill="#F3F3F3" fill-opacity="0.3"/>
<path d="M1421.23 81.2369C1423.94 83.2056 1426.34 79.9273 1425.96 76.7331C1425.82 75.6315 1425.44 74.6228 1424.79 73.853C1423.73 72.5877 1421.53 72.455 1420.72 73.7911C1419.42 75.9412 1418.89 79.5336 1421.23 81.2369ZM1413.78 78.6134C1416.67 80.2237 1418.79 76.6313 1418.13 73.477C1417.91 72.3975 1417.43 71.433 1416.72 70.7473C1415.55 69.6147 1413.34 69.7695 1412.64 71.2118C1411.51 73.53 1411.29 77.2109 1413.78 78.6134ZM1401.06 78.1356C1399.77 77.2596 1397.74 78.3037 1397.23 79.914C1396.91 80.8918 1396.93 81.9801 1397.23 83.0463C1398.12 86.1388 1401.68 88.1164 1403.48 85.1699C1405.04 82.6482 1403.14 79.5601 1401.06 78.1356ZM1409.3 79.7061C1411.01 77.4188 1409.41 74.1273 1407.52 72.4461C1406.34 71.4109 1404.29 72.163 1403.67 73.6849C1403.29 74.6007 1403.23 75.6846 1403.44 76.7729C1404.05 79.9317 1407.33 82.365 1409.3 79.7061ZM1421.61 87.2448C1420.7 84.0816 1417.4 82.7101 1415.1 82.396C1411.67 81.9314 1407.93 83.9046 1406.24 87.7978C1405.56 89.364 1404.59 92.1246 1405.51 93.8899C1406.77 96.3098 1409.94 94.7614 1411.47 93.8854C1413.28 92.8281 1414.71 91.8946 1416.79 92.2529L1417.01 92.2927C1419.64 92.6599 1422.91 91.7397 1421.61 87.2448ZM1424.52 105.202C1423.16 104.579 1421.4 106.021 1421.18 107.706C1421.04 108.728 1421.24 109.803 1421.7 110.794C1423.04 113.675 1426.72 114.949 1427.95 111.679C1429.01 108.857 1426.71 106.198 1424.52 105.202ZM1432.77 105.012C1434.11 102.353 1432.02 99.4333 1429.89 98.1857C1428.57 97.4115 1426.65 98.6148 1426.26 100.261C1426.03 101.256 1426.13 102.344 1426.51 103.375C1427.59 106.388 1431.21 108.091 1432.77 105.012ZM1448.79 98.7121C1448.48 97.6459 1447.94 96.7346 1447.18 96.1063C1445.92 95.0799 1443.69 95.4427 1443.08 96.9469C1442.09 99.3758 1442.11 103.088 1444.71 104.242C1447.73 105.596 1449.66 101.809 1448.79 98.7121ZM1437.05 103.22C1440.06 104.238 1441.53 100.238 1440.39 97.2478C1440 96.2214 1439.39 95.3542 1438.61 94.8189C1437.31 93.9341 1435.21 94.5446 1434.77 96.1152C1434.08 98.6546 1434.45 102.349 1437.05 103.22ZM1443.78 108.082C1440.36 105.875 1436.24 106.494 1433.63 108.945C1431.88 110.595 1429.86 113.714 1430.74 116.891C1431.99 121.403 1435.18 120.196 1437.16 118.307L1437.33 118.138C1438.86 116.594 1440.54 116.497 1442.59 116.289C1444.3 116.099 1447.74 115.466 1447.53 112.701C1447.38 110.679 1445.15 108.972 1443.78 108.082Z" fill="#F3F3F3" fill-opacity="0.3"/>
<path d="M215.228 224.237C217.937 226.206 220.339 222.927 219.958 219.733C219.822 218.631 219.437 217.623 218.79 216.853C217.732 215.588 215.527 215.455 214.724 216.791C213.42 218.941 212.887 222.534 215.228 224.237ZM207.776 221.613C210.666 223.224 212.793 219.631 212.133 216.477C211.908 215.397 211.432 214.433 210.719 213.747C209.551 212.615 207.337 212.77 206.641 214.212C205.514 216.53 205.292 220.211 207.776 221.613ZM195.062 221.136C193.775 220.26 191.737 221.304 191.225 222.914C190.914 223.892 190.934 224.98 191.233 226.046C192.123 229.139 195.676 231.116 197.484 228.17C199.041 225.648 197.136 222.56 195.062 221.136ZM203.304 222.706C205.009 220.419 203.411 217.127 201.517 215.446C200.341 214.411 198.287 215.163 197.668 216.685C197.291 217.601 197.234 218.685 197.439 219.773C198.05 222.932 201.333 225.365 203.304 222.706ZM215.609 230.245C214.699 227.082 211.404 225.71 209.1 225.396C205.665 224.931 201.931 226.905 200.238 230.798C199.558 232.364 198.595 235.125 199.509 236.89C200.771 239.31 203.944 237.761 205.468 236.885C207.276 235.828 208.715 234.895 210.793 235.253L211.014 235.293C213.641 235.66 216.908 234.74 215.609 230.245ZM218.519 248.202C217.158 247.579 215.404 249.021 215.179 250.706C215.043 251.728 215.244 252.803 215.703 253.794C217.035 256.675 220.724 257.949 221.954 254.679C223.011 251.857 220.708 249.198 218.519 248.202ZM226.774 248.012C228.11 245.353 226.024 242.433 223.888 241.186C222.569 240.411 220.65 241.615 220.261 243.261C220.027 244.256 220.134 245.344 220.507 246.375C221.589 249.388 225.212 251.091 226.774 248.012ZM242.792 241.712C242.485 240.646 241.944 239.735 241.181 239.106C239.923 238.08 237.693 238.443 237.078 239.947C236.095 242.376 236.107 246.088 238.71 247.242C241.731 248.596 243.657 244.809 242.792 241.712ZM231.049 246.22C234.058 247.238 235.525 243.238 234.394 240.248C234.004 239.221 233.394 238.354 232.607 237.819C231.307 236.934 229.213 237.545 228.774 239.115C228.077 241.655 228.45 245.349 231.049 246.22ZM237.775 251.082C234.361 248.875 230.238 249.494 227.631 251.945C225.881 253.595 223.86 256.714 224.741 259.891C225.991 264.403 229.176 263.196 231.16 261.307L231.328 261.138C232.865 259.594 234.541 259.497 236.587 259.289C238.304 259.099 241.743 258.466 241.53 255.701C241.382 253.679 239.148 251.972 237.775 251.082Z" fill="#F3F3F3" fill-opacity="0.3"/>
<path d="M717.772 224.237C715.063 226.206 712.661 222.927 713.042 219.733C713.178 218.631 713.563 217.623 714.21 216.853C715.268 215.588 717.473 215.455 718.276 216.791C719.58 218.941 720.113 222.534 717.772 224.237ZM725.224 221.613C722.334 223.224 720.207 219.631 720.867 216.477C721.092 215.397 721.568 214.433 722.281 213.747C723.449 212.615 725.663 212.77 726.359 214.212C727.486 216.53 727.708 220.211 725.224 221.613ZM737.938 221.136C739.225 220.26 741.263 221.304 741.775 222.914C742.086 223.892 742.066 224.98 741.767 226.046C740.877 229.139 737.324 231.116 735.516 228.17C733.959 225.648 735.864 222.56 737.938 221.136ZM729.696 222.706C727.991 220.419 729.589 217.127 731.483 215.446C732.659 214.411 734.713 215.163 735.332 216.685C735.709 217.601 735.766 218.685 735.561 219.773C734.95 222.932 731.667 225.365 729.696 222.706ZM717.391 230.245C718.301 227.082 721.596 225.71 723.9 225.396C727.335 224.931 731.069 226.905 732.762 230.798C733.442 232.364 734.405 235.125 733.491 236.89C732.229 239.31 729.056 237.761 727.532 236.885C725.724 235.828 724.285 234.895 722.207 235.253L721.986 235.293C719.359 235.66 716.092 234.74 717.391 230.245ZM714.481 248.202C715.842 247.579 717.596 249.021 717.821 250.706C717.957 251.728 717.756 252.803 717.297 253.794C715.965 256.675 712.276 257.949 711.046 254.679C709.989 251.857 712.292 249.198 714.481 248.202ZM706.226 248.012C704.89 245.353 706.976 242.433 709.112 241.186C710.431 240.411 712.35 241.615 712.739 243.261C712.973 244.256 712.866 245.344 712.493 246.375C711.411 249.388 707.788 251.091 706.226 248.012ZM690.208 241.712C690.515 240.646 691.056 239.735 691.819 239.106C693.077 238.08 695.307 238.443 695.922 239.947C696.905 242.376 696.893 246.088 694.29 247.242C691.269 248.596 689.343 244.809 690.208 241.712ZM701.951 246.22C698.942 247.238 697.475 243.238 698.606 240.248C698.996 239.221 699.606 238.354 700.393 237.819C701.693 236.934 703.787 237.545 704.226 239.115C704.923 241.655 704.55 245.349 701.951 246.22ZM695.225 251.082C698.639 248.875 702.762 249.494 705.369 251.945C707.119 253.595 709.14 256.714 708.259 259.891C707.009 264.403 703.824 263.196 701.84 261.307L701.672 261.138C700.135 259.594 698.459 259.497 696.413 259.289C694.696 259.099 691.257 258.466 691.47 255.701C691.618 253.679 693.852 251.972 695.225 251.082Z" fill="#F3F3F3" fill-opacity="0.3"/>
<path d="M1200.23 224.237C1202.94 226.206 1205.34 222.927 1204.96 219.733C1204.82 218.631 1204.44 217.623 1203.79 216.853C1202.73 215.588 1200.53 215.455 1199.72 216.791C1198.42 218.941 1197.89 222.534 1200.23 224.237ZM1192.78 221.613C1195.67 223.224 1197.79 219.631 1197.13 216.477C1196.91 215.397 1196.43 214.433 1195.72 213.747C1194.55 212.615 1192.34 212.77 1191.64 214.212C1190.51 216.53 1190.29 220.211 1192.78 221.613ZM1180.06 221.136C1178.77 220.26 1176.74 221.304 1176.23 222.914C1175.91 223.892 1175.93 224.98 1176.23 226.046C1177.12 229.139 1180.68 231.116 1182.48 228.17C1184.04 225.648 1182.14 222.56 1180.06 221.136ZM1188.3 222.706C1190.01 220.419 1188.41 217.127 1186.52 215.446C1185.34 214.411 1183.29 215.163 1182.67 216.685C1182.29 217.601 1182.23 218.685 1182.44 219.773C1183.05 222.932 1186.33 225.365 1188.3 222.706ZM1200.61 230.245C1199.7 227.082 1196.4 225.71 1194.1 225.396C1190.67 224.931 1186.93 226.905 1185.24 230.798C1184.56 232.364 1183.59 235.125 1184.51 236.89C1185.77 239.31 1188.94 237.761 1190.47 236.885C1192.28 235.828 1193.71 234.895 1195.79 235.253L1196.01 235.293C1198.64 235.66 1201.91 234.74 1200.61 230.245ZM1203.52 248.202C1202.16 247.579 1200.4 249.021 1200.18 250.706C1200.04 251.728 1200.24 252.803 1200.7 253.794C1202.04 256.675 1205.72 257.949 1206.95 254.679C1208.01 251.857 1205.71 249.198 1203.52 248.202ZM1211.77 248.012C1213.11 245.353 1211.02 242.433 1208.89 241.186C1207.57 240.411 1205.65 241.615 1205.26 243.261C1205.03 244.256 1205.13 245.344 1205.51 246.375C1206.59 249.388 1210.21 251.091 1211.77 248.012ZM1227.79 241.712C1227.48 240.646 1226.94 239.735 1226.18 239.106C1224.92 238.08 1222.69 238.443 1222.08 239.947C1221.09 242.376 1221.11 246.088 1223.71 247.242C1226.73 248.596 1228.66 244.809 1227.79 241.712ZM1216.05 246.22C1219.06 247.238 1220.53 243.238 1219.39 240.248C1219 239.221 1218.39 238.354 1217.61 237.819C1216.31 236.934 1214.21 237.545 1213.77 239.115C1213.08 241.655 1213.45 245.349 1216.05 246.22ZM1222.78 251.082C1219.36 248.875 1215.24 249.494 1212.63 251.945C1210.88 253.595 1208.86 256.714 1209.74 259.891C1210.99 264.403 1214.18 263.196 1216.16 261.307L1216.33 261.138C1217.86 259.594 1219.54 259.497 1221.59 259.289C1223.3 259.099 1226.74 258.466 1226.53 255.701C1226.38 253.679 1224.15 251.972 1222.78 251.082Z" fill="#F3F3F3" fill-opacity="0.3"/>
<path d="M395.228 231.462C397.937 233.47 400.339 230.126 399.958 226.868C399.822 225.744 399.437 224.715 398.79 223.93C397.732 222.639 395.527 222.504 394.724 223.867C393.42 226.06 392.887 229.724 395.228 231.462ZM387.776 228.786C390.666 230.428 392.793 226.764 392.133 223.546C391.908 222.445 391.432 221.462 390.719 220.762C389.551 219.607 387.337 219.765 386.641 221.236C385.514 223.601 385.292 227.355 387.776 228.786ZM375.062 228.298C373.775 227.405 371.737 228.47 371.225 230.112C370.914 231.11 370.934 232.22 371.233 233.307C372.123 236.462 375.676 238.479 377.484 235.473C379.041 232.901 377.136 229.751 375.062 228.298ZM383.304 229.9C385.009 227.567 383.411 224.21 381.517 222.495C380.341 221.439 378.287 222.206 377.668 223.759C377.291 224.693 377.234 225.798 377.439 226.908C378.05 230.13 381.333 232.612 383.304 229.9ZM395.609 237.59C394.699 234.363 391.404 232.964 389.1 232.644C385.665 232.17 381.931 234.183 380.238 238.154C379.558 239.751 378.595 242.567 379.509 244.368C380.771 246.836 383.944 245.257 385.468 244.363C387.276 243.285 388.715 242.332 390.793 242.698L391.014 242.739C393.641 243.113 396.908 242.175 395.609 237.59ZM398.519 255.906C397.158 255.27 395.404 256.741 395.179 258.461C395.043 259.503 395.244 260.599 395.703 261.61C397.035 264.548 400.724 265.848 401.954 262.513C403.011 259.634 400.708 256.922 398.519 255.906ZM406.774 255.712C408.11 253 406.024 250.022 403.888 248.749C402.569 247.96 400.65 249.187 400.261 250.866C400.027 251.881 400.134 252.991 400.507 254.043C401.589 257.116 405.212 258.853 406.774 255.712ZM422.792 249.286C422.485 248.199 421.944 247.269 421.181 246.628C419.923 245.582 417.693 245.952 417.078 247.486C416.095 249.963 416.107 253.749 418.71 254.927C421.731 256.308 423.657 252.445 422.792 249.286ZM411.049 253.885C414.058 254.923 415.525 250.843 414.394 247.793C414.004 246.746 413.394 245.861 412.607 245.315C411.307 244.413 409.213 245.036 408.774 246.637C408.077 249.228 408.45 252.996 411.049 253.885ZM417.775 258.844C414.361 256.592 410.238 257.224 407.631 259.724C405.881 261.407 403.86 264.589 404.741 267.829C405.991 272.432 409.176 271.2 411.16 269.273L411.328 269.101C412.865 267.526 414.541 267.427 416.587 267.215C418.304 267.021 421.743 266.376 421.53 263.555C421.382 261.493 419.148 259.751 417.775 258.844Z" fill="#F3F3F3" fill-opacity="0.3"/>
<path d="M537.772 231.462C535.063 233.47 532.661 230.126 533.042 226.868C533.178 225.744 533.563 224.715 534.21 223.93C535.268 222.639 537.473 222.504 538.276 223.867C539.58 226.06 540.113 229.724 537.772 231.462ZM545.224 228.786C542.334 230.428 540.207 226.764 540.867 223.546C541.092 222.445 541.568 221.462 542.281 220.762C543.449 219.607 545.663 219.765 546.359 221.236C547.486 223.601 547.708 227.355 545.224 228.786ZM557.938 228.298C559.225 227.405 561.263 228.47 561.775 230.112C562.086 231.11 562.066 232.22 561.767 233.307C560.877 236.462 557.324 238.479 555.516 235.473C553.959 232.901 555.864 229.751 557.938 228.298ZM549.696 229.9C547.991 227.567 549.589 224.21 551.483 222.495C552.659 221.439 554.713 222.206 555.332 223.759C555.709 224.693 555.766 225.798 555.561 226.908C554.95 230.13 551.667 232.612 549.696 229.9ZM537.391 237.59C538.301 234.363 541.596 232.964 543.9 232.644C547.335 232.17 551.069 234.183 552.762 238.154C553.442 239.751 554.405 242.567 553.491 244.368C552.229 246.836 549.056 245.257 547.532 244.363C545.724 243.285 544.285 242.332 542.207 242.698L541.986 242.739C539.359 243.113 536.092 242.175 537.391 237.59ZM534.481 255.906C535.842 255.27 537.596 256.741 537.821 258.461C537.957 259.503 537.756 260.599 537.297 261.61C535.965 264.548 532.276 265.848 531.046 262.513C529.989 259.634 532.292 256.922 534.481 255.906ZM526.226 255.712C524.89 253 526.976 250.022 529.112 248.749C530.431 247.96 532.35 249.187 532.739 250.866C532.973 251.881 532.866 252.991 532.493 254.043C531.411 257.116 527.788 258.853 526.226 255.712ZM510.208 249.286C510.515 248.199 511.056 247.269 511.819 246.628C513.077 245.582 515.307 245.952 515.922 247.486C516.905 249.963 516.893 253.749 514.29 254.927C511.269 256.308 509.343 252.445 510.208 249.286ZM521.951 253.885C518.942 254.923 517.475 250.843 518.606 247.793C518.996 246.746 519.606 245.861 520.393 245.315C521.693 244.413 523.787 245.036 524.226 246.637C524.923 249.228 524.55 252.996 521.951 253.885ZM515.225 258.844C518.639 256.592 522.762 257.224 525.369 259.724C527.119 261.407 529.14 264.589 528.259 267.829C527.009 272.432 523.824 271.2 521.84 269.273L521.672 269.101C520.135 267.526 518.459 267.427 516.413 267.215C514.696 267.021 511.257 266.376 511.47 263.555C511.618 261.493 513.852 259.751 515.225 258.844Z" fill="#F3F3F3" fill-opacity="0.3"/>
<path d="M1343.23 239.462C1345.94 241.47 1348.34 238.126 1347.96 234.868C1347.82 233.744 1347.44 232.715 1346.79 231.93C1345.73 230.639 1343.53 230.504 1342.72 231.867C1341.42 234.06 1340.89 237.724 1343.23 239.462ZM1335.78 236.786C1338.67 238.428 1340.79 234.764 1340.13 231.546C1339.91 230.445 1339.43 229.462 1338.72 228.762C1337.55 227.607 1335.34 227.765 1334.64 229.236C1333.51 231.601 1333.29 235.355 1335.78 236.786ZM1323.06 236.298C1321.77 235.405 1319.74 236.47 1319.23 238.112C1318.91 239.11 1318.93 240.22 1319.23 241.307C1320.12 244.462 1323.68 246.479 1325.48 243.473C1327.04 240.901 1325.14 237.751 1323.06 236.298ZM1331.3 237.9C1333.01 235.567 1331.41 232.21 1329.52 230.495C1328.34 229.439 1326.29 230.206 1325.67 231.759C1325.29 232.693 1325.23 233.798 1325.44 234.908C1326.05 238.13 1329.33 240.612 1331.3 237.9ZM1343.61 245.59C1342.7 242.363 1339.4 240.964 1337.1 240.644C1333.67 240.17 1329.93 242.183 1328.24 246.154C1327.56 247.751 1326.59 250.567 1327.51 252.368C1328.77 254.836 1331.94 253.257 1333.47 252.363C1335.28 251.285 1336.71 250.332 1338.79 250.698L1339.01 250.739C1341.64 251.113 1344.91 250.175 1343.61 245.59ZM1346.52 263.906C1345.16 263.27 1343.4 264.741 1343.18 266.461C1343.04 267.503 1343.24 268.599 1343.7 269.61C1345.04 272.548 1348.72 273.848 1349.95 270.513C1351.01 267.634 1348.71 264.922 1346.52 263.906ZM1354.77 263.712C1356.11 261 1354.02 258.022 1351.89 256.749C1350.57 255.96 1348.65 257.187 1348.26 258.866C1348.03 259.881 1348.13 260.991 1348.51 262.043C1349.59 265.116 1353.21 266.853 1354.77 263.712ZM1370.79 257.286C1370.48 256.199 1369.94 255.269 1369.18 254.628C1367.92 253.582 1365.69 253.952 1365.08 255.486C1364.09 257.963 1364.11 261.749 1366.71 262.927C1369.73 264.308 1371.66 260.445 1370.79 257.286ZM1359.05 261.885C1362.06 262.923 1363.53 258.843 1362.39 255.793C1362 254.746 1361.39 253.861 1360.61 253.315C1359.31 252.413 1357.21 253.036 1356.77 254.637C1356.08 257.228 1356.45 260.996 1359.05 261.885ZM1365.78 266.844C1362.36 264.592 1358.24 265.224 1355.63 267.724C1353.88 269.407 1351.86 272.589 1352.74 275.829C1353.99 280.432 1357.18 279.2 1359.16 277.273L1359.33 277.101C1360.86 275.526 1362.54 275.427 1364.59 275.215C1366.3 275.021 1369.74 274.376 1369.53 271.555C1369.38 269.493 1367.15 267.751 1365.78 266.844Z" fill="#F3F3F3" fill-opacity="0.3"/>
<path d="M373.762 380.237C376.419 382.206 378.775 378.927 378.401 375.733C378.268 374.631 377.89 373.623 377.255 372.853C376.218 371.588 374.055 371.455 373.267 372.791C371.989 374.941 371.466 378.534 373.762 380.237ZM366.453 377.613C369.288 379.224 371.374 375.631 370.727 372.477C370.506 371.397 370.039 370.433 369.34 369.747C368.194 368.615 366.023 368.77 365.34 370.212C364.234 372.53 364.017 376.211 366.453 377.613ZM353.983 377.136C352.721 376.26 350.723 377.304 350.221 378.914C349.915 379.892 349.935 380.98 350.229 382.046C351.101 385.139 354.586 387.116 356.359 384.17C357.887 381.648 356.018 378.56 353.983 377.136ZM362.068 378.706C363.74 376.419 362.172 373.127 360.315 371.446C359.161 370.411 357.147 371.163 356.54 372.685C356.17 373.601 356.114 374.685 356.315 375.773C356.914 378.932 360.134 381.365 362.068 378.706ZM374.136 386.245C373.243 383.082 370.011 381.71 367.752 381.396C364.383 380.931 360.721 382.905 359.061 386.798C358.393 388.364 357.449 391.125 358.345 392.89C359.583 395.31 362.695 393.761 364.19 392.885C365.963 391.828 367.374 390.895 369.412 391.253L369.629 391.293C372.206 391.66 375.41 390.74 374.136 386.245ZM376.99 404.202C375.655 403.579 373.935 405.021 373.714 406.706C373.581 407.728 373.778 408.803 374.228 409.794C375.535 412.675 379.153 413.949 380.359 410.679C381.396 407.857 379.137 405.198 376.99 404.202ZM385.086 404.012C386.397 401.353 384.35 398.433 382.256 397.186C380.962 396.411 379.08 397.615 378.698 399.261C378.469 400.256 378.574 401.344 378.94 402.375C380.001 405.388 383.554 407.091 385.086 404.012ZM400.796 397.712C400.495 396.646 399.964 395.735 399.216 395.106C397.982 394.08 395.795 394.443 395.192 395.947C394.228 398.376 394.24 402.088 396.792 403.242C399.755 404.596 401.644 400.809 400.796 397.712ZM389.279 402.22C392.23 403.238 393.669 399.238 392.559 396.248C392.177 395.221 391.578 394.354 390.807 393.819C389.532 392.934 387.478 393.545 387.048 395.115C386.364 397.655 386.73 401.349 389.279 402.22ZM395.876 407.082C392.527 404.875 388.483 405.494 385.926 407.945C384.21 409.595 382.228 412.714 383.092 415.891C384.318 420.403 387.442 419.196 389.387 417.307L389.552 417.138C391.06 415.594 392.704 415.497 394.71 415.289C396.394 415.099 399.767 414.466 399.558 411.701C399.413 409.679 397.222 407.972 395.876 407.082Z" fill="#F3F3F3" fill-opacity="0.3"/>
<path d="M559.238 380.237C556.581 382.206 554.225 378.927 554.599 375.733C554.732 374.631 555.11 373.623 555.745 372.853C556.782 371.588 558.945 371.455 559.733 372.791C561.011 374.941 561.534 378.534 559.238 380.237ZM566.547 377.613C563.712 379.224 561.626 375.631 562.273 372.477C562.494 371.397 562.961 370.433 563.66 369.747C564.806 368.615 566.977 368.77 567.66 370.212C568.766 372.53 568.983 376.211 566.547 377.613ZM579.017 377.136C580.279 376.26 582.277 377.304 582.779 378.914C583.085 379.892 583.065 380.98 582.771 382.046C581.899 385.139 578.414 387.116 576.641 384.17C575.113 381.648 576.982 378.56 579.017 377.136ZM570.932 378.706C569.26 376.419 570.828 373.127 572.685 371.446C573.839 370.411 575.853 371.163 576.46 372.685C576.83 373.601 576.886 374.685 576.685 375.773C576.086 378.932 572.866 381.365 570.932 378.706ZM558.864 386.245C559.757 383.082 562.989 381.71 565.248 381.396C568.617 380.931 572.279 382.905 573.939 386.798C574.607 388.364 575.551 391.125 574.655 392.89C573.417 395.31 570.305 393.761 568.81 392.885C567.037 391.828 565.626 390.895 563.588 391.253L563.371 391.293C560.794 391.66 557.59 390.74 558.864 386.245ZM556.01 404.202C557.345 403.579 559.065 405.021 559.286 406.706C559.419 407.728 559.222 408.803 558.772 409.794C557.465 412.675 553.847 413.949 552.641 410.679C551.604 407.857 553.863 405.198 556.01 404.202ZM547.914 404.012C546.603 401.353 548.65 398.433 550.744 397.186C552.038 396.411 553.92 397.615 554.302 399.261C554.531 400.256 554.426 401.344 554.06 402.375C552.999 405.388 549.446 407.091 547.914 404.012ZM532.204 397.712C532.505 396.646 533.036 395.735 533.784 395.106C535.018 394.08 537.205 394.443 537.808 395.947C538.772 398.376 538.76 402.088 536.208 403.242C533.245 404.596 531.356 400.809 532.204 397.712ZM543.721 402.22C540.77 403.238 539.331 399.238 540.441 396.248C540.823 395.221 541.422 394.354 542.193 393.819C543.468 392.934 545.522 393.545 545.952 395.115C546.636 397.655 546.27 401.349 543.721 402.22ZM537.124 407.082C540.473 404.875 544.517 405.494 547.074 407.945C548.79 409.595 550.772 412.714 549.908 415.891C548.682 420.403 545.558 419.196 543.613 417.307L543.448 417.138C541.94 415.594 540.296 415.497 538.29 415.289C536.606 415.099 533.233 414.466 533.442 411.701C533.587 409.679 535.778 407.972 537.124 407.082Z" fill="#F3F3F3" fill-opacity="0.3"/>
<path d="M1420.76 382.237C1423.42 384.206 1425.77 380.927 1425.4 377.733C1425.27 376.631 1424.89 375.623 1424.26 374.853C1423.22 373.588 1421.06 373.455 1420.27 374.791C1418.99 376.941 1418.47 380.534 1420.76 382.237ZM1413.45 379.613C1416.29 381.224 1418.37 377.631 1417.73 374.477C1417.51 373.397 1417.04 372.433 1416.34 371.747C1415.19 370.615 1413.02 370.77 1412.34 372.212C1411.23 374.53 1411.02 378.211 1413.45 379.613ZM1400.98 379.136C1399.72 378.26 1397.72 379.304 1397.22 380.914C1396.92 381.892 1396.94 382.98 1397.23 384.046C1398.1 387.139 1401.59 389.116 1403.36 386.17C1404.89 383.648 1403.02 380.56 1400.98 379.136ZM1409.07 380.706C1410.74 378.419 1409.17 375.127 1407.31 373.446C1406.16 372.411 1404.15 373.163 1403.54 374.685C1403.17 375.601 1403.11 376.685 1403.32 377.773C1403.91 380.932 1407.13 383.365 1409.07 380.706ZM1421.14 388.245C1420.24 385.082 1417.01 383.71 1414.75 383.396C1411.38 382.931 1407.72 384.905 1406.06 388.798C1405.39 390.364 1404.45 393.125 1405.35 394.89C1406.58 397.31 1409.69 395.761 1411.19 394.885C1412.96 393.828 1414.37 392.895 1416.41 393.253L1416.63 393.293C1419.21 393.66 1422.41 392.74 1421.14 388.245ZM1423.99 406.202C1422.66 405.579 1420.93 407.021 1420.71 408.706C1420.58 409.728 1420.78 410.803 1421.23 411.794C1422.53 414.675 1426.15 415.949 1427.36 412.679C1428.4 409.857 1426.14 407.198 1423.99 406.202ZM1432.09 406.012C1433.4 403.353 1431.35 400.433 1429.26 399.186C1427.96 398.411 1426.08 399.615 1425.7 401.261C1425.47 402.256 1425.57 403.344 1425.94 404.375C1427 407.388 1430.55 409.091 1432.09 406.012ZM1447.8 399.712C1447.49 398.646 1446.96 397.735 1446.22 397.106C1444.98 396.08 1442.8 396.443 1442.19 397.947C1441.23 400.376 1441.24 404.088 1443.79 405.242C1446.76 406.596 1448.64 402.809 1447.8 399.712ZM1436.28 404.22C1439.23 405.238 1440.67 401.238 1439.56 398.248C1439.18 397.221 1438.58 396.354 1437.81 395.819C1436.53 394.934 1434.48 395.545 1434.05 397.115C1433.36 399.655 1433.73 403.349 1436.28 404.22ZM1442.88 409.082C1439.53 406.875 1435.48 407.494 1432.93 409.945C1431.21 411.595 1429.23 414.714 1430.09 417.891C1431.32 422.403 1434.44 421.196 1436.39 419.307L1436.55 419.138C1438.06 417.594 1439.7 417.497 1441.71 417.289C1443.39 417.099 1446.77 416.466 1446.56 413.701C1446.41 411.679 1444.22 409.972 1442.88 409.082Z" fill="#F3F3F3" fill-opacity="0.3"/>
<path d="M49.2277 240.237C51.937 242.206 54.3389 238.927 53.9577 235.733C53.8225 234.631 53.4372 233.623 52.7896 232.853C51.7321 231.588 49.5269 231.455 48.7235 232.791C47.4201 234.941 46.8873 238.534 49.2277 240.237ZM41.7761 237.613C44.6657 239.224 46.793 235.631 46.1331 232.477C45.9077 231.397 45.4322 230.433 44.719 229.747C43.5508 228.615 41.3375 228.77 40.6407 230.212C39.5135 232.53 39.2922 236.211 41.7761 237.613ZM29.0615 237.136C27.7745 236.26 25.7374 237.304 25.225 238.914C24.9135 239.892 24.934 240.98 25.2332 242.046C26.1227 245.139 29.6764 247.116 31.4839 244.17C33.0415 241.648 31.1355 238.56 29.0615 237.136ZM37.3043 238.706C39.0094 236.419 37.4108 233.127 35.5172 231.446C34.3408 230.411 32.2873 231.163 31.6684 232.685C31.2913 233.601 31.2339 234.685 31.4389 235.773C32.0496 238.932 35.3327 241.365 37.3043 238.706ZM49.6089 246.245C48.699 243.082 45.4035 241.71 43.1 241.396C39.6652 240.931 35.9312 242.905 34.2383 246.798C33.5579 248.364 32.5947 251.125 33.5088 252.89C34.7712 255.31 37.9437 253.761 39.4684 252.885C41.276 251.828 42.7147 250.895 44.7928 251.253L45.0141 251.293C47.6415 251.66 50.9082 250.74 49.6089 246.245ZM52.5191 264.202C51.1582 263.579 49.404 265.021 49.1785 266.706C49.0433 267.728 49.2441 268.803 49.7032 269.794C51.0353 272.675 54.7242 273.949 55.9539 270.679C57.0113 267.857 54.7078 265.198 52.5191 264.202ZM60.7741 264.012C62.1103 261.353 60.024 258.433 57.8885 257.186C56.5687 256.411 54.6504 257.615 54.261 259.261C54.0274 260.256 54.134 261.344 54.507 262.375C55.5891 265.388 59.2124 267.091 60.7741 264.012ZM76.7922 257.712C76.4848 256.646 75.9438 255.735 75.1814 255.106C73.9231 254.08 71.6933 254.443 71.0785 255.947C70.0948 258.376 70.1071 262.088 72.7098 263.242C75.7306 264.596 77.6571 260.809 76.7922 257.712ZM65.0491 262.22C68.0577 263.238 69.525 259.238 68.3938 256.248C68.0044 255.221 67.3936 254.354 66.6067 253.819C65.3074 252.934 63.2129 253.545 62.7743 255.115C62.0775 257.655 62.4505 261.349 65.0491 262.22ZM71.7753 267.082C68.361 264.875 64.2376 265.494 61.6307 267.945C59.8805 269.595 57.8598 272.714 58.7411 275.891C59.9912 280.403 63.176 279.196 65.1598 277.307L65.3278 277.138C66.8649 275.594 68.5413 275.497 70.5866 275.289C72.304 275.099 75.7429 274.466 75.5298 271.701C75.3822 269.679 73.1484 267.972 71.7753 267.082Z" fill="#F3F3F3" fill-opacity="0.3"/>
<path d="M883.772 240.237C881.063 242.206 878.661 238.927 879.042 235.733C879.178 234.631 879.563 233.623 880.21 232.853C881.268 231.588 883.473 231.455 884.276 232.791C885.58 234.941 886.113 238.534 883.772 240.237ZM891.224 237.613C888.334 239.224 886.207 235.631 886.867 232.477C887.092 231.397 887.568 230.433 888.281 229.747C889.449 228.615 891.663 228.77 892.359 230.212C893.486 232.53 893.708 236.211 891.224 237.613ZM903.938 237.136C905.225 236.26 907.263 237.304 907.775 238.914C908.086 239.892 908.066 240.98 907.767 242.046C906.877 245.139 903.324 247.116 901.516 244.17C899.959 241.648 901.864 238.56 903.938 237.136ZM895.696 238.706C893.991 236.419 895.589 233.127 897.483 231.446C898.659 230.411 900.713 231.163 901.332 232.685C901.709 233.601 901.766 234.685 901.561 235.773C900.95 238.932 897.667 241.365 895.696 238.706ZM883.391 246.245C884.301 243.082 887.596 241.71 889.9 241.396C893.335 240.931 897.069 242.905 898.762 246.798C899.442 248.364 900.405 251.125 899.491 252.89C898.229 255.31 895.056 253.761 893.532 252.885C891.724 251.828 890.285 250.895 888.207 251.253L887.986 251.293C885.359 251.66 882.092 250.74 883.391 246.245ZM880.481 264.202C881.842 263.579 883.596 265.021 883.821 266.706C883.957 267.728 883.756 268.803 883.297 269.794C881.965 272.675 878.276 273.949 877.046 270.679C875.989 267.857 878.292 265.198 880.481 264.202ZM872.226 264.012C870.89 261.353 872.976 258.433 875.112 257.186C876.431 256.411 878.35 257.615 878.739 259.261C878.973 260.256 878.866 261.344 878.493 262.375C877.411 265.388 873.788 267.091 872.226 264.012ZM856.208 257.712C856.515 256.646 857.056 255.735 857.819 255.106C859.077 254.08 861.307 254.443 861.922 255.947C862.905 258.376 862.893 262.088 860.29 263.242C857.269 264.596 855.343 260.809 856.208 257.712ZM867.951 262.22C864.942 263.238 863.475 259.238 864.606 256.248C864.996 255.221 865.606 254.354 866.393 253.819C867.693 252.934 869.787 253.545 870.226 255.115C870.923 257.655 870.55 261.349 867.951 262.22ZM861.225 267.082C864.639 264.875 868.762 265.494 871.369 267.945C873.119 269.595 875.14 272.714 874.259 275.891C873.009 280.403 869.824 279.196 867.84 277.307L867.672 277.138C866.135 275.594 864.459 275.497 862.413 275.289C860.696 275.099 857.257 274.466 857.47 271.701C857.618 269.679 859.852 267.972 861.225 267.082Z" fill="#F3F3F3" fill-opacity="0.3"/>
<path d="M1034.23 240.237C1036.94 242.206 1039.34 238.927 1038.96 235.733C1038.82 234.631 1038.44 233.623 1037.79 232.853C1036.73 231.588 1034.53 231.455 1033.72 232.791C1032.42 234.941 1031.89 238.534 1034.23 240.237ZM1026.78 237.613C1029.67 239.224 1031.79 235.631 1031.13 232.477C1030.91 231.397 1030.43 230.433 1029.72 229.747C1028.55 228.615 1026.34 228.77 1025.64 230.212C1024.51 232.53 1024.29 236.211 1026.78 237.613ZM1014.06 237.136C1012.77 236.26 1010.74 237.304 1010.23 238.914C1009.91 239.892 1009.93 240.98 1010.23 242.046C1011.12 245.139 1014.68 247.116 1016.48 244.17C1018.04 241.648 1016.14 238.56 1014.06 237.136ZM1022.3 238.706C1024.01 236.419 1022.41 233.127 1020.52 231.446C1019.34 230.411 1017.29 231.163 1016.67 232.685C1016.29 233.601 1016.23 234.685 1016.44 235.773C1017.05 238.932 1020.33 241.365 1022.3 238.706ZM1034.61 246.245C1033.7 243.082 1030.4 241.71 1028.1 241.396C1024.67 240.931 1020.93 242.905 1019.24 246.798C1018.56 248.364 1017.59 251.125 1018.51 252.89C1019.77 255.31 1022.94 253.761 1024.47 252.885C1026.28 251.828 1027.71 250.895 1029.79 251.253L1030.01 251.293C1032.64 251.66 1035.91 250.74 1034.61 246.245ZM1037.52 264.202C1036.16 263.579 1034.4 265.021 1034.18 266.706C1034.04 267.728 1034.24 268.803 1034.7 269.794C1036.04 272.675 1039.72 273.949 1040.95 270.679C1042.01 267.857 1039.71 265.198 1037.52 264.202ZM1045.77 264.012C1047.11 261.353 1045.02 258.433 1042.89 257.186C1041.57 256.411 1039.65 257.615 1039.26 259.261C1039.03 260.256 1039.13 261.344 1039.51 262.375C1040.59 265.388 1044.21 267.091 1045.77 264.012ZM1061.79 257.712C1061.48 256.646 1060.94 255.735 1060.18 255.106C1058.92 254.08 1056.69 254.443 1056.08 255.947C1055.09 258.376 1055.11 262.088 1057.71 263.242C1060.73 264.596 1062.66 260.809 1061.79 257.712ZM1050.05 262.22C1053.06 263.238 1054.53 259.238 1053.39 256.248C1053 255.221 1052.39 254.354 1051.61 253.819C1050.31 252.934 1048.21 253.545 1047.77 255.115C1047.08 257.655 1047.45 261.349 1050.05 262.22ZM1056.78 267.082C1053.36 264.875 1049.24 265.494 1046.63 267.945C1044.88 269.595 1042.86 272.714 1043.74 275.891C1044.99 280.403 1048.18 279.196 1050.16 277.307L1050.33 277.138C1051.86 275.594 1053.54 275.497 1055.59 275.289C1057.3 275.099 1060.74 274.466 1060.53 271.701C1060.38 269.679 1058.15 267.972 1056.78 267.082Z" fill="#F3F3F3" fill-opacity="0.3"/>
<path d="M49.2277 406.462C51.937 408.47 54.3389 405.126 53.9577 401.868C53.8225 400.744 53.4372 399.715 52.7896 398.93C51.7321 397.639 49.5269 397.504 48.7235 398.867C47.4201 401.06 46.8873 404.724 49.2277 406.462ZM41.7761 403.786C44.6657 405.428 46.793 401.764 46.1331 398.546C45.9077 397.445 45.4322 396.462 44.719 395.762C43.5508 394.607 41.3375 394.765 40.6407 396.236C39.5135 398.601 39.2922 402.355 41.7761 403.786ZM29.0615 403.298C27.7745 402.405 25.7374 403.47 25.225 405.112C24.9135 406.11 24.934 407.22 25.2332 408.307C26.1227 411.462 29.6764 413.479 31.4839 410.473C33.0415 407.901 31.1355 404.751 29.0615 403.298ZM37.3043 404.9C39.0094 402.567 37.4108 399.21 35.5172 397.495C34.3408 396.439 32.2873 397.206 31.6684 398.759C31.2913 399.693 31.2339 400.798 31.4389 401.908C32.0496 405.13 35.3327 407.612 37.3043 404.9ZM49.6089 412.59C48.699 409.363 45.4035 407.964 43.1 407.644C39.6652 407.17 35.9312 409.183 34.2383 413.154C33.5579 414.751 32.5947 417.567 33.5088 419.368C34.7712 421.836 37.9437 420.257 39.4684 419.363C41.276 418.285 42.7147 417.332 44.7928 417.698L45.0141 417.739C47.6415 418.113 50.9082 417.175 49.6089 412.59ZM52.5191 430.906C51.1582 430.27 49.404 431.741 49.1785 433.461C49.0433 434.503 49.2441 435.599 49.7032 436.61C51.0353 439.548 54.7242 440.848 55.9539 437.513C57.0113 434.634 54.7078 431.922 52.5191 430.906ZM60.7741 430.712C62.1103 428 60.024 425.022 57.8885 423.749C56.5687 422.96 54.6504 424.187 54.261 425.866C54.0274 426.881 54.134 427.991 54.507 429.043C55.5891 432.116 59.2124 433.853 60.7741 430.712ZM76.7922 424.286C76.4848 423.199 75.9438 422.269 75.1814 421.628C73.9231 420.582 71.6933 420.952 71.0785 422.486C70.0948 424.963 70.1071 428.749 72.7098 429.927C75.7306 431.308 77.6571 427.445 76.7922 424.286ZM65.0491 428.885C68.0577 429.923 69.525 425.843 68.3938 422.793C68.0044 421.746 67.3936 420.861 66.6067 420.315C65.3074 419.413 63.2129 420.036 62.7743 421.637C62.0775 424.228 62.4505 427.996 65.0491 428.885ZM71.7753 433.844C68.361 431.592 64.2376 432.224 61.6307 434.724C59.8805 436.407 57.8598 439.589 58.7411 442.829C59.9912 447.432 63.176 446.2 65.1598 444.273L65.3278 444.101C66.8649 442.526 68.5413 442.427 70.5866 442.215C72.304 442.021 75.7429 441.376 75.5298 438.555C75.3822 436.493 73.1484 434.751 71.7753 433.844Z" fill="#F3F3F3" fill-opacity="0.3"/>
<path d="M883.772 406.462C881.063 408.47 878.661 405.126 879.042 401.868C879.178 400.744 879.563 399.715 880.21 398.93C881.268 397.639 883.473 397.504 884.276 398.867C885.58 401.06 886.113 404.724 883.772 406.462ZM891.224 403.786C888.334 405.428 886.207 401.764 886.867 398.546C887.092 397.445 887.568 396.462 888.281 395.762C889.449 394.607 891.663 394.765 892.359 396.236C893.486 398.601 893.708 402.355 891.224 403.786ZM903.938 403.298C905.225 402.405 907.263 403.47 907.775 405.112C908.086 406.11 908.066 407.22 907.767 408.307C906.877 411.462 903.324 413.479 901.516 410.473C899.959 407.901 901.864 404.751 903.938 403.298ZM895.696 404.9C893.991 402.567 895.589 399.21 897.483 397.495C898.659 396.439 900.713 397.206 901.332 398.759C901.709 399.693 901.766 400.798 901.561 401.908C900.95 405.13 897.667 407.612 895.696 404.9ZM883.391 412.59C884.301 409.363 887.596 407.964 889.9 407.644C893.335 407.17 897.069 409.183 898.762 413.154C899.442 414.751 900.405 417.567 899.491 419.368C898.229 421.836 895.056 420.257 893.532 419.363C891.724 418.285 890.285 417.332 888.207 417.698L887.986 417.739C885.359 418.113 882.092 417.175 883.391 412.59ZM880.481 430.906C881.842 430.27 883.596 431.741 883.821 433.461C883.957 434.503 883.756 435.599 883.297 436.61C881.965 439.548 878.276 440.848 877.046 437.513C875.989 434.634 878.292 431.922 880.481 430.906ZM872.226 430.712C870.89 428 872.976 425.022 875.112 423.749C876.431 422.96 878.35 424.187 878.739 425.866C878.973 426.881 878.866 427.991 878.493 429.043C877.411 432.116 873.788 433.853 872.226 430.712ZM856.208 424.286C856.515 423.199 857.056 422.269 857.819 421.628C859.077 420.582 861.307 420.952 861.922 422.486C862.905 424.963 862.893 428.749 860.29 429.927C857.269 431.308 855.343 427.445 856.208 424.286ZM867.951 428.885C864.942 429.923 863.475 425.843 864.606 422.793C864.996 421.746 865.606 420.861 866.393 420.315C867.693 419.413 869.787 420.036 870.226 421.637C870.923 424.228 870.55 427.996 867.951 428.885ZM861.225 433.844C864.639 431.592 868.762 432.224 871.369 434.724C873.119 436.407 875.14 439.589 874.259 442.829C873.009 447.432 869.824 446.2 867.84 444.273L867.672 444.101C866.135 442.526 864.459 442.427 862.413 442.215C860.696 442.021 857.257 441.376 857.47 438.555C857.618 436.493 859.852 434.751 861.225 433.844Z" fill="#F3F3F3" fill-opacity="0.3"/>
<path d="M1034.23 406.462C1036.94 408.47 1039.34 405.126 1038.96 401.868C1038.82 400.744 1038.44 399.715 1037.79 398.93C1036.73 397.639 1034.53 397.504 1033.72 398.867C1032.42 401.06 1031.89 404.724 1034.23 406.462ZM1026.78 403.786C1029.67 405.428 1031.79 401.764 1031.13 398.546C1030.91 397.445 1030.43 396.462 1029.72 395.762C1028.55 394.607 1026.34 394.765 1025.64 396.236C1024.51 398.601 1024.29 402.355 1026.78 403.786ZM1014.06 403.298C1012.77 402.405 1010.74 403.47 1010.23 405.112C1009.91 406.11 1009.93 407.22 1010.23 408.307C1011.12 411.462 1014.68 413.479 1016.48 410.473C1018.04 407.901 1016.14 404.751 1014.06 403.298ZM1022.3 404.9C1024.01 402.567 1022.41 399.21 1020.52 397.495C1019.34 396.439 1017.29 397.206 1016.67 398.759C1016.29 399.693 1016.23 400.798 1016.44 401.908C1017.05 405.13 1020.33 407.612 1022.3 404.9ZM1034.61 412.59C1033.7 409.363 1030.4 407.964 1028.1 407.644C1024.67 407.17 1020.93 409.183 1019.24 413.154C1018.56 414.751 1017.59 417.567 1018.51 419.368C1019.77 421.836 1022.94 420.257 1024.47 419.363C1026.28 418.285 1027.71 417.332 1029.79 417.698L1030.01 417.739C1032.64 418.113 1035.91 417.175 1034.61 412.59ZM1037.52 430.906C1036.16 430.27 1034.4 431.741 1034.18 433.461C1034.04 434.503 1034.24 435.599 1034.7 436.61C1036.04 439.548 1039.72 440.848 1040.95 437.513C1042.01 434.634 1039.71 431.922 1037.52 430.906ZM1045.77 430.712C1047.11 428 1045.02 425.022 1042.89 423.749C1041.57 422.96 1039.65 424.187 1039.26 425.866C1039.03 426.881 1039.13 427.991 1039.51 429.043C1040.59 432.116 1044.21 433.853 1045.77 430.712ZM1061.79 424.286C1061.48 423.199 1060.94 422.269 1060.18 421.628C1058.92 420.582 1056.69 420.952 1056.08 422.486C1055.09 424.963 1055.11 428.749 1057.71 429.927C1060.73 431.308 1062.66 427.445 1061.79 424.286ZM1050.05 428.885C1053.06 429.923 1054.53 425.843 1053.39 422.793C1053 421.746 1052.39 420.861 1051.61 420.315C1050.31 419.413 1048.21 420.036 1047.77 421.637C1047.08 424.228 1047.45 427.996 1050.05 428.885ZM1056.78 433.844C1053.36 431.592 1049.24 432.224 1046.63 434.724C1044.88 436.407 1042.86 439.589 1043.74 442.829C1044.99 447.432 1048.18 446.2 1050.16 444.273L1050.33 444.101C1051.86 442.526 1053.54 442.427 1055.59 442.215C1057.3 442.021 1060.74 441.376 1060.53 438.555C1060.38 436.493 1058.15 434.751 1056.78 433.844Z" fill="#F3F3F3" fill-opacity="0.3"/>
<path d="M275.762 594.237C278.419 596.206 280.775 592.927 280.401 589.733C280.268 588.631 279.89 587.623 279.255 586.853C278.218 585.588 276.055 585.455 275.267 586.791C273.989 588.941 273.466 592.534 275.762 594.237ZM268.453 591.613C271.288 593.224 273.374 589.631 272.727 586.477C272.506 585.397 272.039 584.433 271.34 583.747C270.194 582.615 268.023 582.77 267.34 584.212C266.234 586.53 266.017 590.211 268.453 591.613ZM255.983 591.136C254.721 590.26 252.723 591.304 252.221 592.914C251.915 593.892 251.935 594.98 252.229 596.046C253.101 599.139 256.586 601.116 258.359 598.17C259.887 595.648 258.018 592.56 255.983 591.136ZM264.068 592.706C265.74 590.419 264.172 587.127 262.315 585.446C261.161 584.411 259.147 585.163 258.54 586.685C258.17 587.601 258.114 588.685 258.315 589.773C258.914 592.932 262.134 595.365 264.068 592.706ZM276.136 600.245C275.243 597.082 272.011 595.71 269.752 595.396C266.383 594.931 262.721 596.905 261.061 600.798C260.393 602.364 259.449 605.125 260.345 606.89C261.583 609.31 264.695 607.761 266.19 606.885C267.963 605.828 269.374 604.895 271.412 605.253L271.629 605.293C274.206 605.66 277.41 604.74 276.136 600.245ZM278.99 618.202C277.655 617.579 275.935 619.021 275.714 620.706C275.581 621.728 275.778 622.803 276.228 623.794C277.535 626.675 281.153 627.949 282.359 624.679C283.396 621.857 281.137 619.198 278.99 618.202ZM287.086 618.012C288.397 615.353 286.35 612.433 284.256 611.186C282.962 610.411 281.08 611.615 280.698 613.261C280.469 614.256 280.574 615.344 280.94 616.375C282.001 619.388 285.554 621.091 287.086 618.012ZM302.796 611.712C302.495 610.646 301.964 609.735 301.216 609.106C299.982 608.08 297.795 608.443 297.192 609.947C296.228 612.376 296.24 616.088 298.792 617.242C301.755 618.596 303.644 614.809 302.796 611.712ZM291.279 616.22C294.23 617.238 295.669 613.238 294.559 610.248C294.177 609.221 293.578 608.354 292.807 607.819C291.532 606.934 289.478 607.545 289.048 609.115C288.364 611.655 288.73 615.349 291.279 616.22ZM297.876 621.082C294.527 618.875 290.483 619.494 287.926 621.945C286.21 623.595 284.228 626.714 285.092 629.891C286.318 634.403 289.442 633.196 291.387 631.307L291.552 631.138C293.06 629.594 294.704 629.497 296.71 629.289C298.394 629.099 301.767 628.466 301.558 625.701C301.413 623.679 299.222 621.972 297.876 621.082Z" fill="#F3F3F3" fill-opacity="0.3"/>
<path d="M657.238 594.237C654.581 596.206 652.225 592.927 652.599 589.733C652.732 588.631 653.11 587.623 653.745 586.853C654.782 585.588 656.945 585.455 657.733 586.791C659.011 588.941 659.534 592.534 657.238 594.237ZM664.547 591.613C661.712 593.224 659.626 589.631 660.273 586.477C660.494 585.397 660.961 584.433 661.66 583.747C662.806 582.615 664.977 582.77 665.66 584.212C666.766 586.53 666.983 590.211 664.547 591.613ZM677.017 591.136C678.279 590.26 680.277 591.304 680.779 592.914C681.085 593.892 681.065 594.98 680.771 596.046C679.899 599.139 676.414 601.116 674.641 598.17C673.113 595.648 674.982 592.56 677.017 591.136ZM668.932 592.706C667.26 590.419 668.828 587.127 670.685 585.446C671.839 584.411 673.853 585.163 674.46 586.685C674.83 587.601 674.886 588.685 674.685 589.773C674.086 592.932 670.866 595.365 668.932 592.706ZM656.864 600.245C657.757 597.082 660.989 595.71 663.248 595.396C666.617 594.931 670.279 596.905 671.939 600.798C672.607 602.364 673.551 605.125 672.655 606.89C671.417 609.31 668.305 607.761 666.81 606.885C665.037 605.828 663.626 604.895 661.588 605.253L661.371 605.293C658.794 605.66 655.59 604.74 656.864 600.245ZM654.01 618.202C655.345 617.579 657.065 619.021 657.286 620.706C657.419 621.728 657.222 622.803 656.772 623.794C655.465 626.675 651.847 627.949 650.641 624.679C649.604 621.857 651.863 619.198 654.01 618.202ZM645.914 618.012C644.603 615.353 646.65 612.433 648.744 611.186C650.038 610.411 651.92 611.615 652.302 613.261C652.531 614.256 652.426 615.344 652.06 616.375C650.999 619.388 647.446 621.091 645.914 618.012ZM630.204 611.712C630.505 610.646 631.036 609.735 631.784 609.106C633.018 608.08 635.205 608.443 635.808 609.947C636.772 612.376 636.76 616.088 634.208 617.242C631.245 618.596 629.356 614.809 630.204 611.712ZM641.721 616.22C638.77 617.238 637.331 613.238 638.441 610.248C638.823 609.221 639.422 608.354 640.193 607.819C641.468 606.934 643.522 607.545 643.952 609.115C644.636 611.655 644.27 615.349 641.721 616.22ZM635.124 621.082C638.473 618.875 642.517 619.494 645.074 621.945C646.79 623.595 648.772 626.714 647.908 629.891C646.682 634.403 643.558 633.196 641.613 631.307L641.448 631.138C639.94 629.594 638.296 629.497 636.29 629.289C634.606 629.099 631.233 628.466 631.442 625.701C631.587 623.679 633.778 621.972 635.124 621.082Z" fill="#F3F3F3" fill-opacity="0.3"/>
<path d="M1260.76 594.237C1263.42 596.206 1265.77 592.927 1265.4 589.733C1265.27 588.631 1264.89 587.623 1264.26 586.853C1263.22 585.588 1261.06 585.455 1260.27 586.791C1258.99 588.941 1258.47 592.534 1260.76 594.237ZM1253.45 591.613C1256.29 593.224 1258.37 589.631 1257.73 586.477C1257.51 585.397 1257.04 584.433 1256.34 583.747C1255.19 582.615 1253.02 582.77 1252.34 584.212C1251.23 586.53 1251.02 590.211 1253.45 591.613ZM1240.98 591.136C1239.72 590.26 1237.72 591.304 1237.22 592.914C1236.92 593.892 1236.94 594.98 1237.23 596.046C1238.1 599.139 1241.59 601.116 1243.36 598.17C1244.89 595.648 1243.02 592.56 1240.98 591.136ZM1249.07 592.706C1250.74 590.419 1249.17 587.127 1247.31 585.446C1246.16 584.411 1244.15 585.163 1243.54 586.685C1243.17 587.601 1243.11 588.685 1243.32 589.773C1243.91 592.932 1247.13 595.365 1249.07 592.706ZM1261.14 600.245C1260.24 597.082 1257.01 595.71 1254.75 595.396C1251.38 594.931 1247.72 596.905 1246.06 600.798C1245.39 602.364 1244.45 605.125 1245.35 606.89C1246.58 609.31 1249.69 607.761 1251.19 606.885C1252.96 605.828 1254.37 604.895 1256.41 605.253L1256.63 605.293C1259.21 605.66 1262.41 604.74 1261.14 600.245ZM1263.99 618.202C1262.66 617.579 1260.93 619.021 1260.71 620.706C1260.58 621.728 1260.78 622.803 1261.23 623.794C1262.53 626.675 1266.15 627.949 1267.36 624.679C1268.4 621.857 1266.14 619.198 1263.99 618.202ZM1272.09 618.012C1273.4 615.353 1271.35 612.433 1269.26 611.186C1267.96 610.411 1266.08 611.615 1265.7 613.261C1265.47 614.256 1265.57 615.344 1265.94 616.375C1267 619.388 1270.55 621.091 1272.09 618.012ZM1287.8 611.712C1287.49 610.646 1286.96 609.735 1286.22 609.106C1284.98 608.08 1282.8 608.443 1282.19 609.947C1281.23 612.376 1281.24 616.088 1283.79 617.242C1286.76 618.596 1288.64 614.809 1287.8 611.712ZM1276.28 616.22C1279.23 617.238 1280.67 613.238 1279.56 610.248C1279.18 609.221 1278.58 608.354 1277.81 607.819C1276.53 606.934 1274.48 607.545 1274.05 609.115C1273.36 611.655 1273.73 615.349 1276.28 616.22ZM1282.88 621.082C1279.53 618.875 1275.48 619.494 1272.93 621.945C1271.21 623.595 1269.23 626.714 1270.09 629.891C1271.32 634.403 1274.44 633.196 1276.39 631.307L1276.55 631.138C1278.06 629.594 1279.7 629.497 1281.71 629.289C1283.39 629.099 1286.77 628.466 1286.56 625.701C1286.41 623.679 1284.22 621.972 1282.88 621.082Z" fill="#F3F3F3" fill-opacity="0.3"/>
<path d="M115.228 525.237C117.937 527.206 120.339 523.927 119.958 520.733C119.822 519.631 119.437 518.623 118.79 517.853C117.732 516.588 115.527 516.455 114.724 517.791C113.42 519.941 112.887 523.534 115.228 525.237ZM107.776 522.613C110.666 524.224 112.793 520.631 112.133 517.477C111.908 516.397 111.432 515.433 110.719 514.747C109.551 513.615 107.337 513.77 106.641 515.212C105.514 517.53 105.292 521.211 107.776 522.613ZM95.0615 522.136C93.7745 521.26 91.7374 522.304 91.225 523.914C90.9135 524.892 90.934 525.98 91.2332 527.046C92.1227 530.139 95.6764 532.116 97.4839 529.17C99.0415 526.648 97.1355 523.56 95.0615 522.136ZM103.304 523.706C105.009 521.419 103.411 518.127 101.517 516.446C100.341 515.411 98.2873 516.163 97.6684 517.685C97.2913 518.601 97.2339 519.685 97.4389 520.773C98.0496 523.932 101.333 526.365 103.304 523.706ZM115.609 531.245C114.699 528.082 111.404 526.71 109.1 526.396C105.665 525.931 101.931 527.905 100.238 531.798C99.5579 533.364 98.5947 536.125 99.5088 537.89C100.771 540.31 103.944 538.761 105.468 537.885C107.276 536.828 108.715 535.895 110.793 536.253L111.014 536.293C113.641 536.66 116.908 535.74 115.609 531.245ZM118.519 549.202C117.158 548.579 115.404 550.021 115.179 551.706C115.043 552.728 115.244 553.803 115.703 554.794C117.035 557.675 120.724 558.949 121.954 555.679C123.011 552.857 120.708 550.198 118.519 549.202ZM126.774 549.012C128.11 546.353 126.024 543.433 123.888 542.186C122.569 541.411 120.65 542.615 120.261 544.261C120.027 545.256 120.134 546.344 120.507 547.375C121.589 550.388 125.212 552.091 126.774 549.012ZM142.792 542.712C142.485 541.646 141.944 540.735 141.181 540.106C139.923 539.08 137.693 539.443 137.078 540.947C136.095 543.376 136.107 547.088 138.71 548.242C141.731 549.596 143.657 545.809 142.792 542.712ZM131.049 547.22C134.058 548.238 135.525 544.238 134.394 541.248C134.004 540.221 133.394 539.354 132.607 538.819C131.307 537.934 129.213 538.545 128.774 540.115C128.077 542.655 128.45 546.349 131.049 547.22ZM137.775 552.082C134.361 549.875 130.238 550.494 127.631 552.945C125.881 554.595 123.86 557.714 124.741 560.891C125.991 565.403 129.176 564.196 131.16 562.307L131.328 562.138C132.865 560.594 134.541 560.497 136.587 560.289C138.304 560.099 141.743 559.466 141.53 556.701C141.382 554.679 139.148 552.972 137.775 552.082Z" fill="#F3F3F3" fill-opacity="0.3"/>
<path d="M817.772 525.237C815.063 527.206 812.661 523.927 813.042 520.733C813.178 519.631 813.563 518.623 814.21 517.853C815.268 516.588 817.473 516.455 818.276 517.791C819.58 519.941 820.113 523.534 817.772 525.237ZM825.224 522.613C822.334 524.224 820.207 520.631 820.867 517.477C821.092 516.397 821.568 515.433 822.281 514.747C823.449 513.615 825.663 513.77 826.359 515.212C827.486 517.53 827.708 521.211 825.224 522.613ZM837.938 522.136C839.225 521.26 841.263 522.304 841.775 523.914C842.086 524.892 842.066 525.98 841.767 527.046C840.877 530.139 837.324 532.116 835.516 529.17C833.959 526.648 835.864 523.56 837.938 522.136ZM829.696 523.706C827.991 521.419 829.589 518.127 831.483 516.446C832.659 515.411 834.713 516.163 835.332 517.685C835.709 518.601 835.766 519.685 835.561 520.773C834.95 523.932 831.667 526.365 829.696 523.706ZM817.391 531.245C818.301 528.082 821.596 526.71 823.9 526.396C827.335 525.931 831.069 527.905 832.762 531.798C833.442 533.364 834.405 536.125 833.491 537.89C832.229 540.31 829.056 538.761 827.532 537.885C825.724 536.828 824.285 535.895 822.207 536.253L821.986 536.293C819.359 536.66 816.092 535.74 817.391 531.245ZM814.481 549.202C815.842 548.579 817.596 550.021 817.821 551.706C817.957 552.728 817.756 553.803 817.297 554.794C815.965 557.675 812.276 558.949 811.046 555.679C809.989 552.857 812.292 550.198 814.481 549.202ZM806.226 549.012C804.89 546.353 806.976 543.433 809.112 542.186C810.431 541.411 812.35 542.615 812.739 544.261C812.973 545.256 812.866 546.344 812.493 547.375C811.411 550.388 807.788 552.091 806.226 549.012ZM790.208 542.712C790.515 541.646 791.056 540.735 791.819 540.106C793.077 539.08 795.307 539.443 795.922 540.947C796.905 543.376 796.893 547.088 794.29 548.242C791.269 549.596 789.343 545.809 790.208 542.712ZM801.951 547.22C798.942 548.238 797.475 544.238 798.606 541.248C798.996 540.221 799.606 539.354 800.393 538.819C801.693 537.934 803.787 538.545 804.226 540.115C804.923 542.655 804.55 546.349 801.951 547.22ZM795.225 552.082C798.639 549.875 802.762 550.494 805.369 552.945C807.119 554.595 809.14 557.714 808.259 560.891C807.009 565.403 803.824 564.196 801.84 562.307L801.672 562.138C800.135 560.594 798.459 560.497 796.413 560.289C794.696 560.099 791.257 559.466 791.47 556.701C791.618 554.679 793.852 552.972 795.225 552.082Z" fill="#F3F3F3" fill-opacity="0.3"/>
<path d="M1100.23 525.237C1102.94 527.206 1105.34 523.927 1104.96 520.733C1104.82 519.631 1104.44 518.623 1103.79 517.853C1102.73 516.588 1100.53 516.455 1099.72 517.791C1098.42 519.941 1097.89 523.534 1100.23 525.237ZM1092.78 522.613C1095.67 524.224 1097.79 520.631 1097.13 517.477C1096.91 516.397 1096.43 515.433 1095.72 514.747C1094.55 513.615 1092.34 513.77 1091.64 515.212C1090.51 517.53 1090.29 521.211 1092.78 522.613ZM1080.06 522.136C1078.77 521.26 1076.74 522.304 1076.23 523.914C1075.91 524.892 1075.93 525.98 1076.23 527.046C1077.12 530.139 1080.68 532.116 1082.48 529.17C1084.04 526.648 1082.14 523.56 1080.06 522.136ZM1088.3 523.706C1090.01 521.419 1088.41 518.127 1086.52 516.446C1085.34 515.411 1083.29 516.163 1082.67 517.685C1082.29 518.601 1082.23 519.685 1082.44 520.773C1083.05 523.932 1086.33 526.365 1088.3 523.706ZM1100.61 531.245C1099.7 528.082 1096.4 526.71 1094.1 526.396C1090.67 525.931 1086.93 527.905 1085.24 531.798C1084.56 533.364 1083.59 536.125 1084.51 537.89C1085.77 540.31 1088.94 538.761 1090.47 537.885C1092.28 536.828 1093.71 535.895 1095.79 536.253L1096.01 536.293C1098.64 536.66 1101.91 535.74 1100.61 531.245ZM1103.52 549.202C1102.16 548.579 1100.4 550.021 1100.18 551.706C1100.04 552.728 1100.24 553.803 1100.7 554.794C1102.04 557.675 1105.72 558.949 1106.95 555.679C1108.01 552.857 1105.71 550.198 1103.52 549.202ZM1111.77 549.012C1113.11 546.353 1111.02 543.433 1108.89 542.186C1107.57 541.411 1105.65 542.615 1105.26 544.261C1105.03 545.256 1105.13 546.344 1105.51 547.375C1106.59 550.388 1110.21 552.091 1111.77 549.012ZM1127.79 542.712C1127.48 541.646 1126.94 540.735 1126.18 540.106C1124.92 539.08 1122.69 539.443 1122.08 540.947C1121.09 543.376 1121.11 547.088 1123.71 548.242C1126.73 549.596 1128.66 545.809 1127.79 542.712ZM1116.05 547.22C1119.06 548.238 1120.53 544.238 1119.39 541.248C1119 540.221 1118.39 539.354 1117.61 538.819C1116.31 537.934 1114.21 538.545 1113.77 540.115C1113.08 542.655 1113.45 546.349 1116.05 547.22ZM1122.78 552.082C1119.36 549.875 1115.24 550.494 1112.63 552.945C1110.88 554.595 1108.86 557.714 1109.74 560.891C1110.99 565.403 1114.18 564.196 1116.16 562.307L1116.33 562.138C1117.86 560.594 1119.54 560.497 1121.59 560.289C1123.3 560.099 1126.74 559.466 1126.53 556.701C1126.38 554.679 1124.15 552.972 1122.78 552.082Z" fill="#F3F3F3" fill-opacity="0.3"/>
<path d="M966.228 583.237C968.937 585.206 971.339 581.927 970.958 578.733C970.822 577.631 970.437 576.623 969.79 575.853C968.732 574.588 966.527 574.455 965.724 575.791C964.42 577.941 963.887 581.534 966.228 583.237ZM958.776 580.613C961.666 582.224 963.793 578.631 963.133 575.477C962.908 574.397 962.432 573.433 961.719 572.747C960.551 571.615 958.337 571.77 957.641 573.212C956.514 575.53 956.292 579.211 958.776 580.613ZM946.062 580.136C944.775 579.26 942.737 580.304 942.225 581.914C941.914 582.892 941.934 583.98 942.233 585.046C943.123 588.139 946.676 590.116 948.484 587.17C950.041 584.648 948.136 581.56 946.062 580.136ZM954.304 581.706C956.009 579.419 954.411 576.127 952.517 574.446C951.341 573.411 949.287 574.163 948.668 575.685C948.291 576.601 948.234 577.685 948.439 578.773C949.05 581.932 952.333 584.365 954.304 581.706ZM966.609 589.245C965.699 586.082 962.404 584.71 960.1 584.396C956.665 583.931 952.931 585.905 951.238 589.798C950.558 591.364 949.595 594.125 950.509 595.89C951.771 598.31 954.944 596.761 956.468 595.885C958.276 594.828 959.715 593.895 961.793 594.253L962.014 594.293C964.641 594.66 967.908 593.74 966.609 589.245ZM969.519 607.202C968.158 606.579 966.404 608.021 966.179 609.706C966.043 610.728 966.244 611.803 966.703 612.794C968.035 615.675 971.724 616.949 972.954 613.679C974.011 610.857 971.708 608.198 969.519 607.202ZM977.774 607.012C979.11 604.353 977.024 601.433 974.888 600.186C973.569 599.411 971.65 600.615 971.261 602.261C971.027 603.256 971.134 604.344 971.507 605.375C972.589 608.388 976.212 610.091 977.774 607.012ZM993.792 600.712C993.485 599.646 992.944 598.735 992.181 598.106C990.923 597.08 988.693 597.443 988.078 598.947C987.095 601.376 987.107 605.088 989.71 606.242C992.731 607.596 994.657 603.809 993.792 600.712ZM982.049 605.22C985.058 606.238 986.525 602.238 985.394 599.248C985.004 598.221 984.394 597.354 983.607 596.819C982.307 595.934 980.213 596.545 979.774 598.115C979.077 600.655 979.45 604.349 982.049 605.22ZM988.775 610.082C985.361 607.875 981.238 608.494 978.631 610.945C976.881 612.595 974.86 615.714 975.741 618.891C976.991 623.403 980.176 622.196 982.16 620.307L982.328 620.138C983.865 618.594 985.541 618.497 987.587 618.289C989.304 618.099 992.743 617.466 992.53 614.701C992.382 612.679 990.148 610.972 988.775 610.082Z" fill="#F3F3F3" fill-opacity="0.3"/>
<path d="M373.762 508.237C376.419 510.206 378.775 506.927 378.401 503.733C378.268 502.631 377.89 501.623 377.255 500.853C376.218 499.588 374.055 499.455 373.267 500.791C371.989 502.941 371.466 506.534 373.762 508.237ZM366.453 505.613C369.288 507.224 371.374 503.631 370.727 500.477C370.506 499.397 370.039 498.433 369.34 497.747C368.194 496.615 366.023 496.77 365.34 498.212C364.234 500.53 364.017 504.211 366.453 505.613ZM353.983 505.136C352.721 504.26 350.723 505.304 350.221 506.914C349.915 507.892 349.935 508.98 350.229 510.046C351.101 513.139 354.586 515.116 356.359 512.17C357.887 509.648 356.018 506.56 353.983 505.136ZM362.068 506.706C363.74 504.419 362.172 501.127 360.315 499.446C359.161 498.411 357.147 499.163 356.54 500.685C356.17 501.601 356.114 502.685 356.315 503.773C356.914 506.932 360.134 509.365 362.068 506.706ZM374.136 514.245C373.243 511.082 370.011 509.71 367.752 509.396C364.383 508.931 360.721 510.905 359.061 514.798C358.393 516.364 357.449 519.125 358.345 520.89C359.583 523.31 362.695 521.761 364.19 520.885C365.963 519.828 367.374 518.895 369.412 519.253L369.629 519.293C372.206 519.66 375.41 518.74 374.136 514.245ZM376.99 532.202C375.655 531.579 373.935 533.021 373.714 534.706C373.581 535.728 373.778 536.803 374.228 537.794C375.535 540.675 379.153 541.949 380.359 538.679C381.396 535.857 379.137 533.198 376.99 532.202ZM385.086 532.012C386.397 529.353 384.35 526.433 382.256 525.186C380.962 524.411 379.08 525.615 378.698 527.261C378.469 528.256 378.574 529.344 378.94 530.375C380.001 533.388 383.554 535.091 385.086 532.012ZM400.796 525.712C400.495 524.646 399.964 523.735 399.216 523.106C397.982 522.08 395.795 522.443 395.192 523.947C394.228 526.376 394.24 530.088 396.792 531.242C399.755 532.596 401.644 528.809 400.796 525.712ZM389.279 530.22C392.23 531.238 393.669 527.238 392.559 524.248C392.177 523.221 391.578 522.354 390.807 521.819C389.532 520.934 387.478 521.545 387.048 523.115C386.364 525.655 386.73 529.349 389.279 530.22ZM395.876 535.082C392.527 532.875 388.483 533.494 385.926 535.945C384.21 537.595 382.228 540.714 383.092 543.891C384.318 548.403 387.442 547.196 389.387 545.307L389.552 545.138C391.06 543.594 392.704 543.497 394.71 543.289C396.394 543.099 399.767 542.466 399.558 539.701C399.413 537.679 397.222 535.972 395.876 535.082Z" fill="#F3F3F3" fill-opacity="0.3"/>
<path d="M559.238 508.237C556.581 510.206 554.225 506.927 554.599 503.733C554.732 502.631 555.11 501.623 555.745 500.853C556.782 499.588 558.945 499.455 559.733 500.791C561.011 502.941 561.534 506.534 559.238 508.237ZM566.547 505.613C563.712 507.224 561.626 503.631 562.273 500.477C562.494 499.397 562.961 498.433 563.66 497.747C564.806 496.615 566.977 496.77 567.66 498.212C568.766 500.53 568.983 504.211 566.547 505.613ZM579.017 505.136C580.279 504.26 582.277 505.304 582.779 506.914C583.085 507.892 583.065 508.98 582.771 510.046C581.899 513.139 578.414 515.116 576.641 512.17C575.113 509.648 576.982 506.56 579.017 505.136ZM570.932 506.706C569.26 504.419 570.828 501.127 572.685 499.446C573.839 498.411 575.853 499.163 576.46 500.685C576.83 501.601 576.886 502.685 576.685 503.773C576.086 506.932 572.866 509.365 570.932 506.706ZM558.864 514.245C559.757 511.082 562.989 509.71 565.248 509.396C568.617 508.931 572.279 510.905 573.939 514.798C574.607 516.364 575.551 519.125 574.655 520.89C573.417 523.31 570.305 521.761 568.81 520.885C567.037 519.828 565.626 518.895 563.588 519.253L563.371 519.293C560.794 519.66 557.59 518.74 558.864 514.245ZM556.01 532.202C557.345 531.579 559.065 533.021 559.286 534.706C559.419 535.728 559.222 536.803 558.772 537.794C557.465 540.675 553.847 541.949 552.641 538.679C551.604 535.857 553.863 533.198 556.01 532.202ZM547.914 532.012C546.603 529.353 548.65 526.433 550.744 525.186C552.038 524.411 553.92 525.615 554.302 527.261C554.531 528.256 554.426 529.344 554.06 530.375C552.999 533.388 549.446 535.091 547.914 532.012ZM532.204 525.712C532.505 524.646 533.036 523.735 533.784 523.106C535.018 522.08 537.205 522.443 537.808 523.947C538.772 526.376 538.76 530.088 536.208 531.242C533.245 532.596 531.356 528.809 532.204 525.712ZM543.721 530.22C540.77 531.238 539.331 527.238 540.441 524.248C540.823 523.221 541.422 522.354 542.193 521.819C543.468 520.934 545.522 521.545 545.952 523.115C546.636 525.655 546.27 529.349 543.721 530.22ZM537.124 535.082C540.473 532.875 544.517 533.494 547.074 535.945C548.79 537.595 550.772 540.714 549.908 543.891C548.682 548.403 545.558 547.196 543.613 545.307L543.448 545.138C541.94 543.594 540.296 543.497 538.29 543.289C536.606 543.099 533.233 542.466 533.442 539.701C533.587 537.679 535.778 535.972 537.124 535.082Z" fill="#F3F3F3" fill-opacity="0.3"/>
<path d="M1328.76 475.237C1331.42 477.206 1333.77 473.927 1333.4 470.733C1333.27 469.631 1332.89 468.623 1332.26 467.853C1331.22 466.588 1329.06 466.455 1328.27 467.791C1326.99 469.941 1326.47 473.534 1328.76 475.237ZM1321.45 472.613C1324.29 474.224 1326.37 470.631 1325.73 467.477C1325.51 466.397 1325.04 465.433 1324.34 464.747C1323.19 463.615 1321.02 463.77 1320.34 465.212C1319.23 467.53 1319.02 471.211 1321.45 472.613ZM1308.98 472.136C1307.72 471.26 1305.72 472.304 1305.22 473.914C1304.92 474.892 1304.94 475.98 1305.23 477.046C1306.1 480.139 1309.59 482.116 1311.36 479.17C1312.89 476.648 1311.02 473.56 1308.98 472.136ZM1317.07 473.706C1318.74 471.419 1317.17 468.127 1315.31 466.446C1314.16 465.411 1312.15 466.163 1311.54 467.685C1311.17 468.601 1311.11 469.685 1311.32 470.773C1311.91 473.932 1315.13 476.365 1317.07 473.706ZM1329.14 481.245C1328.24 478.082 1325.01 476.71 1322.75 476.396C1319.38 475.931 1315.72 477.905 1314.06 481.798C1313.39 483.364 1312.45 486.125 1313.35 487.89C1314.58 490.31 1317.69 488.761 1319.19 487.885C1320.96 486.828 1322.37 485.895 1324.41 486.253L1324.63 486.293C1327.21 486.66 1330.41 485.74 1329.14 481.245ZM1331.99 499.202C1330.66 498.579 1328.93 500.021 1328.71 501.706C1328.58 502.728 1328.78 503.803 1329.23 504.794C1330.53 507.675 1334.15 508.949 1335.36 505.679C1336.4 502.857 1334.14 500.198 1331.99 499.202ZM1340.09 499.012C1341.4 496.353 1339.35 493.433 1337.26 492.186C1335.96 491.411 1334.08 492.615 1333.7 494.261C1333.47 495.256 1333.57 496.344 1333.94 497.375C1335 500.388 1338.55 502.091 1340.09 499.012ZM1355.8 492.712C1355.49 491.646 1354.96 490.735 1354.22 490.106C1352.98 489.08 1350.8 489.443 1350.19 490.947C1349.23 493.376 1349.24 497.088 1351.79 498.242C1354.76 499.596 1356.64 495.809 1355.8 492.712ZM1344.28 497.22C1347.23 498.238 1348.67 494.238 1347.56 491.248C1347.18 490.221 1346.58 489.354 1345.81 488.819C1344.53 487.934 1342.48 488.545 1342.05 490.115C1341.36 492.655 1341.73 496.349 1344.28 497.22ZM1350.88 502.082C1347.53 499.875 1343.48 500.494 1340.93 502.945C1339.21 504.595 1337.23 507.714 1338.09 510.891C1339.32 515.403 1342.44 514.196 1344.39 512.307L1344.55 512.138C1346.06 510.594 1347.7 510.497 1349.71 510.289C1351.39 510.099 1354.77 509.466 1354.56 506.701C1354.41 504.679 1352.22 502.972 1350.88 502.082Z" fill="#F3F3F3" fill-opacity="0.3"/>
<path d="M1431.76 594.237C1434.42 596.206 1436.77 592.927 1436.4 589.733C1436.27 588.631 1435.89 587.623 1435.26 586.853C1434.22 585.588 1432.06 585.455 1431.27 586.791C1429.99 588.941 1429.47 592.534 1431.76 594.237ZM1424.45 591.613C1427.29 593.224 1429.37 589.631 1428.73 586.477C1428.51 585.397 1428.04 584.433 1427.34 583.747C1426.19 582.615 1424.02 582.77 1423.34 584.212C1422.23 586.53 1422.02 590.211 1424.45 591.613ZM1411.98 591.136C1410.72 590.26 1408.72 591.304 1408.22 592.914C1407.92 593.892 1407.94 594.98 1408.23 596.046C1409.1 599.139 1412.59 601.116 1414.36 598.17C1415.89 595.648 1414.02 592.56 1411.98 591.136ZM1420.07 592.706C1421.74 590.419 1420.17 587.127 1418.31 585.446C1417.16 584.411 1415.15 585.163 1414.54 586.685C1414.17 587.601 1414.11 588.685 1414.32 589.773C1414.91 592.932 1418.13 595.365 1420.07 592.706ZM1432.14 600.245C1431.24 597.082 1428.01 595.71 1425.75 595.396C1422.38 594.931 1418.72 596.905 1417.06 600.798C1416.39 602.364 1415.45 605.125 1416.35 606.89C1417.58 609.31 1420.69 607.761 1422.19 606.885C1423.96 605.828 1425.37 604.895 1427.41 605.253L1427.63 605.293C1430.21 605.66 1433.41 604.74 1432.14 600.245ZM1434.99 618.202C1433.66 617.579 1431.93 619.021 1431.71 620.706C1431.58 621.728 1431.78 622.803 1432.23 623.794C1433.53 626.675 1437.15 627.949 1438.36 624.679C1439.4 621.857 1437.14 619.198 1434.99 618.202ZM1443.09 618.012C1444.4 615.353 1442.35 612.433 1440.26 611.186C1438.96 610.411 1437.08 611.615 1436.7 613.261C1436.47 614.256 1436.57 615.344 1436.94 616.375C1438 619.388 1441.55 621.091 1443.09 618.012ZM1458.8 611.712C1458.49 610.646 1457.96 609.735 1457.22 609.106C1455.98 608.08 1453.8 608.443 1453.19 609.947C1452.23 612.376 1452.24 616.088 1454.79 617.242C1457.76 618.596 1459.64 614.809 1458.8 611.712ZM1447.28 616.22C1450.23 617.238 1451.67 613.238 1450.56 610.248C1450.18 609.221 1449.58 608.354 1448.81 607.819C1447.53 606.934 1445.48 607.545 1445.05 609.115C1444.36 611.655 1444.73 615.349 1447.28 616.22ZM1453.88 621.082C1450.53 618.875 1446.48 619.494 1443.93 621.945C1442.21 623.595 1440.23 626.714 1441.09 629.891C1442.32 634.403 1445.44 633.196 1447.39 631.307L1447.55 631.138C1449.06 629.594 1450.7 629.497 1452.71 629.289C1454.39 629.099 1457.77 628.466 1457.56 625.701C1457.41 623.679 1455.22 621.972 1453.88 621.082Z" fill="#F3F3F3" fill-opacity="0.3"/>
<path d="M275.285 96.1584C278.671 98.639 281.674 94.5084 281.197 90.4837C281.028 89.0957 280.546 87.8247 279.737 86.8548C278.415 85.2605 275.659 85.0933 274.654 86.7767C273.025 89.4859 272.359 94.0123 275.285 96.1584ZM265.97 92.8528C269.582 94.8819 272.241 90.3555 271.416 86.381C271.135 85.0208 270.54 83.8056 269.649 82.9416C268.189 81.5145 265.422 81.7096 264.551 83.5269C263.142 86.4478 262.865 91.0857 265.97 92.8528ZM250.077 92.2508C248.468 91.1471 245.922 92.4626 245.281 94.4917C244.892 95.7236 244.918 97.0949 245.292 98.4384C246.403 102.335 250.845 104.827 253.105 101.114C255.052 97.9367 252.669 94.0457 250.077 92.2508ZM260.38 94.2297C262.512 91.3477 260.514 87.2004 258.146 85.0821C256.676 83.7777 254.109 84.7254 253.335 86.643C252.864 87.7969 252.792 89.1626 253.049 90.5339C253.812 94.514 257.916 97.5799 260.38 94.2297ZM275.761 103.728C274.624 99.7428 270.504 98.0147 267.625 97.6189C263.331 97.0336 258.664 99.5198 256.548 104.425C255.697 106.399 254.493 109.877 255.636 112.101C257.214 115.15 261.18 113.199 263.086 112.096C265.345 110.763 267.143 109.587 269.741 110.039L270.018 110.089C273.302 110.552 277.385 109.392 275.761 103.728ZM279.399 126.355C277.698 125.569 275.505 127.386 275.223 129.51C275.054 130.798 275.305 132.152 275.879 133.401C277.544 137.03 282.155 138.635 283.692 134.516C285.014 130.959 282.135 127.609 279.399 126.355ZM289.718 126.115C291.388 122.765 288.78 119.086 286.111 117.514C284.461 116.538 282.063 118.055 281.576 120.128C281.284 121.383 281.417 122.754 281.884 124.053C283.236 127.849 287.766 129.995 289.718 126.115ZM309.74 118.177C309.356 116.834 308.68 115.686 307.727 114.894C306.154 113.601 303.367 114.058 302.598 115.953C301.368 119.013 301.384 123.69 304.637 125.145C308.413 126.851 310.821 122.079 309.74 118.177ZM295.061 123.858C298.822 125.14 300.656 120.1 299.242 116.332C298.755 115.039 297.992 113.946 297.008 113.272C295.384 112.157 292.766 112.926 292.218 114.905C291.347 118.105 291.813 122.759 295.061 123.858ZM303.469 129.984C299.201 127.202 294.047 127.983 290.788 131.071C288.601 133.15 286.075 137.08 287.176 141.082C288.739 146.768 292.72 145.247 295.2 142.866L295.41 142.654C297.331 140.709 299.427 140.586 301.983 140.324C304.13 140.085 308.429 139.288 308.162 135.804C307.978 133.256 305.185 131.104 303.469 129.984Z" fill="#F3F3F3" fill-opacity="0.3"/>
<path d="M664.715 52.1584C661.329 54.639 658.326 50.5084 658.803 46.4837C658.972 45.0957 659.454 43.8247 660.263 42.8548C661.585 41.2605 664.341 41.0933 665.346 42.7767C666.975 45.4859 667.641 50.0123 664.715 52.1584ZM674.03 48.8528C670.418 50.8819 667.759 46.3555 668.584 42.381C668.865 41.0208 669.46 39.8056 670.351 38.9416C671.811 37.5145 674.578 37.7096 675.449 39.5269C676.858 42.4478 677.135 47.0857 674.03 48.8528ZM689.923 48.2508C691.532 47.1471 694.078 48.4626 694.719 50.4917C695.108 51.7236 695.082 53.0949 694.708 54.4384C693.597 58.3349 689.155 60.8266 686.895 57.1141C684.948 53.9367 687.331 50.0457 689.923 48.2508ZM679.62 50.2297C677.488 47.3477 679.486 43.2004 681.854 41.0821C683.324 39.7777 685.891 40.7254 686.665 42.643C687.136 43.7969 687.208 45.1626 686.951 46.5339C686.188 50.514 682.084 53.5799 679.62 50.2297ZM664.239 59.7285C665.376 55.7428 669.496 54.0147 672.375 53.6189C676.669 53.0336 681.336 55.5198 683.452 60.4253C684.303 62.3986 685.507 65.877 684.364 68.1012C682.786 71.1504 678.82 69.1994 676.914 68.0956C674.655 66.7634 672.857 65.5872 670.259 66.0387L669.982 66.0889C666.698 66.5515 662.615 65.3921 664.239 59.7285ZM660.601 82.3549C662.302 81.5689 664.495 83.3862 664.777 85.51C664.946 86.7977 664.695 88.1523 664.121 89.401C662.456 93.0299 657.845 94.6353 656.308 90.5159C654.986 86.9594 657.865 83.6092 660.601 82.3549ZM650.282 82.1152C648.612 78.765 651.22 75.0859 653.889 73.5139C655.539 72.5384 657.937 74.0547 658.424 76.1283C658.716 77.3826 658.583 78.7539 658.116 80.0527C656.764 83.8489 652.234 85.995 650.282 82.1152ZM630.26 74.1773C630.644 72.8339 631.32 71.6855 632.273 70.894C633.846 69.6007 636.633 70.0578 637.402 71.9531C638.632 75.0135 638.616 79.6904 635.363 81.1453C631.587 82.8511 629.179 78.0794 630.26 74.1773ZM644.939 79.8576C641.178 81.1397 639.344 76.1005 640.758 72.3322C641.245 71.0389 642.008 69.9463 642.992 69.2718C644.616 68.157 647.234 68.9262 647.782 70.9051C648.653 74.1048 648.187 78.7595 644.939 79.8576ZM636.531 85.9839C640.799 83.2022 645.953 83.9827 649.212 87.0709C651.399 89.1501 653.925 93.0801 652.824 97.0825C651.261 102.768 647.28 101.247 644.8 98.8663L644.59 98.6545C642.669 96.709 640.573 96.5864 638.017 96.3244C635.87 96.0847 631.571 95.2875 631.838 91.8035C632.022 89.256 634.815 87.1043 636.531 85.9839Z" fill="#F3F3F3" fill-opacity="0.3"/>
<path d="M1260.28 96.1584C1263.67 98.639 1266.67 94.5084 1266.2 90.4837C1266.03 89.0957 1265.55 87.8247 1264.74 86.8548C1263.42 85.2605 1260.66 85.0933 1259.65 86.7767C1258.03 89.4859 1257.36 94.0123 1260.28 96.1584ZM1250.97 92.8528C1254.58 94.8819 1257.24 90.3555 1256.42 86.381C1256.13 85.0208 1255.54 83.8056 1254.65 82.9416C1253.19 81.5145 1250.42 81.7096 1249.55 83.5269C1248.14 86.4478 1247.87 91.0857 1250.97 92.8528ZM1235.08 92.2508C1233.47 91.1471 1230.92 92.4626 1230.28 94.4917C1229.89 95.7236 1229.92 97.0949 1230.29 98.4384C1231.4 102.335 1235.85 104.827 1238.1 101.114C1240.05 97.9367 1237.67 94.0457 1235.08 92.2508ZM1245.38 94.2297C1247.51 91.3477 1245.51 87.2004 1243.15 85.0821C1241.68 83.7777 1239.11 84.7254 1238.34 86.643C1237.86 87.7969 1237.79 89.1626 1238.05 90.5339C1238.81 94.514 1242.92 97.5799 1245.38 94.2297ZM1260.76 103.728C1259.62 99.7428 1255.5 98.0147 1252.62 97.6189C1248.33 97.0336 1243.66 99.5198 1241.55 104.425C1240.7 106.399 1239.49 109.877 1240.64 112.101C1242.21 115.15 1246.18 113.199 1248.09 112.096C1250.35 110.763 1252.14 109.587 1254.74 110.039L1255.02 110.089C1258.3 110.552 1262.39 109.392 1260.76 103.728ZM1264.4 126.355C1262.7 125.569 1260.5 127.386 1260.22 129.51C1260.05 130.798 1260.31 132.152 1260.88 133.401C1262.54 137.03 1267.16 138.635 1268.69 134.516C1270.01 130.959 1267.13 127.609 1264.4 126.355ZM1274.72 126.115C1276.39 122.765 1273.78 119.086 1271.11 117.514C1269.46 116.538 1267.06 118.055 1266.58 120.128C1266.28 121.383 1266.42 122.754 1266.88 124.053C1268.24 127.849 1272.77 129.995 1274.72 126.115ZM1294.74 118.177C1294.36 116.834 1293.68 115.686 1292.73 114.894C1291.15 113.601 1288.37 114.058 1287.6 115.953C1286.37 119.013 1286.38 123.69 1289.64 125.145C1293.41 126.851 1295.82 122.079 1294.74 118.177ZM1280.06 123.858C1283.82 125.14 1285.66 120.1 1284.24 116.332C1283.76 115.039 1282.99 113.946 1282.01 113.272C1280.38 112.157 1277.77 112.926 1277.22 114.905C1276.35 118.105 1276.81 122.759 1280.06 123.858ZM1288.47 129.984C1284.2 127.202 1279.05 127.983 1275.79 131.071C1273.6 133.15 1271.07 137.08 1272.18 141.082C1273.74 146.768 1277.72 145.247 1280.2 142.866L1280.41 142.654C1282.33 140.709 1284.43 140.586 1286.98 140.324C1289.13 140.085 1293.43 139.288 1293.16 135.804C1292.98 133.256 1290.19 131.104 1288.47 129.984Z" fill="#F3F3F3" fill-opacity="0.3"/>
<path d="M182.285 383.158C185.671 385.639 188.674 381.508 188.197 377.484C188.028 376.096 187.546 374.825 186.737 373.855C185.415 372.261 182.659 372.093 181.654 373.777C180.025 376.486 179.359 381.012 182.285 383.158ZM172.97 379.853C176.582 381.882 179.241 377.356 178.416 373.381C178.135 372.021 177.54 370.806 176.649 369.942C175.189 368.515 172.422 368.71 171.551 370.527C170.142 373.448 169.865 378.086 172.97 379.853ZM157.077 379.251C155.468 378.147 152.922 379.463 152.281 381.492C151.892 382.724 151.918 384.095 152.292 385.438C153.403 389.335 157.845 391.827 160.105 388.114C162.052 384.937 159.669 381.046 157.077 379.251ZM167.38 381.23C169.512 378.348 167.514 374.2 165.146 372.082C163.676 370.778 161.109 371.725 160.335 373.643C159.864 374.797 159.792 376.163 160.049 377.534C160.812 381.514 164.916 384.58 167.38 381.23ZM182.761 390.728C181.624 386.743 177.504 385.015 174.625 384.619C170.331 384.034 165.664 386.52 163.548 391.425C162.697 393.399 161.493 396.877 162.636 399.101C164.214 402.15 168.18 400.199 170.086 399.096C172.345 397.763 174.143 396.587 176.741 397.039L177.018 397.089C180.302 397.552 184.385 396.392 182.761 390.728ZM186.399 413.355C184.698 412.569 182.505 414.386 182.223 416.51C182.054 417.798 182.305 419.152 182.879 420.401C184.544 424.03 189.155 425.635 190.692 421.516C192.014 417.959 189.135 414.609 186.399 413.355ZM196.718 413.115C198.388 409.765 195.78 406.086 193.111 404.514C191.461 403.538 189.063 405.055 188.576 407.128C188.284 408.383 188.417 409.754 188.884 411.053C190.236 414.849 194.766 416.995 196.718 413.115ZM216.74 405.177C216.356 403.834 215.68 402.686 214.727 401.894C213.154 400.601 210.367 401.058 209.598 402.953C208.368 406.013 208.384 410.69 211.637 412.145C215.413 413.851 217.821 409.079 216.74 405.177ZM202.061 410.858C205.822 412.14 207.656 407.1 206.242 403.332C205.755 402.039 204.992 400.946 204.008 400.272C202.384 399.157 199.766 399.926 199.218 401.905C198.347 405.105 198.813 409.759 202.061 410.858ZM210.469 416.984C206.201 414.202 201.047 414.983 197.788 418.071C195.601 420.15 193.075 424.08 194.176 428.082C195.739 433.768 199.72 432.247 202.2 429.866L202.41 429.654C204.331 427.709 206.427 427.586 208.983 427.324C211.13 427.085 215.429 426.288 215.162 422.804C214.978 420.256 212.185 418.104 210.469 416.984Z" fill="#F3F3F3" fill-opacity="0.3"/>
<path d="M715.715 415.158C712.329 417.639 709.326 413.508 709.803 409.484C709.972 408.096 710.454 406.825 711.263 405.855C712.585 404.261 715.341 404.093 716.346 405.777C717.975 408.486 718.641 413.012 715.715 415.158ZM725.03 411.853C721.418 413.882 718.759 409.356 719.584 405.381C719.865 404.021 720.46 402.806 721.351 401.942C722.811 400.515 725.578 400.71 726.449 402.527C727.858 405.448 728.135 410.086 725.03 411.853ZM740.923 411.251C742.532 410.147 745.078 411.463 745.719 413.492C746.108 414.724 746.082 416.095 745.708 417.438C744.597 421.335 740.155 423.827 737.895 420.114C735.948 416.937 738.331 413.046 740.923 411.251ZM730.62 413.23C728.488 410.348 730.486 406.2 732.854 404.082C734.324 402.778 736.891 403.725 737.665 405.643C738.136 406.797 738.208 408.163 737.951 409.534C737.188 413.514 733.084 416.58 730.62 413.23ZM715.239 422.728C716.376 418.743 720.496 417.015 723.375 416.619C727.669 416.034 732.336 418.52 734.452 423.425C735.303 425.399 736.507 428.877 735.364 431.101C733.786 434.15 729.82 432.199 727.914 431.096C725.655 429.763 723.857 428.587 721.259 429.039L720.982 429.089C717.698 429.552 713.615 428.392 715.239 422.728ZM711.601 445.355C713.302 444.569 715.495 446.386 715.777 448.51C715.946 449.798 715.695 451.152 715.121 452.401C713.456 456.03 708.845 457.635 707.308 453.516C705.986 449.959 708.865 446.609 711.601 445.355ZM701.282 445.115C699.612 441.765 702.22 438.086 704.889 436.514C706.539 435.538 708.937 437.055 709.424 439.128C709.716 440.383 709.583 441.754 709.116 443.053C707.764 446.849 703.234 448.995 701.282 445.115ZM681.26 437.177C681.644 435.834 682.32 434.686 683.273 433.894C684.846 432.601 687.633 433.058 688.402 434.953C689.632 438.013 689.616 442.69 686.363 444.145C682.587 445.851 680.179 441.079 681.26 437.177ZM695.939 442.858C692.178 444.14 690.344 439.1 691.758 435.332C692.245 434.039 693.008 432.946 693.992 432.272C695.616 431.157 698.234 431.926 698.782 433.905C699.653 437.105 699.187 441.759 695.939 442.858ZM687.531 448.984C691.799 446.202 696.953 446.983 700.212 450.071C702.399 452.15 704.925 456.08 703.824 460.082C702.261 465.768 698.28 464.247 695.8 461.866L695.59 461.654C693.669 459.709 691.573 459.586 689.017 459.324C686.87 459.085 682.571 458.288 682.838 454.804C683.022 452.256 685.815 450.104 687.531 448.984Z" fill="#F3F3F3" fill-opacity="0.3"/>
<path d="M1167.28 383.158C1170.67 385.639 1173.67 381.508 1173.2 377.484C1173.03 376.096 1172.55 374.825 1171.74 373.855C1170.42 372.261 1167.66 372.093 1166.65 373.777C1165.03 376.486 1164.36 381.012 1167.28 383.158ZM1157.97 379.853C1161.58 381.882 1164.24 377.356 1163.42 373.381C1163.13 372.021 1162.54 370.806 1161.65 369.942C1160.19 368.515 1157.42 368.71 1156.55 370.527C1155.14 373.448 1154.87 378.086 1157.97 379.853ZM1142.08 379.251C1140.47 378.147 1137.92 379.463 1137.28 381.492C1136.89 382.724 1136.92 384.095 1137.29 385.438C1138.4 389.335 1142.85 391.827 1145.1 388.114C1147.05 384.937 1144.67 381.046 1142.08 379.251ZM1152.38 381.23C1154.51 378.348 1152.51 374.2 1150.15 372.082C1148.68 370.778 1146.11 371.725 1145.34 373.643C1144.86 374.797 1144.79 376.163 1145.05 377.534C1145.81 381.514 1149.92 384.58 1152.38 381.23ZM1167.76 390.728C1166.62 386.743 1162.5 385.015 1159.62 384.619C1155.33 384.034 1150.66 386.52 1148.55 391.425C1147.7 393.399 1146.49 396.877 1147.64 399.101C1149.21 402.15 1153.18 400.199 1155.09 399.096C1157.35 397.763 1159.14 396.587 1161.74 397.039L1162.02 397.089C1165.3 397.552 1169.39 396.392 1167.76 390.728ZM1171.4 413.355C1169.7 412.569 1167.5 414.386 1167.22 416.51C1167.05 417.798 1167.31 419.152 1167.88 420.401C1169.54 424.03 1174.16 425.635 1175.69 421.516C1177.01 417.959 1174.13 414.609 1171.4 413.355ZM1181.72 413.115C1183.39 409.765 1180.78 406.086 1178.11 404.514C1176.46 403.538 1174.06 405.055 1173.58 407.128C1173.28 408.383 1173.42 409.754 1173.88 411.053C1175.24 414.849 1179.77 416.995 1181.72 413.115ZM1201.74 405.177C1201.36 403.834 1200.68 402.686 1199.73 401.894C1198.15 400.601 1195.37 401.058 1194.6 402.953C1193.37 406.013 1193.38 410.69 1196.64 412.145C1200.41 413.851 1202.82 409.079 1201.74 405.177ZM1187.06 410.858C1190.82 412.14 1192.66 407.1 1191.24 403.332C1190.76 402.039 1189.99 400.946 1189.01 400.272C1187.38 399.157 1184.77 399.926 1184.22 401.905C1183.35 405.105 1183.81 409.759 1187.06 410.858ZM1195.47 416.984C1191.2 414.202 1186.05 414.983 1182.79 418.071C1180.6 420.15 1178.07 424.08 1179.18 428.082C1180.74 433.768 1184.72 432.247 1187.2 429.866L1187.41 429.654C1189.33 427.709 1191.43 427.586 1193.98 427.324C1196.13 427.085 1200.43 426.288 1200.16 422.804C1199.98 420.256 1197.19 418.104 1195.47 416.984Z" fill="#F3F3F3" fill-opacity="0.3"/>
</svg>
