<svg width="32" height="32" viewBox="0 0 32 32" fill="none" xmlns="http://www.w3.org/2000/svg">
<path d="M15.717 5.00457C8.45347 4.8173 6.10138 10.4403 5.92161 12.5502C5.78178 14.1907 5.07765 20.1908 8.49842 24.2208C10.2637 26.3007 13.0927 27.3369 16.0915 27.267C19.1153 27.1971 21.8469 26.5953 23.6846 24.1733C26.7783 20.0959 26.4487 14.0034 26.0292 12.0334C25.6347 10.2006 24.1041 5.2193 15.717 5.00457Z" fill="#FFEAC8"/>
<path d="M23.9717 16.1064C24.2289 18.0565 23.3824 19.9167 21.1527 20.049C19.1127 20.1714 17.8543 18.8705 17.7544 16.9553C17.652 14.9928 18.7257 13.1675 20.4311 12.9803C22.2314 12.783 23.717 14.1563 23.9717 16.1064Z" fill="#D27856"/>
<path d="M4.51585 6.69043C4.51585 6.69043 2.06139 7.65174 1.46963 9.07997C0.673111 11.0026 1.04016 14.8179 1.46963 16.2985C1.8916 17.7517 3.01521 19.2524 4.75056 19.2049C6.48592 19.1575 8.00903 17.3997 8.54587 15.105C9.0852 12.8079 9.20255 8.87273 9.36485 8.1686C9.52715 7.46447 9.8093 6.90267 9.8093 6.90267C9.8093 6.90267 7.65447 4.81525 4.51585 6.69043Z" fill="#D27856"/>
<path d="M25.0679 6.38538C25.0679 6.38538 28.3963 6.50274 29.1928 6.8548C29.9893 7.20686 30.7159 8.79989 30.646 10.9323C30.5761 13.0646 30.4362 16.5128 29.3576 17.7039C28.4662 18.6877 26.6634 18.7576 25.6546 17.5391C24.6459 16.3206 24.0142 14.2581 23.7795 12.9223C23.5448 11.5864 23.1477 9.85359 22.8881 9.07955C22.6309 8.30551 21.9967 6.75992 21.6696 6.40785C21.34 6.05829 21.9967 5.72869 25.0679 6.38538Z" fill="#D27856"/>
<path d="M7.27997 5.58901C5.4747 5.47415 2.49839 6.90239 1.88914 8.37806C1.2799 9.85373 1.63695 14.6428 2.14882 16.0411C2.68815 17.5167 3.81176 19.3695 5.75685 17.7764C7.70195 16.1834 8.21631 12.1759 8.40608 10.8875C8.59334 9.59905 8.85053 8.02849 9.13268 7.7014C9.41483 7.3743 9.81184 6.90488 9.81184 6.90488C9.81184 6.90488 9.50721 5.72884 7.27997 5.58901Z" fill="#865B51"/>
<path d="M25.4649 5.28494C27.1603 5.4023 29.0031 6.03402 29.6822 7.51219C30.3614 8.98786 30.1042 12.481 29.847 14.144C29.5898 15.8069 28.9806 17.5423 27.4575 17.355C25.9344 17.1677 25.1603 15.1053 24.6934 13.1602C24.224 11.2151 23.7321 9.27001 23.1228 7.86425C22.7558 7.0153 21.4824 6.38858 21.4824 6.38858C21.4824 6.38858 22.0442 5.05023 25.4649 5.28494Z" fill="#865B51"/>
<path d="M12.4061 16.9199C12.3062 17.7739 11.8668 18.463 10.913 18.3631C10.2363 18.2907 9.78185 17.4842 9.88173 16.6278C9.98161 15.7738 10.2787 15.1596 11.0778 15.1746C12.3187 15.1971 12.506 16.0635 12.4061 16.9199Z" fill="#2F2F2F"/>
<path d="M22.204 16.6802C22.2439 17.5391 21.9043 18.2732 20.9131 18.3456C20.0516 18.408 19.6097 17.6615 19.5722 16.8025C19.5323 15.9436 19.9592 15.2544 20.7807 15.1521C21.8469 15.0147 22.164 15.8212 22.204 16.6802Z" fill="#2F2F2F"/>
<path d="M18.5535 21.0098C18.5934 21.8687 18.0142 22.6727 16.2089 22.6503C14.4511 22.6278 13.8119 21.9162 13.7719 21.0572C13.732 20.1983 14.7307 19.4268 16.1615 19.3943C18.1315 19.3444 18.5135 20.1484 18.5535 21.0098Z" fill="#2F2F2F"/>
<path d="M14.5684 24.4778C14.5684 24.4778 14.7807 26.5177 14.9904 27.127C15.4348 28.4154 17.3075 28.2006 17.6396 26.9871C17.9218 25.9559 17.7345 24.1756 17.7345 24.1756L16.0716 23.9409L14.5684 24.4778Z" fill="#E94B8C"/>
<path d="M16.2663 25.157C15.9742 25.1694 15.9842 25.4391 15.9842 26.0583C15.9842 26.6801 16.0191 27.0546 16.3013 27.0421C16.5834 27.0296 16.5485 26.5502 16.5485 26.1058C16.5485 25.6613 16.5709 25.1445 16.2663 25.157Z" fill="#EF87B2"/>
<path d="M12.3187 22.5431C11.9817 23.04 12.6359 23.4795 13.1752 23.844C13.7145 24.2061 14.3687 24.7579 15.1428 24.7454C16.0092 24.7329 16.2439 24.1486 16.2439 24.1486C16.2439 24.1486 16.526 24.8403 17.7545 24.7104C18.4112 24.6405 19.2202 23.9039 19.4649 23.7391C19.9343 23.422 20.4961 23.025 20.2489 22.6954C19.9668 22.3184 19.37 22.8253 18.7608 23.1399C18.1515 23.457 17.9418 23.6093 17.4849 23.6093C17.0279 23.6093 16.7108 23.422 16.6883 22.6605C16.6684 22.0387 16.6759 21.9214 16.6759 21.9214H15.6321C15.6321 21.9214 15.6671 22.5781 15.6671 22.7653C15.6671 23.2572 15.4099 23.4695 14.918 23.4919C14.4261 23.5144 13.8993 23.1049 13.6396 22.9526C13.3849 22.8028 12.5884 22.1461 12.3187 22.5431Z" fill="#2F2F30"/>
</svg>
