<svg width="328" height="48" viewBox="0 0 328 48" fill="none" xmlns="http://www.w3.org/2000/svg">
<rect width="91" height="48" rx="4" fill="#D9D9D9"/>
<path d="M16.12 31.18C15.7733 31.18 15.5133 31.12 15.34 31C15.1667 30.88 15.0533 30.72 15 30.52C14.96 30.32 14.94 30.1 14.94 29.86V18.5C14.94 18.26 14.9667 18.0467 15.02 17.86C15.0733 17.66 15.18 17.5 15.34 17.38C15.5133 17.26 15.78 17.2 16.14 17.2H21.42C22.1933 17.2 22.8733 17.38 23.46 17.74C24.06 18.1 24.5267 18.58 24.86 19.18C25.1933 19.7667 25.36 20.4133 25.36 21.12C25.36 21.44 25.32 21.76 25.24 22.08C25.1733 22.3867 25.06 22.6733 24.9 22.94C24.7533 23.2067 24.5667 23.4467 24.34 23.66C24.6467 23.9 24.9133 24.1933 25.14 24.54C25.3667 24.8867 25.5333 25.2667 25.64 25.68C25.76 26.08 25.82 26.5 25.82 26.94C25.8067 27.54 25.6933 28.1 25.48 28.62C25.2667 29.1267 24.9667 29.5733 24.58 29.96C24.2067 30.3467 23.7667 30.6467 23.26 30.86C22.7533 31.0733 22.2067 31.18 21.62 31.18H16.12ZM17.36 28.82H21.42C21.8067 28.82 22.1467 28.7467 22.44 28.6C22.7467 28.4533 22.9867 28.2267 23.16 27.92C23.3333 27.6133 23.42 27.2133 23.42 26.72C23.42 26.3333 23.3667 26.0267 23.26 25.8C23.1667 25.56 23.0333 25.3733 22.86 25.24C22.7 25.1067 22.5133 25.0133 22.3 24.96C22.1 24.9067 21.9 24.88 21.7 24.88C21.5 24.8667 21.3133 24.86 21.14 24.86H20.22C19.8733 24.86 19.62 24.78 19.46 24.62C19.3 24.4467 19.22 24.1667 19.22 23.78C19.22 23.42 19.3067 23.1667 19.48 23.02C19.6533 22.86 19.92 22.78 20.28 22.78H21.18C21.3533 22.78 21.54 22.7733 21.74 22.76C21.9533 22.7467 22.1533 22.7 22.34 22.62C22.5267 22.5267 22.68 22.38 22.8 22.18C22.92 21.98 22.98 21.6867 22.98 21.3C22.98 20.7 22.82 20.2667 22.5 20C22.1933 19.72 21.66 19.58 20.9 19.58H17.36V28.82ZM31.6981 31.18C31.0848 31.18 30.5181 31.0733 29.9981 30.86C29.4915 30.6333 29.0448 30.3133 28.6581 29.9C28.2715 29.4867 27.9715 28.9933 27.7581 28.42C27.5448 27.8467 27.4381 27.2133 27.4381 26.52V22.54C27.4381 22.3133 27.4581 22.1133 27.4981 21.94C27.5381 21.7533 27.6448 21.6067 27.8181 21.5C27.9915 21.3933 28.2581 21.34 28.6181 21.34C29.0048 21.34 29.2781 21.3933 29.4381 21.5C29.6115 21.6067 29.7181 21.7533 29.7581 21.94C29.7981 22.1267 29.8181 22.3333 29.8181 22.56V26.52C29.8181 27 29.8981 27.4133 30.0581 27.76C30.2315 28.1067 30.4781 28.38 30.7981 28.58C31.1181 28.7667 31.5115 28.86 31.9781 28.86C32.4581 28.86 32.8648 28.7667 33.1981 28.58C33.5448 28.38 33.8115 28.1067 33.9981 27.76C34.1848 27.4 34.2781 26.9867 34.2781 26.52V22.52C34.2781 22.2933 34.2981 22.0933 34.3381 21.92C34.3781 21.7333 34.4848 21.5933 34.6581 21.5C34.8315 21.3933 35.1048 21.34 35.4781 21.34C35.8515 21.34 36.1181 21.3933 36.2781 21.5C36.4381 21.6067 36.5381 21.7533 36.5781 21.94C36.6315 22.1267 36.6581 22.3267 36.6581 22.54V30.04C36.6581 30.24 36.6315 30.4267 36.5781 30.6C36.5381 30.7733 36.4315 30.9133 36.2581 31.02C36.0981 31.1267 35.8315 31.18 35.4581 31.18C35.1915 31.18 34.9781 31.1467 34.8181 31.08C34.6715 31.0267 34.5581 30.9533 34.4781 30.86C34.4115 30.7533 34.3648 30.6467 34.3381 30.54C34.3248 30.4333 34.3181 30.3267 34.3181 30.22L34.4781 29.68C34.3981 29.8 34.2781 29.9467 34.1181 30.12C33.9581 30.28 33.7581 30.4467 33.5181 30.62C33.2915 30.78 33.0248 30.9133 32.7181 31.02C32.4115 31.1267 32.0715 31.18 31.6981 31.18ZM42.0538 31.32C41.7071 31.32 41.3404 31.28 40.9538 31.2C40.5671 31.1333 40.1938 31.0333 39.8338 30.9C39.4738 30.7533 39.1604 30.5867 38.8938 30.4C38.6404 30.2 38.4804 29.98 38.4138 29.74C38.3604 29.6067 38.3404 29.48 38.3538 29.36C38.3671 29.2267 38.4071 29.0933 38.4738 28.96C38.5404 28.8133 38.6404 28.6667 38.7738 28.52C38.8938 28.3733 39.0138 28.2933 39.1338 28.28C39.2671 28.2533 39.4338 28.2933 39.6338 28.4C39.8071 28.4667 39.9938 28.5533 40.1938 28.66C40.4071 28.7667 40.6204 28.8733 40.8338 28.98C41.0604 29.0867 41.2871 29.1733 41.5138 29.24C41.7538 29.3067 41.9871 29.34 42.2138 29.34C42.7071 29.34 43.1004 29.26 43.3938 29.1C43.6871 28.9267 43.8338 28.6867 43.8338 28.38C43.8338 28.2067 43.7871 28.0533 43.6938 27.92C43.6004 27.7867 43.4738 27.68 43.3138 27.6C43.1671 27.5067 42.9871 27.4267 42.7738 27.36C42.5738 27.28 42.3538 27.2133 42.1138 27.16C41.8871 27.0933 41.6471 27.02 41.3938 26.94C41.0604 26.8467 40.7271 26.7333 40.3938 26.6C40.0604 26.4667 39.7604 26.2933 39.4938 26.08C39.2404 25.8667 39.0338 25.6 38.8738 25.28C38.7138 24.96 38.6338 24.56 38.6338 24.08C38.6338 23.48 38.7738 22.9733 39.0538 22.56C39.3471 22.1333 39.7671 21.8067 40.3138 21.58C40.8604 21.3533 41.5204 21.24 42.2938 21.24C42.5604 21.24 42.8138 21.26 43.0538 21.3C43.3071 21.34 43.5471 21.4 43.7738 21.48C44.0138 21.5467 44.2404 21.6333 44.4538 21.74C44.6804 21.8467 44.8938 21.9667 45.0938 22.1C45.4271 22.2867 45.6004 22.5067 45.6138 22.76C45.6271 23 45.5338 23.26 45.3338 23.54C45.1871 23.7267 45.0404 23.86 44.8938 23.94C44.7471 24.0067 44.5938 24.0067 44.4338 23.94C44.2204 23.8333 43.9871 23.72 43.7338 23.6C43.4938 23.4667 43.2404 23.3533 42.9738 23.26C42.7204 23.1667 42.4538 23.12 42.1738 23.12C41.9071 23.12 41.6671 23.16 41.4538 23.24C41.2404 23.32 41.0804 23.4333 40.9738 23.58C40.8671 23.7267 40.8138 23.9 40.8138 24.1C40.8138 24.2867 40.8671 24.44 40.9738 24.56C41.0804 24.68 41.2204 24.78 41.3938 24.86C41.5671 24.94 41.7738 25.0133 42.0138 25.08C42.2538 25.1333 42.5071 25.1867 42.7738 25.24C43.1471 25.32 43.5271 25.42 43.9138 25.54C44.3004 25.66 44.6538 25.8267 44.9738 26.04C45.3071 26.2533 45.5738 26.54 45.7738 26.9C45.9738 27.2467 46.0738 27.7 46.0738 28.26C46.0738 29.2333 45.7138 29.9867 44.9938 30.52C44.2871 31.0533 43.3071 31.32 42.0538 31.32ZM52.5734 31.24C51.9334 31.24 51.3068 31.1333 50.6934 30.92C50.0934 30.6933 49.5468 30.3667 49.0534 29.94C48.5734 29.5133 48.1868 28.9933 47.8934 28.38C47.6134 27.7533 47.4734 27.0467 47.4734 26.26C47.4734 25.4733 47.6134 24.7733 47.8934 24.16C48.1868 23.5467 48.5734 23.0267 49.0534 22.6C49.5334 22.1733 50.0734 21.8467 50.6734 21.62C51.2734 21.3933 51.8934 21.28 52.5334 21.28C53.0001 21.28 53.4401 21.3467 53.8534 21.48C54.2801 21.6133 54.6468 21.7733 54.9534 21.96C55.2601 22.1467 55.4801 22.3333 55.6134 22.52C55.7868 22.68 55.9334 22.8333 56.0534 22.98C56.1734 23.1267 56.2134 23.3067 56.1734 23.52C56.1334 23.6533 56.0734 23.78 55.9934 23.9C55.9134 24.0067 55.8134 24.12 55.6934 24.24C55.3734 24.6 55.0601 24.7333 54.7534 24.64C54.5801 24.5467 54.4068 24.4467 54.2334 24.34C54.0601 24.2333 53.8801 24.1333 53.6934 24.04C53.5201 23.9333 53.3401 23.8467 53.1534 23.78C52.9668 23.7133 52.7601 23.68 52.5334 23.68C52.0268 23.68 51.5734 23.7933 51.1734 24.02C50.7868 24.2333 50.4801 24.5333 50.2534 24.92C50.0401 25.3067 49.9334 25.7533 49.9334 26.26C49.9334 26.7667 50.0401 27.22 50.2534 27.62C50.4801 28.0067 50.7868 28.3133 51.1734 28.54C51.5601 28.7533 52.0001 28.86 52.4934 28.86C52.7334 28.86 52.9601 28.8333 53.1734 28.78C53.4001 28.7133 53.6001 28.6333 53.7734 28.54C53.9468 28.4333 54.0868 28.3267 54.1934 28.22C54.3401 28.1267 54.4734 28.04 54.5934 27.96C54.7134 27.88 54.8401 27.84 54.9734 27.84C55.1334 27.84 55.2868 27.9 55.4334 28.02C55.5934 28.1267 55.7668 28.3 55.9534 28.54C56.1268 28.74 56.2201 28.9333 56.2334 29.12C56.2601 29.3067 56.2201 29.4867 56.1134 29.66C56.0201 29.8333 55.8601 29.9933 55.6334 30.14C55.4734 30.3 55.2334 30.4667 54.9134 30.64C54.6068 30.8 54.2468 30.94 53.8334 31.06C53.4334 31.18 53.0134 31.24 52.5734 31.24ZM66.1502 31.16C65.7635 31.16 65.4768 31.0867 65.2902 30.94C65.1035 30.7933 65.0102 30.5933 65.0102 30.34L65.1502 29.68C65.0435 29.8533 64.8635 30.06 64.6102 30.3C64.3568 30.5267 64.0235 30.7333 63.6102 30.92C63.1968 31.0933 62.6968 31.18 62.1102 31.18C61.4835 31.18 60.8902 31.0533 60.3302 30.8C59.7835 30.5333 59.2968 30.1733 58.8702 29.72C58.4568 29.2533 58.1235 28.7267 57.8702 28.14C57.6302 27.54 57.5102 26.9 57.5102 26.22C57.5102 25.5667 57.6302 24.9533 57.8702 24.38C58.1235 23.7933 58.4635 23.2733 58.8902 22.82C59.3168 22.3667 59.8035 22.0133 60.3502 21.76C60.9102 21.4933 61.4968 21.36 62.1102 21.36C62.6568 21.36 63.1168 21.4333 63.4902 21.58C63.8768 21.7267 64.2035 21.9133 64.4702 22.14C64.7368 22.3533 64.9568 22.58 65.1302 22.82L65.0102 22.24C65.0102 21.9467 65.1035 21.7267 65.2902 21.58C65.4768 21.42 65.7702 21.34 66.1702 21.34C66.5435 21.34 66.8102 21.4 66.9702 21.52C67.1302 21.6267 67.2302 21.78 67.2702 21.98C67.3102 22.1667 67.3302 22.38 67.3302 22.62V29.94C67.3302 30.1667 67.3102 30.3733 67.2702 30.56C67.2302 30.7467 67.1235 30.8933 66.9502 31C66.7902 31.1067 66.5235 31.16 66.1502 31.16ZM62.4702 28.84C62.9235 28.84 63.3302 28.7267 63.6902 28.5C64.0502 28.2733 64.3368 27.9667 64.5502 27.58C64.7768 27.18 64.8902 26.74 64.8902 26.26C64.8902 25.74 64.7768 25.2867 64.5502 24.9C64.3235 24.5133 64.0235 24.2133 63.6502 24C63.2902 23.7733 62.8835 23.66 62.4302 23.66C61.9368 23.66 61.4968 23.78 61.1102 24.02C60.7235 24.2467 60.4168 24.56 60.1902 24.96C59.9768 25.3467 59.8702 25.7867 59.8702 26.28C59.8702 26.76 59.9835 27.1933 60.2102 27.58C60.4368 27.9667 60.7435 28.2733 61.1302 28.5C61.5302 28.7267 61.9768 28.84 62.4702 28.84ZM70.5169 31.2C70.1569 31.2 69.8902 31.14 69.7169 31.02C69.5569 30.9133 69.4569 30.7667 69.4169 30.58C69.3769 30.3933 69.3569 30.1867 69.3569 29.96V22.54C69.3569 22.3 69.3769 22.0933 69.4169 21.92C69.4569 21.7333 69.5569 21.5933 69.7169 21.5C69.8902 21.3933 70.1635 21.34 70.5369 21.34C70.8969 21.34 71.1569 21.3867 71.3169 21.48C71.4902 21.5733 71.5969 21.6933 71.6369 21.84C71.6902 21.9733 71.7169 22.1067 71.7169 22.24L71.5569 22.6C71.6235 22.4933 71.7169 22.3667 71.8369 22.22C71.9569 22.06 72.1169 21.9067 72.3169 21.76C72.5169 21.6 72.7569 21.4733 73.0369 21.38C73.3169 21.2733 73.6502 21.22 74.0369 21.22C74.1969 21.22 74.3635 21.24 74.5369 21.28C74.7235 21.3067 74.9035 21.3533 75.0769 21.42C75.2635 21.4733 75.4302 21.5467 75.5769 21.64C75.7235 21.7333 75.8369 21.8467 75.9169 21.98C75.9969 22.1 76.0369 22.24 76.0369 22.4C76.0369 22.8267 75.9302 23.1867 75.7169 23.48C75.5035 23.7733 75.2502 23.92 74.9569 23.92C74.7569 23.92 74.6102 23.9 74.5169 23.86C74.4235 23.82 74.3435 23.7733 74.2769 23.72C74.2235 23.6667 74.1369 23.62 74.0169 23.58C73.9102 23.54 73.7369 23.52 73.4969 23.52C73.2969 23.52 73.0902 23.5533 72.8769 23.62C72.6769 23.6867 72.4902 23.7867 72.3169 23.92C72.1435 24.0533 72.0035 24.2267 71.8969 24.44C71.7902 24.64 71.7369 24.8733 71.7369 25.14V30C71.7369 30.2267 71.7169 30.4333 71.6769 30.62C71.6369 30.7933 71.5302 30.9333 71.3569 31.04C71.1835 31.1467 70.9035 31.2 70.5169 31.2Z" fill="black"/>
<path d="M103.25 32.2504C102.458 33.042 101.552 33.2195 100.532 32.7829C99.5125 32.3462 99.0017 31.5645 99 30.4379V17.5629C99 16.4379 99.5108 15.6562 100.532 15.2179C101.554 14.7795 102.46 14.957 103.25 15.7504L109.75 22.2504C110 22.5004 110.187 22.7712 110.312 23.0629C110.437 23.3545 110.5 23.667 110.5 24.0004C110.5 24.3337 110.437 24.6462 110.312 24.9379C110.187 25.2295 110 25.5004 109.75 25.7504L103.25 32.2504Z" fill="#5C5B4A"/>
<rect x="118.5" width="91" height="48" rx="4" fill="#D9D9D9"/>
<path d="M141.28 31.18C140.973 31.18 140.713 31.1267 140.5 31.02C140.3 30.9267 140.147 30.76 140.04 30.52L135.08 18.82C134.907 18.4067 134.873 18.1 134.98 17.9C135.087 17.7 135.333 17.5 135.72 17.3C135.987 17.1533 136.22 17.08 136.42 17.08C136.62 17.0667 136.787 17.1267 136.92 17.26C137.067 17.38 137.193 17.58 137.3 17.86L141.26 27.78L145.18 17.96C145.3 17.6933 145.427 17.4867 145.56 17.34C145.693 17.18 145.867 17.1 146.08 17.1C146.293 17.0867 146.547 17.16 146.84 17.32C147.307 17.5467 147.56 17.78 147.6 18.02C147.64 18.26 147.573 18.5667 147.4 18.94L142.48 30.52C142.387 30.72 142.233 30.88 142.02 31C141.807 31.12 141.56 31.18 141.28 31.18ZM150.324 31.2C149.964 31.2 149.697 31.14 149.524 31.02C149.351 30.9133 149.244 30.7733 149.204 30.6C149.164 30.4133 149.144 30.2067 149.144 29.98V22.54C149.144 22.3267 149.164 22.1333 149.204 21.96C149.257 21.7733 149.364 21.6267 149.524 21.52C149.697 21.4133 149.971 21.36 150.344 21.36C150.717 21.36 150.984 21.4133 151.144 21.52C151.317 21.6267 151.424 21.7733 151.464 21.96C151.504 22.1467 151.524 22.3533 151.524 22.58V30C151.524 30.2267 151.504 30.4333 151.464 30.62C151.424 30.7933 151.317 30.9333 151.144 31.04C150.984 31.1467 150.711 31.2 150.324 31.2ZM150.324 19.42C149.937 19.42 149.651 19.3667 149.464 19.26C149.291 19.14 149.177 18.98 149.124 18.78C149.084 18.58 149.064 18.36 149.064 18.12C149.064 17.8667 149.084 17.6467 149.124 17.46C149.177 17.2733 149.297 17.1267 149.484 17.02C149.671 16.9 149.957 16.84 150.344 16.84C150.744 16.84 151.031 16.9 151.204 17.02C151.377 17.14 151.491 17.3 151.544 17.5C151.597 17.6867 151.624 17.9067 151.624 18.16C151.624 18.3867 151.597 18.6 151.544 18.8C151.491 19 151.377 19.1533 151.204 19.26C151.031 19.3667 150.737 19.42 150.324 19.42ZM157.132 31.32C156.785 31.32 156.419 31.28 156.032 31.2C155.645 31.1333 155.272 31.0333 154.912 30.9C154.552 30.7533 154.239 30.5867 153.972 30.4C153.719 30.2 153.559 29.98 153.492 29.74C153.439 29.6067 153.419 29.48 153.432 29.36C153.445 29.2267 153.485 29.0933 153.552 28.96C153.619 28.8133 153.719 28.6667 153.852 28.52C153.972 28.3733 154.092 28.2933 154.212 28.28C154.345 28.2533 154.512 28.2933 154.712 28.4C154.885 28.4667 155.072 28.5533 155.272 28.66C155.485 28.7667 155.699 28.8733 155.912 28.98C156.139 29.0867 156.365 29.1733 156.592 29.24C156.832 29.3067 157.065 29.34 157.292 29.34C157.785 29.34 158.179 29.26 158.472 29.1C158.765 28.9267 158.912 28.6867 158.912 28.38C158.912 28.2067 158.865 28.0533 158.772 27.92C158.679 27.7867 158.552 27.68 158.392 27.6C158.245 27.5067 158.065 27.4267 157.852 27.36C157.652 27.28 157.432 27.2133 157.192 27.16C156.965 27.0933 156.725 27.02 156.472 26.94C156.139 26.8467 155.805 26.7333 155.472 26.6C155.139 26.4667 154.839 26.2933 154.572 26.08C154.319 25.8667 154.112 25.6 153.952 25.28C153.792 24.96 153.712 24.56 153.712 24.08C153.712 23.48 153.852 22.9733 154.132 22.56C154.425 22.1333 154.845 21.8067 155.392 21.58C155.939 21.3533 156.599 21.24 157.372 21.24C157.639 21.24 157.892 21.26 158.132 21.3C158.385 21.34 158.625 21.4 158.852 21.48C159.092 21.5467 159.319 21.6333 159.532 21.74C159.759 21.8467 159.972 21.9667 160.172 22.1C160.505 22.2867 160.679 22.5067 160.692 22.76C160.705 23 160.612 23.26 160.412 23.54C160.265 23.7267 160.119 23.86 159.972 23.94C159.825 24.0067 159.672 24.0067 159.512 23.94C159.299 23.8333 159.065 23.72 158.812 23.6C158.572 23.4667 158.319 23.3533 158.052 23.26C157.799 23.1667 157.532 23.12 157.252 23.12C156.985 23.12 156.745 23.16 156.532 23.24C156.319 23.32 156.159 23.4333 156.052 23.58C155.945 23.7267 155.892 23.9 155.892 24.1C155.892 24.2867 155.945 24.44 156.052 24.56C156.159 24.68 156.299 24.78 156.472 24.86C156.645 24.94 156.852 25.0133 157.092 25.08C157.332 25.1333 157.585 25.1867 157.852 25.24C158.225 25.32 158.605 25.42 158.992 25.54C159.379 25.66 159.732 25.8267 160.052 26.04C160.385 26.2533 160.652 26.54 160.852 26.9C161.052 27.2467 161.152 27.7 161.152 28.26C161.152 29.2333 160.792 29.9867 160.072 30.52C159.365 31.0533 158.385 31.32 157.132 31.32ZM164.172 31.2C163.812 31.2 163.545 31.14 163.372 31.02C163.198 30.9133 163.092 30.7733 163.052 30.6C163.012 30.4133 162.992 30.2067 162.992 29.98V22.54C162.992 22.3267 163.012 22.1333 163.052 21.96C163.105 21.7733 163.212 21.6267 163.372 21.52C163.545 21.4133 163.818 21.36 164.192 21.36C164.565 21.36 164.832 21.4133 164.992 21.52C165.165 21.6267 165.272 21.7733 165.312 21.96C165.352 22.1467 165.372 22.3533 165.372 22.58V30C165.372 30.2267 165.352 30.4333 165.312 30.62C165.272 30.7933 165.165 30.9333 164.992 31.04C164.832 31.1467 164.558 31.2 164.172 31.2ZM164.172 19.42C163.785 19.42 163.498 19.3667 163.312 19.26C163.138 19.14 163.025 18.98 162.972 18.78C162.932 18.58 162.912 18.36 162.912 18.12C162.912 17.8667 162.932 17.6467 162.972 17.46C163.025 17.2733 163.145 17.1267 163.332 17.02C163.518 16.9 163.805 16.84 164.192 16.84C164.592 16.84 164.878 16.9 165.052 17.02C165.225 17.14 165.338 17.3 165.392 17.5C165.445 17.6867 165.472 17.9067 165.472 18.16C165.472 18.3867 165.445 18.6 165.392 18.8C165.338 19 165.225 19.1533 165.052 19.26C164.878 19.3667 164.585 19.42 164.172 19.42ZM172.166 31.2C171.512 31.2 170.952 31.1333 170.486 31C170.019 30.8667 169.639 30.66 169.346 30.38C169.052 30.1 168.832 29.74 168.686 29.3C168.552 28.8467 168.486 28.3133 168.486 27.7V19.22C168.486 18.98 168.506 18.7733 168.546 18.6C168.599 18.4267 168.706 18.2933 168.866 18.2C169.039 18.0933 169.306 18.04 169.666 18.04C170.039 18.04 170.306 18.0933 170.466 18.2C170.639 18.3067 170.746 18.4533 170.786 18.64C170.839 18.8133 170.866 19.0067 170.866 19.22V27.62C170.866 27.9 170.886 28.1267 170.926 28.3C170.979 28.4733 171.052 28.6067 171.146 28.7C171.252 28.78 171.386 28.84 171.546 28.88C171.719 28.9067 171.926 28.92 172.166 28.92C172.419 28.92 172.632 28.94 172.806 28.98C172.992 29.02 173.132 29.12 173.226 29.28C173.319 29.4267 173.366 29.6733 173.366 30.02C173.366 30.3933 173.306 30.6667 173.186 30.84C173.079 31 172.932 31.1 172.746 31.14C172.572 31.18 172.379 31.2 172.166 31.2ZM167.666 21.54L169.726 21.56L172.486 21.48C172.712 21.48 172.912 21.5067 173.086 21.56C173.272 21.6 173.419 21.7067 173.526 21.88C173.632 22.04 173.686 22.3067 173.686 22.68C173.686 23.0267 173.632 23.2867 173.526 23.46C173.419 23.6333 173.279 23.7467 173.106 23.8C172.932 23.84 172.732 23.86 172.506 23.86L169.826 23.82L167.606 23.84C167.272 23.8267 167.039 23.7333 166.906 23.56C166.786 23.3733 166.726 23.0733 166.726 22.66C166.726 22.2733 166.799 21.9933 166.946 21.82C167.106 21.6333 167.346 21.54 167.666 21.54ZM183.377 31.16C182.99 31.16 182.703 31.0867 182.517 30.94C182.33 30.7933 182.237 30.5933 182.237 30.34L182.377 29.68C182.27 29.8533 182.09 30.06 181.837 30.3C181.583 30.5267 181.25 30.7333 180.837 30.92C180.423 31.0933 179.923 31.18 179.337 31.18C178.71 31.18 178.117 31.0533 177.557 30.8C177.01 30.5333 176.523 30.1733 176.097 29.72C175.683 29.2533 175.35 28.7267 175.097 28.14C174.857 27.54 174.737 26.9 174.737 26.22C174.737 25.5667 174.857 24.9533 175.097 24.38C175.35 23.7933 175.69 23.2733 176.117 22.82C176.543 22.3667 177.03 22.0133 177.577 21.76C178.137 21.4933 178.723 21.36 179.337 21.36C179.883 21.36 180.343 21.4333 180.717 21.58C181.103 21.7267 181.43 21.9133 181.697 22.14C181.963 22.3533 182.183 22.58 182.357 22.82L182.237 22.24C182.237 21.9467 182.33 21.7267 182.517 21.58C182.703 21.42 182.997 21.34 183.397 21.34C183.77 21.34 184.037 21.4 184.197 21.52C184.357 21.6267 184.457 21.78 184.497 21.98C184.537 22.1667 184.557 22.38 184.557 22.62V29.94C184.557 30.1667 184.537 30.3733 184.497 30.56C184.457 30.7467 184.35 30.8933 184.177 31C184.017 31.1067 183.75 31.16 183.377 31.16ZM179.697 28.84C180.15 28.84 180.557 28.7267 180.917 28.5C181.277 28.2733 181.563 27.9667 181.777 27.58C182.003 27.18 182.117 26.74 182.117 26.26C182.117 25.74 182.003 25.2867 181.777 24.9C181.55 24.5133 181.25 24.2133 180.877 24C180.517 23.7733 180.11 23.66 179.657 23.66C179.163 23.66 178.723 23.78 178.337 24.02C177.95 24.2467 177.643 24.56 177.417 24.96C177.203 25.3467 177.097 25.7867 177.097 26.28C177.097 26.76 177.21 27.1933 177.437 27.58C177.663 27.9667 177.97 28.2733 178.357 28.5C178.757 28.7267 179.203 28.84 179.697 28.84ZM187.743 31.2C187.383 31.2 187.117 31.14 186.943 31.02C186.783 30.9133 186.683 30.7667 186.643 30.58C186.603 30.3933 186.583 30.1867 186.583 29.96V22.54C186.583 22.3 186.603 22.0933 186.643 21.92C186.683 21.7333 186.783 21.5933 186.943 21.5C187.117 21.3933 187.39 21.34 187.763 21.34C188.123 21.34 188.383 21.3867 188.543 21.48C188.717 21.5733 188.823 21.6933 188.863 21.84C188.917 21.9733 188.943 22.1067 188.943 22.24L188.783 22.6C188.85 22.4933 188.943 22.3667 189.063 22.22C189.183 22.06 189.343 21.9067 189.543 21.76C189.743 21.6 189.983 21.4733 190.263 21.38C190.543 21.2733 190.877 21.22 191.263 21.22C191.423 21.22 191.59 21.24 191.763 21.28C191.95 21.3067 192.13 21.3533 192.303 21.42C192.49 21.4733 192.657 21.5467 192.803 21.64C192.95 21.7333 193.063 21.8467 193.143 21.98C193.223 22.1 193.263 22.24 193.263 22.4C193.263 22.8267 193.157 23.1867 192.943 23.48C192.73 23.7733 192.477 23.92 192.183 23.92C191.983 23.92 191.837 23.9 191.743 23.86C191.65 23.82 191.57 23.7733 191.503 23.72C191.45 23.6667 191.363 23.62 191.243 23.58C191.137 23.54 190.963 23.52 190.723 23.52C190.523 23.52 190.317 23.5533 190.103 23.62C189.903 23.6867 189.717 23.7867 189.543 23.92C189.37 24.0533 189.23 24.2267 189.123 24.44C189.017 24.64 188.963 24.8733 188.963 25.14V30C188.963 30.2267 188.943 30.4333 188.903 30.62C188.863 30.7933 188.757 30.9333 188.583 31.04C188.41 31.1467 188.13 31.2 187.743 31.2Z" fill="black"/>
<path d="M221.75 32.2504C220.958 33.042 220.052 33.2195 219.032 32.7829C218.012 32.3462 217.502 31.5645 217.5 30.4379V17.5629C217.5 16.4379 218.011 15.6562 219.032 15.2179C220.054 14.7795 220.96 14.957 221.75 15.7504L228.25 22.2504C228.5 22.5004 228.687 22.7712 228.812 23.0629C228.937 23.3545 229 23.667 229 24.0004C229 24.3337 228.937 24.6462 228.812 24.9379C228.687 25.2295 228.5 25.5004 228.25 25.7504L221.75 32.2504Z" fill="#5C5B4A"/>
<rect x="237" width="91" height="48" rx="4" fill="#D9D9D9"/>
<path d="M252.84 31.28C252.187 31.28 251.527 31.1867 250.86 31C250.193 30.8 249.553 30.5067 248.94 30.12C248.327 29.72 247.78 29.2333 247.3 28.66C246.833 28.0733 246.46 27.4 246.18 26.64C245.9 25.8667 245.76 25.0133 245.76 24.08C245.76 23.16 245.9 22.3333 246.18 21.6C246.46 20.8533 246.833 20.2 247.3 19.64C247.78 19.08 248.32 18.6133 248.92 18.24C249.533 17.8667 250.173 17.5867 250.84 17.4C251.52 17.2 252.193 17.0933 252.86 17.08C253.54 17.08 254.127 17.1533 254.62 17.3C255.113 17.4467 255.513 17.6067 255.82 17.78C256.127 17.94 256.333 18.0533 256.44 18.12C256.653 18.2533 256.853 18.4067 257.04 18.58C257.24 18.74 257.347 18.94 257.36 19.18C257.373 19.34 257.353 19.4867 257.3 19.62C257.247 19.74 257.173 19.8667 257.08 20C256.92 20.2267 256.76 20.3933 256.6 20.5C256.44 20.6067 256.28 20.66 256.12 20.66C255.973 20.66 255.833 20.62 255.7 20.54C255.58 20.46 255.427 20.36 255.24 20.24C255.16 20.1867 255.013 20.1067 254.8 20C254.6 19.88 254.327 19.7733 253.98 19.68C253.647 19.5867 253.24 19.54 252.76 19.54C252.187 19.54 251.627 19.64 251.08 19.84C250.533 20.04 250.04 20.34 249.6 20.74C249.173 21.1267 248.833 21.6133 248.58 22.2C248.327 22.7733 248.2 23.4333 248.2 24.18C248.2 24.9267 248.327 25.5933 248.58 26.18C248.833 26.7533 249.173 27.24 249.6 27.64C250.04 28.0267 250.533 28.32 251.08 28.52C251.627 28.72 252.187 28.82 252.76 28.82C253.213 28.82 253.6 28.78 253.92 28.7C254.253 28.6067 254.533 28.5 254.76 28.38C255 28.2467 255.18 28.1467 255.3 28.08C255.447 27.9867 255.587 27.9 255.72 27.82C255.853 27.74 255.993 27.7 256.14 27.7C256.3 27.7 256.453 27.7533 256.6 27.86C256.76 27.9667 256.913 28.14 257.06 28.38C257.153 28.5267 257.227 28.6667 257.28 28.8C257.333 28.9333 257.353 29.0733 257.34 29.22C257.327 29.46 257.22 29.6667 257.02 29.84C256.833 30 256.633 30.14 256.42 30.26C256.313 30.3267 256.107 30.4467 255.8 30.62C255.507 30.78 255.113 30.9267 254.62 31.06C254.127 31.2067 253.533 31.28 252.84 31.28ZM263.745 31.32C263.105 31.32 262.479 31.2 261.865 30.96C261.265 30.7067 260.719 30.3533 260.225 29.9C259.745 29.4467 259.359 28.9133 259.065 28.3C258.785 27.6867 258.645 27.0133 258.645 26.28C258.645 25.5733 258.779 24.9133 259.045 24.3C259.312 23.6867 259.679 23.1467 260.145 22.68C260.612 22.2133 261.145 21.8533 261.745 21.6C262.359 21.3333 263.012 21.2 263.705 21.2C264.639 21.2 265.485 21.4267 266.245 21.88C267.005 22.32 267.612 22.92 268.065 23.68C268.519 24.44 268.745 25.3 268.745 26.26C268.745 27.02 268.605 27.7133 268.325 28.34C268.045 28.9533 267.665 29.4867 267.185 29.94C266.705 30.38 266.165 30.72 265.565 30.96C264.979 31.2 264.372 31.32 263.745 31.32ZM263.705 28.96C264.145 28.96 264.565 28.8533 264.965 28.64C265.379 28.4133 265.712 28.0933 265.965 27.68C266.232 27.2667 266.365 26.78 266.365 26.22C266.365 25.7 266.245 25.24 266.005 24.84C265.779 24.44 265.465 24.1267 265.065 23.9C264.665 23.6733 264.205 23.56 263.685 23.56C263.192 23.56 262.745 23.68 262.345 23.92C261.945 24.1467 261.625 24.4667 261.385 24.88C261.159 25.28 261.045 25.7333 261.045 26.24C261.045 26.8 261.172 27.2867 261.425 27.7C261.679 28.1 262.005 28.4133 262.405 28.64C262.819 28.8533 263.252 28.96 263.705 28.96ZM271.497 31.18C271.137 31.18 270.871 31.12 270.697 31C270.537 30.8933 270.437 30.7533 270.397 30.58C270.357 30.3933 270.337 30.1867 270.337 29.96V22.48C270.337 22.2667 270.357 22.0733 270.397 21.9C270.437 21.7267 270.544 21.5933 270.717 21.5C270.891 21.3933 271.157 21.34 271.517 21.34C271.837 21.34 272.077 21.38 272.237 21.46C272.397 21.54 272.504 21.64 272.557 21.76C272.611 21.88 272.637 22 272.637 22.12C272.651 22.24 272.664 22.3333 272.677 22.4L272.597 23.04C272.677 22.8267 272.811 22.62 272.997 22.42C273.184 22.22 273.411 22.04 273.677 21.88C273.944 21.7067 274.231 21.5733 274.537 21.48C274.857 21.3733 275.184 21.32 275.517 21.32C276.144 21.32 276.704 21.4333 277.197 21.66C277.691 21.8867 278.111 22.2067 278.457 22.62C278.817 23.0333 279.091 23.5267 279.277 24.1C279.464 24.66 279.557 25.2933 279.557 26V29.98C279.557 30.2067 279.531 30.4133 279.477 30.6C279.437 30.7733 279.337 30.9133 279.177 31.02C279.017 31.1267 278.744 31.18 278.357 31.18C277.984 31.18 277.711 31.12 277.537 31C277.364 30.8933 277.257 30.7533 277.217 30.58C277.177 30.3933 277.157 30.1867 277.157 29.96V25.98C277.157 25.5 277.071 25.0867 276.897 24.74C276.737 24.3933 276.497 24.1267 276.177 23.94C275.871 23.7533 275.477 23.66 274.997 23.66C274.531 23.66 274.124 23.76 273.777 23.96C273.431 24.1467 273.164 24.4133 272.977 24.76C272.791 25.1067 272.697 25.5133 272.697 25.98V29.98C272.697 30.2067 272.677 30.4133 272.637 30.6C272.597 30.7733 272.491 30.9133 272.317 31.02C272.157 31.1267 271.884 31.18 271.497 31.18ZM285.363 31.24C285.083 31.24 284.85 31.1933 284.663 31.1C284.477 31.0067 284.33 30.8533 284.223 30.64L280.583 23.02C280.383 22.62 280.33 22.3 280.423 22.06C280.517 21.82 280.757 21.6067 281.143 21.42C281.543 21.22 281.863 21.1533 282.103 21.22C282.343 21.2867 282.557 21.5333 282.743 21.96L285.363 28.1L287.943 22.08C288.13 21.64 288.343 21.3667 288.583 21.26C288.823 21.14 289.17 21.1933 289.623 21.42C290.077 21.6467 290.317 21.9 290.343 22.18C290.37 22.4467 290.297 22.7533 290.123 23.1L286.503 30.64C286.397 30.84 286.25 30.9867 286.063 31.08C285.877 31.1867 285.643 31.24 285.363 31.24ZM293.199 31.2C292.839 31.2 292.572 31.14 292.399 31.02C292.226 30.9133 292.119 30.7733 292.079 30.6C292.039 30.4133 292.019 30.2067 292.019 29.98V22.54C292.019 22.3267 292.039 22.1333 292.079 21.96C292.132 21.7733 292.239 21.6267 292.399 21.52C292.572 21.4133 292.846 21.36 293.219 21.36C293.592 21.36 293.859 21.4133 294.019 21.52C294.192 21.6267 294.299 21.7733 294.339 21.96C294.379 22.1467 294.399 22.3533 294.399 22.58V30C294.399 30.2267 294.379 30.4333 294.339 30.62C294.299 30.7933 294.192 30.9333 294.019 31.04C293.859 31.1467 293.586 31.2 293.199 31.2ZM293.199 19.42C292.812 19.42 292.526 19.3667 292.339 19.26C292.166 19.14 292.052 18.98 291.999 18.78C291.959 18.58 291.939 18.36 291.939 18.12C291.939 17.8667 291.959 17.6467 291.999 17.46C292.052 17.2733 292.172 17.1267 292.359 17.02C292.546 16.9 292.832 16.84 293.219 16.84C293.619 16.84 293.906 16.9 294.079 17.02C294.252 17.14 294.366 17.3 294.419 17.5C294.472 17.6867 294.499 17.9067 294.499 18.16C294.499 18.3867 294.472 18.6 294.419 18.8C294.366 19 294.252 19.1533 294.079 19.26C293.906 19.3667 293.612 19.42 293.199 19.42ZM301.047 31.24C300.767 31.24 300.534 31.1933 300.347 31.1C300.16 31.0067 300.014 30.8533 299.907 30.64L296.267 23.02C296.067 22.62 296.014 22.3 296.107 22.06C296.2 21.82 296.44 21.6067 296.827 21.42C297.227 21.22 297.547 21.1533 297.787 21.22C298.027 21.2867 298.24 21.5333 298.427 21.96L301.047 28.1L303.627 22.08C303.814 21.64 304.027 21.3667 304.267 21.26C304.507 21.14 304.854 21.1933 305.307 21.42C305.76 21.6467 306 21.9 306.027 22.18C306.054 22.4467 305.98 22.7533 305.807 23.1L302.187 30.64C302.08 30.84 301.934 30.9867 301.747 31.08C301.56 31.1867 301.327 31.24 301.047 31.24ZM308.883 31.2C308.523 31.2 308.256 31.14 308.083 31.02C307.909 30.9133 307.803 30.7733 307.763 30.6C307.723 30.4133 307.703 30.2067 307.703 29.98V22.54C307.703 22.3267 307.723 22.1333 307.763 21.96C307.816 21.7733 307.923 21.6267 308.083 21.52C308.256 21.4133 308.529 21.36 308.903 21.36C309.276 21.36 309.543 21.4133 309.703 21.52C309.876 21.6267 309.983 21.7733 310.023 21.96C310.063 22.1467 310.083 22.3533 310.083 22.58V30C310.083 30.2267 310.063 30.4333 310.023 30.62C309.983 30.7933 309.876 30.9333 309.703 31.04C309.543 31.1467 309.269 31.2 308.883 31.2ZM308.883 19.42C308.496 19.42 308.209 19.3667 308.023 19.26C307.849 19.14 307.736 18.98 307.683 18.78C307.643 18.58 307.623 18.36 307.623 18.12C307.623 17.8667 307.643 17.6467 307.683 17.46C307.736 17.2733 307.856 17.1267 308.043 17.02C308.229 16.9 308.516 16.84 308.903 16.84C309.303 16.84 309.589 16.9 309.763 17.02C309.936 17.14 310.049 17.3 310.103 17.5C310.156 17.6867 310.183 17.9067 310.183 18.16C310.183 18.3867 310.156 18.6 310.103 18.8C310.049 19 309.936 19.1533 309.763 19.26C309.589 19.3667 309.296 19.42 308.883 19.42ZM313.45 31.2C313.09 31.2 312.824 31.14 312.65 31.02C312.49 30.9133 312.39 30.7667 312.35 30.58C312.31 30.3933 312.29 30.1867 312.29 29.96V22.54C312.29 22.3 312.31 22.0933 312.35 21.92C312.39 21.7333 312.49 21.5933 312.65 21.5C312.824 21.3933 313.097 21.34 313.47 21.34C313.83 21.34 314.09 21.3867 314.25 21.48C314.424 21.5733 314.53 21.6933 314.57 21.84C314.624 21.9733 314.65 22.1067 314.65 22.24L314.49 22.6C314.557 22.4933 314.65 22.3667 314.77 22.22C314.89 22.06 315.05 21.9067 315.25 21.76C315.45 21.6 315.69 21.4733 315.97 21.38C316.25 21.2733 316.584 21.22 316.97 21.22C317.13 21.22 317.297 21.24 317.47 21.28C317.657 21.3067 317.837 21.3533 318.01 21.42C318.197 21.4733 318.364 21.5467 318.51 21.64C318.657 21.7333 318.77 21.8467 318.85 21.98C318.93 22.1 318.97 22.24 318.97 22.4C318.97 22.8267 318.864 23.1867 318.65 23.48C318.437 23.7733 318.184 23.92 317.89 23.92C317.69 23.92 317.544 23.9 317.45 23.86C317.357 23.82 317.277 23.7733 317.21 23.72C317.157 23.6667 317.07 23.62 316.95 23.58C316.844 23.54 316.67 23.52 316.43 23.52C316.23 23.52 316.024 23.5533 315.81 23.62C315.61 23.6867 315.424 23.7867 315.25 23.92C315.077 24.0533 314.937 24.2267 314.83 24.44C314.724 24.64 314.67 24.8733 314.67 25.14V30C314.67 30.2267 314.65 30.4333 314.61 30.62C314.57 30.7933 314.464 30.9333 314.29 31.04C314.117 31.1467 313.837 31.2 313.45 31.2Z" fill="black"/>
</svg>
