<svg width="42" height="42" viewBox="0 0 42 42" fill="none" xmlns="http://www.w3.org/2000/svg">
<path opacity="0.3" d="M33.25 33.25H40.25V36.75H36.75V40.25H33.25V33.25ZM29.75 22.75H36.75V29.75H33.25V26.25H29.75V22.75ZM22.75 22.75H26.25V26.25H29.75V36.75H26.25V33.25H22.75V22.75ZM5.25 5.25H15.75V15.75H5.25V5.25ZM8.75 8.75V12.25H12.25V8.75H8.75ZM26.25 5.25H36.75V15.75H26.25V5.25ZM29.75 8.75V12.25H33.25V8.75H29.75ZM5.25 26.25H15.75V36.75H5.25V26.25ZM8.75 29.75V33.25H12.25V29.75H8.75Z" fill="#5C5B4A"/>
<path d="M1.75 1.75H19.25V19.25H1.75V1.75ZM5.25 5.25V15.75H15.75V5.25H5.25Z" fill="#5C5B4A"/>
<path fill-rule="evenodd" clip-rule="evenodd" d="M8.75 8.75H12.25V12.25H8.75V8.75Z" fill="#5C5B4A"/>
<path d="M22.75 1.75H40.25V19.25H22.75V1.75ZM26.25 5.25V15.75H36.75V5.25H26.25Z" fill="#5C5B4A"/>
<path fill-rule="evenodd" clip-rule="evenodd" d="M29.75 8.75H33.25V12.25H29.75V8.75Z" fill="#5C5B4A"/>
<path d="M1.75 22.75H19.25V40.25H1.75V22.75ZM5.25 26.25V36.75H15.75V26.25H5.25Z" fill="#5C5B4A"/>
<path fill-rule="evenodd" clip-rule="evenodd" d="M8.75 29.75H12.25V33.25H8.75V29.75Z" fill="#5C5B4A"/>
<path d="M40.25 33.25H33.25V40.25H22.75V22.75V33.25H26.25V36.75H29.75V26.25H26.25V22.75H24.5H29.75V26.25H33.25V29.75H36.75V22.75H40.25V33.25ZM40.25 36.75V40.25H36.75V36.75H40.25Z" fill="#5C5B4A"/>
</svg>
