<svg width="218" height="72" viewBox="0 0 218 72" fill="none" xmlns="http://www.w3.org/2000/svg">
<path d="M36.3182 27.5378C34.8682 27.5378 33.6264 27.0398 32.593 26.0439C31.5595 25.0479 31.0437 23.8521 31.0454 22.4564C31.0454 21.059 31.5622 19.8623 32.5956 18.8664C33.6291 17.8704 34.8699 17.3733 36.3182 17.375C37.7682 17.375 39.0099 17.873 40.0434 18.8689C41.0768 19.8649 41.5927 21.0607 41.5909 22.4564C41.5909 23.8538 41.0742 25.0505 40.0407 26.0464C39.0073 27.0424 37.7664 27.5395 36.3182 27.5378ZM22.675 72C21.7083 72 20.9394 71.6714 20.3682 71.0142C19.797 70.357 19.6212 69.5846 19.8409 68.6971L26.5636 36.1762L21.8182 37.9547V44.0523C21.8182 44.7722 21.5651 45.3752 21.0589 45.8613C20.5527 46.3474 19.927 46.5913 19.1818 46.593C18.4348 46.593 17.8083 46.3491 17.3021 45.8613C16.7959 45.3735 16.5437 44.7705 16.5454 44.0523V38.0182C16.5454 37.0019 16.8311 36.0703 17.4023 35.2234C17.9735 34.3765 18.7644 33.7413 19.775 33.3179L29.8591 29.1892C31.1333 28.6811 32.4295 28.6278 33.7477 29.0292C35.0659 29.4306 36.0985 30.2038 36.8454 31.3488L39.4818 35.414C40.4485 36.896 41.7007 38.1664 43.2386 39.225C44.7765 40.2836 46.5341 40.9823 48.5114 41.3211C49.1704 41.4058 49.7197 41.6912 50.1591 42.1773C50.5985 42.6634 50.8182 43.2037 50.8182 43.7983C50.8182 44.6028 50.5211 45.2693 49.9271 45.7978C49.333 46.3262 48.6634 46.5278 47.9182 46.4025C45.5894 46.0637 43.4258 45.354 41.4274 44.2734C39.4291 43.1927 37.726 41.8487 36.3182 40.2413L34.7364 47.8634L38.625 51.4203C39.1523 51.9285 39.5591 52.49 39.8456 53.1048C40.1321 53.7197 40.2745 54.3862 40.2727 55.1044V69.4593C40.2727 70.1792 40.0196 70.783 39.5134 71.2708C39.0073 71.7586 38.3816 72.0017 37.6364 72C36.8894 72 36.2628 71.7561 35.7566 71.2683C35.2504 70.7805 34.9982 70.1775 35 69.4593V56.7558L29.4636 51.6744L25.1795 70.0945C25.0477 70.6026 24.7507 71.0472 24.2884 71.4283C23.8262 71.8094 23.2884 72 22.675 72Z" fill="#5C5B4A"/>
<g clip-path="url(#clip0_105_214)">
<path d="M109 7L76 33.1398V38.9398L109 12.7944L142 38.9398V33.1398L109 7ZM109 16.0537L82.8571 36.7612V72H96.2857C96.3 67.4307 96.4 60.7536 97.7429 54.8828C98.4857 51.6716 99.5857 48.6725 101.371 46.395C103.171 44.1032 105.757 42.5754 109 42.5754C112.243 42.5754 114.829 44.1032 116.629 46.395C118.414 48.6725 119.514 51.6716 120.257 54.8828C121.6 60.7536 121.7 67.4307 121.714 72H135.143V36.7612L109 16.0537ZM95.8429 31.1451C96.4124 31.1594 97.0068 31.2664 97.5714 31.4563C98.2012 31.6652 98.7716 31.9693 99.2184 32.3342C99.6652 32.6992 99.9705 33.1105 100.1 33.5217H117.9C118.029 33.1105 118.335 32.6992 118.782 32.3342C119.228 31.9693 119.799 31.6652 120.429 31.4563C120.993 31.2664 121.588 31.1594 122.157 31.1451C122.769 31.1338 123.328 31.2304 123.775 31.4247C124.223 31.6189 124.542 31.9035 124.7 32.2485C124.905 32.6911 124.832 33.2094 124.493 33.7151C124.155 34.2208 123.571 34.6824 122.843 35.0212C123.474 35.3689 123.962 35.8088 124.237 36.2769C124.512 36.7451 124.559 37.217 124.371 37.6242C124.257 37.8766 124.055 38.0977 123.778 38.2749C123.501 38.4521 123.154 38.5819 122.758 38.6569C122.361 38.7318 121.922 38.7504 121.466 38.7115C121.009 38.6727 120.545 38.5772 120.1 38.4305C119.393 38.1953 118.763 37.8407 118.299 37.4168C117.835 36.993 117.561 36.5212 117.514 36.0681H100.486C100.439 36.5212 100.165 36.993 99.7009 37.4168C99.237 37.8407 98.6071 38.1953 97.9 38.4305C97.4546 38.5772 96.9905 38.6727 96.5345 38.7115C96.0784 38.7504 95.6393 38.7318 95.2425 38.6569C94.8456 38.5819 94.4987 38.4521 94.2217 38.2749C93.9448 38.0977 93.7432 37.8766 93.6286 37.6242C93.4411 37.217 93.4882 36.7451 93.7631 36.2769C94.0381 35.8088 94.5264 35.3689 95.1571 35.0212C94.4287 34.6824 93.8454 34.2208 93.5067 33.7151C93.168 33.2094 93.095 32.6911 93.3 32.2485C93.4577 31.9035 93.7772 31.6189 94.2248 31.4247C94.6725 31.2304 95.2315 31.1338 95.8429 31.1451Z" fill="#5C5B4A"/>
</g>
<path d="M181.682 27.5378C183.132 27.5378 184.374 27.0398 185.407 26.0439C186.44 25.0479 186.956 23.8521 186.955 22.4564C186.955 21.059 186.438 19.8623 185.404 18.8664C184.371 17.8704 183.13 17.3733 181.682 17.375C180.232 17.375 178.99 17.873 177.957 18.8689C176.923 19.8649 176.407 21.0607 176.409 22.4564C176.409 23.8538 176.926 25.0505 177.959 26.0464C178.993 27.0424 180.234 27.5395 181.682 27.5378ZM195.325 72C196.292 72 197.061 71.6714 197.632 71.0142C198.203 70.357 198.379 69.5846 198.159 68.6971L191.436 36.1762L196.182 37.9547V44.0523C196.182 44.7722 196.435 45.3752 196.941 45.8613C197.447 46.3474 198.073 46.5913 198.818 46.593C199.565 46.593 200.192 46.3491 200.698 45.8613C201.204 45.3735 201.456 44.7705 201.455 44.0523V38.0182C201.455 37.0019 201.169 36.0703 200.598 35.2234C200.027 34.3765 199.236 33.7413 198.225 33.3179L188.141 29.1892C186.867 28.6811 185.57 28.6278 184.252 29.0292C182.934 29.4306 181.902 30.2038 181.155 31.3488L178.518 35.414C177.552 36.896 176.299 38.1664 174.761 39.225C173.223 40.2836 171.466 40.9823 169.489 41.3211C168.83 41.4058 168.28 41.6912 167.841 42.1773C167.402 42.6634 167.182 43.2037 167.182 43.7983C167.182 44.6028 167.479 45.2693 168.073 45.7978C168.667 46.3262 169.337 46.5278 170.082 46.4025C172.411 46.0637 174.574 45.354 176.573 44.2734C178.571 43.1927 180.274 41.8487 181.682 40.2413L183.264 47.8634L179.375 51.4203C178.848 51.9285 178.441 52.49 178.154 53.1048C177.868 53.7197 177.726 54.3862 177.727 55.1044V69.4593C177.727 70.1792 177.98 70.783 178.487 71.2708C178.993 71.7586 179.618 72.0017 180.364 72C181.111 72 181.737 71.7561 182.243 71.2683C182.75 70.7805 183.002 70.1775 183 69.4593V56.7558L188.536 51.6744L192.82 70.0945C192.952 70.6026 193.249 71.0472 193.712 71.4283C194.174 71.8094 194.712 72 195.325 72Z" fill="#5C5B4A"/>
<defs>
<clipPath id="clip0_105_214">
<rect width="66" height="65" fill="white" transform="translate(76 7)"/>
</clipPath>
</defs>
</svg>
