<svg width="32" height="32" viewBox="0 0 32 32" fill="none" xmlns="http://www.w3.org/2000/svg">
<path d="M16.0198 1C5.86299 1 5.94472 10.3915 5.94472 10.5402C5.94472 16.6229 6.41034 25.2144 8.84491 28.5951C9.81081 29.935 11.6757 30.0093 11.6757 30.0093L15.8787 30.0043L20.0816 30.0093C20.0816 30.0093 21.949 29.935 22.9124 28.5951C25.347 25.2144 25.8126 16.6229 25.8126 10.5402C25.8101 10.3915 26.1767 1 16.0198 1Z" fill="#AB872F"/>
<path d="M16.0198 1C5.86299 1 5.94472 10.3915 5.94472 10.5402C5.94472 16.6229 6.41034 25.2144 8.84491 28.5951C9.81081 29.935 11.6757 30.0093 11.6757 30.0093L15.8787 30.0043L20.0816 30.0093C20.0816 30.0093 21.949 29.935 22.9124 28.5951C25.347 25.2144 25.8126 16.6229 25.8126 10.5402C25.8101 10.3915 26.1767 1 16.0198 1Z" fill="url(#paint0_radial_163_175)"/>
<path d="M15.9134 24.0654C15.901 24.0654 15.8911 24.0654 15.8787 24.0654C9.52604 24.0729 3 25.8239 3 30.2546V31.0001H3.3715H3.743H28.0144H28.3859H28.7574V30.2546C28.7574 26.0765 22.2933 24.0654 15.9134 24.0654Z" fill="url(#paint1_linear_163_175)"/>
<path d="M18.764 22.7773H12.9934L11.2672 24.6423L13.298 27.7901C13.5209 28.1344 14.0138 28.1616 14.2714 27.8421L15.8762 25.8583L17.4811 27.8421C17.7387 28.1616 18.234 28.1344 18.4545 27.7901L20.4853 24.6423L18.764 22.7773Z" fill="url(#paint2_linear_163_175)"/>
<path d="M15.8787 28.2756C16.1099 28.2756 16.2973 28.0882 16.2973 27.857C16.2973 27.6259 16.1099 27.4385 15.8787 27.4385C15.6475 27.4385 15.4601 27.6259 15.4601 27.857C15.4601 28.0882 15.6475 28.2756 15.8787 28.2756Z" fill="#64B5F6"/>
<path d="M15.8787 30.257C16.1099 30.257 16.2973 30.0696 16.2973 29.8385C16.2973 29.6073 16.1099 29.4199 15.8787 29.4199C15.6475 29.4199 15.4601 29.6073 15.4601 29.8385C15.4601 30.0696 15.6475 30.257 15.8787 30.257Z" fill="#64B5F6"/>
<path d="M15.8787 21.1753H13.6299V23.647C13.6299 24.764 14.5463 25.6705 15.6756 25.6705H16.0843C17.2136 25.6705 18.13 24.764 18.13 23.647V21.1753H15.8787Z" fill="#C48E6A"/>
<path d="M15.8787 4.26172C11.6188 4.26172 7.67346 7.42939 7.67346 14.1461C7.67346 19.5403 11.0145 22.7328 13.9221 23.7631C14.6156 24.0082 15.2843 24.1321 15.8787 24.1321C16.4681 24.1321 17.1344 24.0107 17.8229 23.768C20.7354 22.7427 24.0839 19.5502 24.0839 14.1486C24.0839 7.42939 20.1386 4.26172 15.8787 4.26172Z" fill="#E0BB95"/>
<path d="M16.8223 17.1453C16.7951 17.1354 16.7703 17.128 16.7431 17.1255H15.0119C14.9846 17.128 14.9599 17.1354 14.9326 17.1453C14.7766 17.2097 14.6899 17.3707 14.7642 17.544C14.8385 17.7174 15.1828 18.2028 15.8762 18.2028C16.5697 18.2028 16.9164 17.7174 16.9883 17.544C17.065 17.3707 16.9808 17.2072 16.8223 17.1453Z" fill="#C48E6A"/>
<path d="M11.8541 16.1176C12.5202 16.1176 13.0602 15.5587 13.0602 14.8693C13.0602 14.18 12.5202 13.6211 11.8541 13.6211C11.188 13.6211 10.6479 14.18 10.6479 14.8693C10.6479 15.5587 11.188 16.1176 11.8541 16.1176Z" fill="#5D4037"/>
<path d="M19.9033 16.1176C20.5695 16.1176 21.1095 15.5587 21.1095 14.8693C21.1095 14.18 20.5695 13.6211 19.9033 13.6211C19.2372 13.6211 18.6972 14.18 18.6972 14.8693C18.6972 15.5587 19.2372 16.1176 19.9033 16.1176Z" fill="#5D4037"/>
<path d="M13.6473 12.6283C13.4169 12.3237 12.8869 11.8828 11.8566 11.8828C10.8263 11.8828 10.2938 12.3261 10.066 12.6283C9.96445 12.762 9.98921 12.9181 10.061 13.0122C10.1254 13.0989 10.3186 13.1806 10.5316 13.1088C10.7446 13.0369 11.1607 12.8215 11.8566 12.8165C12.5526 12.8215 12.9687 13.0369 13.1816 13.1088C13.3946 13.1806 13.5878 13.1013 13.6522 13.0122C13.7216 12.9181 13.7463 12.762 13.6473 12.6283Z" fill="#AB872F"/>
<path d="M21.6939 12.6283C21.4636 12.3237 20.9336 11.8828 19.9033 11.8828C18.873 11.8828 18.3405 12.3261 18.1126 12.6283C18.0111 12.762 18.0358 12.9181 18.1077 13.0122C18.1721 13.0989 18.3652 13.1806 18.5782 13.1088C18.7912 13.0369 19.2073 12.8215 19.9033 12.8165C20.5992 12.8215 21.0153 13.0369 21.2283 13.1088C21.4413 13.1806 21.6345 13.1013 21.6988 13.0122C21.7707 12.9181 21.7954 12.762 21.6939 12.6283Z" fill="#AB872F"/>
<path d="M17.9393 19.1461C17.1592 19.6093 14.6032 19.6093 13.8256 19.1461C13.3773 18.8811 12.9216 19.2873 13.1073 19.6935C13.2906 20.0922 14.685 21.021 15.8886 21.021C17.0923 21.021 18.4693 20.0922 18.6526 19.6935C18.8383 19.2873 18.3851 18.8787 17.9393 19.1461Z" fill="#6D4C41"/>
<path d="M16.0198 1C5.86299 1 5.94472 10.3915 5.94472 10.5402C5.94472 12.462 5.99178 14.6341 6.13047 16.8111L7.7948 16.8061C7.77994 16.0829 8.28766 11.6125 9.79595 11.2732C15.3338 10.0275 18.4668 7.09014 18.4668 7.09014C19.2816 8.86839 21.8301 10.6045 22.744 11.2658C23.4944 11.8082 23.8015 15.86 23.7867 16.8086H25.6194C25.6194 16.7962 25.6244 16.7838 25.6244 16.769C25.7631 14.6019 25.8077 12.4447 25.8077 10.5352C25.8101 10.3915 26.1767 1 16.0198 1Z" fill="#AB872F"/>
<path d="M16.0198 1C5.86299 1 5.94472 10.3915 5.94472 10.5402C5.94472 12.462 5.99178 14.6341 6.13047 16.8111L7.7948 16.8061C7.77994 16.0829 8.28766 11.6125 9.79595 11.2732C15.3338 10.0275 18.4668 7.09014 18.4668 7.09014C19.2816 8.86839 21.8301 10.6045 22.744 11.2658C23.4944 11.8082 23.8015 15.86 23.7867 16.8086H25.6194C25.6194 16.7962 25.6244 16.7838 25.6244 16.769C25.7631 14.6019 25.8077 12.4447 25.8077 10.5352C25.8101 10.3915 26.1767 1 16.0198 1Z" fill="url(#paint3_radial_163_175)"/>
<defs>
<radialGradient id="paint0_radial_163_175" cx="0" cy="0" r="1" gradientUnits="userSpaceOnUse" gradientTransform="translate(15.8787 14.762) scale(11.772 14.0099)">
<stop offset="0.7936" stop-color="#BFA055" stop-opacity="0"/>
<stop offset="1" stop-color="#BFA055"/>
</radialGradient>
<linearGradient id="paint1_linear_163_175" x1="15.8787" y1="23.968" x2="15.8787" y2="30.6033" gradientUnits="userSpaceOnUse">
<stop offset="0.0032" stop-color="#E3F2FD"/>
<stop offset="0.2252" stop-color="#D6ECFC"/>
<stop offset="0.6348" stop-color="#B4DBFB"/>
<stop offset="1" stop-color="#90CAF9"/>
</linearGradient>
<linearGradient id="paint2_linear_163_175" x1="15.8787" y1="28.0566" x2="15.8787" y2="22.9402" gradientUnits="userSpaceOnUse">
<stop offset="0.5" stop-color="#F5F5F5"/>
<stop offset="1" stop-color="#DADADA"/>
</linearGradient>
<radialGradient id="paint3_radial_163_175" cx="0" cy="0" r="1" gradientUnits="userSpaceOnUse" gradientTransform="translate(15.9612 15.76) scale(12.3309 14.9635)">
<stop offset="0.7945" stop-color="#BFA055" stop-opacity="0"/>
<stop offset="1" stop-color="#BFA055"/>
</radialGradient>
</defs>
</svg>
