<svg width="218" height="64" viewBox="0 0 218 64" fill="none" xmlns="http://www.w3.org/2000/svg">
<path d="M40.9 31L34.1 37.8889L39.2 43.0556L40.9 41.3333L42.6 43.0556L46 39.6111L40.9 34.4444V31ZM13.7 37.8889L12 39.6111L17.1 44.7778V49.9444L15.4 51.6667V62H18.8V56.8333L22.2 51.6667H34.1V62H37.5V44.7778L32.4 39.6111L30.7 41.3333H17.1L13.7 37.8889Z" fill="#5C5B4A"/>
<path d="M101.667 64H87.4356C86.4275 64 85.5819 63.643 84.8987 62.9292C84.2156 62.2153 83.8752 61.3328 83.8776 60.2819V34.2549H77.829C76.9988 34.2549 76.4355 33.8521 76.139 33.0465C75.8425 32.2409 76.0204 31.5592 76.6727 31.0015L106.382 3.02249C107.034 2.34083 107.835 2 108.783 2C109.732 2 110.533 2.34083 111.185 3.02249L123.015 14.1769V8.22788C123.015 7.17441 123.357 6.29073 124.04 5.57685C124.723 4.86297 125.568 4.50727 126.573 4.50974H130.131C131.139 4.50974 131.985 4.86669 132.668 5.58057C133.351 6.29445 133.692 7.17689 133.689 8.22788V24.2159L140.894 31.0015C141.546 31.5592 141.724 32.2409 141.428 33.0465C141.131 33.8521 140.568 34.2549 139.738 34.2549H133.689V60.2819C133.689 61.3353 133.348 62.219 132.665 62.9329C131.981 63.6468 131.137 64.0025 130.131 64H115.899V45.4093C115.899 44.3558 115.558 43.4721 114.875 42.7583C114.192 42.0444 113.347 41.6887 112.341 41.6912H105.225C104.217 41.6912 103.372 42.0481 102.689 42.762C102.005 43.4759 101.665 44.3583 101.667 45.4093V64ZM101.667 26.9115H115.899C115.899 24.9285 115.188 23.3012 113.765 22.0296C112.341 20.758 110.681 20.1235 108.783 20.1259C106.886 20.1259 105.225 20.7617 103.802 22.0333C102.379 23.3049 101.667 24.931 101.667 26.9115Z" fill="#5C5B4A"/>
<path d="M199.445 30C198.343 30 197.4 29.608 196.615 28.824C195.831 28.04 195.439 27.0987 195.44 26C195.44 24.9 195.833 23.958 196.617 23.174C197.402 22.39 198.345 21.9987 199.445 22C200.546 22 201.489 22.392 202.274 23.176C203.059 23.96 203.45 24.9013 203.449 26C203.449 27.1 203.057 28.042 202.272 28.826C201.487 29.61 200.544 30.0013 199.445 30ZM197.442 62V46C197.442 44.6667 197.1 43.4667 196.415 42.4C195.73 41.3333 194.855 40.5 193.788 39.9L195.54 34.75C195.807 33.9167 196.3 33.25 197.018 32.75C197.736 32.25 198.545 32 199.445 32C200.346 32 201.155 32.25 201.873 32.75C202.591 33.25 203.083 33.9167 203.349 34.75L208.455 50H203.449V62H197.442ZM188.432 41C187.598 41 186.889 40.708 186.304 40.124C185.719 39.54 185.428 38.832 185.429 38C185.429 37.1667 185.721 36.458 186.306 35.874C186.891 35.29 187.599 34.9987 188.432 35C189.267 35 189.976 35.292 190.561 35.876C191.145 36.46 191.437 37.168 191.436 38C191.436 38.8333 191.143 39.542 190.559 40.126C189.974 40.71 189.265 41.0013 188.432 41ZM174.417 30C173.316 30 172.373 29.608 171.588 28.824C170.803 28.04 170.411 27.0987 170.412 26C170.412 24.9 170.805 23.958 171.59 23.174C172.375 22.39 173.317 21.9987 174.417 22C175.518 22 176.461 22.392 177.246 23.176C178.031 23.96 178.423 24.9013 178.421 26C178.421 27.1 178.029 28.042 177.244 28.826C176.459 29.61 175.517 30.0013 174.417 30ZM170.412 62V48H167.409V36C167.409 34.9 167.802 33.958 168.586 33.174C169.371 32.39 170.314 31.9987 171.414 32H177.42C178.521 32 179.464 32.392 180.249 33.176C181.034 33.96 181.426 34.9013 181.425 36V48H178.421V62H170.412ZM185.429 62V54H183.427V46C183.427 45.1667 183.719 44.458 184.304 43.874C184.888 43.29 185.597 42.9987 186.43 43H190.435C191.269 43 191.978 43.292 192.563 43.876C193.148 44.46 193.439 45.168 193.438 46V54H191.436V62H185.429Z" fill="#5C5B4A"/>
</svg>
