<svg width="108" height="74" viewBox="0 0 108 74" fill="none" xmlns="http://www.w3.org/2000/svg">
<g clip-path="url(#clip0_93_808)">
<path d="M11.9802 59.8113C14.5794 61.7639 18.2694 61.2398 20.222 58.6406C22.1746 56.0415 21.6505 52.3515 19.0513 50.3988C16.4521 48.4462 12.7622 48.9703 10.8095 51.5695C8.8569 54.1687 9.38103 57.8587 11.9802 59.8113Z" fill="url(#paint0_linear_93_808)"/>
<path d="M20.1207 44.1898C19.2187 43.5122 19.0765 42.2151 19.7982 41.3523C21.447 39.3945 23.0443 37.9625 24.5932 37.0523C26.5395 35.907 29.292 35.1096 32.8438 34.6612C36.3955 34.2127 38.7642 33.7712 39.9467 33.3405C41.7533 32.6915 43.2159 31.6184 44.3414 30.1202C45.8264 28.1436 46.4705 26.2654 46.2737 24.4856C46.077 22.7058 45.0265 21.1069 43.1323 19.6838C41.3204 18.3226 39.4784 17.7364 37.6025 17.9223C36.2005 18.0654 34.9541 18.6383 33.8682 19.6509C33.1908 20.2831 32.142 20.299 31.4008 19.7421L26.824 16.3038C25.8906 15.6026 25.7592 14.2339 26.5683 13.3938C29.1309 10.7421 32.1449 9.29448 35.6131 9.04708C39.7505 8.75018 43.8688 10.1446 47.9789 13.2323C52.2146 16.4143 54.7134 19.9726 55.4647 23.9053C56.2199 27.8409 55.1474 31.7349 52.2453 35.5979C49.6614 39.0374 45.5147 41.2169 39.8101 42.1463L33.1441 43.0406C33.0755 43.0504 33.0068 43.0601 32.9391 43.0767C30.8128 43.5469 28.7711 44.8599 26.8141 47.0157C26.1386 47.7598 25.0005 47.8619 24.1965 47.2579L20.1178 44.1937L20.1207 44.1898Z" fill="url(#paint1_linear_93_808)"/>
<g opacity="0.2">
<path d="M18.1645 51.5793C20.1097 53.0407 20.5039 55.8154 19.0425 57.7607C17.5811 59.7059 14.8064 60.1 12.8611 58.6387C10.9159 57.1773 10.5218 54.4026 11.9831 52.4573C13.4474 50.5081 16.2192 50.1179 18.1645 51.5793ZM19.0484 50.4027C16.4482 48.4493 12.76 48.9732 10.8066 51.5734C8.85318 54.1736 9.37706 57.8618 11.9773 59.8152C14.5775 61.7686 18.2657 61.2447 20.2191 58.6445C22.1724 56.0443 21.6446 52.3532 19.0484 50.4027Z" fill="#424242"/>
<path d="M47.0952 14.4089C51.0092 17.3493 53.3405 20.6407 54.0225 24.1838C54.7005 27.724 53.7393 31.1677 51.0729 34.717C48.7394 37.8231 44.8803 39.8322 39.5966 40.6913L32.9512 41.5826C32.8413 41.5983 32.7354 41.6168 32.6265 41.6393C30.2048 42.1759 27.8815 43.6516 25.731 46.024C25.5671 46.2014 25.2835 46.2277 25.0835 46.0774L21.0048 43.0133C20.8597 42.9043 20.8245 42.7551 20.8098 42.6766C20.802 42.5972 20.8012 42.4431 20.921 42.3C22.4529 40.4814 23.9373 39.1424 25.334 38.3204C27.0997 37.2849 29.6883 36.5423 33.0233 36.1212C36.7193 35.6522 39.1488 35.195 40.4412 34.7242C42.5177 33.9773 44.2218 32.7298 45.5152 31.0081C47.227 28.7295 47.9725 26.4795 47.7368 24.3269C47.4923 22.137 46.24 20.1778 44.0163 18.5073C41.9064 16.9222 39.6996 16.2337 37.4577 16.4575C35.7338 16.6288 34.192 17.3418 32.8676 18.5739C32.7252 18.7062 32.4692 18.7041 32.2848 18.5656L27.708 15.1273C27.5512 15.0094 27.514 14.8465 27.5092 14.7631C27.4994 14.6699 27.5152 14.5345 27.6281 14.4169C29.9532 12.0162 32.5991 10.74 35.7201 10.5139C39.4689 10.2441 43.2949 11.554 47.0952 14.4089ZM47.9791 13.2324C43.869 10.1446 39.7507 8.75021 35.6202 9.04613C32.152 9.29353 29.135 10.745 26.5753 13.3928C25.7623 14.23 25.8976 15.6016 26.831 16.3028L31.4078 19.7412C32.1491 20.298 33.1978 20.2822 33.8752 19.6499C34.9611 18.6374 36.2036 18.0615 37.6095 17.9214C39.4815 17.7325 41.3235 18.3187 43.1393 19.6828C45.0375 21.1089 46.081 22.7088 46.2807 24.4847C46.4775 26.2645 45.8334 28.1427 44.3485 30.1193C43.2259 31.6135 41.7633 32.6866 39.9537 33.3395C38.7712 33.7702 36.4026 34.2118 32.8508 34.6602C29.299 35.1087 26.5465 35.906 24.6002 37.0513C23.0514 37.9615 21.454 39.3936 19.8053 41.3514C19.0796 42.2112 19.2257 43.5112 20.1277 44.1889L24.2065 47.253C25.0105 47.857 26.1486 47.7549 26.8241 47.0108C28.7781 44.859 30.8198 43.546 32.9491 43.0719C33.0168 43.0553 33.0854 43.0455 33.1541 43.0357L39.8201 42.1414C45.5286 41.215 49.6714 39.0325 52.2553 35.593C55.1574 31.73 56.2299 27.8361 55.4747 23.9004C54.7136 19.9727 52.2147 16.4144 47.9791 13.2324Z" fill="#424242"/>
</g>
<path d="M53.9802 63.8113C56.5794 65.7639 60.2694 65.2398 62.222 62.6406C64.1746 60.0415 63.6505 56.3515 61.0513 54.3988C58.4521 52.4462 54.7622 52.9703 52.8095 55.5695C50.8569 58.1687 51.381 61.8587 53.9802 63.8113Z" fill="url(#paint2_linear_93_808)"/>
<path d="M62.1207 48.1898C61.2187 47.5122 61.0765 46.2151 61.7982 45.3523C63.447 43.3945 65.0443 41.9625 66.5932 41.0523C68.5395 39.907 71.292 39.1096 74.8438 38.6612C78.3955 38.2127 80.7642 37.7712 81.9467 37.3405C83.7533 36.6915 85.2159 35.6184 86.3414 34.1202C87.8264 32.1436 88.4705 30.2654 88.2737 28.4856C88.077 26.7058 87.0265 25.1069 85.1323 23.6838C83.3204 22.3226 81.4784 21.7364 79.6025 21.9223C78.2005 22.0654 76.9541 22.6383 75.8682 23.6509C75.1908 24.2831 74.142 24.299 73.4008 23.7421L68.824 20.3038C67.8906 19.6026 67.7592 18.2339 68.5683 17.3938C71.1309 14.7421 74.1449 13.2945 77.6131 13.0471C81.7505 12.7502 85.8688 14.1446 89.9789 17.2323C94.2146 20.4143 96.7134 23.9726 97.4647 27.9053C98.2199 31.8409 97.1474 35.7349 94.2453 39.5979C91.6614 43.0374 87.5147 45.2169 81.8101 46.1463L75.1441 47.0406C75.0755 47.0504 75.0068 47.0601 74.9391 47.0767C72.8128 47.5469 70.7711 48.8599 68.8141 51.0157C68.1386 51.7598 67.0005 51.8619 66.1965 51.2579L62.1178 48.1937L62.1207 48.1898Z" fill="url(#paint3_linear_93_808)"/>
<g opacity="0.2">
<path d="M60.1645 55.5793C62.1097 57.0407 62.5039 59.8154 61.0425 61.7607C59.5811 63.7059 56.8064 64.1 54.8611 62.6387C52.9159 61.1773 52.5218 58.4026 53.9831 56.4573C55.4474 54.5081 58.2192 54.1179 60.1645 55.5793ZM61.0484 54.4027C58.4482 52.4493 54.76 52.9732 52.8066 55.5734C50.8532 58.1736 51.3771 61.8618 53.9773 63.8152C56.5775 65.7686 60.2657 65.2447 62.2191 62.6445C64.1724 60.0443 63.6446 56.3532 61.0484 54.4027Z" fill="#424242"/>
<path d="M89.0952 18.4089C93.0092 21.3493 95.3405 24.6407 96.0225 28.1838C96.7005 31.724 95.7393 35.1677 93.0729 38.717C90.7394 41.8231 86.8803 43.8322 81.5966 44.6913L74.9512 45.5826C74.8413 45.5983 74.7354 45.6168 74.6265 45.6393C72.2048 46.1759 69.8815 47.6516 67.731 50.024C67.5671 50.2014 67.2835 50.2277 67.0835 50.0774L63.0048 47.0133C62.8597 46.9043 62.8245 46.7551 62.8098 46.6766C62.802 46.5972 62.8012 46.4431 62.921 46.3C64.4529 44.4814 65.9373 43.1424 67.334 42.3204C69.0997 41.2849 71.6883 40.5423 75.0233 40.1212C78.7193 39.6522 81.1488 39.195 82.4412 38.7242C84.5177 37.9773 86.2218 36.7298 87.5152 35.0081C89.227 32.7295 89.9725 30.4795 89.7368 28.3269C89.4923 26.137 88.24 24.1778 86.0163 22.5073C83.9064 20.9222 81.6996 20.2337 79.4577 20.4575C77.7338 20.6288 76.192 21.3418 74.8676 22.5739C74.7252 22.7062 74.4692 22.7041 74.2848 22.5656L69.708 19.1273C69.5512 19.0094 69.514 18.8465 69.5092 18.7631C69.4994 18.6699 69.5152 18.5345 69.6281 18.4169C71.9532 16.0162 74.5991 14.74 77.7201 14.5139C81.4689 14.2441 85.2949 15.554 89.0952 18.4089ZM89.9791 17.2324C85.869 14.1446 81.7507 12.7502 77.6202 13.0461C74.152 13.2935 71.135 14.745 68.5753 17.3928C67.7623 18.23 67.8976 19.6016 68.831 20.3028L73.4078 23.7412C74.1491 24.298 75.1978 24.2822 75.8752 23.6499C76.9611 22.6374 78.2036 22.0615 79.6095 21.9214C81.4815 21.7325 83.3235 22.3187 85.1393 23.6828C87.0375 25.1089 88.081 26.7088 88.2807 28.4847C88.4775 30.2645 87.8334 32.1427 86.3485 34.1193C85.2259 35.6135 83.7633 36.6866 81.9537 37.3395C80.7712 37.7702 78.4026 38.2118 74.8508 38.6602C71.299 39.1087 68.5465 39.906 66.6002 41.0513C65.0514 41.9615 63.454 43.3936 61.8053 45.3514C61.0796 46.2112 61.2257 47.5112 62.1277 48.1889L66.2065 51.253C67.0105 51.857 68.1486 51.7549 68.8241 51.0108C70.7781 48.859 72.8198 47.546 74.9491 47.0719C75.0168 47.0553 75.0854 47.0455 75.1541 47.0357L81.8201 46.1414C87.5286 45.215 91.6714 43.0325 94.2553 39.593C97.1574 35.73 98.2299 31.8361 97.4747 27.9004C96.7136 23.9727 94.2147 20.4144 89.9791 17.2324Z" fill="#424242"/>
</g>
</g>
<defs>
<linearGradient id="paint0_linear_93_808" x1="47.4202" y1="12.6332" x2="12.3793" y2="59.2768" gradientUnits="userSpaceOnUse">
<stop stop-color="#FF5252"/>
<stop offset="0.2061" stop-color="#FD4D4D"/>
<stop offset="0.4365" stop-color="#F64040"/>
<stop offset="0.6787" stop-color="#EA2A2A"/>
<stop offset="0.9274" stop-color="#DA0B0B"/>
<stop offset="1" stop-color="#D50000"/>
</linearGradient>
<linearGradient id="paint1_linear_93_808" x1="47.9905" y1="13.0618" x2="12.9496" y2="59.7054" gradientUnits="userSpaceOnUse">
<stop stop-color="#FF5252"/>
<stop offset="0.2061" stop-color="#FD4D4D"/>
<stop offset="0.4365" stop-color="#F64040"/>
<stop offset="0.6787" stop-color="#EA2A2A"/>
<stop offset="0.9274" stop-color="#DA0B0B"/>
<stop offset="1" stop-color="#D50000"/>
</linearGradient>
<linearGradient id="paint2_linear_93_808" x1="89.4202" y1="16.6332" x2="54.3793" y2="63.2768" gradientUnits="userSpaceOnUse">
<stop stop-color="#FF5252"/>
<stop offset="0.2061" stop-color="#FD4D4D"/>
<stop offset="0.4365" stop-color="#F64040"/>
<stop offset="0.6787" stop-color="#EA2A2A"/>
<stop offset="0.9274" stop-color="#DA0B0B"/>
<stop offset="1" stop-color="#D50000"/>
</linearGradient>
<linearGradient id="paint3_linear_93_808" x1="89.9905" y1="17.0618" x2="54.9496" y2="63.7054" gradientUnits="userSpaceOnUse">
<stop stop-color="#FF5252"/>
<stop offset="0.2061" stop-color="#FD4D4D"/>
<stop offset="0.4365" stop-color="#F64040"/>
<stop offset="0.6787" stop-color="#EA2A2A"/>
<stop offset="0.9274" stop-color="#DA0B0B"/>
<stop offset="1" stop-color="#D50000"/>
</linearGradient>
<clipPath id="clip0_93_808">
<rect width="108" height="74" fill="white"/>
</clipPath>
</defs>
</svg>
