<svg width="47" height="50" viewBox="0 0 47 50" fill="none" xmlns="http://www.w3.org/2000/svg">
<path d="M39.506 31.8015C38.9847 30.8549 39.6477 29.8916 40.782 28.6989C42.5794 26.8057 44.5352 22.4145 42.717 17.9566C42.7295 17.9316 42.3583 17.181 42.3708 17.1559L41.6244 17.1184C41.3867 17.085 33.1757 17.0684 24.9563 17.0684C16.7369 17.0684 8.52589 17.085 8.28819 17.1184C8.28819 17.1184 7.1831 17.9316 7.19144 17.9566C5.37743 22.4145 7.32906 26.8015 9.12639 28.6989C10.2565 29.8916 10.9196 30.8549 10.4025 31.8015C9.89787 32.7231 8.39662 32.8566 8.39662 32.8566C8.39662 32.8566 8.74274 33.799 9.57677 34.3078C10.3482 34.779 11.299 34.8874 11.9538 34.9041C11.9538 34.9041 14.5184 38.4529 21.224 38.4529H24.9563H28.6886C35.3942 38.4529 37.9588 34.9041 37.9588 34.9041C38.6135 34.8874 39.5643 34.779 40.3358 34.3078C41.1698 33.799 41.516 32.8566 41.516 32.8566C41.516 32.8566 40.0105 32.7231 39.506 31.8015Z" fill="#543930"/>
<path d="M24.9479 38.4528V34.5162L36.8621 33.5737L37.9463 34.9082C37.9463 34.9082 35.3817 38.457 28.6761 38.457L24.9479 38.4528Z" fill="url(#paint0_radial_110_1059)"/>
<path d="M37.9213 33.1863C36.1365 30.4757 40.0939 29.4624 40.0939 29.4624L40.0981 29.4666C39.41 30.3215 39.0973 31.0679 39.5018 31.806C40.0064 32.7276 41.5076 32.8611 41.5076 32.8611C41.5076 32.8611 39.4642 34.6793 37.9213 33.1863Z" fill="url(#paint1_radial_110_1059)"/>
<path d="M42.7253 17.957C44.4976 22.2731 42.6336 26.7185 40.8863 28.5951C40.6486 28.8536 39.6311 29.8503 39.3975 30.6468C39.3975 30.6468 35.4192 25.0963 34.2307 21.8353C33.993 21.1764 33.772 20.5008 33.7428 19.8002C33.722 19.2748 33.8012 18.6493 34.1056 18.2031C34.4768 17.6568 42.5126 17.4941 42.5126 17.4941C42.5126 17.5025 42.7253 17.957 42.7253 17.957Z" fill="url(#paint2_radial_110_1059)"/>
<path d="M7.19143 17.957C5.41912 22.2731 7.28318 26.7185 9.03047 28.5951C9.27234 28.8536 10.2857 29.8503 10.5192 30.6468C10.5192 30.6468 14.4975 25.0963 15.686 21.8353C15.9279 21.1764 16.1448 20.5008 16.1739 19.8002C16.1948 19.2748 16.1156 18.6493 15.8111 18.2031C15.44 17.6568 15.0063 17.8027 14.3766 17.8027C13.1756 17.8027 7.91704 17.4941 7.50837 17.4941C7.50837 17.5025 7.19143 17.957 7.19143 17.957Z" fill="url(#paint3_radial_110_1059)"/>
<path d="M24.9646 38.4526V34.516L13.0505 33.5693L11.9662 34.9038C11.9662 34.9038 14.5309 38.4526 21.2365 38.4526H24.9646Z" fill="url(#paint4_radial_110_1059)"/>
<path d="M11.9954 33.1863C13.7803 30.4757 9.8228 29.4624 9.8228 29.4624L9.81863 29.4666C10.5067 30.3215 10.8195 31.0679 10.415 31.806C9.91037 32.7276 8.40912 32.8611 8.40912 32.8611C8.40912 32.8611 10.4525 34.6793 11.9954 33.1863Z" fill="url(#paint5_radial_110_1059)"/>
<path d="M46.2908 49.9999C46.1824 46.9599 43.7178 42.9232 40.5276 41.2468C36.3366 39.0408 30.9655 38.3235 24.948 38.3235C21.2365 38.3235 18.2841 39.4161 14.7936 38.3193C12.9421 37.7355 11.6619 36.7805 11.053 34.9081L10.5026 33.2192L0.439972 35.7213C0.439972 35.7213 2.53339 44.8498 3.59678 49.9999H46.2908Z" fill="url(#paint6_linear_110_1059)"/>
<path d="M24.9479 35.855H21.1614V40.0168C21.1614 41.8975 22.7044 43.4238 24.606 43.4238H25.2941C27.1957 43.4238 28.7386 41.8975 28.7386 40.0168V35.855H24.9479Z" fill="#E59600"/>
<path d="M36.345 19.3203H13.5509C11.0947 19.3203 9.08469 21.4638 9.08469 24.0785C9.08469 26.6931 11.0947 28.8366 13.5509 28.8366H36.3408C38.797 28.8366 40.807 26.6931 40.807 24.0785C40.807 21.4638 38.8012 19.3203 36.345 19.3203Z" fill="#E59600"/>
<path d="M24.948 2.90625C17.6919 2.90625 10.9696 10.6669 10.9696 21.8387C10.9696 32.948 17.8962 38.4401 24.948 38.4401C31.9997 38.4401 38.9263 32.9439 38.9263 21.8346C38.9263 10.6669 32.204 2.90625 24.948 2.90625Z" fill="#FFCA28"/>
<path d="M18.0922 24.942C19.2276 24.942 20.1481 23.9898 20.1481 22.8153C20.1481 21.6407 19.2276 20.6885 18.0922 20.6885C16.9568 20.6885 16.0363 21.6407 16.0363 22.8153C16.0363 23.9898 16.9568 24.942 18.0922 24.942Z" fill="#404040"/>
<path d="M31.8037 24.942C32.9391 24.942 33.8596 23.9898 33.8596 22.8153C33.8596 21.6407 32.9391 20.6885 31.8037 20.6885C30.6683 20.6885 29.7478 21.6407 29.7478 22.8153C29.7478 23.9898 30.6683 24.942 31.8037 24.942Z" fill="#404040"/>
<path d="M21.1906 19.0658C20.8028 18.5528 19.9104 17.8105 18.1756 17.8105C16.4408 17.8105 15.5442 18.557 15.1606 19.0658C14.9896 19.291 15.0313 19.5537 15.1523 19.7121C15.2607 19.8581 15.5859 19.9957 15.9446 19.8748C16.3032 19.7538 17.0038 19.391 18.1756 19.3827C19.3474 19.391 20.048 19.7538 20.4066 19.8748C20.7653 19.9957 21.0905 19.8623 21.199 19.7121C21.3157 19.5537 21.3574 19.291 21.1906 19.0658Z" fill="#6D4C41"/>
<path d="M34.7395 19.0658C34.3516 18.5528 33.4592 17.8105 31.7244 17.8105C29.9897 17.8105 29.0931 18.557 28.7094 19.0658C28.5384 19.291 28.5801 19.5537 28.7011 19.7121C28.8095 19.8581 29.1348 19.9957 29.4934 19.8748C29.852 19.7538 30.5526 19.391 31.7244 19.3827C32.8963 19.391 33.5968 19.7538 33.9555 19.8748C34.3141 19.9957 34.6394 19.8623 34.7478 19.7121C34.8687 19.5537 34.9104 19.291 34.7395 19.0658Z" fill="#6D4C41"/>
<path d="M28.4592 30.0417C27.1331 30.8298 22.7753 30.8298 21.4492 30.0417C20.6861 29.5871 19.9062 30.2835 20.2232 30.9758C20.5359 31.6555 22.9088 33.236 24.9646 33.236C27.0205 33.236 29.3642 31.6555 29.6769 30.9758C29.9897 30.2835 29.2224 29.5871 28.4592 30.0417Z" fill="#795548"/>
<path d="M26.5576 26.672C26.5118 26.6554 26.4701 26.6428 26.4242 26.6387H23.4717C23.4259 26.6428 23.38 26.6554 23.3383 26.672C23.0714 26.7805 22.9254 27.0557 23.0505 27.3518C23.1756 27.6478 23.7636 28.4735 24.948 28.4735C26.1323 28.4735 26.7203 27.6437 26.8454 27.3518C26.9705 27.0557 26.8245 26.7805 26.5576 26.672Z" fill="#E59600"/>
<path d="M41.9663 9.01979C40.9738 7.481 38.7303 5.42512 36.6827 5.2875C36.3867 3.32336 34.3099 1.65947 32.2791 1.01727C26.7953 -0.725856 23.1715 1.22578 21.224 2.27665C20.8195 2.4935 18.2048 3.92803 16.4116 2.89801C15.2899 2.2558 15.3399 0.51268 15.3399 0.51268C15.3399 0.51268 11.7619 1.86381 12.9129 5.62946C11.691 5.6795 10.0813 6.19243 9.20144 7.90636C8.15473 9.94139 8.48835 11.647 8.76358 12.4643C7.69602 13.3526 6.34072 15.25 7.20811 17.7062C7.85865 19.5578 10.5693 20.4085 10.5693 20.4085C10.319 23.7404 10.907 25.7921 11.224 26.622C11.2782 26.768 11.4867 26.7554 11.5284 26.6053C11.9663 24.9539 13.4758 19.2033 13.3507 18.1983C13.3507 18.1983 18.0964 17.2642 22.6669 13.9489C23.5968 13.2733 24.6018 12.6979 25.6694 12.2767C31.3741 10.0248 32.4959 13.8655 32.4959 13.8655C32.4959 13.8655 36.4367 13.1107 37.5293 18.5569C37.938 20.5961 38.1882 23.8614 38.4009 26.1466C38.4175 26.3092 38.6344 26.3426 38.7011 26.1925C39.1139 25.2876 39.9355 23.486 40.1565 21.6554C40.2357 21.009 41.9914 20.1583 42.7879 17.3851C43.8554 13.682 42.6836 10.1291 41.9663 9.01979Z" fill="#543930"/>
<path d="M40.144 21.6637C40.2232 21.0173 41.9788 20.1666 42.7753 17.3935C42.8588 17.0974 42.9338 16.7971 43.0005 16.4969C43.6678 13.1316 42.6252 10.0415 41.9663 9.0198C41.0489 7.59778 39.0597 5.73373 37.154 5.35424C36.9872 5.33339 36.8245 5.31254 36.6702 5.3042C36.6702 5.3042 36.7912 6.19661 36.4159 6.90971C35.9321 7.83131 34.973 8.05233 34.973 8.05233C39.8813 13.0357 39.4559 17.2058 40.144 21.6637Z" fill="url(#paint7_radial_110_1059)"/>
<path d="M22.4417 1.6472C21.983 1.86822 21.5743 2.08507 21.224 2.27689C20.8195 2.49374 18.2048 3.92827 16.4116 2.89825C15.3066 2.26438 15.3357 0.575472 15.3399 0.51709C14.8145 1.16763 13.1839 5.83403 17.7169 6.14263C19.6727 6.27607 20.9071 4.57465 21.6452 3.13178C21.9079 2.61468 22.3291 1.85154 22.4417 1.6472Z" fill="url(#paint8_radial_110_1059)"/>
<path d="M31.7161 0.846261C34.7562 1.67195 36.2157 3.21908 36.6786 5.29164C36.812 5.90049 36.8913 11.5677 26.1615 5.12484C22.1706 2.73117 23.2966 1.22992 23.772 1.05894C25.6235 0.395885 28.3091 -0.0753424 31.7161 0.846261Z" fill="url(#paint9_radial_110_1059)"/>
<path d="M15.3232 0.517129C15.3191 0.5213 15.3107 0.5213 15.2982 0.52547C15.2982 0.52547 15.2982 0.52547 15.294 0.52547C14.902 0.688106 11.8286 2.09762 12.9087 5.62557L16.1447 6.14684C13.3216 3.24024 15.3357 0.508789 15.3357 0.508789C15.3357 0.508789 15.3316 0.517129 15.3232 0.517129Z" fill="url(#paint10_radial_110_1059)"/>
<path d="M14.9104 5.9505L12.9129 5.62939C12.8336 5.62939 12.5668 5.65441 12.4208 5.67527C11.2865 5.83373 9.9479 6.41338 9.20144 7.9063C8.40077 9.51181 8.3966 10.8921 8.5926 11.8096C8.64681 12.1182 8.76774 12.4643 8.76774 12.4643C8.76774 12.4643 9.77692 11.526 12.1414 11.4634L14.9104 5.9505Z" fill="url(#paint11_radial_110_1059)"/>
<path d="M8.67184 12.5439C7.66683 13.4197 6.30319 15.3713 7.24565 17.79C7.95457 19.6165 10.5776 20.4088 10.5776 20.4088C10.5776 20.4172 11.103 20.5715 11.3741 20.5715L12.1456 11.4639C10.882 11.4639 9.66434 11.8434 8.86784 12.3855C8.86784 12.398 8.6635 12.5273 8.67184 12.5439Z" fill="url(#paint12_radial_110_1059)"/>
<path d="M16.7494 11.3969C15.7903 11.4094 13.9721 12.8648 13.2465 13.7989C12.0622 15.3168 11.224 18.482 7.32072 17.2643C6.62431 17.0516 3.84281 16.5846 3.36325 16.3052C3.03798 16.1175 2.17475 14.5787 2.72104 11.4303C2.92538 10.2334 3.41329 7.33934 3.41329 7.33934L4.10136 2.80638C4.18894 2.04325 4.71855 1.55117 5.43998 1.73048C6.01963 1.87644 6.18227 2.39771 6.14057 3.07744L5.97793 5.80472V5.8214C5.97793 5.94234 6.06551 6.05076 6.19061 6.07578C6.32823 6.1008 6.46167 6.01323 6.49086 5.87562C6.69103 4.96235 7.38327 1.78887 7.53757 1.2259C7.72106 0.567012 8.06718 0.0415732 8.8053 0.204209C9.54341 0.362675 9.66018 1.12998 9.53507 1.73466C9.41414 2.33516 8.62598 6.51782 8.62598 6.51782C8.59679 6.66377 8.67602 6.80139 8.81364 6.83475H8.81781C8.94708 6.86394 9.08053 6.77637 9.11806 6.63875L10.8362 0.988198C11.0405 0.24591 11.6744 -0.208636 12.3541 0.095785C12.8962 0.341824 13.0172 0.967347 12.8462 1.5887L11.3908 7.35602C11.3741 7.42274 11.4075 7.49364 11.47 7.51449H11.4742C11.5326 7.53117 11.5993 7.49781 11.6201 7.43525L13.5801 2.70213C13.8137 2.1058 14.3307 1.68878 14.9062 1.83891C15.6402 2.0224 15.857 2.76885 15.5818 3.48195C15.5818 3.48195 13.7094 8.59873 13.1172 10.175C13.1089 10.2042 13.0964 10.2334 13.088 10.2584C13.0839 10.2668 13.0797 10.271 13.0797 10.2751C13.0297 10.4127 13.0964 10.5462 13.209 10.6004C13.2423 10.6171 13.2799 10.6254 13.3174 10.6254C13.3591 10.6254 13.4008 10.6129 13.4425 10.5962C13.48 10.5754 13.5176 10.5587 13.5509 10.5337L13.5885 10.5087C14.1806 10.1417 14.7436 9.33684 15.661 9.21591C16.6619 9.08246 17.3082 9.45778 17.5209 9.89147C17.7044 10.2543 17.7127 11.3802 16.7494 11.3969Z" fill="url(#paint13_linear_110_1059)"/>
<path d="M10.4108 32.9272C10.2106 32.1182 10.1356 31.2842 10.1856 30.4543L10.4483 18.2858C10.4692 17.9522 10.294 17.652 10.0188 17.5018C9.91872 17.4393 9.80612 17.3934 9.68519 17.3767L3.02545 15.8338C2.59593 15.7796 2.19559 16.0631 2.10385 16.4843C2.10385 16.4843 0.381576 29.3784 0.256472 30.4043C0.131367 31.4302 -0.185564 32.6687 0.148048 34.2325L0.448299 35.7129L11.2031 35.4252L10.4108 32.9272Z" fill="url(#paint14_linear_110_1059)"/>
<path d="M13.209 10.6002C11.9079 10.6586 10.6068 10.8129 9.47667 11.3925C8.90953 11.6886 8.40911 12.0973 7.98375 12.5852C7.6418 12.973 7.36657 13.4109 7.11636 13.8821C7.10802 13.903 7.08717 13.9155 7.07049 13.9155C7.0413 13.9155 7.02462 13.8946 7.02045 13.8696V13.8654C7.02045 13.8529 7.39576 12.8187 7.70435 12.3683C8.09218 11.7929 8.6343 11.3133 9.25148 10.9713C9.86449 10.6294 10.5359 10.4084 11.2156 10.2958C11.8495 10.1832 12.4875 10.1498 13.1172 10.1748C13.1089 10.204 13.0964 10.2332 13.088 10.2582C13.0838 10.2666 13.0797 10.2708 13.0797 10.2749C13.0296 10.4125 13.0964 10.546 13.209 10.6002Z" fill="#EDA600"/>
<defs>
<radialGradient id="paint0_radial_110_1059" cx="0" cy="0" r="1" gradientUnits="userSpaceOnUse" gradientTransform="translate(31.034 32.7631) scale(9.76608 4.7971)">
<stop offset="0.7275" stop-color="#6D4C41" stop-opacity="0"/>
<stop offset="1" stop-color="#6D4C41"/>
</radialGradient>
<radialGradient id="paint1_radial_110_1059" cx="0" cy="0" r="1" gradientUnits="userSpaceOnUse" gradientTransform="translate(40.6539 31.3104) rotate(154.924) scale(2.88597 2.14098)">
<stop offset="0.6628" stop-color="#6D4C41"/>
<stop offset="1" stop-color="#6D4C41" stop-opacity="0"/>
</radialGradient>
<radialGradient id="paint2_radial_110_1059" cx="0" cy="0" r="1" gradientUnits="userSpaceOnUse" gradientTransform="translate(33.1741 23.1478) rotate(-94.2783) scale(12.6768 10.5653)">
<stop offset="0.7247" stop-color="#6D4C41" stop-opacity="0"/>
<stop offset="1" stop-color="#6D4C41"/>
</radialGradient>
<radialGradient id="paint3_radial_110_1059" cx="0" cy="0" r="1" gradientUnits="userSpaceOnUse" gradientTransform="translate(16.741 23.1475) rotate(-85.7217) scale(12.6768 10.5653)">
<stop offset="0.7247" stop-color="#6D4C41" stop-opacity="0"/>
<stop offset="1" stop-color="#6D4C41"/>
</radialGradient>
<radialGradient id="paint4_radial_110_1059" cx="0" cy="0" r="1" gradientUnits="userSpaceOnUse" gradientTransform="translate(18.8807 32.7629) rotate(180) scale(9.76608 4.7971)">
<stop offset="0.7275" stop-color="#6D4C41" stop-opacity="0"/>
<stop offset="1" stop-color="#6D4C41"/>
</radialGradient>
<radialGradient id="paint5_radial_110_1059" cx="0" cy="0" r="1" gradientUnits="userSpaceOnUse" gradientTransform="translate(9.26176 31.3108) rotate(25.0761) scale(2.88597 2.14098)">
<stop offset="0.6628" stop-color="#6D4C41"/>
<stop offset="1" stop-color="#6D4C41" stop-opacity="0"/>
</radialGradient>
<linearGradient id="paint6_linear_110_1059" x1="23.3671" y1="33.3863" x2="23.3671" y2="47.1211" gradientUnits="userSpaceOnUse">
<stop stop-color="#F78C1F"/>
<stop offset="0.4936" stop-color="#F37F20"/>
<stop offset="1" stop-color="#ED6D23"/>
</linearGradient>
<radialGradient id="paint7_radial_110_1059" cx="0" cy="0" r="1" gradientUnits="userSpaceOnUse" gradientTransform="translate(32.6398 16.483) rotate(72.9338) scale(14.7543 11.0772)">
<stop offset="0.6985" stop-color="#6D4C41" stop-opacity="0"/>
<stop offset="1" stop-color="#6D4C41"/>
</radialGradient>
<radialGradient id="paint8_radial_110_1059" cx="0" cy="0" r="1" gradientUnits="userSpaceOnUse" gradientTransform="translate(18.4313 0.319537) rotate(28.3598) scale(3.86642 4.64397)">
<stop offset="0.58" stop-color="#6D4C41"/>
<stop offset="1" stop-color="#6D4C41" stop-opacity="0"/>
</radialGradient>
<radialGradient id="paint9_radial_110_1059" cx="0" cy="0" r="1" gradientUnits="userSpaceOnUse" gradientTransform="translate(27.0175 7.38416) rotate(-157.095) scale(12.1065 6.87557)">
<stop offset="0.6985" stop-color="#6D4C41" stop-opacity="0"/>
<stop offset="1" stop-color="#6D4C41"/>
</radialGradient>
<radialGradient id="paint10_radial_110_1059" cx="0" cy="0" r="1" gradientUnits="userSpaceOnUse" gradientTransform="translate(16.8055 3.8663) scale(3.57611 4.36393)">
<stop offset="0.7016" stop-color="#6D4C41" stop-opacity="0"/>
<stop offset="1" stop-color="#6D4C41"/>
</radialGradient>
<radialGradient id="paint11_radial_110_1059" cx="0" cy="0" r="1" gradientUnits="userSpaceOnUse" gradientTransform="translate(16.2065 10.1638) rotate(-164.908) scale(6.67708 6.28926)">
<stop offset="0.6605" stop-color="#6D4C41" stop-opacity="0"/>
<stop offset="1" stop-color="#6D4C41"/>
</radialGradient>
<radialGradient id="paint12_radial_110_1059" cx="0" cy="0" r="1" gradientUnits="userSpaceOnUse" gradientTransform="translate(14.5043 16.6253) rotate(7.83526) scale(7.02475 9.89459)">
<stop offset="0.5981" stop-color="#6D4C41" stop-opacity="0"/>
<stop offset="1" stop-color="#6D4C41"/>
</radialGradient>
<linearGradient id="paint13_linear_110_1059" x1="11.8373" y1="2.44141" x2="8.51689" y2="16.7447" gradientUnits="userSpaceOnUse">
<stop offset="0.5" stop-color="#FFCA28"/>
<stop offset="1" stop-color="#FFB300"/>
</linearGradient>
<linearGradient id="paint14_linear_110_1059" x1="5.59377" y1="32.8825" x2="5.59377" y2="63.3241" gradientUnits="userSpaceOnUse">
<stop offset="0.0015" stop-color="#F78C1F"/>
<stop offset="0.4943" stop-color="#F37F20"/>
<stop offset="1" stop-color="#ED6D23"/>
</linearGradient>
</defs>
</svg>
