<svg width="50" height="50" viewBox="0 0 50 50" fill="none" xmlns="http://www.w3.org/2000/svg">
<path d="M28.0625 11.7292C30.3083 11.7292 32.1458 9.89167 32.1458 7.64583C32.1458 5.4 30.3083 3.5625 28.0625 3.5625C25.8167 3.5625 23.9792 5.4 23.9792 7.64583C23.9792 9.89167 25.8167 11.7292 28.0625 11.7292ZM20.5083 18.6708L15.2817 45.0288C15.0163 46.2742 15.9963 47.4583 17.2825 47.4583H17.4458C18.4054 47.4583 19.2221 46.805 19.4467 45.8658L22.7542 31.125L27.0417 35.2083V45.4167C27.0417 46.5396 27.9604 47.4583 29.0833 47.4583C30.2063 47.4583 31.125 46.5396 31.125 45.4167V33.9017C31.125 32.7788 30.6758 31.7171 29.8592 30.9412L26.8375 28.0625L28.0625 21.9375C30.3633 24.5678 33.513 26.3088 36.9642 26.8579C38.1892 27.0417 39.2917 26.0617 39.2917 24.8162C39.2917 23.8158 38.5567 22.9788 37.5563 22.8154C34.4529 22.305 31.8804 20.4675 30.5125 18.0583L28.4708 14.7917C27.9195 13.91 27.0723 13.2533 26.0811 12.9391C25.0898 12.6249 24.019 12.6736 23.0604 13.0767L15.2408 16.3842C14.5012 16.7003 13.8707 17.2269 13.4279 17.8984C12.985 18.57 12.7493 19.3568 12.75 20.1613V25C12.75 26.1229 13.6688 27.0417 14.7917 27.0417C15.9146 27.0417 16.8333 26.1229 16.8333 25V20.1L20.5083 18.6708Z" fill="#7A4504"/>
</svg>
