<svg width="42" height="43" viewBox="0 0 42 43" fill="none" xmlns="http://www.w3.org/2000/svg">
<g clip-path="url(#clip0_93_618)">
<path d="M0.897974 21.2485C0.896989 24.7773 1.82616 28.223 3.59296 31.26L0.729004 41.6366L11.4302 38.8522C14.39 40.4512 17.7063 41.289 21.0762 41.2892H21.0851C32.21 41.2892 41.266 32.3059 41.2708 21.2643C41.2729 15.9139 39.175 10.8827 35.3635 7.09745C31.5527 3.31256 26.4844 1.22705 21.0843 1.22461C9.95804 1.22461 0.902731 10.2074 0.898138 21.2485" fill="url(#paint0_linear_93_618)"/>
<path d="M0.17663 21.2421C0.175482 24.8979 1.13795 28.4668 2.96775 31.6126L0.00109863 42.3611L11.086 39.477C14.1403 41.1295 17.579 42.0007 21.0782 42.002H21.0872C32.6113 42.002 41.9926 32.6956 41.9975 21.2587C41.9994 15.716 39.8261 10.504 35.8785 6.58316C31.9303 2.66284 26.6808 0.502279 21.0872 0.5C9.56118 0.5 0.181224 9.80512 0.17663 21.2421ZM6.77794 31.0708L6.36404 30.4188C4.62415 27.6735 3.7058 24.501 3.70711 21.2434C3.71089 11.7373 11.5071 4.00326 21.0938 4.00326C25.7363 4.00521 30.0994 5.80112 33.381 9.05954C36.6625 12.3183 38.4681 16.6501 38.467 21.2574C38.4627 30.7636 30.6663 38.4986 21.0872 38.4986H21.0803C17.9613 38.497 14.9023 37.6658 12.2345 36.095L11.5996 35.7214L5.02163 37.4328L6.77794 31.0706V31.0708Z" fill="url(#paint1_linear_93_618)"/>
<path d="M15.8617 12.5705C15.4703 11.7072 15.0584 11.6898 14.6862 11.6747C14.3814 11.6616 14.0329 11.6626 13.6848 11.6626C13.3364 11.6626 12.7702 11.7927 12.2917 12.3112C11.8127 12.8301 10.4629 14.0843 10.4629 16.6351C10.4629 19.186 12.3352 21.6511 12.5962 21.9974C12.8575 22.343 16.2107 27.745 21.5212 29.8232C25.9348 31.5503 26.833 31.2068 27.7908 31.1202C28.7489 31.0339 30.8822 29.8664 31.3174 28.6557C31.7529 27.4452 31.7529 26.4075 31.6223 26.1907C31.4918 25.9747 31.1433 25.8449 30.6208 25.5858C30.0982 25.3265 27.5295 24.0722 27.0506 23.8991C26.5716 23.7262 26.2233 23.6399 25.8749 24.1591C25.5265 24.6774 24.5259 25.8449 24.221 26.1907C23.9163 26.5373 23.6114 26.5804 23.089 26.3211C22.5662 26.061 20.8836 25.5142 18.8873 23.748C17.3341 22.3738 16.2855 20.6767 15.9807 20.1575C15.6759 19.6392 15.948 19.3582 16.21 19.0999C16.4448 18.8676 16.7327 18.4945 16.9942 18.1918C17.2547 17.889 17.3416 17.673 17.5158 17.3272C17.6902 16.9812 17.6029 16.6784 17.4725 16.419C17.3416 16.1597 16.3263 13.5956 15.8617 12.5705Z" fill="white"/>
</g>
<defs>
<linearGradient id="paint0_linear_93_618" x1="2027.82" y1="4042.42" x2="2027.82" y2="1.22461" gradientUnits="userSpaceOnUse">
<stop stop-color="#1FAF38"/>
<stop offset="1" stop-color="#60D669"/>
</linearGradient>
<linearGradient id="paint1_linear_93_618" x1="2099.82" y1="4186.61" x2="2099.82" y2="0.5" gradientUnits="userSpaceOnUse">
<stop stop-color="#F9F9F9"/>
<stop offset="1" stop-color="white"/>
</linearGradient>
<clipPath id="clip0_93_618">
<rect width="42" height="42" fill="white" transform="translate(0 0.5)"/>
</clipPath>
</defs>
</svg>
