<svg width="20" height="21" viewBox="0 0 20 21" fill="none" xmlns="http://www.w3.org/2000/svg">
<g clip-path="url(#clip0_93_618)">
<path d="M0.42763 10.3804C0.427161 12.0608 0.869623 13.7016 1.71096 15.1478L0.347168 20.089L5.44298 18.7631C6.85241 19.5245 8.43158 19.9235 10.0363 19.9236H10.0406C15.3381 19.9236 19.6505 15.6458 19.6528 10.3879C19.6538 7.8401 18.6548 5.44428 16.8398 3.6418C15.0251 1.83948 12.6117 0.846378 10.0402 0.845215C4.74195 0.845215 0.429895 5.12273 0.427708 10.3804" fill="url(#paint0_linear_93_618)"/>
<path d="M0.0845631 10.3772C0.0840163 12.1181 0.542336 13.8175 1.41367 15.3155L0.000976562 20.4339L5.27951 19.0605C6.73391 19.8474 8.37143 20.2622 10.0377 20.2629H10.042C15.5296 20.2629 19.9969 15.8312 19.9993 10.3851C20.0002 7.74574 18.9653 5.2638 17.0854 3.39674C15.2054 1.52992 12.7056 0.501085 10.042 0.5C4.5534 0.5 0.0867504 4.93101 0.0845631 10.3772ZM3.22804 15.0575L3.03095 14.7471C2.20243 13.4398 1.76512 11.9291 1.76575 10.3778C1.76754 5.85109 5.48004 2.16822 10.0451 2.16822C12.2559 2.16915 14.3335 3.02434 15.8962 4.57597C17.4588 6.12775 18.3186 8.19054 18.3181 10.3845C18.316 14.9112 14.6035 18.5946 10.042 18.5946H10.0387C8.55344 18.5938 7.09677 18.198 5.82641 17.45L5.5241 17.2721L2.39171 18.0871L3.22804 15.0574V15.0575Z" fill="url(#paint1_linear_93_618)"/>
<path d="M7.55329 6.24776C7.3669 5.83668 7.17075 5.82838 6.9935 5.82117C6.84836 5.81497 6.68243 5.81544 6.51666 5.81544C6.35074 5.81544 6.08116 5.87738 5.85328 6.12427C5.62518 6.37141 4.98242 6.96862 4.98242 8.18327C4.98242 9.398 5.87399 10.5719 5.99827 10.7368C6.12271 10.9013 7.71945 13.4737 10.2483 14.4633C12.35 15.2857 12.7777 15.1222 13.2338 15.0809C13.69 15.0399 14.7059 14.4839 14.9131 13.9074C15.1205 13.3309 15.1205 12.8368 15.0584 12.7336C14.9962 12.6307 14.8302 12.5689 14.5814 12.4455C14.3326 12.322 13.1094 11.7247 12.8814 11.6423C12.6532 11.56 12.4874 11.5189 12.3215 11.7661C12.1556 12.013 11.6791 12.5689 11.5339 12.7336C11.3888 12.8986 11.2436 12.9192 10.9949 12.7957C10.7459 12.6718 9.94465 12.4114 8.99403 11.5704C8.25441 10.916 7.75507 10.1078 7.60993 9.86063C7.46479 9.61381 7.59438 9.48001 7.71914 9.35699C7.83093 9.24637 7.96802 9.06869 8.09255 8.92459C8.2166 8.7804 8.258 8.67753 8.34096 8.51288C8.424 8.34807 8.38244 8.20389 8.32034 8.0804C8.258 7.95691 7.77453 6.7359 7.55329 6.24776Z" fill="white"/>
</g>
<defs>
<linearGradient id="paint0_linear_93_618" x1="965.628" y1="1925.23" x2="965.628" y2="0.845215" gradientUnits="userSpaceOnUse">
<stop stop-color="#1FAF38"/>
<stop offset="1" stop-color="#60D669"/>
</linearGradient>
<linearGradient id="paint1_linear_93_618" x1="999.915" y1="1993.89" x2="999.915" y2="0.5" gradientUnits="userSpaceOnUse">
<stop stop-color="#F9F9F9"/>
<stop offset="1" stop-color="white"/>
</linearGradient>
<clipPath id="clip0_93_618">
<rect width="20" height="20" fill="white" transform="translate(0 0.5)"/>
</clipPath>
</defs>
</svg>
